<?xml version="1.0" encoding="utf-8"?>
<!-- Generator: Adobe Illustrator 27.0.0, SVG Export Plug-In . SVG Version: 6.00 Build 0)  -->
<svg version="1.1" id="Layer_1" xmlns="http://www.w3.org/2000/svg" xmlns:xlink="http://www.w3.org/1999/xlink" x="0px" y="0px"
	 viewBox="0 0 50.17 140.59" style="enable-background:new 0 0 50.17 140.59;" xml:space="preserve">
<style type="text/css">
	.st0{fill:none;}
	.st1{fill-rule:evenodd;clip-rule:evenodd;fill:#7F7F7F;}
</style>
<g>
	<g>
		<g>
			<g>
				<g>
					<g>
						<path class="st0" d="M32.58,22.63c-0.04-6.5-2.37-13.03-6.48-17.9l-11.61,9.5c2.05,2.41,3.02,5.4,3.09,8.41L32.58,22.63z"/>
					</g>
					<path class="st1" d="M21.94,12.78l1.31-0.74c-0.46-0.8-0.97-1.57-1.51-2.32l-1.21,0.89C21.03,11.31,21.51,12.03,21.94,12.78z"
						/>
					<path class="st1" d="M23.73,17.04l1.44-0.42c-0.2-0.91-0.62-1.74-0.94-2.61l-1.37,0.6C23.15,15.42,23.54,16.19,23.73,17.04z"/>
					<path class="st1" d="M24.5,21.57l1.5-0.08c-0.03-0.46-0.03-0.93-0.1-1.38l-0.22-1.37l-1.48,0.27l0.21,1.27
						C24.47,20.71,24.46,21.14,24.5,21.57z"/>
				</g>
			</g>
			<g>
				<g>
					<g>
						<path class="st0" d="M26.1,4.72c-2.03-2.46-4.4-4.6-7.05-6.29c-2.65-1.68-5.54-2.96-8.53-3.82L6.48,9.05
							c1.58,0.47,3.08,1.13,4.46,1.99c1.37,0.87,2.55,1.97,3.56,3.18L26.1,4.72z"/>
					</g>
					<path class="st1" d="M11.75,3.59l0.62-1.37c-0.42-0.18-0.83-0.39-1.26-0.55l-1.3-0.45L9.34,2.65l1.23,0.42
						C10.97,3.23,11.36,3.42,11.75,3.59z"/>
					<path class="st1" d="M15.77,5.92l0.88-1.21l-1.13-0.79c-0.38-0.26-0.79-0.46-1.19-0.7l-0.74,1.3c0.37,0.22,0.76,0.41,1.12,0.65
						L15.77,5.92z"/>
					<path class="st1" d="M19.21,9l1.11-1.01c-0.66-0.65-1.25-1.36-1.98-1.93l-0.99,1.13C18.04,7.72,18.59,8.39,19.21,9z"/>
				</g>
			</g>
			<g>
				<g>
					<g>
						<rect x="-6.41" y="8.41" class="st0" width="15" height="13.79"/>
					</g>
					<rect x="0.12" y="18.61" class="st1" width="1.5" height="2.56"/>
					<rect x="0.12" y="14.03" class="st1" width="1.5" height="2.56"/>
					<rect x="0.12" y="9.45" class="st1" width="1.5" height="2.56"/>
				</g>
			</g>
			<g>
				<g>
					<g>
						<rect x="-6.41" y="22.19" class="st0" width="15" height="13.79"/>
					</g>
					<rect x="0.12" y="32.4" class="st1" width="1.5" height="2.56"/>
					<rect x="0.12" y="27.81" class="st1" width="1.5" height="2.56"/>
					<rect x="0.12" y="23.24" class="st1" width="1.5" height="2.56"/>
				</g>
			</g>
			<g>
				<g>
					<g>
						<rect x="-6.41" y="35.98" class="st0" width="15" height="13.79"/>
					</g>
					<rect x="0.12" y="46.19" class="st1" width="1.5" height="2.56"/>
					<rect x="0.12" y="41.6" class="st1" width="1.5" height="2.56"/>
					<rect x="0.12" y="37.02" class="st1" width="1.5" height="2.56"/>
				</g>
			</g>
			<g>
				<g>
					<g>
						<rect x="-6.41" y="49.77" class="st0" width="15" height="13.79"/>
					</g>
					<rect x="0.12" y="59.97" class="st1" width="1.5" height="2.56"/>
					<rect x="0.12" y="55.38" class="st1" width="1.5" height="2.56"/>
					<rect x="0.12" y="50.81" class="st1" width="1.5" height="2.56"/>
				</g>
			</g>
			<g>
				<g>
					<g>
						<rect x="-6.41" y="63.55" class="st0" width="15" height="13.79"/>
					</g>
					<rect x="0.12" y="73.76" class="st1" width="1.5" height="2.56"/>
					<rect x="0.12" y="69.17" class="st1" width="1.5" height="2.56"/>
					<rect x="0.12" y="64.6" class="st1" width="1.5" height="2.56"/>
				</g>
			</g>
			<g>
				<g>
					<g>
						<rect x="-6.41" y="77.34" class="st0" width="15" height="13.79"/>
					</g>
					<rect x="0.12" y="87.55" class="st1" width="1.5" height="2.56"/>
					<rect x="0.12" y="82.96" class="st1" width="1.5" height="2.56"/>
					<rect x="0.12" y="78.38" class="st1" width="1.5" height="2.56"/>
				</g>
			</g>
			<g>
				<g>
					<g>
						<rect x="-6.41" y="91.12" class="st0" width="15" height="13.79"/>
					</g>
					<rect x="0.12" y="101.33" class="st1" width="1.5" height="2.56"/>
					<rect x="0.12" y="96.74" class="st1" width="1.5" height="2.56"/>
					<rect x="0.12" y="92.17" class="st1" width="1.5" height="2.56"/>
				</g>
			</g>
			<g>
				<g>
					<g>
						<rect x="-6.41" y="104.91" class="st0" width="15" height="13.79"/>
					</g>
					<rect x="0.12" y="115.12" class="st1" width="1.5" height="2.56"/>
					<rect x="0.12" y="110.53" class="st1" width="1.5" height="2.56"/>
					<rect x="0.12" y="105.96" class="st1" width="1.5" height="2.56"/>
				</g>
			</g>
			<g>
				<g>
					<g>
						<rect x="-6.41" y="118.7" class="st0" width="15" height="13.79"/>
					</g>
					<rect x="0.12" y="128.91" class="st1" width="1.5" height="2.56"/>
					<rect x="0.12" y="124.32" class="st1" width="1.5" height="2.56"/>
					<rect x="0.12" y="119.74" class="st1" width="1.5" height="2.56"/>
				</g>
			</g>
			<g>
				<g>
					<g>
						<path class="st0" d="M9.64,146.81c2.63-0.28,5.19-1.02,7.77-1.63c2.51-0.86,5.06-1.61,7.45-2.78l-6.13-13.69
							c-1.75,0.89-3.65,1.4-5.49,2.07c-1.92,0.41-3.8,1.01-5.76,1.19L9.64,146.81z"/>
					</g>
					<path class="st1" d="M18.29,136.41l0.51,1.41l1.24-0.42c0.4-0.16,0.8-0.35,1.2-0.53l-0.58-1.38c-0.39,0.17-0.77,0.36-1.16,0.51
						L18.29,136.41z"/>
					<polygon class="st1" points="13.94,137.76 14.32,139.22 15.59,138.91 16.83,138.49 16.38,137.06 15.18,137.47 					"/>
					<path class="st1" d="M9.5,138.72l0.25,1.48c0.43-0.07,0.87-0.11,1.29-0.19l1.27-0.3l-0.32-1.47l-1.24,0.3
						C10.34,138.61,9.92,138.65,9.5,138.72z"/>
				</g>
			</g>
			<g>
				<g>
					<g>
						<path class="st0" d="M24.85,142.4c2.46-1,4.74-2.4,7.05-3.71c2.19-1.52,4.43-2.97,6.41-4.78l-9.74-11.4
							c-1.42,1.33-3.08,2.35-4.66,3.49c-1.71,0.93-3.36,1.99-5.18,2.71L24.85,142.4z"/>
					</g>
					<path class="st1" d="M30.32,130.01l0.89,1.21c0.36-0.25,0.72-0.49,1.07-0.76l1-0.85l-0.95-1.16l-0.97,0.82
						C31.02,129.53,30.67,129.77,30.32,130.01z"/>
					<polygon class="st1" points="26.52,132.52 27.29,133.81 28.43,133.16 29.5,132.41 28.67,131.16 27.63,131.89 					"/>
					<polygon class="st1" points="22.52,134.65 23.16,136 24.35,135.46 25.49,134.82 24.78,133.5 23.68,134.12 					"/>
				</g>
			</g>
			<g>
				<g>
					<g>
						<path class="st0" d="M38.31,133.91l1.52-1.3c0.51-0.43,0.95-0.94,1.43-1.41c0.92-0.97,1.9-1.89,2.77-2.91l2.52-3.14
							c0.83-1.05,1.51-2.23,2.26-3.35l-12.7-7.98c-0.55,0.79-1,1.64-1.6,2.38l-1.8,2.25c-0.62,0.73-1.34,1.39-2,2.09
							c-0.35,0.34-0.65,0.72-1.03,1.02l-1.11,0.94L38.31,133.91z"/>
					</g>
					<path class="st1" d="M40.03,120.46l1.2,0.9c0.58-0.66,0.99-1.44,1.49-2.16l-1.25-0.83C40.99,119.06,40.59,119.82,40.03,120.46z
						"/>
					<path class="st1" d="M37.12,123.95l1.1,1.01c0.64-0.6,1.15-1.31,1.7-1.99l-1.16-0.95C38.23,122.68,37.74,123.37,37.12,123.95z"
						/>
					<path class="st1" d="M33.89,127.13l1,1.12c0.69-0.54,1.29-1.17,1.9-1.8l-1.06-1.06C35.14,125.99,34.55,126.61,33.89,127.13z"/>
				</g>
			</g>
			<g>
				<g>
					<g>
						<path class="st0" d="M48.82,121.8c0.36-0.57,0.75-1.12,1.08-1.71l0.94-1.8c0.6-1.21,1.3-2.37,1.75-3.66l1.47-3.79l1.09-3.93
							l-14.57-3.54l-0.75,2.74l-1.04,2.65c-0.29,0.91-0.82,1.71-1.24,2.57l-0.65,1.27c-0.23,0.42-0.52,0.8-0.77,1.21L48.82,121.8z"
							/>
					</g>
					<path class="st1" d="M46.39,108.43l1.42,0.48c0.25-0.84,0.47-1.69,0.71-2.53l-1.45-0.39C46.84,106.8,46.63,107.62,46.39,108.43
						z"/>
					<path class="st1" d="M44.7,112.65l1.36,0.63c0.37-0.79,0.66-1.62,0.99-2.43l-1.4-0.54C45.33,111.08,45.06,111.89,44.7,112.65z"
						/>
					<path class="st1" d="M42.58,116.65l1.29,0.77c0.48-0.73,0.83-1.54,1.25-2.31l-1.33-0.69
						C43.38,115.16,43.05,115.95,42.58,116.65z"/>
				</g>
			</g>
			<g>
				<g>
					<g>
						<path class="st0" d="M55.14,106.91l0.26-0.98c0.08-0.33,0.12-0.67,0.18-1l0.33-2.01l0.32-2.01c0.1-0.67,0.1-1.35,0.15-2.03
							c0.07-1.33,0.16-2.77,0.19-4.01V91.4h-15v3.46c-0.03,1.06-0.11,1.93-0.15,2.9c-0.04,0.47-0.02,0.95-0.09,1.42l-0.24,1.4
							l-0.22,1.4c-0.04,0.23-0.06,0.47-0.12,0.7l-0.19,0.68L55.14,106.91z"/>
					</g>
					<rect x="48.55" y="92.43" class="st1" width="1.5" height="2.57"/>
					<polygon class="st1" points="48.32,99.54 49.81,99.69 49.95,97.07 48.45,97.01 					"/>
					<polygon class="st1" points="47.6,104.01 49.07,104.33 49.49,101.74 48.01,101.51 					"/>
				</g>
			</g>
			<g>
				<g>
					<g>
						<rect x="41.58" y="77.57" class="st0" width="15" height="13.83"/>
					</g>
					<rect x="48.55" y="78.59" class="st1" width="1.5" height="2.57"/>
					<rect x="48.55" y="83.2" class="st1" width="1.5" height="2.57"/>
					<rect x="48.55" y="87.79" class="st1" width="1.5" height="2.57"/>
				</g>
			</g>
			<g>
				<g>
					<g>
						<rect x="41.58" y="63.74" class="st0" width="15" height="13.83"/>
					</g>
					<rect x="48.55" y="64.76" class="st1" width="1.5" height="2.57"/>
					<rect x="48.55" y="69.37" class="st1" width="1.5" height="2.57"/>
					<rect x="48.55" y="73.96" class="st1" width="1.5" height="2.57"/>
				</g>
			</g>
			<g>
				<g>
					<g>
						<rect x="41.58" y="49.91" class="st0" width="15" height="13.83"/>
					</g>
					<rect x="48.55" y="50.93" class="st1" width="1.5" height="2.57"/>
					<rect x="48.55" y="55.53" class="st1" width="1.5" height="2.57"/>
					<rect x="48.55" y="60.12" class="st1" width="1.5" height="2.57"/>
				</g>
			</g>
			<g>
				<g>
					<g>
						<rect x="41.58" y="36.07" class="st0" width="15" height="13.83"/>
					</g>
					<rect x="48.55" y="37.09" class="st1" width="1.5" height="2.57"/>
					<rect x="48.55" y="41.7" class="st1" width="1.5" height="2.57"/>
					<rect x="48.55" y="46.29" class="st1" width="1.5" height="2.57"/>
				</g>
			</g>
			<g>
				<g>
					<g>
						<rect x="41.58" y="22.24" class="st0" width="15" height="13.83"/>
					</g>
					<rect x="48.55" y="23.26" class="st1" width="1.5" height="2.57"/>
					<rect x="48.55" y="27.87" class="st1" width="1.5" height="2.57"/>
					<rect x="48.55" y="32.46" class="st1" width="1.5" height="2.57"/>
				</g>
			</g>
			<g>
				<g>
					<g>
						<rect x="41.58" y="8.41" class="st0" width="15" height="13.83"/>
					</g>
					<rect x="48.55" y="9.43" class="st1" width="1.5" height="2.57"/>
					<rect x="48.55" y="14.03" class="st1" width="1.5" height="2.57"/>
					<rect x="48.55" y="18.62" class="st1" width="1.5" height="2.57"/>
				</g>
			</g>
			<g>
				<g>
					<g>
						<path class="st0" d="M39.65-5.39c-2.99,0.86-5.87,2.14-8.53,3.82c-2.65,1.69-5.03,3.83-7.05,6.29l11.61,9.5
							c1-1.2,2.19-2.31,3.56-3.18c1.37-0.86,2.88-1.53,4.46-1.99L39.65-5.39z"/>
					</g>
					<path class="st1" d="M32.79,7.21L31.8,6.08c-0.73,0.57-1.32,1.29-1.98,1.93l1.11,1C31.56,8.42,32.1,7.74,32.79,7.21z"/>
					<path class="st1" d="M36.57,4.53l-0.74-1.31c-0.4,0.23-0.81,0.44-1.19,0.7l-1.13,0.79l0.88,1.21l1.06-0.74
						C35.81,4.94,36.2,4.75,36.57,4.53z"/>
					<path class="st1" d="M40.8,2.66l-0.47-1.43l-1.3,0.45c-0.43,0.17-0.84,0.37-1.26,0.56l0.62,1.36c0.4-0.17,0.78-0.36,1.18-0.52
						L40.8,2.66z"/>
				</g>
			</g>
			<g>
				<g>
					<g>
						<path class="st0" d="M24.07,4.72c-4.11,4.88-6.44,11.41-6.48,17.9h15c0.07-3.01,1.04-5.99,3.09-8.41L24.07,4.72z"/>
					</g>
					<path class="st1" d="M25.97,19.04l-1.48-0.27l-0.22,1.37c-0.06,0.46-0.06,0.92-0.09,1.38l1.5,0.08
						c0.03-0.43,0.03-0.86,0.09-1.29L25.97,19.04z"/>
					<path class="st1" d="M27.31,14.62l-1.37-0.6c-0.32,0.87-0.73,1.7-0.94,2.61l1.44,0.42C26.62,16.2,27.01,15.43,27.31,14.62z"/>
					<path class="st1" d="M29.62,10.63l-1.21-0.89c-0.53,0.75-1.04,1.52-1.5,2.32l1.31,0.74C28.65,12.05,29.13,11.33,29.62,10.63z"
						/>
				</g>
			</g>
			<g>
				<polygon class="st1" points="7.65,0.97 7.3,2.43 6.72,2.29 6.42,2.22 6.35,2.2 6.27,2.19 6.13,2.17 4.93,2 5.12,0.51 6.39,0.69 
					6.55,0.71 6.63,0.72 6.71,0.74 7.02,0.82 				"/>
				<path class="st1" d="M0.55,0.27H1.8l1.28,0.06l-0.07,1.5L2.05,1.79v0.06v0.03l0,0l0,0l0,0l0,0c0.01-0.01,0.01-0.01,0.01-0.01
					l0,0v0.01V1.9v0.12v0.25v0.5h-1.5L0.55,0.27L0.55,0.27z"/>
				<rect x="0.55" y="4.77" class="st1" width="1.5" height="2.5"/>
			</g>
			<g>
				<rect x="0.45" y="133.51" class="st1" width="1.51" height="2.5"/>
				<path class="st1" d="M0.45,140.52v-2.5h1.51v1h0.06h0.03l0,0l0,0l0,0l0,0c-0.02-0.04-0.02-0.04-0.02-0.05l0,0h0.01h0.02
					l0.12-0.01l0.24-0.01l0.49-0.02l0.05,1.5l-1.26,0.06l-0.63,0.03H0.45z"/>
				<polygon class="st1" points="4.98,140.33 4.87,138.84 5.49,138.81 5.79,138.79 5.87,138.79 5.91,138.79 5.94,138.78 6.1,138.76 
					7.31,138.59 7.49,140.08 6.24,140.25 6.09,140.28 6.05,140.28 6.01,140.28 5.93,140.29 5.61,140.3 				"/>
			</g>
			<g>
				<rect x="48.21" y="4.87" class="st1" width="1.51" height="2.5"/>
				<path class="st1" d="M49.72,0.37v2.5h-1.51v-1h-0.06h-0.03l0,0l0,0l0,0l0,0c0.01,0.01,0.01,0.01,0.01,0.01l0,0h-0.01h-0.01
					l-0.12,0.01L47.74,1.9l-0.48,0.02l-0.07-1.5l1.27-0.05L49.72,0.37z"/>
				<polygon class="st1" points="45.16,0.6 45.35,2.09 44.16,2.25 43.86,2.3 43.57,2.37 42.99,2.51 42.65,1.04 43.27,0.9 
					43.58,0.82 43.9,0.78 				"/>
			</g>
		</g>
	</g>
</g>
<g>
	<g>
		<g>
			<g>
				<g>
					<g>
						<rect x="36.99" y="13.57" class="st0" width="12" height="15"/>
					</g>
					<rect x="37.88" y="20.54" class="st1" width="2.23" height="1.5"/>
					<rect x="41.87" y="20.54" class="st1" width="2.23" height="1.5"/>
					<rect x="45.86" y="20.54" class="st1" width="2.23" height="1.5"/>
				</g>
			</g>
			<g>
				<g>
					<g>
						<rect x="24.99" y="13.57" class="st0" width="12" height="15"/>
					</g>
					<rect x="25.88" y="20.54" class="st1" width="2.23" height="1.5"/>
					<rect x="29.88" y="20.54" class="st1" width="2.23" height="1.5"/>
					<rect x="33.86" y="20.54" class="st1" width="2.23" height="1.5"/>
				</g>
			</g>
			<g>
				<g>
					<g>
						<rect x="12.99" y="13.57" class="st0" width="12" height="15"/>
					</g>
					<rect x="13.88" y="20.54" class="st1" width="2.23" height="1.5"/>
					<rect x="17.88" y="20.54" class="st1" width="2.23" height="1.5"/>
					<rect x="21.86" y="20.54" class="st1" width="2.23" height="1.5"/>
				</g>
			</g>
			<g>
				<g>
					<g>
						<rect x="1" y="13.57" class="st0" width="12" height="15"/>
					</g>
					<rect x="1.88" y="20.54" class="st1" width="2.23" height="1.5"/>
					<rect x="5.88" y="20.54" class="st1" width="2.23" height="1.5"/>
					<rect x="9.86" y="20.54" class="st1" width="2.23" height="1.5"/>
				</g>
			</g>
		</g>
	</g>
</g>
<g>
	<g>
		<g>
			<g>
				<g>
					<g>
						<rect x="36.99" y="92.3" class="st0" width="12" height="15"/>
					</g>
					<rect x="37.88" y="99.27" class="st1" width="2.23" height="1.5"/>
					<rect x="41.87" y="99.27" class="st1" width="2.23" height="1.5"/>
					<rect x="45.86" y="99.27" class="st1" width="2.23" height="1.5"/>
				</g>
			</g>
			<g>
				<g>
					<g>
						<rect x="24.99" y="92.3" class="st0" width="12" height="15"/>
					</g>
					<rect x="25.88" y="99.27" class="st1" width="2.23" height="1.5"/>
					<rect x="29.88" y="99.27" class="st1" width="2.23" height="1.5"/>
					<rect x="33.86" y="99.27" class="st1" width="2.23" height="1.5"/>
				</g>
			</g>
			<g>
				<g>
					<g>
						<rect x="12.99" y="92.3" class="st0" width="12" height="15"/>
					</g>
					<rect x="13.88" y="99.27" class="st1" width="2.23" height="1.5"/>
					<rect x="17.88" y="99.27" class="st1" width="2.23" height="1.5"/>
					<rect x="21.86" y="99.27" class="st1" width="2.23" height="1.5"/>
				</g>
			</g>
			<g>
				<g>
					<g>
						<rect x="1" y="92.3" class="st0" width="12" height="15"/>
					</g>
					<rect x="1.88" y="99.27" class="st1" width="2.23" height="1.5"/>
					<rect x="5.88" y="99.27" class="st1" width="2.23" height="1.5"/>
					<rect x="9.86" y="99.27" class="st1" width="2.23" height="1.5"/>
				</g>
			</g>
		</g>
	</g>
</g>
</svg>
