<?xml version="1.0" encoding="utf-8"?>
<!-- Generator: Adobe Illustrator 26.5.0, SVG Export Plug-In . SVG Version: 6.00 Build 0)  -->
<svg version="1.1" id="Layer_1" xmlns="http://www.w3.org/2000/svg" xmlns:xlink="http://www.w3.org/1999/xlink" x="0px" y="0px"
	 viewBox="0 0 33 40" style="enable-background:new 0 0 33 40;" xml:space="preserve">
<style type="text/css">
	.st0{opacity:0.5;}
	.st1{fill-rule:evenodd;clip-rule:evenodd;fill:none;stroke:#FFFFFF;stroke-width:0.75;stroke-miterlimit:10;}
	.st2{fill-rule:evenodd;clip-rule:evenodd;fill:none;}
	.st3{fill:none;stroke:#FFFFFF;stroke-width:0.75;stroke-miterlimit:10;}
	.st4{opacity:0.45;fill-rule:evenodd;clip-rule:evenodd;fill:#FFFFFF;}
	.st5{fill-rule:evenodd;clip-rule:evenodd;fill:#FFCE00;}
	.st6{fill:none;stroke:#FFFFFF;stroke-miterlimit:10;}
	.st7{fill:none;stroke:#FFFFFF;stroke-width:1.0131;stroke-miterlimit:10;}
	.st8{opacity:0.5;fill:none;stroke:#FFFFFF;stroke-linecap:round;stroke-linejoin:round;stroke-miterlimit:10;}
	.st9{fill:none;}
	.st10{fill-rule:evenodd;clip-rule:evenodd;fill:#FFFFFF;}
	.st11{fill:#1000FF;}
	.st12{fill-rule:evenodd;clip-rule:evenodd;fill:#1000FF;}
	.st13{fill:url(#SVGID_1_);}
	.st14{fill:url(#SVGID_00000101812932077087869430000008290520970658510976_);}
	.st15{fill:#FF0000;}
	.st16{fill:url(#SVGID_00000150807356234951605820000010629159113164067233_);}
	.st17{fill:url(#SVGID_00000129908877670233039380000001606900449380710049_);}
	.st18{opacity:0.7;fill-rule:evenodd;clip-rule:evenodd;fill:url(#SVGID_00000139993618679785229010000010854315897866918289_);}
	.st19{fill:#FF8888;}
	.st20{opacity:0.7;fill:#2E2923;}
	.st21{opacity:0.7;}
	.st22{opacity:0.7;fill-rule:evenodd;clip-rule:evenodd;fill:url(#SVGID_00000021807952571316683950000017060616147173148827_);}
	.st23{fill:#FFEFAB;}
	.st24{opacity:0.7;fill:#303030;}
	.st25{fill:#FFFFFF;}
	.st26{opacity:0.7;fill-rule:evenodd;clip-rule:evenodd;fill:url(#SVGID_00000176757360363295867680000000950033323652659080_);}
	.st27{opacity:0.5;fill-rule:evenodd;clip-rule:evenodd;fill:#FFFFFF;}
	.st28{opacity:0.7;fill-rule:evenodd;clip-rule:evenodd;fill:url(#SVGID_00000163048817050075790920000013167611954205428400_);}
	.st29{fill:url(#SVGID_00000183967166654065619670000003441417930216438945_);}
	.st30{fill:url(#SVGID_00000109708077467966480820000017280947666495287215_);}
	.st31{fill:url(#SVGID_00000100367109317183894790000010837634025953810103_);}
	.st32{fill:url(#SVGID_00000021798278061572625800000008054357488865416585_);}
	.st33{fill:url(#SVGID_00000064328366878577338050000004689653409398432140_);}
	.st34{fill:url(#SVGID_00000065062394775845675350000001143413842467192499_);}
	.st35{fill:url(#SVGID_00000001646855076691509380000011925726718930371467_);}
	.st36{fill:url(#SVGID_00000140721203255387051050000001258807197221402547_);}
	.st37{fill:url(#SVGID_00000121243833112117710210000010286664556932396466_);}
	.st38{fill:url(#SVGID_00000029754202221456080180000017045218063802014860_);}
	.st39{opacity:0.3;}
	.st40{fill:#F7D418;}
	.st41{fill:#2E2923;}
	.st42{fill:#29333F;}
	.st43{fill:#B9BBBC;}
	.st44{fill:#FFC200;}
	.st45{fill:url(#SVGID_00000135677093537081994010000002278701466325121438_);}
	.st46{fill:url(#SVGID_00000181772460513350183570000011867182064243998371_);}
	.st47{fill:url(#SVGID_00000087388684100983136360000013384891052431313068_);}
	.st48{fill:url(#SVGID_00000085233279675582899510000017630531333806635930_);}
	.st49{fill:#FFFFFE;}
	.st50{opacity:0.7;fill-rule:evenodd;clip-rule:evenodd;fill:url(#SVGID_00000114048501524676365900000007519242227101520538_);}
	.st51{opacity:0.7;fill-rule:evenodd;clip-rule:evenodd;fill:url(#SVGID_00000002383650078602547660000012892123637209659326_);}
	.st52{opacity:0.7;fill-rule:evenodd;clip-rule:evenodd;fill:url(#SVGID_00000122715077846625390230000005225895168007785875_);}
	.st53{opacity:0.7;fill-rule:evenodd;clip-rule:evenodd;fill:url(#SVGID_00000120558193911879583530000015619182162025190581_);}
	.st54{opacity:0.7;fill-rule:evenodd;clip-rule:evenodd;fill:url(#SVGID_00000102517426259118335700000017269074537481895065_);}
	.st55{opacity:0.7;fill-rule:evenodd;clip-rule:evenodd;fill:url(#SVGID_00000143615467603797154990000004237768583451271040_);}
	.st56{fill-rule:evenodd;clip-rule:evenodd;fill:url(#SVGID_00000088116934166505599810000004254022894700554425_);}
	.st57{fill-rule:evenodd;clip-rule:evenodd;fill:url(#SVGID_00000110466797977594664060000004137671293855870599_);}
	.st58{fill:#FFCE00;}
	.st59{fill:#303030;}
	.st60{fill-rule:evenodd;clip-rule:evenodd;fill:url(#SVGID_00000010288480620341523280000012880394766750213539_);}
	.st61{fill-rule:evenodd;clip-rule:evenodd;fill:url(#SVGID_00000165957301406437266390000002842205751030002612_);}
	.st62{fill-rule:evenodd;clip-rule:evenodd;fill:url(#SVGID_00000174586448378991360040000016173698453429759155_);}
	.st63{fill:url(#SVGID_00000060726149904274084680000012128348815301748147_);}
	.st64{fill:url(#SVGID_00000169545236810088422960000000145985128204103562_);}
	.st65{fill:url(#SVGID_00000107571419708043799870000007852831384329547143_);}
	.st66{fill:url(#SVGID_00000026139880060529474950000003685435671470461344_);}
	.st67{fill-rule:evenodd;clip-rule:evenodd;fill:#FF0000;}
	.st68{fill-rule:evenodd;clip-rule:evenodd;fill:none;stroke:#FF0000;stroke-width:0.75;stroke-miterlimit:10;}
	.st69{fill:none;stroke:#FF0000;stroke-miterlimit:10;}
	.st70{fill:none;stroke:#FFCE00;stroke-width:0.75;stroke-miterlimit:10;}
	.st71{fill:none;stroke:#FFCE00;stroke-miterlimit:10;}
	.st72{fill:url(#SVGID_00000180325650398614407600000016666739572431033527_);}
	.st73{fill:url(#SVGID_00000008871199155398190240000010558990596106122155_);}
	.st74{fill:url(#SVGID_00000001648915546670205880000006683055112325948848_);}
	.st75{fill:url(#SVGID_00000034778985019450416290000018334612457639015831_);}
	.st76{fill:url(#SVGID_00000081634313646972487400000003990850081851181197_);}
	.st77{fill:url(#SVGID_00000177457821422190816170000001022172544775650227_);}
</style>
<g class="st0">
	<path class="st7" d="M19.89,5.04v29.91c0,2.51-2.03,4.54-4.54,4.54h-1.27l0-39h1.27C17.86,0.5,19.89,2.53,19.89,5.04z"/>
	<path class="st7" d="M32.5,20c0,0.19-0.05,0.37-0.16,0.54c-0.12,0.18-1.2,1.73-2.82,1.73c-1.01,0-1.91-0.58-2.67-1.73
		c-0.21-0.32-0.64-0.86-1.06-0.87c-0.47,0-1.02,0.58-1.21,0.87c-0.3,0.44-0.9,0.56-1.34,0.26c-0.44-0.3-0.56-0.9-0.27-1.35
		c0.12-0.18,1.2-1.73,2.82-1.73c1.01,0,1.91,0.58,2.67,1.73c0.21,0.32,0.64,0.86,1.06,0.87c0.47,0,1.02-0.58,1.21-0.87
		c0.3-0.44,0.9-0.56,1.34-0.26C32.35,19.38,32.5,19.69,32.5,20z"/>
	<path class="st7" d="M32.5,10.25c0,0.19-0.05,0.37-0.16,0.54c-0.12,0.18-1.2,1.73-2.82,1.73c-1.01,0-1.91-0.58-2.67-1.73
		c-0.21-0.32-0.64-0.86-1.06-0.87c-0.47,0-1.02,0.58-1.21,0.87c-0.3,0.44-0.9,0.56-1.34,0.26c-0.44-0.3-0.56-0.9-0.27-1.35
		c0.12-0.18,1.2-1.73,2.82-1.73c1.01,0,1.91,0.58,2.67,1.73c0.21,0.32,0.64,0.86,1.06,0.87c0.47,0,1.02-0.58,1.21-0.87
		c0.3-0.44,0.9-0.56,1.34-0.26C32.35,9.63,32.5,9.94,32.5,10.25z"/>
	<path class="st7" d="M32.5,29.75c0,0.19-0.05,0.37-0.16,0.54c-0.12,0.18-1.2,1.73-2.82,1.73c-1.01,0-1.91-0.58-2.67-1.73
		c-0.21-0.32-0.64-0.86-1.06-0.87c-0.47,0-1.02,0.58-1.21,0.87c-0.3,0.44-0.9,0.56-1.34,0.26c-0.44-0.3-0.56-0.9-0.27-1.35
		c0.12-0.18,1.2-1.73,2.82-1.73c1.01,0,1.91,0.58,2.67,1.73c0.21,0.32,0.64,0.86,1.06,0.87c0.47,0,1.02-0.58,1.21-0.87
		c0.3-0.44,0.9-0.56,1.34-0.26C32.35,29.13,32.5,29.44,32.5,29.75z"/>
	<path class="st7" d="M13.11,0.5l-6.79,0C3.1,0.5,0.5,3.12,0.5,6.35l0,27.3c0,3.23,2.6,5.85,5.82,5.85h6.79L13.11,0.5z M3.41,7.33
		c0-1.62,1.3-2.92,2.91-2.92s2.91,1.31,2.91,2.92s-1.3,2.92-2.91,2.92S3.41,8.94,3.41,7.33z"/>
</g>
</svg>
