<?xml version="1.0" encoding="utf-8"?>
<!-- Generator: Adobe Illustrator 26.5.0, SVG Export Plug-In . SVG Version: 6.00 Build 0)  -->
<svg version="1.1" id="Layer_1" xmlns="http://www.w3.org/2000/svg" xmlns:xlink="http://www.w3.org/1999/xlink" x="0px" y="0px"
	 viewBox="0 0 33 40" style="enable-background:new 0 0 33 40;" xml:space="preserve">
<style type="text/css">
	.st0{opacity:0.5;}
	.st1{fill-rule:evenodd;clip-rule:evenodd;fill:none;stroke:#FFFFFF;stroke-width:0.75;stroke-miterlimit:10;}
	.st2{fill-rule:evenodd;clip-rule:evenodd;fill:none;}
	.st3{fill:none;stroke:#FFFFFF;stroke-width:0.75;stroke-miterlimit:10;}
	.st4{opacity:0.45;fill-rule:evenodd;clip-rule:evenodd;fill:#FFFFFF;}
	.st5{fill-rule:evenodd;clip-rule:evenodd;fill:#FFCE00;}
	.st6{fill:none;stroke:#FFFFFF;stroke-miterlimit:10;}
	.st7{fill:none;stroke:#FFFFFF;stroke-width:1.0131;stroke-miterlimit:10;}
	.st8{opacity:0.5;fill:none;stroke:#FFFFFF;stroke-linecap:round;stroke-linejoin:round;stroke-miterlimit:10;}
	.st9{fill:none;}
	.st10{fill-rule:evenodd;clip-rule:evenodd;fill:#FFFFFF;}
	.st11{fill:#1000FF;}
	.st12{fill-rule:evenodd;clip-rule:evenodd;fill:#1000FF;}
	.st13{fill:url(#SVGID_1_);}
	.st14{fill:url(#SVGID_00000058568802482522552010000018270447452093511311_);}
	.st15{fill:#FF0000;}
	.st16{fill:url(#SVGID_00000173136502786778245280000018069098349126111143_);}
	.st17{fill:url(#SVGID_00000111873635620068480560000016946453473417801861_);}
	.st18{opacity:0.7;fill-rule:evenodd;clip-rule:evenodd;fill:url(#SVGID_00000178169387011054876620000000619906606600567460_);}
	.st19{fill:#FF8888;}
	.st20{opacity:0.7;fill:#2E2923;}
	.st21{opacity:0.7;}
	.st22{opacity:0.7;fill-rule:evenodd;clip-rule:evenodd;fill:url(#SVGID_00000067198075814440775750000016051055566866847121_);}
	.st23{fill:#FFEFAB;}
	.st24{opacity:0.7;fill:#303030;}
	.st25{fill:#FFFFFF;}
	.st26{opacity:0.7;fill-rule:evenodd;clip-rule:evenodd;fill:url(#SVGID_00000008870369580646088830000008880352777531605682_);}
	.st27{opacity:0.5;fill-rule:evenodd;clip-rule:evenodd;fill:#FFFFFF;}
	.st28{opacity:0.7;fill-rule:evenodd;clip-rule:evenodd;fill:url(#SVGID_00000085249996689894366000000013467512732245200535_);}
	.st29{fill:url(#SVGID_00000034081669121318102650000014936140339982347925_);}
	.st30{fill:url(#SVGID_00000126302138554661091330000016750698047760419984_);}
	.st31{fill:url(#SVGID_00000124127919325823139460000008215122033768227744_);}
	.st32{fill:url(#SVGID_00000026852780371209766200000016093148489433025681_);}
	.st33{fill:url(#SVGID_00000172398062472810429830000000068009961296805285_);}
	.st34{fill:url(#SVGID_00000150808993606243398970000011000948797936087468_);}
	.st35{fill:url(#SVGID_00000100370634892524873990000005472324544080189352_);}
	.st36{fill:url(#SVGID_00000179641128612078792570000007520169930548239496_);}
	.st37{fill:url(#SVGID_00000155827089141467049540000015897464322921589380_);}
	.st38{fill:url(#SVGID_00000026868705749387194710000009918426067085938337_);}
	.st39{opacity:0.3;}
	.st40{fill:#F7D418;}
	.st41{fill:#2E2923;}
	.st42{fill:#29333F;}
	.st43{fill:#B9BBBC;}
	.st44{fill:#FFC200;}
	.st45{fill:url(#SVGID_00000070112132609817867910000014718632272082423171_);}
	.st46{fill:url(#SVGID_00000005255079546159792440000007126039002825643652_);}
	.st47{fill:url(#SVGID_00000003791713988483520850000012159837615522742704_);}
	.st48{fill:url(#SVGID_00000107588411433475602010000014634735710744362425_);}
	.st49{fill:#FFFFFE;}
	.st50{opacity:0.7;fill-rule:evenodd;clip-rule:evenodd;fill:url(#SVGID_00000108276284308328186640000012768506450298582426_);}
	.st51{opacity:0.7;fill-rule:evenodd;clip-rule:evenodd;fill:url(#SVGID_00000168829185213111625960000007786344831966727859_);}
	.st52{opacity:0.7;fill-rule:evenodd;clip-rule:evenodd;fill:url(#SVGID_00000143619037756944226650000002758623675415225478_);}
	.st53{opacity:0.7;fill-rule:evenodd;clip-rule:evenodd;fill:url(#SVGID_00000098940947007644769690000005345389316326427549_);}
	.st54{opacity:0.7;fill-rule:evenodd;clip-rule:evenodd;fill:url(#SVGID_00000096761025355660703910000010462409258557908364_);}
	.st55{opacity:0.7;fill-rule:evenodd;clip-rule:evenodd;fill:url(#SVGID_00000088093383816346350190000000531079058783409825_);}
	.st56{fill-rule:evenodd;clip-rule:evenodd;fill:url(#SVGID_00000055700573954037755670000011216853557447185065_);}
	.st57{fill-rule:evenodd;clip-rule:evenodd;fill:url(#SVGID_00000053535055318397767010000016674828165140974739_);}
	.st58{fill:#FFCE00;}
	.st59{fill:#303030;}
	.st60{fill-rule:evenodd;clip-rule:evenodd;fill:url(#SVGID_00000177474284465979512770000011892271308195010710_);}
	.st61{fill-rule:evenodd;clip-rule:evenodd;fill:url(#SVGID_00000091705280576353249260000009701676349722826663_);}
	.st62{fill-rule:evenodd;clip-rule:evenodd;fill:url(#SVGID_00000066508583546100267880000009850459332618167732_);}
	.st63{fill:url(#SVGID_00000155114251394237624070000003283230479278309536_);}
	.st64{fill:url(#SVGID_00000095306136016270514210000005033340038452930740_);}
	.st65{fill:url(#SVGID_00000005241618988575779930000005395760564997804196_);}
	.st66{fill:url(#SVGID_00000080179022369268094480000003977818513481377921_);}
	.st67{fill-rule:evenodd;clip-rule:evenodd;fill:#FF0000;}
	.st68{fill-rule:evenodd;clip-rule:evenodd;fill:none;stroke:#FF0000;stroke-width:0.75;stroke-miterlimit:10;}
	.st69{fill:none;stroke:#FF0000;stroke-miterlimit:10;}
	.st70{fill:none;stroke:#FFCE00;stroke-width:0.75;stroke-miterlimit:10;}
	.st71{fill:none;stroke:#FFCE00;stroke-miterlimit:10;}
	.st72{fill:url(#SVGID_00000116938497947494396650000000065434942534454456_);}
	.st73{fill:url(#SVGID_00000070814498795927332590000006791709466206148775_);}
	.st74{fill:url(#SVGID_00000133526296823459136630000017650938761539331992_);}
	.st75{fill:url(#SVGID_00000080208015767832326110000010838519605065927332_);}
	.st76{fill:url(#SVGID_00000106831175118280076380000012210898337031267748_);}
	.st77{fill:url(#SVGID_00000120533077384886158730000000612158456866992055_);}
</style>
<g class="st0">
	<path class="st7" d="M13.11,5.04l0,29.91c0,2.51,2.03,4.54,4.54,4.54h1.27v-39h-1.27C15.14,0.5,13.11,2.53,13.11,5.04z"/>
	<path class="st7" d="M0.5,20c0,0.19,0.05,0.37,0.16,0.54c0.12,0.18,1.2,1.73,2.82,1.73c1.01,0,1.91-0.58,2.67-1.73
		c0.21-0.32,0.64-0.86,1.06-0.87c0.47,0,1.02,0.58,1.21,0.87c0.3,0.44,0.9,0.56,1.34,0.26c0.44-0.3,0.56-0.9,0.27-1.35
		c-0.12-0.18-1.2-1.73-2.82-1.73c-1.01,0-1.91,0.58-2.67,1.73c-0.21,0.32-0.64,0.86-1.06,0.87c-0.47,0-1.02-0.58-1.21-0.87
		c-0.3-0.44-0.9-0.56-1.34-0.26C0.65,19.38,0.5,19.69,0.5,20z"/>
	<path class="st7" d="M0.5,10.25c0,0.19,0.05,0.37,0.16,0.54c0.12,0.18,1.2,1.73,2.82,1.73c1.01,0,1.91-0.58,2.67-1.73
		c0.21-0.32,0.64-0.86,1.06-0.87c0.47,0,1.02,0.58,1.21,0.87c0.3,0.44,0.9,0.56,1.34,0.26c0.44-0.3,0.56-0.9,0.27-1.35
		c-0.12-0.18-1.2-1.73-2.82-1.73c-1.01,0-1.91,0.58-2.67,1.73c-0.21,0.32-0.64,0.86-1.06,0.87c-0.47,0-1.02-0.58-1.21-0.87
		c-0.3-0.44-0.9-0.56-1.34-0.26C0.65,9.63,0.5,9.94,0.5,10.25z"/>
	<path class="st7" d="M0.5,29.75c0,0.19,0.05,0.37,0.16,0.54c0.12,0.18,1.2,1.73,2.82,1.73c1.01,0,1.91-0.58,2.67-1.73
		c0.21-0.32,0.64-0.86,1.06-0.87c0.47,0,1.02,0.58,1.21,0.87c0.3,0.44,0.9,0.56,1.34,0.26c0.44-0.3,0.56-0.9,0.27-1.35
		c-0.12-0.18-1.2-1.73-2.82-1.73c-1.01,0-1.91,0.58-2.67,1.73c-0.21,0.32-0.64,0.86-1.06,0.87c-0.47,0-1.02-0.58-1.21-0.87
		c-0.3-0.44-0.9-0.56-1.34-0.26C0.65,29.13,0.5,29.44,0.5,29.75z"/>
	<path class="st7" d="M19.89,0.5l6.79,0c3.21,0,5.82,2.62,5.82,5.85v27.3c0,3.23-2.6,5.85-5.82,5.85h-6.79V0.5z M29.59,7.33
		c0-1.62-1.3-2.92-2.91-2.92s-2.91,1.31-2.91,2.92s1.3,2.92,2.91,2.92S29.59,8.94,29.59,7.33z"/>
</g>
</svg>
