<?xml version="1.0" encoding="utf-8"?>
<!-- Generator: Adobe Illustrator 26.5.0, SVG Export Plug-In . SVG Version: 6.00 Build 0)  -->
<svg version="1.1" id="Layer_1" xmlns="http://www.w3.org/2000/svg" xmlns:xlink="http://www.w3.org/1999/xlink" x="0px" y="0px"
	 viewBox="0 0 87 76.5" style="enable-background:new 0 0 87 76.5;" xml:space="preserve">
<style type="text/css">
	.st0{opacity:0.5;}
	.st1{fill-rule:evenodd;clip-rule:evenodd;fill:none;stroke:#FFFFFF;stroke-width:0.75;stroke-miterlimit:10;}
	.st2{fill-rule:evenodd;clip-rule:evenodd;fill:none;}
	.st3{fill:none;stroke:#FFFFFF;stroke-width:0.75;stroke-miterlimit:10;}
	.st4{opacity:0.45;fill-rule:evenodd;clip-rule:evenodd;fill:#FFFFFF;}
	.st5{fill-rule:evenodd;clip-rule:evenodd;fill:#FFCE00;}
	.st6{fill:none;stroke:#FFFFFF;stroke-width:0.5;stroke-miterlimit:10;}
	.st7{fill:none;stroke:#FFFFFF;stroke-miterlimit:10;}
	.st8{opacity:0.5;fill:none;stroke:#FFFFFF;stroke-linecap:round;stroke-linejoin:round;stroke-miterlimit:10;}
	.st9{fill:none;}
	.st10{fill-rule:evenodd;clip-rule:evenodd;fill:#FFFFFF;}
	.st11{fill:#1000FF;}
	.st12{fill-rule:evenodd;clip-rule:evenodd;fill:#1000FF;}
	.st13{fill:url(#SVGID_1_);}
	.st14{fill:url(#SVGID_00000160871783257912110220000004211644063105992599_);}
	.st15{fill:#FF0000;}
	.st16{fill:url(#SVGID_00000147183117124325820360000013859724559639805073_);}
	.st17{fill:url(#SVGID_00000037668960462084287790000013805723053478888833_);}
	.st18{opacity:0.7;fill-rule:evenodd;clip-rule:evenodd;fill:url(#SVGID_00000077313101955988322100000010736883624639131313_);}
	.st19{fill:#FF8888;}
	.st20{opacity:0.7;fill:#2E2923;}
	.st21{opacity:0.7;}
	.st22{opacity:0.7;fill-rule:evenodd;clip-rule:evenodd;fill:url(#SVGID_00000007405965725556734290000013180898940631544729_);}
	.st23{fill:#FFEFAB;}
	.st24{opacity:0.7;fill:#303030;}
	.st25{fill:#FFFFFF;}
	.st26{opacity:0.7;fill-rule:evenodd;clip-rule:evenodd;fill:url(#SVGID_00000112601004598900690920000013756827876300830906_);}
	.st27{opacity:0.5;fill-rule:evenodd;clip-rule:evenodd;fill:#FFFFFF;}
	.st28{opacity:0.7;fill-rule:evenodd;clip-rule:evenodd;fill:url(#SVGID_00000000188036557499621160000005907218992568862353_);}
	.st29{fill:url(#SVGID_00000131346896910541067480000005599537803895207043_);}
	.st30{fill:url(#SVGID_00000177474864928351066390000004137142652571562658_);}
	.st31{fill:url(#SVGID_00000089561517406498140400000013684924640955472026_);}
	.st32{fill:url(#SVGID_00000073693878522985199550000004025693185227998350_);}
	.st33{fill:url(#SVGID_00000012455881979491405290000017965253155926867359_);}
	.st34{fill:url(#SVGID_00000065054329420373192920000013072886373556394377_);}
	.st35{fill:url(#SVGID_00000047039374138002585910000018108687582872599695_);}
	.st36{fill:url(#SVGID_00000125565371421612306830000008634168028858492593_);}
	.st37{fill:url(#SVGID_00000179628398866714726680000010777877174079791287_);}
	.st38{fill:url(#SVGID_00000112623350388394725550000010329346816066273454_);}
	.st39{opacity:0.3;}
	.st40{fill:#F7D418;}
	.st41{fill:#2E2923;}
	.st42{fill:#29333F;}
	.st43{fill:#B9BBBC;}
	.st44{fill:#FFC200;}
	.st45{fill:url(#SVGID_00000167355047983800404530000004550511020183633585_);}
	.st46{fill:url(#SVGID_00000127733217761482996510000015121989004134972045_);}
	.st47{fill:url(#SVGID_00000108288140042193273570000008688412045873609622_);}
	.st48{fill:url(#SVGID_00000038415032890693084260000004645136824761635733_);}
	.st49{fill:#FFFFFE;}
	.st50{opacity:0.7;fill-rule:evenodd;clip-rule:evenodd;fill:url(#SVGID_00000003102068697107574980000008388677226881664925_);}
	.st51{opacity:0.7;fill-rule:evenodd;clip-rule:evenodd;fill:url(#SVGID_00000062160677505858525850000006298115355270144411_);}
	.st52{opacity:0.7;fill-rule:evenodd;clip-rule:evenodd;fill:url(#SVGID_00000020364546558678688610000009310582485921171364_);}
	.st53{fill:#303030;}
	.st54{font-family:'Prompt-Regular';}
	.st55{font-size:22.5305px;}
	.st56{opacity:0.7;fill-rule:evenodd;clip-rule:evenodd;fill:url(#SVGID_00000030444996327093908820000014413256691302177971_);}
	.st57{opacity:0.7;fill-rule:evenodd;clip-rule:evenodd;fill:url(#SVGID_00000147189421137817465100000018432611202732953473_);}
	.st58{opacity:0.7;fill-rule:evenodd;clip-rule:evenodd;fill:url(#SVGID_00000052790038746257107160000010647211553617922963_);}
	.st59{fill-rule:evenodd;clip-rule:evenodd;fill:url(#SVGID_00000118369474827240405220000011521841552621617853_);}
	.st60{fill-rule:evenodd;clip-rule:evenodd;fill:url(#SVGID_00000080887010264056741450000004528733620868979373_);}
	.st61{fill:#FFCE00;}
	.st62{fill-rule:evenodd;clip-rule:evenodd;fill:url(#SVGID_00000032635183021660391610000008648348299945237896_);}
	.st63{fill-rule:evenodd;clip-rule:evenodd;fill:url(#SVGID_00000123440613958280470020000001766739040705501602_);}
	.st64{fill-rule:evenodd;clip-rule:evenodd;fill:url(#SVGID_00000160895480252490435670000003601173690054079905_);}
	.st65{fill:url(#SVGID_00000072992491246667732220000005516175417853721011_);}
	.st66{fill:url(#SVGID_00000016761853799355415180000016276427886800719285_);}
	.st67{fill:url(#SVGID_00000165937055418087388440000004824714303686366388_);}
	.st68{fill:url(#SVGID_00000052791751408226037560000016567930311600737669_);}
	.st69{fill-rule:evenodd;clip-rule:evenodd;fill:#FF0000;}
	.st70{fill-rule:evenodd;clip-rule:evenodd;fill:none;stroke:#FF0000;stroke-width:0.75;stroke-miterlimit:10;}
	.st71{fill:none;stroke:#FF0000;stroke-miterlimit:10;}
	.st72{fill:none;stroke:#FFCE00;stroke-width:0.75;stroke-miterlimit:10;}
	.st73{fill:none;stroke:#FFCE00;stroke-miterlimit:10;}
	.st74{fill:url(#SVGID_00000100356812243949669580000013703140940807038116_);}
	.st75{fill:url(#SVGID_00000002358789452001971290000004438373813991234442_);}
	.st76{fill:url(#SVGID_00000032644494472679288120000006998770830610263428_);}
	.st77{fill:url(#SVGID_00000039850205135549695510000014441482600703262392_);}
	.st78{fill:url(#SVGID_00000047777587719236886890000006051478872232242865_);}
	.st79{fill:url(#SVGID_00000069356454246239247860000016253713232028347035_);}
	.st80{fill:url(#SVGID_00000158718561812593546240000005463606175911973560_);}
	.st81{fill:url(#SVGID_00000011008739505639224320000015934162294723204493_);}
	.st82{fill:url(#SVGID_00000165213350376720673470000002169927588895937440_);}
	.st83{fill:url(#SVGID_00000137101697389047659400000000444659497668443556_);}
	.st84{fill:url(#SVGID_00000144304888123521129750000003460988005905234332_);}
	.st85{fill:url(#SVGID_00000170969793828708707060000013316625362151048584_);}
	.st86{fill:url(#SVGID_00000028319846534437008990000006117851360540970132_);}
	.st87{fill:url(#SVGID_00000086670046913665464400000007527146763077947826_);}
	.st88{fill:url(#SVGID_00000050645615163080205290000006255736599241592986_);}
	.st89{fill:url(#SVGID_00000085946226279315629920000001254019848120495020_);}
	.st90{fill:url(#SVGID_00000181801095190871262020000014103359010067525786_);}
	.st91{fill:url(#SVGID_00000022562684853533434750000010959013846699870874_);}
	.st92{fill:url(#SVGID_00000031194394342299637040000013189311207828372643_);}
	.st93{fill:url(#SVGID_00000029751943854411554300000014567935587428763542_);}
	.st94{fill:url(#SVGID_00000119796817221271543200000014191463863177283769_);}
	.st95{fill:url(#SVGID_00000016765241701306050810000007111922855512039833_);}
	.st96{fill:url(#SVGID_00000015326610098127142490000014143181813235468445_);}
	.st97{fill-rule:evenodd;clip-rule:evenodd;fill:none;stroke:#FFFFFF;stroke-width:0.5;stroke-miterlimit:10;}
</style>
<linearGradient id="SVGID_1_" gradientUnits="userSpaceOnUse" x1="7" y1="44" x2="87" y2="44">
	<stop  offset="0" style="stop-color:#13375C"/>
	<stop  offset="1" style="stop-color:#151E37"/>
</linearGradient>
<path style="opacity:0.7;fill-rule:evenodd;clip-rule:evenodd;fill:url(#SVGID_1_);" d="M18,76.5h58c6.08,0,11-4.92,11-11v-43
	c0-6.08-4.92-11-11-11H18c-6.08,0-11,4.92-11,11v43C7,71.58,11.92,76.5,18,76.5z"/>
<g class="st0">
	<g>
		<path class="st25" d="M16.46,53.48c-0.05-1.03-0.12-2.28-0.11-3.2h-0.03c-0.25,0.87-0.55,1.79-0.92,2.82l-1.29,3.6H13.4
			l-1.18-3.53c-0.35-1.05-0.64-2-0.84-2.88h-0.02c-0.02,0.92-0.08,2.17-0.14,3.28l-0.19,3.18h-0.9l0.51-7.42h1.2l1.24,3.59
			c0.3,0.91,0.55,1.73,0.74,2.5h0.03c0.18-0.75,0.44-1.56,0.77-2.5l1.3-3.59h1.2l0.45,7.42h-0.92L16.46,53.48z"/>
		<path class="st25" d="M23.77,54.03c0,1.97-1.34,2.83-2.6,2.83c-1.42,0-2.51-1.06-2.51-2.74c0-1.78,1.15-2.83,2.59-2.83
			C22.76,51.29,23.77,52.4,23.77,54.03z M19.63,54.08c0,1.17,0.66,2.05,1.59,2.05c0.91,0,1.59-0.87,1.59-2.07
			c0-0.9-0.44-2.05-1.57-2.05C20.11,52.02,19.63,53.07,19.63,54.08z"/>
		<path class="st25" d="M26.12,49.88v1.53h1.36v0.74h-1.36v2.87c0,0.66,0.18,1.03,0.71,1.03c0.25,0,0.43-0.03,0.55-0.07l0.04,0.73
			c-0.18,0.08-0.48,0.13-0.84,0.13c-0.44,0-0.8-0.14-1.03-0.41c-0.27-0.29-0.37-0.76-0.37-1.39v-2.9h-0.81v-0.74h0.81v-1.28
			L26.12,49.88z"/>
		<path class="st25" d="M29.61,49.92c0.01,0.33-0.23,0.59-0.61,0.59c-0.33,0-0.57-0.26-0.57-0.59c0-0.34,0.25-0.6,0.59-0.6
			C29.38,49.31,29.61,49.57,29.61,49.92z M28.55,56.74v-5.33h0.95v5.33H28.55z"/>
		<path class="st25" d="M35.81,54.03c0,1.97-1.34,2.83-2.6,2.83c-1.42,0-2.51-1.06-2.51-2.74c0-1.78,1.15-2.83,2.59-2.83
			C34.79,51.29,35.81,52.4,35.81,54.03z M31.66,54.08c0,1.17,0.66,2.05,1.59,2.05c0.91,0,1.59-0.87,1.59-2.07
			c0-0.9-0.44-2.05-1.57-2.05C32.15,52.02,31.66,53.07,31.66,54.08z"/>
		<path class="st25" d="M37.01,52.85c0-0.55-0.01-1-0.04-1.44h0.84l0.05,0.88h0.02c0.26-0.51,0.86-1,1.73-1
			c0.72,0,1.85,0.44,1.85,2.27v3.18h-0.95v-3.07c0-0.86-0.31-1.57-1.21-1.57c-0.63,0-1.11,0.45-1.28,0.99
			c-0.04,0.12-0.06,0.29-0.06,0.45v3.2h-0.95V52.85z"/>
		<path class="st25" d="M45.33,49.42c0.57-0.09,1.25-0.15,2-0.15c1.35,0,2.31,0.32,2.95,0.92c0.65,0.61,1.03,1.46,1.03,2.66
			c0,1.21-0.37,2.2-1.05,2.88c-0.68,0.69-1.8,1.07-3.22,1.07c-0.67,0-1.23-0.03-1.71-0.09V49.42z M46.27,55.98
			c0.24,0.04,0.58,0.05,0.95,0.05c2.01,0,3.1-1.14,3.1-3.15c0.01-1.75-0.96-2.86-2.95-2.86c-0.49,0-0.85,0.04-1.1,0.1V55.98z"/>
		<path class="st25" d="M53.06,54.25c0.02,1.31,0.84,1.85,1.79,1.85c0.68,0,1.09-0.12,1.45-0.28l0.16,0.69
			c-0.33,0.15-0.91,0.33-1.74,0.33c-1.61,0-2.57-1.08-2.57-2.68s0.93-2.87,2.45-2.87c1.71,0,2.16,1.53,2.16,2.51
			c0,0.2-0.02,0.35-0.03,0.45H53.06z M55.85,53.56c0.01-0.62-0.25-1.57-1.32-1.57c-0.96,0-1.38,0.9-1.46,1.57H55.85z"/>
		<path class="st25" d="M59.09,49.88v1.53h1.36v0.74h-1.36v2.87c0,0.66,0.18,1.03,0.71,1.03c0.25,0,0.43-0.03,0.55-0.07l0.04,0.73
			c-0.18,0.08-0.48,0.13-0.84,0.13c-0.44,0-0.8-0.14-1.03-0.41c-0.27-0.29-0.37-0.76-0.37-1.39v-2.9h-0.81v-0.74h0.81v-1.28
			L59.09,49.88z"/>
		<path class="st25" d="M61.98,54.25c0.02,1.31,0.84,1.85,1.79,1.85c0.68,0,1.09-0.12,1.45-0.28l0.16,0.69
			c-0.33,0.15-0.91,0.33-1.74,0.33c-1.61,0-2.57-1.08-2.57-2.68s0.93-2.87,2.45-2.87c1.71,0,2.16,1.53,2.16,2.51
			c0,0.2-0.02,0.35-0.03,0.45H61.98z M64.77,53.56c0.01-0.62-0.25-1.57-1.32-1.57c-0.96,0-1.38,0.9-1.46,1.57H64.77z"/>
		<path class="st25" d="M70.59,56.54c-0.25,0.13-0.8,0.31-1.5,0.31c-1.58,0-2.6-1.09-2.6-2.72c0-1.64,1.1-2.83,2.81-2.83
			c0.56,0,1.06,0.14,1.32,0.27l-0.22,0.75c-0.23-0.13-0.58-0.25-1.1-0.25c-1.2,0-1.85,0.9-1.85,2.01c0,1.23,0.78,1.99,1.81,1.99
			c0.54,0,0.9-0.14,1.17-0.26L70.59,56.54z"/>
		<path class="st25" d="M72.99,49.88v1.53h1.36v0.74h-1.36v2.87c0,0.66,0.18,1.03,0.71,1.03c0.25,0,0.43-0.03,0.55-0.07l0.04,0.73
			c-0.18,0.08-0.48,0.13-0.84,0.13c-0.44,0-0.8-0.14-1.03-0.41c-0.27-0.29-0.37-0.76-0.37-1.39v-2.9h-0.81v-0.74h0.81v-1.28
			L72.99,49.88z"/>
		<path class="st25" d="M80.09,54.03c0,1.97-1.34,2.83-2.6,2.83c-1.42,0-2.51-1.06-2.51-2.74c0-1.78,1.14-2.83,2.59-2.83
			C79.07,51.29,80.09,52.4,80.09,54.03z M75.94,54.08c0,1.17,0.66,2.05,1.59,2.05c0.91,0,1.59-0.87,1.59-2.07
			c0-0.9-0.44-2.05-1.57-2.05C76.43,52.02,75.94,53.07,75.94,54.08z"/>
		<path class="st25" d="M81.29,53.07c0-0.63-0.01-1.17-0.04-1.66h0.83l0.03,1.05h0.04c0.24-0.72,0.81-1.17,1.45-1.17
			c0.11,0,0.18,0.01,0.27,0.03v0.91c-0.1-0.02-0.19-0.03-0.32-0.03c-0.67,0-1.15,0.52-1.27,1.24c-0.02,0.13-0.04,0.29-0.04,0.45
			v2.84h-0.94V53.07z"/>
		<path class="st25" d="M26.08,67.6l-0.76,2.33h-0.97l2.47-7.42h1.13l2.48,7.42h-1l-0.78-2.33H26.08z M28.46,66.86l-0.71-2.13
			c-0.16-0.48-0.27-0.92-0.38-1.35h-0.02c-0.11,0.44-0.23,0.89-0.37,1.34l-0.71,2.15H28.46z"/>
		<path class="st25" d="M35.07,69.74c-0.25,0.13-0.8,0.31-1.5,0.31c-1.58,0-2.6-1.09-2.6-2.72c0-1.64,1.1-2.83,2.81-2.83
			c0.56,0,1.06,0.14,1.32,0.27l-0.22,0.75c-0.23-0.13-0.58-0.25-1.1-0.25c-1.2,0-1.85,0.9-1.85,2.01c0,1.23,0.78,1.99,1.81,1.99
			c0.54,0,0.9-0.14,1.17-0.26L35.07,69.74z"/>
		<path class="st25" d="M37.47,63.08v1.53h1.36v0.74h-1.36v2.87c0,0.66,0.18,1.03,0.71,1.03c0.25,0,0.43-0.03,0.55-0.07l0.04,0.73
			c-0.18,0.08-0.48,0.13-0.84,0.13c-0.44,0-0.8-0.14-1.03-0.41c-0.27-0.29-0.37-0.76-0.37-1.39v-2.9h-0.81v-0.74h0.81v-1.28
			L37.47,63.08z"/>
		<path class="st25" d="M40.96,63.12c0.01,0.33-0.23,0.59-0.61,0.59c-0.33,0-0.57-0.26-0.57-0.59c0-0.34,0.25-0.6,0.59-0.6
			C40.73,62.51,40.96,62.77,40.96,63.12z M39.9,69.94v-5.33h0.95v5.33H39.9z"/>
		<path class="st25" d="M42.8,64.61l1.03,2.99c0.17,0.48,0.31,0.92,0.42,1.36h0.03c0.12-0.44,0.27-0.88,0.44-1.36l1.01-2.99h0.99
			l-2.05,5.33h-0.91l-1.99-5.33H42.8z"/>
		<path class="st25" d="M50.48,69.94l-0.08-0.67h-0.03c-0.29,0.42-0.85,0.79-1.6,0.79c-1.06,0-1.6-0.76-1.6-1.53
			c0-1.29,1.12-1.99,3.14-1.98v-0.11c0-0.44-0.12-1.23-1.19-1.23c-0.49,0-0.99,0.15-1.36,0.4l-0.22-0.64
			c0.43-0.29,1.06-0.47,1.72-0.47c1.6,0,1.99,1.11,1.99,2.18v1.99c0,0.46,0.02,0.91,0.09,1.28H50.48z M50.34,67.22
			c-1.04-0.02-2.21,0.17-2.21,1.2c0,0.63,0.41,0.92,0.9,0.92c0.68,0,1.11-0.44,1.26-0.89c0.03-0.1,0.05-0.21,0.05-0.31V67.22z"/>
		<path class="st25" d="M53.89,63.08v1.53h1.36v0.74h-1.36v2.87c0,0.66,0.18,1.03,0.71,1.03c0.25,0,0.43-0.03,0.55-0.07l0.04,0.73
			c-0.18,0.08-0.48,0.13-0.84,0.13c-0.44,0-0.8-0.14-1.03-0.41c-0.27-0.29-0.37-0.76-0.37-1.39v-2.9h-0.81v-0.74h0.81v-1.28
			L53.89,63.08z"/>
		<path class="st25" d="M56.79,67.45c0.02,1.31,0.84,1.85,1.79,1.85c0.68,0,1.09-0.12,1.45-0.28l0.16,0.69
			c-0.33,0.15-0.91,0.33-1.74,0.33c-1.61,0-2.57-1.08-2.57-2.68s0.93-2.87,2.45-2.87c1.71,0,2.16,1.53,2.16,2.51
			c0,0.2-0.02,0.35-0.03,0.45H56.79z M59.57,66.76c0.01-0.62-0.25-1.57-1.32-1.57c-0.96,0-1.38,0.9-1.46,1.57H59.57z"/>
		<path class="st25" d="M66.19,62.13v6.44c0,0.47,0.01,1.01,0.04,1.38h-0.85l-0.04-0.92h-0.02c-0.29,0.59-0.93,1.04-1.78,1.04
			c-1.26,0-2.24-1.09-2.24-2.71c-0.01-1.77,1.07-2.86,2.34-2.86c0.8,0,1.34,0.38,1.58,0.81h0.02v-3.18H66.19z M65.23,66.78
			c0-0.12-0.01-0.29-0.04-0.41c-0.14-0.62-0.66-1.12-1.37-1.12c-0.98,0-1.57,0.88-1.57,2.06c0,1.08,0.52,1.97,1.54,1.97
			c0.64,0,1.22-0.43,1.39-1.16c0.03-0.13,0.04-0.26,0.04-0.42V66.78z"/>
		<path class="st25" d="M67.58,69.38c0-0.4,0.27-0.68,0.64-0.68c0.39,0,0.64,0.29,0.64,0.68c0,0.39-0.25,0.68-0.64,0.68
			C67.84,70.06,67.58,69.76,67.58,69.38z M67.85,67.8l-0.15-5.28h1.04l-0.15,5.28H67.85z"/>
	</g>
</g>
<g>
	<path class="st23" d="M25.73,24.85H2.27c-1.75,0-2.84-1.89-1.96-3.4l5.46-9.46l6.27-10.86c0.87-1.51,3.05-1.51,3.93,0l6.55,11.35
		l5.18,8.96C28.57,22.96,27.47,24.85,25.73,24.85z"/>
	<path class="st24" d="M26.82,21.95L15.09,1.64C14.76,1.07,14.22,1.01,14,1.01c-0.22,0-0.76,0.06-1.09,0.63L1.18,21.95
		c-0.33,0.57-0.11,1.07,0,1.26c0.11,0.19,0.44,0.63,1.09,0.63h23.46c0.66,0,0.98-0.44,1.09-0.63
		C26.93,23.02,27.15,22.52,26.82,21.95z M26.31,22.92c-0.09,0.15-0.26,0.34-0.58,0.34H2.27c-0.32,0-0.5-0.18-0.58-0.34
		c-0.09-0.15-0.16-0.4,0-0.68L13.42,1.93c0.16-0.28,0.41-0.34,0.58-0.34c0.18,0,0.42,0.06,0.58,0.34l11.73,20.32
		C26.48,22.52,26.4,22.77,26.31,22.92z"/>
	<g class="st21">
		<text transform="matrix(0.9821 0 0 1 11.4549 21.7726)" class="st53 st54 st55">!</text>
	</g>
</g>
<g class="st0">
	<g>
		<path class="st10" d="M55.41,22.84H38.59c-0.83,0-1.5-0.61-1.5-1.36v-2.02c0-0.75,0.67-1.36,1.5-1.36h16.81
			c0.83,0,1.5,0.61,1.5,1.36v2.02C56.91,22.23,56.23,22.84,55.41,22.84L55.41,22.84z M47,22.3c-1.11,0-2.01-0.82-2.01-1.82
			s0.9-1.82,2.01-1.82c1.11,0,2.01,0.82,2.01,1.82S48.11,22.3,47,22.3z M54.82,21.75h-2.9c-0.11,0-0.21-0.08-0.21-0.19
			c0-0.1,0.09-0.19,0.21-0.19h2.9c0.11,0,0.21,0.08,0.21,0.19C55.03,21.67,54.94,21.75,54.82,21.75z M54.82,20.66h-2.9
			c-0.11,0-0.21-0.08-0.21-0.19s0.09-0.19,0.21-0.19h2.9c0.11,0,0.21,0.08,0.21,0.19S54.94,20.66,54.82,20.66z M54.82,19.57h-2.9
			c-0.11,0-0.21-0.08-0.21-0.19s0.09-0.19,0.21-0.19h2.9c0.11,0,0.21,0.08,0.21,0.19C55.03,19.49,54.94,19.57,54.82,19.57z
			 M42.08,21.75h-2.9c-0.11,0-0.21-0.08-0.21-0.19s0.09-0.19,0.21-0.19h2.9c0.11,0,0.21,0.08,0.21,0.19
			C42.29,21.67,42.19,21.75,42.08,21.75L42.08,21.75z M42.08,20.66h-2.9c-0.11,0-0.21-0.08-0.21-0.19s0.09-0.19,0.21-0.19h2.9
			c0.11,0,0.21,0.08,0.21,0.19C42.29,20.58,42.19,20.66,42.08,20.66L42.08,20.66z M42.08,19.57h-2.9c-0.11,0-0.21-0.08-0.21-0.19
			s0.09-0.19,0.21-0.19h2.9c0.11,0,0.21,0.08,0.21,0.19C42.29,19.49,42.19,19.57,42.08,19.57L42.08,19.57z"/>
		<path class="st10" d="M53.76,27.71H40.23c-0.37,0-0.66-0.27-0.66-0.6V26.4c0-0.33,0.3-0.6,0.66-0.6h13.53
			c0.37,0,0.66,0.27,0.66,0.6v0.71C54.43,27.44,54.13,27.71,53.76,27.71z"/>
		<path class="st10" d="M53.3,26.18c-0.03,0-0.05,0-0.08-0.01c-0.11-0.04-0.16-0.15-0.11-0.24l1.49-3.33
			c0.04-0.1,0.16-0.14,0.27-0.1c0.11,0.04,0.16,0.15,0.11,0.24l-1.49,3.33C53.45,26.13,53.38,26.18,53.3,26.18L53.3,26.18z
			 M40.7,26.18c-0.08,0-0.16-0.04-0.19-0.12l-1.49-3.33c-0.04-0.1,0.01-0.2,0.11-0.24c0.11-0.04,0.23,0.01,0.27,0.1l1.49,3.33
			c0.04,0.1-0.01,0.2-0.11,0.24C40.75,26.17,40.73,26.18,40.7,26.18L40.7,26.18z"/>
		<path class="st10" d="M40.7,26.36c-0.17,0-0.32-0.09-0.38-0.23l-1.49-3.33c-0.09-0.19,0.02-0.41,0.23-0.49
			c0.21-0.08,0.45,0.02,0.54,0.21l1.49,3.33c0.09,0.19-0.02,0.41-0.23,0.49C40.81,26.35,40.76,26.36,40.7,26.36L40.7,26.36z
			 M42.8,26.36c-0.19,0-0.35-0.11-0.4-0.28l-0.99-3.33c-0.06-0.2,0.07-0.4,0.29-0.46c0.22-0.05,0.45,0.06,0.51,0.26l0.99,3.33
			c0.06,0.2-0.07,0.41-0.29,0.46C42.87,26.36,42.84,26.36,42.8,26.36L42.8,26.36z M44.9,26.36c-0.21,0-0.38-0.14-0.41-0.32
			l-0.5-3.33c-0.03-0.2,0.13-0.39,0.35-0.42c0.23-0.03,0.43,0.12,0.46,0.32l0.5,3.33c0.03,0.2-0.13,0.39-0.35,0.42
			C44.92,26.36,44.94,26.36,44.9,26.36L44.9,26.36z M47,26.36c-0.23,0-0.41-0.17-0.41-0.37v-3.33c0-0.21,0.18-0.37,0.41-0.37
			s0.41,0.17,0.41,0.37v3.33C47.41,26.19,47.23,26.36,47,26.36z M49.1,26.36c-0.04,0-0.02,0-0.06,0c-0.23-0.03-0.38-0.22-0.35-0.42
			l0.5-3.33c0.03-0.2,0.24-0.35,0.46-0.32c0.23,0.03,0.38,0.22,0.35,0.42l-0.5,3.33C49.48,26.22,49.31,26.36,49.1,26.36z
			 M51.2,26.36c-0.04,0-0.07,0-0.11-0.01c-0.22-0.05-0.35-0.26-0.29-0.46l0.99-3.33c0.06-0.2,0.29-0.32,0.51-0.26
			c0.22,0.05,0.35,0.26,0.29,0.46l-0.99,3.33C51.55,26.25,51.38,26.36,51.2,26.36L51.2,26.36z M53.3,26.36
			c-0.05,0-0.11-0.01-0.15-0.03c-0.21-0.08-0.31-0.3-0.23-0.49l1.49-3.33c0.09-0.19,0.33-0.28,0.54-0.21
			c0.21,0.08,0.31,0.3,0.23,0.49l-1.49,3.33C53.62,26.27,53.46,26.36,53.3,26.36L53.3,26.36z"/>
		<path class="st10" d="M47,31.44c-1.52,0-2.98-0.4-4.1-1.12c-0.93-0.6-1.57-1.38-1.83-2.24h11.85c-0.26,0.86-0.9,1.64-1.83,2.24
			C49.98,31.05,48.52,31.44,47,31.44L47,31.44z"/>
		<path class="st10" d="M47,21.92c0.88,0,1.6-0.65,1.6-1.45s-0.72-1.45-1.6-1.45s-1.6,0.65-1.6,1.45S46.12,21.92,47,21.92z"/>
	</g>
	<path class="st25" d="M54.41,30.48c0.4-0.6,1.26-0.78,1.92-0.42c0.66,0.37,0.86,1.14,0.46,1.74c-2.11,3.11-5.77,4.97-9.79,4.97
		c-4.02,0-7.69-1.86-9.79-4.97C37.07,31.6,37,31.37,37,31.15c0-0.43,0.24-0.84,0.67-1.08c0.66-0.37,1.52-0.18,1.92,0.42
		c1.59,2.35,4.37,3.76,7.41,3.76C50.04,34.24,52.82,32.84,54.41,30.48L54.41,30.48z M54.41,30.48"/>
</g>
</svg>
