<?xml version="1.0" encoding="utf-8"?>
<!-- Generator: Adobe Illustrator 26.5.0, SVG Export Plug-In . SVG Version: 6.00 Build 0)  -->
<svg version="1.1" id="Layer_1" xmlns="http://www.w3.org/2000/svg" xmlns:xlink="http://www.w3.org/1999/xlink" x="0px" y="0px"
	 viewBox="0 0 87 76.5" style="enable-background:new 0 0 87 76.5;" xml:space="preserve">
<style type="text/css">
	.st0{opacity:0.5;}
	.st1{fill-rule:evenodd;clip-rule:evenodd;fill:none;stroke:#FFFFFF;stroke-width:0.75;stroke-miterlimit:10;}
	.st2{fill-rule:evenodd;clip-rule:evenodd;fill:none;}
	.st3{fill:none;stroke:#FFFFFF;stroke-width:0.75;stroke-miterlimit:10;}
	.st4{opacity:0.45;fill-rule:evenodd;clip-rule:evenodd;fill:#FFFFFF;}
	.st5{fill-rule:evenodd;clip-rule:evenodd;fill:#FFCE00;}
	.st6{fill:none;stroke:#FFFFFF;stroke-width:0.5;stroke-miterlimit:10;}
	.st7{fill:none;stroke:#FFFFFF;stroke-miterlimit:10;}
	.st8{opacity:0.5;fill:none;stroke:#FFFFFF;stroke-linecap:round;stroke-linejoin:round;stroke-miterlimit:10;}
	.st9{fill:none;}
	.st10{fill-rule:evenodd;clip-rule:evenodd;fill:#FFFFFF;}
	.st11{fill:#1000FF;}
	.st12{fill-rule:evenodd;clip-rule:evenodd;fill:#1000FF;}
	.st13{fill:url(#SVGID_1_);}
	.st14{fill:url(#SVGID_00000063629079910029606710000004759670811365654688_);}
	.st15{fill:#FF0000;}
	.st16{fill:url(#SVGID_00000164485559392909486540000017085161222793969316_);}
	.st17{fill:url(#SVGID_00000041293285413211035970000003837117958893152670_);}
	.st18{opacity:0.7;fill-rule:evenodd;clip-rule:evenodd;fill:url(#SVGID_00000096758058512797525710000004495401275300710794_);}
	.st19{fill:#FF8888;}
	.st20{opacity:0.7;fill:#2E2923;}
	.st21{opacity:0.7;}
	.st22{opacity:0.7;fill-rule:evenodd;clip-rule:evenodd;fill:url(#SVGID_00000111192248938062142610000012338411377475735180_);}
	.st23{fill:#FFEFAB;}
	.st24{opacity:0.7;fill:#303030;}
	.st25{fill:#FFFFFF;}
	.st26{opacity:0.7;fill-rule:evenodd;clip-rule:evenodd;fill:url(#SVGID_00000032642485489462026830000009409570560627320966_);}
	.st27{opacity:0.5;fill-rule:evenodd;clip-rule:evenodd;fill:#FFFFFF;}
	.st28{opacity:0.7;fill-rule:evenodd;clip-rule:evenodd;fill:url(#SVGID_00000093863778445570497220000004472236278719053452_);}
	.st29{fill:url(#SVGID_00000000929678965778612210000005066625483450542744_);}
	.st30{fill:url(#SVGID_00000134210069836430158880000000231933634884906171_);}
	.st31{fill:url(#SVGID_00000056399049855966493870000006288672737153279113_);}
	.st32{fill:url(#SVGID_00000137106326445468888660000009475931547970404023_);}
	.st33{fill:url(#SVGID_00000114775191693186482570000003909010255452209304_);}
	.st34{fill:url(#SVGID_00000122705837039540986090000000993359390967031950_);}
	.st35{fill:url(#SVGID_00000123438952626593235960000000586177461505044899_);}
	.st36{fill:url(#SVGID_00000067938214992124137470000011921647772086190492_);}
	.st37{fill:url(#SVGID_00000139284091524042451790000004255140738449820068_);}
	.st38{fill:url(#SVGID_00000120545343224865991150000015315195660322156959_);}
	.st39{opacity:0.3;}
	.st40{fill:#F7D418;}
	.st41{fill:#2E2923;}
	.st42{fill:#29333F;}
	.st43{fill:#B9BBBC;}
	.st44{fill:#FFC200;}
	.st45{fill:url(#SVGID_00000114038482184000274780000000036227795240673944_);}
	.st46{fill:url(#SVGID_00000044137507458268477480000008253392992005561254_);}
	.st47{fill:url(#SVGID_00000049912097388916564170000010638169885544326317_);}
	.st48{fill:url(#SVGID_00000072964801201726406420000008970903396522911394_);}
	.st49{fill:#FFFFFE;}
	.st50{opacity:0.7;fill-rule:evenodd;clip-rule:evenodd;fill:url(#SVGID_00000158727956852490472440000014571294784733048998_);}
	.st51{opacity:0.7;fill-rule:evenodd;clip-rule:evenodd;fill:url(#SVGID_00000001642670258754285980000008569389111962186409_);}
	.st52{opacity:0.7;fill-rule:evenodd;clip-rule:evenodd;fill:url(#SVGID_00000130605200278957517400000009007480940068517027_);}
	.st53{opacity:0.7;fill-rule:evenodd;clip-rule:evenodd;fill:url(#SVGID_00000003810932808918946010000013355316583954473354_);}
	.st54{fill:#303030;}
	.st55{font-family:'Prompt-Regular';}
	.st56{font-size:22.5305px;}
	.st57{opacity:0.7;fill-rule:evenodd;clip-rule:evenodd;fill:url(#SVGID_00000160879676523380039110000001253053811654257297_);}
	.st58{opacity:0.7;fill-rule:evenodd;clip-rule:evenodd;fill:url(#SVGID_00000062884844674802022510000014929172461758483112_);}
	.st59{fill-rule:evenodd;clip-rule:evenodd;fill:url(#SVGID_00000062193634729897001470000015669494873181321907_);}
	.st60{fill-rule:evenodd;clip-rule:evenodd;fill:url(#SVGID_00000183233041185773900110000013644026862503997367_);}
	.st61{fill:#FFCE00;}
	.st62{fill-rule:evenodd;clip-rule:evenodd;fill:url(#SVGID_00000113320165626796101910000000479973351723611069_);}
	.st63{fill-rule:evenodd;clip-rule:evenodd;fill:url(#SVGID_00000062158126336438787930000018326327374618603157_);}
	.st64{fill-rule:evenodd;clip-rule:evenodd;fill:url(#SVGID_00000057120748989156751240000007917909768203017127_);}
	.st65{fill:url(#SVGID_00000076564884237881805990000010125567850457171128_);}
	.st66{fill:url(#SVGID_00000065066834477476888340000009507839019790101393_);}
	.st67{fill:url(#SVGID_00000055690246819777240170000009294457021487109556_);}
	.st68{fill:url(#SVGID_00000064352024744381918680000008355182417228160171_);}
	.st69{fill-rule:evenodd;clip-rule:evenodd;fill:#FF0000;}
	.st70{fill-rule:evenodd;clip-rule:evenodd;fill:none;stroke:#FF0000;stroke-width:0.75;stroke-miterlimit:10;}
	.st71{fill:none;stroke:#FF0000;stroke-miterlimit:10;}
	.st72{fill:none;stroke:#FFCE00;stroke-width:0.75;stroke-miterlimit:10;}
	.st73{fill:none;stroke:#FFCE00;stroke-miterlimit:10;}
	.st74{fill:url(#SVGID_00000157271485399602510410000018185210251840116411_);}
	.st75{fill:url(#SVGID_00000039817156768853951360000010331405611581580185_);}
	.st76{fill:url(#SVGID_00000165953649906683495520000013104798977509472690_);}
	.st77{fill:url(#SVGID_00000175316619858774001180000000818866943403576450_);}
	.st78{fill:url(#SVGID_00000145741476612878291040000017630773997245631931_);}
	.st79{fill:url(#SVGID_00000041986215668631904760000000552594763865805474_);}
	.st80{fill:url(#SVGID_00000124857098444200698440000007493321881211544220_);}
	.st81{fill:url(#SVGID_00000040536812228110254720000010650044234854806709_);}
	.st82{fill:url(#SVGID_00000154398822602847310510000000666779401157354643_);}
	.st83{fill:url(#SVGID_00000157308268316958024780000012551602951106604983_);}
	.st84{fill:url(#SVGID_00000155146904011733842210000016911816622898058681_);}
	.st85{fill:url(#SVGID_00000054964785054626403710000001246424959990856874_);}
	.st86{fill:url(#SVGID_00000093162099829735092560000003948290464254725564_);}
	.st87{fill:url(#SVGID_00000108996094272580703460000013067813442321379771_);}
	.st88{fill:url(#SVGID_00000039111610938018666380000014877424225899236238_);}
	.st89{fill:url(#SVGID_00000149367258982115211860000004654092125485943180_);}
	.st90{fill:url(#SVGID_00000008846267015641157170000017007082278658369418_);}
	.st91{fill:url(#SVGID_00000015344682749854013860000015762776389816649407_);}
	.st92{fill:url(#SVGID_00000176725575985260450270000014866092611818280891_);}
	.st93{fill:url(#SVGID_00000076595896636652124250000014724421801906440118_);}
	.st94{fill:url(#SVGID_00000181062392450760434700000013512071503255498676_);}
	.st95{fill:url(#SVGID_00000162324974675210984470000003914244628586365326_);}
	.st96{fill:url(#SVGID_00000079459549162200439590000008304648817636373910_);}
	.st97{fill-rule:evenodd;clip-rule:evenodd;fill:none;stroke:#FFFFFF;stroke-width:0.5;stroke-miterlimit:10;}
</style>
<linearGradient id="SVGID_1_" gradientUnits="userSpaceOnUse" x1="7" y1="44" x2="87" y2="44">
	<stop  offset="0" style="stop-color:#13375C"/>
	<stop  offset="1" style="stop-color:#151E37"/>
</linearGradient>
<path style="opacity:0.7;fill-rule:evenodd;clip-rule:evenodd;fill:url(#SVGID_1_);" d="M18,76.5h58c6.08,0,11-4.92,11-11v-43
	c0-6.08-4.92-11-11-11H18c-6.08,0-11,4.92-11,11v43C7,71.58,11.92,76.5,18,76.5z"/>
<g class="st0">
	<g>
		<path class="st25" d="M18.49,53.26h-2.83v2.67h3.16v0.8h-4.09v-7.42h3.93v0.8h-2.99v2.34h2.83V53.26z"/>
		<path class="st25" d="M20,52.85c0-0.55-0.01-1-0.04-1.44h0.84l0.05,0.88h0.02c0.26-0.51,0.86-1,1.73-1c0.72,0,1.85,0.44,1.85,2.27
			v3.18H23.5v-3.07c0-0.86-0.31-1.57-1.21-1.57c-0.63,0-1.11,0.45-1.28,0.99c-0.04,0.12-0.06,0.29-0.06,0.45v3.2H20V52.85z"/>
		<path class="st25" d="M27.1,49.88v1.53h1.36v0.74H27.1v2.87c0,0.66,0.18,1.03,0.71,1.03c0.25,0,0.43-0.03,0.55-0.07l0.04,0.73
			c-0.18,0.08-0.48,0.13-0.84,0.13c-0.44,0-0.8-0.14-1.03-0.41c-0.27-0.29-0.37-0.76-0.37-1.39v-2.9h-0.81v-0.74h0.81v-1.28
			L27.1,49.88z"/>
		<path class="st25" d="M29.53,53.07c0-0.63-0.01-1.17-0.04-1.66h0.83l0.03,1.05h0.04c0.24-0.72,0.81-1.17,1.45-1.17
			c0.11,0,0.18,0.01,0.27,0.03v0.91c-0.1-0.02-0.19-0.03-0.32-0.03c-0.67,0-1.15,0.52-1.27,1.24c-0.02,0.13-0.04,0.29-0.04,0.45
			v2.84h-0.94V53.07z"/>
		<path class="st25" d="M33.67,51.41l1.15,3.15c0.12,0.35,0.25,0.77,0.33,1.09h0.02c0.1-0.32,0.21-0.73,0.33-1.11l1.04-3.12h1
			l-1.43,3.8c-0.68,1.83-1.15,2.76-1.79,3.33c-0.46,0.42-0.93,0.58-1.17,0.63l-0.24-0.81c0.24-0.08,0.55-0.23,0.83-0.47
			c0.26-0.21,0.58-0.58,0.8-1.08c0.04-0.1,0.08-0.18,0.08-0.23s-0.02-0.13-0.06-0.25l-1.93-4.91H33.67z"/>
		<path class="st25" d="M40.74,49.42c0.57-0.09,1.25-0.15,2-0.15c1.35,0,2.31,0.32,2.95,0.92c0.65,0.61,1.03,1.46,1.03,2.66
			c0,1.21-0.37,2.2-1.05,2.88c-0.68,0.69-1.8,1.07-3.22,1.07c-0.67,0-1.23-0.03-1.71-0.09V49.42z M41.68,55.98
			c0.24,0.04,0.58,0.05,0.95,0.05c2.01,0,3.1-1.14,3.1-3.15c0.01-1.75-0.96-2.86-2.95-2.86c-0.49,0-0.85,0.04-1.1,0.1V55.98z"/>
		<path class="st25" d="M48.47,54.25c0.02,1.31,0.84,1.85,1.79,1.85c0.68,0,1.09-0.12,1.45-0.28l0.16,0.69
			c-0.33,0.15-0.91,0.33-1.74,0.33c-1.61,0-2.57-1.08-2.57-2.68s0.93-2.87,2.45-2.87c1.71,0,2.16,1.53,2.16,2.51
			c0,0.2-0.02,0.35-0.03,0.45H48.47z M51.26,53.56c0.01-0.62-0.25-1.57-1.32-1.57c-0.96,0-1.38,0.9-1.46,1.57H51.26z"/>
		<path class="st25" d="M54.5,49.88v1.53h1.36v0.74H54.5v2.87c0,0.66,0.18,1.03,0.71,1.03c0.25,0,0.43-0.03,0.55-0.07l0.04,0.73
			c-0.18,0.08-0.48,0.13-0.84,0.13c-0.44,0-0.8-0.14-1.03-0.41c-0.27-0.29-0.37-0.76-0.37-1.39v-2.9h-0.81v-0.74h0.81v-1.28
			L54.5,49.88z"/>
		<path class="st25" d="M57.4,54.25c0.02,1.31,0.84,1.85,1.79,1.85c0.68,0,1.09-0.12,1.45-0.28l0.16,0.69
			c-0.33,0.15-0.91,0.33-1.74,0.33c-1.61,0-2.57-1.08-2.57-2.68s0.93-2.87,2.45-2.87c1.71,0,2.16,1.53,2.16,2.51
			c0,0.2-0.02,0.35-0.03,0.45H57.4z M60.19,53.56c0.01-0.62-0.25-1.57-1.32-1.57c-0.96,0-1.38,0.9-1.46,1.57H60.19z"/>
		<path class="st25" d="M66.01,56.54c-0.25,0.13-0.8,0.31-1.5,0.31c-1.58,0-2.6-1.09-2.6-2.72c0-1.64,1.1-2.83,2.81-2.83
			c0.56,0,1.06,0.14,1.32,0.27l-0.22,0.75c-0.23-0.13-0.58-0.25-1.1-0.25c-1.2,0-1.85,0.9-1.85,2.01c0,1.23,0.78,1.99,1.81,1.99
			c0.54,0,0.9-0.14,1.17-0.26L66.01,56.54z"/>
		<path class="st25" d="M68.4,49.88v1.53h1.36v0.74H68.4v2.87c0,0.66,0.18,1.03,0.71,1.03c0.25,0,0.43-0.03,0.55-0.07l0.04,0.73
			c-0.18,0.08-0.48,0.13-0.84,0.13c-0.44,0-0.8-0.14-1.03-0.41c-0.27-0.29-0.37-0.76-0.37-1.39v-2.9h-0.81v-0.74h0.81v-1.28
			L68.4,49.88z"/>
		<path class="st25" d="M75.5,54.03c0,1.97-1.34,2.83-2.6,2.83c-1.42,0-2.51-1.06-2.51-2.74c0-1.78,1.14-2.83,2.59-2.83
			C74.49,51.29,75.5,52.4,75.5,54.03z M71.35,54.08c0,1.17,0.66,2.05,1.59,2.05c0.91,0,1.59-0.87,1.59-2.07
			c0-0.9-0.44-2.05-1.57-2.05C71.84,52.02,71.35,53.07,71.35,54.08z"/>
		<path class="st25" d="M76.7,53.07c0-0.63-0.01-1.17-0.04-1.66h0.83l0.03,1.05h0.04c0.24-0.72,0.81-1.17,1.45-1.17
			c0.11,0,0.18,0.01,0.27,0.03v0.91c-0.1-0.02-0.19-0.03-0.32-0.03c-0.67,0-1.15,0.52-1.27,1.24c-0.02,0.13-0.04,0.29-0.04,0.45
			v2.84H76.7V53.07z"/>
		<path class="st25" d="M25.98,67.6l-0.76,2.33h-0.97l2.47-7.42h1.13l2.48,7.42h-1l-0.78-2.33H25.98z M28.37,66.86l-0.71-2.13
			c-0.16-0.48-0.27-0.92-0.38-1.35h-0.02c-0.11,0.44-0.23,0.89-0.37,1.34l-0.71,2.15H28.37z"/>
		<path class="st25" d="M34.98,69.74c-0.25,0.13-0.8,0.31-1.5,0.31c-1.58,0-2.6-1.09-2.6-2.72c0-1.64,1.1-2.83,2.81-2.83
			c0.56,0,1.06,0.14,1.32,0.27l-0.22,0.75c-0.23-0.13-0.58-0.25-1.1-0.25c-1.2,0-1.85,0.9-1.85,2.01c0,1.23,0.78,1.99,1.81,1.99
			c0.54,0,0.9-0.14,1.17-0.26L34.98,69.74z"/>
		<path class="st25" d="M37.37,63.08v1.53h1.36v0.74h-1.36v2.87c0,0.66,0.18,1.03,0.71,1.03c0.25,0,0.43-0.03,0.55-0.07l0.04,0.73
			c-0.18,0.08-0.48,0.13-0.84,0.13c-0.44,0-0.8-0.14-1.03-0.41c-0.27-0.29-0.37-0.76-0.37-1.39v-2.9h-0.81v-0.74h0.81v-1.28
			L37.37,63.08z"/>
		<path class="st25" d="M40.86,63.12c0.01,0.33-0.23,0.59-0.61,0.59c-0.33,0-0.57-0.26-0.57-0.59c0-0.34,0.25-0.6,0.59-0.6
			C40.64,62.51,40.86,62.77,40.86,63.12z M39.81,69.94v-5.33h0.95v5.33H39.81z"/>
		<path class="st25" d="M42.7,64.61l1.03,2.99c0.17,0.48,0.31,0.92,0.42,1.36h0.03c0.12-0.44,0.27-0.88,0.44-1.36l1.01-2.99h0.99
			l-2.05,5.33h-0.91l-1.99-5.33H42.7z"/>
		<path class="st25" d="M50.38,69.94l-0.08-0.67h-0.03c-0.29,0.42-0.85,0.79-1.6,0.79c-1.06,0-1.6-0.76-1.6-1.53
			c0-1.29,1.12-1.99,3.14-1.98v-0.11c0-0.44-0.12-1.23-1.19-1.23c-0.49,0-0.99,0.15-1.36,0.4l-0.22-0.64
			c0.43-0.29,1.06-0.47,1.72-0.47c1.6,0,1.99,1.11,1.99,2.18v1.99c0,0.46,0.02,0.91,0.09,1.28H50.38z M50.24,67.22
			c-1.04-0.02-2.21,0.17-2.21,1.2c0,0.63,0.41,0.92,0.9,0.92c0.68,0,1.11-0.44,1.26-0.89c0.03-0.1,0.05-0.21,0.05-0.31V67.22z"/>
		<path class="st25" d="M53.79,63.08v1.53h1.36v0.74h-1.36v2.87c0,0.66,0.18,1.03,0.71,1.03c0.25,0,0.43-0.03,0.55-0.07l0.04,0.73
			c-0.18,0.08-0.48,0.13-0.84,0.13c-0.44,0-0.8-0.14-1.03-0.41c-0.27-0.29-0.37-0.76-0.37-1.39v-2.9h-0.81v-0.74h0.81v-1.28
			L53.79,63.08z"/>
		<path class="st25" d="M56.69,67.45c0.02,1.31,0.84,1.85,1.79,1.85c0.68,0,1.09-0.12,1.45-0.28l0.16,0.69
			c-0.33,0.15-0.91,0.33-1.74,0.33c-1.61,0-2.57-1.08-2.57-2.68s0.93-2.87,2.45-2.87c1.71,0,2.16,1.53,2.16,2.51
			c0,0.2-0.02,0.35-0.03,0.45H56.69z M59.48,66.76c0.01-0.62-0.25-1.57-1.32-1.57c-0.96,0-1.38,0.9-1.46,1.57H59.48z"/>
		<path class="st25" d="M66.09,62.13v6.44c0,0.47,0.01,1.01,0.04,1.38h-0.85l-0.04-0.92h-0.02c-0.29,0.59-0.93,1.04-1.78,1.04
			c-1.26,0-2.24-1.09-2.24-2.71c-0.01-1.77,1.07-2.86,2.34-2.86c0.8,0,1.34,0.38,1.58,0.81h0.02v-3.18H66.09z M65.14,66.78
			c0-0.12-0.01-0.29-0.04-0.41c-0.14-0.62-0.66-1.12-1.37-1.12c-0.98,0-1.57,0.88-1.57,2.06c0,1.08,0.52,1.97,1.54,1.97
			c0.64,0,1.22-0.43,1.39-1.16c0.03-0.13,0.04-0.26,0.04-0.42V66.78z"/>
		<path class="st25" d="M67.48,69.38c0-0.4,0.27-0.68,0.64-0.68c0.39,0,0.64,0.29,0.64,0.68c0,0.39-0.25,0.68-0.64,0.68
			C67.74,70.06,67.48,69.76,67.48,69.38z M67.75,67.8l-0.15-5.28h1.04l-0.15,5.28H67.75z"/>
	</g>
</g>
<path class="st23" d="M25.73,24.85H2.27c-1.75,0-2.84-1.89-1.96-3.4l5.46-9.46l6.27-10.86c0.87-1.51,3.05-1.51,3.93,0l6.55,11.35
	l5.18,8.96C28.57,22.96,27.47,24.85,25.73,24.85z"/>
<path class="st20" d="M26.82,21.95L15.09,1.64C14.76,1.07,14.22,1.01,14,1.01c-0.22,0-0.76,0.06-1.09,0.63L1.18,21.95
	c-0.33,0.57-0.11,1.07,0,1.26c0.11,0.19,0.44,0.63,1.09,0.63h23.46c0.66,0,0.98-0.44,1.09-0.63C26.93,23.02,27.15,22.52,26.82,21.95
	z M26.31,22.92c-0.09,0.15-0.26,0.34-0.58,0.34H2.27c-0.32,0-0.5-0.18-0.58-0.34c-0.09-0.15-0.16-0.4,0-0.68L13.42,1.93
	c0.16-0.28,0.41-0.34,0.58-0.34c0.18,0,0.42,0.06,0.58,0.34l11.73,20.32C26.48,22.52,26.4,22.77,26.31,22.92z"/>
<g class="st21">
	<text transform="matrix(0.9821 0 0 1 11.4548 21.7726)" class="st54 st55 st56">!</text>
</g>
<path class="st27" d="M54.69,18.59H39.27c-0.56,0-1.03,0.47-1.03,1.03v1.37c0,1.11,0.81,2.06,1.88,2.23l0,6.04
	c0,3.77,3.08,6.81,6.85,6.81c3.77,0,6.85-3.04,6.85-6.81v-6.04c1.07-0.17,1.84-1.11,1.84-2.23v-1.37
	C55.67,19.06,55.24,18.59,54.69,18.59L54.69,18.59z M40.55,22.4c-0.77,0-1.41-0.64-1.41-1.41v-1.37c0-0.09,0.09-0.17,0.17-0.17
	h15.42c0.04,0,0.13,0.09,0.13,0.17v1.37c0,0.77-0.64,1.41-1.37,1.41H40.55L40.55,22.4z M41.03,23.25h11.99v6c0,3.3-2.7,5.95-6,5.95
	c-3.3,0-6-2.66-6-5.95V23.25L41.03,23.25z M59.07,28.44h-2.78c-0.26,0-0.43,0.17-0.43,0.43c0,0.26,0.17,0.43,0.43,0.43h2.78
	c0.26,0,0.43-0.17,0.43-0.43C59.5,28.61,59.33,28.44,59.07,28.44L59.07,28.44z M37.71,28.44h-2.78c-0.26,0-0.43,0.17-0.43,0.43
	c0,0.26,0.17,0.43,0.43,0.43h2.78c0.26,0,0.43-0.17,0.43-0.43C38.14,28.61,37.93,28.44,37.71,28.44L37.71,28.44z M42.1,28.82
	c-0.26,0-0.43,0.17-0.43,0.43c0,2.31,1.46,4.33,3.64,5.05c0.21,0.09,0.47-0.04,0.56-0.26c0.09-0.21-0.04-0.47-0.26-0.56
	c-1.84-0.6-3.08-2.31-3.08-4.24C42.52,28.99,42.31,28.82,42.1,28.82L42.1,28.82z M53.88,35.34c-0.13,0-0.21,0.04-0.3,0.13
	c-0.17,0.17-0.17,0.43,0,0.6l1.97,1.97c0.17,0.17,0.43,0.17,0.6,0c0.17-0.17,0.17-0.43,0-0.6l-1.97-1.97
	C54.14,35.38,54.01,35.34,53.88,35.34L53.88,35.34z M40.08,35.34c-0.13,0-0.21,0.04-0.3,0.13l-1.97,1.97c-0.17,0.17-0.17,0.43,0,0.6
	c0.17,0.17,0.43,0.17,0.6,0l1.97-1.97c0.17-0.17,0.17-0.43,0-0.6C40.33,35.38,40.2,35.34,40.08,35.34L40.08,35.34z M46.98,37.75
	c-0.26,0-0.43,0.17-0.43,0.43v2.78c0,0.26,0.17,0.43,0.43,0.43c0.26,0,0.43-0.17,0.43-0.43v-2.78
	C47.41,37.92,47.24,37.75,46.98,37.75L46.98,37.75z"/>
</svg>
