<?xml version="1.0" encoding="utf-8"?>
<!-- Generator: Adobe Illustrator 26.5.0, SVG Export Plug-In . SVG Version: 6.00 Build 0)  -->
<svg version="1.1" id="Layer_1" xmlns="http://www.w3.org/2000/svg" xmlns:xlink="http://www.w3.org/1999/xlink" x="0px" y="0px"
	 viewBox="0 0 87 76.5" style="enable-background:new 0 0 87 76.5;" xml:space="preserve">
<style type="text/css">
	.st0{opacity:0.5;}
	.st1{fill-rule:evenodd;clip-rule:evenodd;fill:none;stroke:#FFFFFF;stroke-width:0.75;stroke-miterlimit:10;}
	.st2{fill-rule:evenodd;clip-rule:evenodd;fill:none;}
	.st3{fill:none;stroke:#FFFFFF;stroke-width:0.75;stroke-miterlimit:10;}
	.st4{opacity:0.45;fill-rule:evenodd;clip-rule:evenodd;fill:#FFFFFF;}
	.st5{fill-rule:evenodd;clip-rule:evenodd;fill:#FFCE00;}
	.st6{fill:none;stroke:#FFFFFF;stroke-width:0.5;stroke-miterlimit:10;}
	.st7{fill:none;stroke:#FFFFFF;stroke-miterlimit:10;}
	.st8{opacity:0.5;fill:none;stroke:#FFFFFF;stroke-linecap:round;stroke-linejoin:round;stroke-miterlimit:10;}
	.st9{fill:none;}
	.st10{fill-rule:evenodd;clip-rule:evenodd;fill:#FFFFFF;}
	.st11{fill:#1000FF;}
	.st12{fill-rule:evenodd;clip-rule:evenodd;fill:#1000FF;}
	.st13{fill:url(#SVGID_1_);}
	.st14{fill:url(#SVGID_00000078024931204658995470000008773434401013584021_);}
	.st15{fill:#FF0000;}
	.st16{fill:url(#SVGID_00000183951173555909138200000009530675963370553480_);}
	.st17{fill:url(#SVGID_00000173849284684884382450000002954334313687125889_);}
	.st18{opacity:0.7;fill-rule:evenodd;clip-rule:evenodd;fill:url(#SVGID_00000163789613572362036560000009043354105716034491_);}
	.st19{fill:#FF8888;}
	.st20{opacity:0.7;fill:#2E2923;}
	.st21{opacity:0.7;}
	.st22{opacity:0.7;fill-rule:evenodd;clip-rule:evenodd;fill:url(#SVGID_00000003790473385843670410000005009943935702346158_);}
	.st23{fill:#FFEFAB;}
	.st24{opacity:0.7;fill:#303030;}
	.st25{fill:#FFFFFF;}
	.st26{opacity:0.7;fill-rule:evenodd;clip-rule:evenodd;fill:url(#SVGID_00000048492828229086969650000002667093867741557929_);}
	.st27{opacity:0.5;fill-rule:evenodd;clip-rule:evenodd;fill:#FFFFFF;}
	.st28{opacity:0.7;fill-rule:evenodd;clip-rule:evenodd;fill:url(#SVGID_00000113351961858245912490000003571231213960082068_);}
	.st29{fill:url(#SVGID_00000047765070913870756440000009179262634751024523_);}
	.st30{fill:url(#SVGID_00000179611277542152226860000010087678356108659130_);}
	.st31{fill:url(#SVGID_00000038389849012947450690000008295493808943657899_);}
	.st32{fill:url(#SVGID_00000008829569048490305760000016601137965393743540_);}
	.st33{fill:url(#SVGID_00000144339778571119631200000013596194932757953941_);}
	.st34{fill:url(#SVGID_00000112617132180491263000000010284144632361116824_);}
	.st35{fill:url(#SVGID_00000119831721372178395570000014564369368213661330_);}
	.st36{fill:url(#SVGID_00000120540542658967871780000015322628184815888288_);}
	.st37{fill:url(#SVGID_00000083065615576546318560000012561089599209254313_);}
	.st38{fill:url(#SVGID_00000109738138362923368140000005920205671550193596_);}
	.st39{opacity:0.3;}
	.st40{fill:#F7D418;}
	.st41{fill:#2E2923;}
	.st42{fill:#29333F;}
	.st43{fill:#B9BBBC;}
	.st44{fill:#FFC200;}
	.st45{fill:url(#SVGID_00000153677936430838876980000001434994685230279306_);}
	.st46{fill:url(#SVGID_00000117653219001565255590000011687557719698146212_);}
	.st47{fill:url(#SVGID_00000145748438190712981830000012435514710764809899_);}
	.st48{fill:url(#SVGID_00000152247945166557639720000003607293194283683735_);}
	.st49{fill:#FFFFFE;}
	.st50{opacity:0.7;fill-rule:evenodd;clip-rule:evenodd;fill:url(#SVGID_00000154426641967552750240000014147708393760262030_);}
	.st51{opacity:0.7;fill-rule:evenodd;clip-rule:evenodd;fill:url(#SVGID_00000170986149842469680870000001988007452558517385_);}
	.st52{fill:#303030;}
	.st53{font-family:'Prompt-Regular';}
	.st54{font-size:22.5305px;}
	.st55{opacity:0.7;fill-rule:evenodd;clip-rule:evenodd;fill:url(#SVGID_00000074443855706762101130000005649114057204462250_);}
	.st56{opacity:0.7;fill-rule:evenodd;clip-rule:evenodd;fill:url(#SVGID_00000135671768386383728010000012489717630750500513_);}
	.st57{opacity:0.7;fill-rule:evenodd;clip-rule:evenodd;fill:url(#SVGID_00000075151843020847266220000012282229644528895647_);}
	.st58{opacity:0.7;fill-rule:evenodd;clip-rule:evenodd;fill:url(#SVGID_00000031186877535197423700000005164193316746981820_);}
	.st59{fill-rule:evenodd;clip-rule:evenodd;fill:url(#SVGID_00000083064904783288412120000005699273738610481060_);}
	.st60{fill-rule:evenodd;clip-rule:evenodd;fill:url(#SVGID_00000134218864691288994740000018167941205123087268_);}
	.st61{fill:#FFCE00;}
	.st62{fill-rule:evenodd;clip-rule:evenodd;fill:url(#SVGID_00000105422790037762367710000013608171795750097853_);}
	.st63{fill-rule:evenodd;clip-rule:evenodd;fill:url(#SVGID_00000075852372313524687210000005650884755588828824_);}
	.st64{fill-rule:evenodd;clip-rule:evenodd;fill:url(#SVGID_00000106832219278681903820000004287909246846142362_);}
	.st65{fill:url(#SVGID_00000178201908247380234730000010789920873472435635_);}
	.st66{fill:url(#SVGID_00000080197606848134638190000005318660300779316113_);}
	.st67{fill:url(#SVGID_00000069393703899488052700000006241993031567524771_);}
	.st68{fill:url(#SVGID_00000173120597640994200230000013967284317250511755_);}
	.st69{fill-rule:evenodd;clip-rule:evenodd;fill:#FF0000;}
	.st70{fill-rule:evenodd;clip-rule:evenodd;fill:none;stroke:#FF0000;stroke-width:0.75;stroke-miterlimit:10;}
	.st71{fill:none;stroke:#FF0000;stroke-miterlimit:10;}
	.st72{fill:none;stroke:#FFCE00;stroke-width:0.75;stroke-miterlimit:10;}
	.st73{fill:none;stroke:#FFCE00;stroke-miterlimit:10;}
	.st74{fill:url(#SVGID_00000049932924083032027650000016357642649607056000_);}
	.st75{fill:url(#SVGID_00000069356941430022090060000003097930516015447477_);}
	.st76{fill:url(#SVGID_00000038396718531416528590000010310798617304256148_);}
	.st77{fill:url(#SVGID_00000041289432756175221010000001874872498459031689_);}
	.st78{fill:url(#SVGID_00000103947018286285520310000015817865929000547516_);}
	.st79{fill:url(#SVGID_00000170267629099474043900000016758855656286531769_);}
	.st80{fill:url(#SVGID_00000112606498547984264790000011710443734228756140_);}
	.st81{fill:url(#SVGID_00000011750309683603779040000016633830230531519616_);}
	.st82{fill:url(#SVGID_00000088829509789078077000000011670090566968778639_);}
	.st83{fill:url(#SVGID_00000129205731950561921390000009724518597984544168_);}
	.st84{fill:url(#SVGID_00000160159883601176501020000003519433951729370013_);}
	.st85{fill:url(#SVGID_00000134936608967326771710000001997680036151653009_);}
	.st86{fill:url(#SVGID_00000145744762357591551740000013085130275582036115_);}
	.st87{fill:url(#SVGID_00000054235720244862059700000018082536226607499967_);}
	.st88{fill:url(#SVGID_00000018928994859871722260000017715062676963291820_);}
	.st89{fill:url(#SVGID_00000112623432918119096670000007134205416677636523_);}
	.st90{fill:url(#SVGID_00000147194390064840641900000007582782399720696982_);}
	.st91{fill:url(#SVGID_00000085947739670396039650000009001497856254192806_);}
	.st92{fill:url(#SVGID_00000000223239957769221020000004166567354246181287_);}
	.st93{fill:url(#SVGID_00000030479183935996291530000014720389619599432638_);}
	.st94{fill:url(#SVGID_00000164498474184252228790000005739925531200042153_);}
	.st95{fill:url(#SVGID_00000173144200991599332950000016099718548872239244_);}
	.st96{fill:url(#SVGID_00000072252484449316623900000015647422039457175471_);}
	.st97{fill-rule:evenodd;clip-rule:evenodd;fill:none;stroke:#FFFFFF;stroke-width:0.5;stroke-miterlimit:10;}
</style>
<linearGradient id="SVGID_1_" gradientUnits="userSpaceOnUse" x1="7" y1="44" x2="87" y2="44">
	<stop  offset="0" style="stop-color:#13375C"/>
	<stop  offset="1" style="stop-color:#151E37"/>
</linearGradient>
<path style="opacity:0.7;fill-rule:evenodd;clip-rule:evenodd;fill:url(#SVGID_1_);" d="M18,76.5h58c6.08,0,11-4.92,11-11v-43
	c0-6.08-4.92-11-11-11H18c-6.08,0-11,4.92-11,11v43C7,71.58,11.92,76.5,18,76.5z"/>
<g class="st0">
	<g>
		<path class="st25" d="M11.27,55.74c0.42,0.26,1.04,0.48,1.69,0.48c0.96,0,1.52-0.52,1.52-1.27c0-0.69-0.39-1.09-1.37-1.47
			c-1.19-0.43-1.92-1.06-1.92-2.1c0-1.16,0.94-2.01,2.36-2.01c0.75,0,1.29,0.18,1.61,0.36l-0.26,0.78
			c-0.24-0.13-0.72-0.35-1.38-0.35c-0.99,0-1.37,0.61-1.37,1.11c0,0.69,0.44,1.03,1.45,1.43c1.23,0.48,1.86,1.09,1.86,2.18
			c0,1.14-0.83,2.13-2.55,2.13c-0.7,0-1.47-0.21-1.86-0.47L11.27,55.74z"/>
		<path class="st25" d="M16.69,53.02c0-0.55-0.01-1-0.04-1.44h0.83l0.04,0.86h0.03c0.29-0.51,0.78-0.98,1.64-0.98
			c0.71,0,1.25,0.44,1.48,1.07h0.02c0.16-0.3,0.37-0.53,0.58-0.69c0.31-0.24,0.66-0.37,1.16-0.37c0.69,0,1.72,0.46,1.72,2.31v3.14
			h-0.93v-3.01c0-1.02-0.37-1.64-1.13-1.64c-0.54,0-0.96,0.41-1.12,0.88c-0.04,0.13-0.08,0.31-0.08,0.48v3.29h-0.93v-3.19
			c0-0.85-0.37-1.46-1.09-1.46c-0.59,0-1.03,0.48-1.18,0.97c-0.05,0.14-0.08,0.31-0.08,0.47v3.21h-0.93V53.02z"/>
		<path class="st25" d="M30.43,54.2c0,1.97-1.34,2.83-2.6,2.83c-1.42,0-2.51-1.06-2.51-2.74c0-1.78,1.15-2.83,2.59-2.83
			C29.41,51.46,30.43,52.57,30.43,54.2z M26.28,54.26c0,1.17,0.66,2.05,1.59,2.05c0.91,0,1.59-0.87,1.59-2.07
			c0-0.9-0.44-2.05-1.57-2.05C26.77,52.19,26.28,53.24,26.28,54.26z"/>
		<path class="st25" d="M32.57,54.02h0.02c0.13-0.19,0.31-0.42,0.46-0.6l1.53-1.84h1.15l-2.02,2.19l2.3,3.14h-1.16l-1.8-2.55
			l-0.49,0.55v2h-0.94V49.1h0.94V54.02z"/>
		<path class="st25" d="M37.22,54.42c0.02,1.31,0.84,1.85,1.79,1.85c0.68,0,1.09-0.12,1.45-0.28l0.16,0.69
			c-0.33,0.15-0.91,0.33-1.74,0.33c-1.61,0-2.57-1.08-2.57-2.68s0.93-2.87,2.45-2.87c1.71,0,2.16,1.53,2.16,2.51
			c0,0.2-0.02,0.35-0.03,0.45H37.22z M40.01,53.73c0.01-0.62-0.25-1.57-1.32-1.57c-0.96,0-1.38,0.9-1.46,1.57H40.01z"/>
		<path class="st25" d="M44.43,49.59c0.57-0.09,1.25-0.15,2-0.15c1.35,0,2.31,0.32,2.95,0.92c0.65,0.61,1.03,1.46,1.03,2.66
			c0,1.21-0.37,2.2-1.05,2.88c-0.68,0.69-1.8,1.07-3.22,1.07c-0.67,0-1.23-0.03-1.71-0.09V49.59z M45.37,56.15
			c0.24,0.04,0.58,0.05,0.95,0.05c2.01,0,3.1-1.14,3.1-3.15c0.01-1.75-0.96-2.86-2.95-2.86c-0.49,0-0.85,0.04-1.1,0.1V56.15z"/>
		<path class="st25" d="M52.16,54.42c0.02,1.31,0.84,1.85,1.79,1.85c0.68,0,1.09-0.12,1.45-0.28l0.16,0.69
			c-0.33,0.15-0.91,0.33-1.74,0.33c-1.61,0-2.57-1.08-2.57-2.68s0.93-2.87,2.45-2.87c1.71,0,2.16,1.53,2.16,2.51
			c0,0.2-0.02,0.35-0.03,0.45H52.16z M54.95,53.73c0.01-0.62-0.25-1.57-1.32-1.57c-0.96,0-1.38,0.9-1.46,1.57H54.95z"/>
		<path class="st25" d="M58.19,50.05v1.53h1.36v0.74h-1.36v2.87c0,0.66,0.18,1.03,0.71,1.03c0.25,0,0.43-0.03,0.55-0.07l0.04,0.73
			c-0.18,0.08-0.48,0.13-0.84,0.13c-0.44,0-0.8-0.14-1.03-0.41c-0.27-0.29-0.37-0.76-0.37-1.39v-2.9h-0.81v-0.74h0.81v-1.28
			L58.19,50.05z"/>
		<path class="st25" d="M61.09,54.42c0.02,1.31,0.84,1.85,1.79,1.85c0.68,0,1.09-0.12,1.45-0.28l0.16,0.69
			c-0.33,0.15-0.91,0.33-1.74,0.33c-1.61,0-2.57-1.08-2.57-2.68s0.93-2.87,2.45-2.87c1.71,0,2.16,1.53,2.16,2.51
			c0,0.2-0.02,0.35-0.03,0.45H61.09z M63.87,53.73c0.01-0.62-0.25-1.57-1.32-1.57c-0.96,0-1.38,0.9-1.46,1.57H63.87z"/>
		<path class="st25" d="M69.7,56.71c-0.25,0.13-0.8,0.31-1.5,0.31c-1.58,0-2.6-1.09-2.6-2.72c0-1.64,1.1-2.83,2.81-2.83
			c0.56,0,1.06,0.14,1.32,0.27L69.5,52.5c-0.23-0.13-0.58-0.25-1.1-0.25c-1.2,0-1.85,0.9-1.85,2.01c0,1.23,0.78,1.99,1.82,1.99
			c0.54,0,0.9-0.14,1.17-0.26L69.7,56.71z"/>
		<path class="st25" d="M72.09,50.05v1.53h1.36v0.74h-1.36v2.87c0,0.66,0.18,1.03,0.71,1.03c0.25,0,0.43-0.03,0.55-0.07l0.04,0.73
			c-0.18,0.08-0.48,0.13-0.84,0.13c-0.44,0-0.8-0.14-1.03-0.41c-0.27-0.29-0.37-0.76-0.37-1.39v-2.9h-0.81v-0.74h0.81v-1.28
			L72.09,50.05z"/>
		<path class="st25" d="M79.19,54.2c0,1.97-1.34,2.83-2.6,2.83c-1.42,0-2.51-1.06-2.51-2.74c0-1.78,1.14-2.83,2.59-2.83
			C78.18,51.46,79.19,52.57,79.19,54.2z M75.04,54.26c0,1.17,0.66,2.05,1.59,2.05c0.91,0,1.59-0.87,1.59-2.07
			c0-0.9-0.44-2.05-1.57-2.05C75.53,52.19,75.04,53.24,75.04,54.26z"/>
		<path class="st25" d="M80.39,53.24c0-0.63-0.01-1.17-0.04-1.66h0.83l0.03,1.05h0.04c0.24-0.72,0.81-1.17,1.45-1.17
			c0.11,0,0.18,0.01,0.27,0.03v0.91c-0.1-0.02-0.19-0.03-0.32-0.03c-0.67,0-1.15,0.52-1.27,1.24c-0.02,0.13-0.04,0.29-0.04,0.45
			v2.84h-0.94V53.24z"/>
		<path class="st25" d="M26.16,67.78l-0.76,2.33h-0.97l2.47-7.42h1.13l2.48,7.42h-1l-0.78-2.33H26.16z M28.55,67.03l-0.71-2.13
			c-0.16-0.48-0.27-0.92-0.38-1.35h-0.02c-0.11,0.44-0.23,0.89-0.37,1.34l-0.71,2.15H28.55z"/>
		<path class="st25" d="M35.16,69.91c-0.25,0.13-0.8,0.31-1.5,0.31c-1.58,0-2.6-1.09-2.6-2.72c0-1.64,1.1-2.83,2.81-2.83
			c0.56,0,1.06,0.14,1.32,0.27l-0.22,0.75c-0.23-0.13-0.58-0.25-1.1-0.25c-1.2,0-1.85,0.9-1.85,2.01c0,1.23,0.78,1.99,1.81,1.99
			c0.54,0,0.9-0.14,1.17-0.26L35.16,69.91z"/>
		<path class="st25" d="M37.56,63.25v1.53h1.36v0.74h-1.36v2.87c0,0.66,0.18,1.03,0.71,1.03c0.25,0,0.43-0.03,0.55-0.07l0.04,0.73
			c-0.18,0.08-0.48,0.13-0.84,0.13c-0.44,0-0.8-0.14-1.03-0.41c-0.27-0.29-0.37-0.76-0.37-1.39v-2.9h-0.81v-0.74h0.81v-1.28
			L37.56,63.25z"/>
		<path class="st25" d="M41.05,63.29c0.01,0.33-0.23,0.59-0.61,0.59c-0.33,0-0.57-0.26-0.57-0.59c0-0.34,0.25-0.6,0.59-0.6
			C40.82,62.68,41.05,62.95,41.05,63.29z M39.99,70.11v-5.33h0.95v5.33H39.99z"/>
		<path class="st25" d="M42.88,64.78l1.03,2.99c0.17,0.48,0.31,0.92,0.42,1.36h0.03c0.12-0.44,0.27-0.88,0.44-1.36l1.01-2.99h0.99
			l-2.05,5.33h-0.91l-1.99-5.33H42.88z"/>
		<path class="st25" d="M50.56,70.11l-0.08-0.67h-0.03c-0.29,0.42-0.85,0.79-1.6,0.79c-1.06,0-1.6-0.76-1.6-1.53
			c0-1.29,1.12-1.99,3.14-1.98v-0.11c0-0.44-0.12-1.23-1.19-1.23c-0.49,0-0.99,0.15-1.36,0.4l-0.22-0.64
			c0.43-0.29,1.06-0.47,1.72-0.47c1.6,0,1.99,1.11,1.99,2.18v1.99c0,0.46,0.02,0.91,0.09,1.28H50.56z M50.42,67.39
			c-1.04-0.02-2.21,0.17-2.21,1.2c0,0.63,0.41,0.92,0.9,0.92c0.68,0,1.11-0.44,1.26-0.89c0.03-0.1,0.05-0.21,0.05-0.31V67.39z"/>
		<path class="st25" d="M53.98,63.25v1.53h1.36v0.74h-1.36v2.87c0,0.66,0.18,1.03,0.71,1.03c0.25,0,0.43-0.03,0.55-0.07l0.04,0.73
			c-0.18,0.08-0.48,0.13-0.84,0.13c-0.44,0-0.8-0.14-1.03-0.41c-0.27-0.29-0.37-0.76-0.37-1.39v-2.9h-0.81v-0.74h0.81v-1.28
			L53.98,63.25z"/>
		<path class="st25" d="M56.87,67.62c0.02,1.31,0.84,1.85,1.79,1.85c0.68,0,1.09-0.12,1.45-0.28l0.16,0.69
			c-0.33,0.15-0.91,0.33-1.74,0.33c-1.61,0-2.57-1.08-2.57-2.68s0.93-2.87,2.45-2.87c1.71,0,2.16,1.53,2.16,2.51
			c0,0.2-0.02,0.35-0.03,0.45H56.87z M59.66,66.93c0.01-0.62-0.25-1.57-1.32-1.57c-0.96,0-1.38,0.9-1.46,1.57H59.66z"/>
		<path class="st25" d="M66.27,62.3v6.44c0,0.47,0.01,1.01,0.04,1.38h-0.85l-0.04-0.92H65.4c-0.29,0.59-0.93,1.04-1.78,1.04
			c-1.26,0-2.24-1.09-2.24-2.71c-0.01-1.77,1.07-2.86,2.34-2.86c0.8,0,1.34,0.38,1.58,0.81h0.02V62.3H66.27z M65.32,66.95
			c0-0.12-0.01-0.29-0.04-0.41c-0.14-0.62-0.66-1.12-1.37-1.12c-0.98,0-1.57,0.88-1.57,2.06c0,1.08,0.52,1.97,1.54,1.97
			c0.64,0,1.22-0.43,1.39-1.16c0.03-0.13,0.04-0.26,0.04-0.42V66.95z"/>
		<path class="st25" d="M67.66,69.55c0-0.4,0.27-0.68,0.64-0.68c0.39,0,0.64,0.29,0.64,0.68c0,0.39-0.25,0.68-0.64,0.68
			C67.92,70.23,67.66,69.93,67.66,69.55z M67.94,67.97l-0.15-5.28h1.04l-0.15,5.28H67.94z"/>
	</g>
</g>
<g>
	<g>
		<path class="st19" d="M25.73,24.85H2.27c-1.75,0-2.84-1.89-1.96-3.4l5.46-9.46l6.27-10.86c0.87-1.51,3.05-1.51,3.93,0l6.55,11.35
			l5.18,8.96C28.57,22.96,27.47,24.85,25.73,24.85z"/>
		<path class="st20" d="M26.82,21.95L15.09,1.64C14.76,1.07,14.22,1.01,14,1.01c-0.22,0-0.76,0.06-1.09,0.63L1.18,21.95
			c-0.33,0.57-0.11,1.07,0,1.26c0.11,0.19,0.44,0.63,1.09,0.63h23.46c0.66,0,0.98-0.44,1.09-0.63
			C26.93,23.02,27.15,22.52,26.82,21.95z M26.31,22.92c-0.09,0.15-0.26,0.34-0.58,0.34H2.27c-0.32,0-0.5-0.18-0.58-0.34
			c-0.09-0.15-0.16-0.4,0-0.68L13.42,1.93c0.16-0.28,0.41-0.34,0.58-0.34c0.18,0,0.42,0.06,0.58,0.34l11.73,20.32
			C26.48,22.52,26.4,22.77,26.31,22.92z"/>
	</g>
	<g class="st21">
		<text transform="matrix(0.9821 0 0 1 11.4551 21.7726)" class="st52 st53 st54">!</text>
	</g>
</g>
<g class="st0">
	<path class="st10" d="M56.76,23.51H37.24c-0.96,0-1.74-0.78-1.74-1.74v-2.59c0-0.96,0.78-1.74,1.74-1.74h19.52
		c0.96,0,1.74,0.78,1.74,1.74v2.59C58.5,22.73,57.72,23.51,56.76,23.51L56.76,23.51z M47,22.81c-1.29,0-2.33-1.05-2.33-2.33
		s1.05-2.33,2.33-2.33c1.29,0,2.33,1.05,2.33,2.33S48.29,22.81,47,22.81z M56.08,22.11h-3.37c-0.13,0-0.24-0.11-0.24-0.24
		c0-0.13,0.11-0.24,0.24-0.24h3.37c0.13,0,0.24,0.11,0.24,0.24C56.32,22,56.21,22.11,56.08,22.11z M56.08,20.71h-3.37
		c-0.13,0-0.24-0.11-0.24-0.24c0-0.13,0.11-0.24,0.24-0.24h3.37c0.13,0,0.24,0.11,0.24,0.24C56.32,20.61,56.21,20.71,56.08,20.71z
		 M56.08,19.32h-3.37c-0.13,0-0.24-0.11-0.24-0.24c0-0.13,0.11-0.24,0.24-0.24h3.37c0.13,0,0.24,0.11,0.24,0.24
		S56.21,19.32,56.08,19.32z M41.29,22.11h-3.37c-0.13,0-0.24-0.11-0.24-0.24c0-0.13,0.11-0.24,0.24-0.24h3.37
		c0.13,0,0.24,0.11,0.24,0.24C41.53,22,41.42,22.11,41.29,22.11L41.29,22.11z M41.29,20.71h-3.37c-0.13,0-0.24-0.11-0.24-0.24
		c0-0.13,0.11-0.24,0.24-0.24h3.37c0.13,0,0.24,0.11,0.24,0.24C41.53,20.61,41.42,20.71,41.29,20.71L41.29,20.71z M41.29,19.32
		h-3.37c-0.13,0-0.24-0.11-0.24-0.24c0-0.13,0.11-0.24,0.24-0.24h3.37c0.13,0,0.24,0.11,0.24,0.24S41.42,19.32,41.29,19.32
		L41.29,19.32z"/>
	<path class="st10" d="M54.85,29.75H39.15c-0.42,0-0.77-0.35-0.77-0.77v-0.91c0-0.42,0.35-0.77,0.77-0.77h15.71
		c0.42,0,0.77,0.35,0.77,0.77v0.91C55.62,29.41,55.28,29.75,54.85,29.75z"/>
	<path class="st10" d="M54.31,27.78c-0.03,0-0.06-0.01-0.09-0.02c-0.12-0.05-0.18-0.19-0.13-0.31l1.73-4.27
		c0.05-0.12,0.19-0.18,0.31-0.13c0.12,0.05,0.18,0.19,0.13,0.31l-1.73,4.27C54.49,27.72,54.4,27.78,54.31,27.78L54.31,27.78z
		 M39.69,27.78c-0.09,0-0.18-0.06-0.22-0.15l-1.73-4.27c-0.05-0.12,0.01-0.26,0.13-0.31c0.12-0.05,0.26,0.01,0.31,0.13l1.73,4.27
		c0.05,0.12-0.01,0.26-0.13,0.31C39.75,27.78,39.72,27.78,39.69,27.78L39.69,27.78z"/>
	<path class="st10" d="M39.69,28.02c-0.2,0-0.37-0.12-0.44-0.3l-1.73-4.27c-0.1-0.24,0.02-0.52,0.26-0.62s0.52,0.02,0.62,0.26
		l1.73,4.27c0.1,0.24-0.02,0.52-0.26,0.62C39.81,28.01,39.75,28.02,39.69,28.02L39.69,28.02z M42.13,28.02
		c-0.22,0-0.41-0.15-0.46-0.35l-1.15-4.27c-0.07-0.25,0.08-0.52,0.34-0.59c0.25-0.07,0.52,0.08,0.59,0.34l1.15,4.27
		c0.07,0.25-0.08,0.52-0.34,0.59C42.21,28.02,42.17,28.02,42.13,28.02L42.13,28.02z M44.56,28.02c-0.24,0-0.44-0.18-0.47-0.42
		l-0.58-4.27c-0.04-0.26,0.15-0.5,0.41-0.54c0.26-0.04,0.5,0.15,0.54,0.41l0.58,4.27c0.04,0.26-0.15,0.5-0.41,0.54
		C44.58,28.02,44.6,28.02,44.56,28.02L44.56,28.02z M47,28.02c-0.26,0-0.48-0.21-0.48-0.48v-4.27c0-0.26,0.21-0.48,0.48-0.48
		s0.48,0.21,0.48,0.48v4.27C47.48,27.81,47.26,28.02,47,28.02z M49.44,28.02c-0.04,0-0.02,0-0.06,0c-0.26-0.04-0.45-0.28-0.41-0.54
		l0.58-4.27c0.04-0.26,0.28-0.45,0.54-0.41c0.26,0.04,0.45,0.28,0.41,0.54l-0.58,4.27C49.88,27.84,49.68,28.02,49.44,28.02z
		 M51.87,28.02c-0.04,0-0.08-0.01-0.13-0.02c-0.25-0.07-0.41-0.33-0.34-0.59l1.15-4.27c0.07-0.25,0.33-0.41,0.59-0.34
		c0.25,0.07,0.41,0.33,0.34,0.59l-1.15,4.27C52.28,27.88,52.09,28.02,51.87,28.02L51.87,28.02z M54.31,28.02
		c-0.06,0-0.12-0.01-0.18-0.04c-0.24-0.1-0.36-0.38-0.26-0.62l1.73-4.27c0.1-0.24,0.38-0.36,0.62-0.26c0.24,0.1,0.36,0.38,0.26,0.62
		l-1.73,4.27C54.68,27.9,54.5,28.02,54.31,28.02L54.31,28.02z"/>
	<path class="st10" d="M47,34.53c-1.77,0-3.45-0.51-4.75-1.43c-1.09-0.77-1.82-1.77-2.13-2.87h13.76c-0.3,1.1-1.04,2.1-2.13,2.87
		C50.45,34.02,48.77,34.53,47,34.53L47,34.53z"/>
	<path class="st10" d="M47,22.33c1.02,0,1.86-0.83,1.86-1.86s-0.83-1.86-1.86-1.86s-1.86,0.83-1.86,1.86S45.98,22.33,47,22.33z"/>
</g>
</svg>
