<?xml version="1.0" encoding="utf-8"?>
<!-- Generator: Adobe Illustrator 27.0.0, SVG Export Plug-In . SVG Version: 6.00 Build 0)  -->
<svg version="1.1" id="Layer_1" xmlns="http://www.w3.org/2000/svg" xmlns:xlink="http://www.w3.org/1999/xlink" x="0px" y="0px"
	 viewBox="0 0 50 50" style="enable-background:new 0 0 50 50;" xml:space="preserve">
<style type="text/css">
	.st0{fill-rule:evenodd;clip-rule:evenodd;fill:#FFCE00;}
	.st1{opacity:0.5;}
	.st2{fill-rule:evenodd;clip-rule:evenodd;fill:#FFFFFF;}
	.st3{fill:#FFFFFF;}
	.st4{fill-rule:evenodd;clip-rule:evenodd;fill:#FF0000;}
	.st5{fill:#FF0000;}
	.st6{fill:#FFCE00;}
	.st7{fill-rule:evenodd;clip-rule:evenodd;fill:none;stroke:#FF0000;stroke-width:0.75;stroke-miterlimit:10;}
	.st8{fill:none;stroke:#FF0000;stroke-miterlimit:10;}
	.st9{fill:none;stroke:#FFCE00;stroke-width:0.75;stroke-miterlimit:10;}
	.st10{fill:none;stroke:#FFCE00;stroke-miterlimit:10;}
</style>
<path class="st0" d="M31.33,35.05H18.64c-0.46,0-0.85-0.39-0.85-0.85v-1.13c0-0.92,0.67-1.69,1.55-1.83l0-4.97
	c0-3.1,2.54-5.6,5.64-5.6c3.1,0,5.64,2.5,5.64,5.6v4.97c0.88,0.14,1.52,0.92,1.52,1.83v1.13C32.14,34.66,31.79,35.05,31.33,35.05
	L31.33,35.05z M19.7,31.91c-0.63,0-1.16,0.53-1.16,1.16v1.13c0,0.07,0.07,0.14,0.14,0.14h12.69c0.04,0,0.11-0.07,0.11-0.14v-1.13
	c0-0.63-0.53-1.16-1.13-1.16H19.7L19.7,31.91z M20.08,31.2h9.87v-4.93c0-2.71-2.22-4.9-4.93-4.9c-2.71,0-4.93,2.19-4.93,4.9V31.2
	L20.08,31.2z M36.26,26.94h-2.29c-0.21,0-0.35-0.14-0.35-0.35c0-0.21,0.14-0.35,0.35-0.35h2.29c0.21,0,0.35,0.14,0.35,0.35
	C36.61,26.8,36.47,26.94,36.26,26.94L36.26,26.94z M16.03,26.94h-2.29c-0.21,0-0.35-0.14-0.35-0.35c0-0.21,0.14-0.35,0.35-0.35h2.29
	c0.21,0,0.35,0.14,0.35,0.35C16.38,26.8,16.21,26.94,16.03,26.94L16.03,26.94z M20.96,26.62c-0.21,0-0.35-0.14-0.35-0.35
	c0-1.9,1.2-3.56,3-4.16c0.18-0.07,0.39,0.04,0.46,0.21c0.07,0.18-0.04,0.39-0.21,0.46c-1.52,0.49-2.54,1.9-2.54,3.49
	C21.32,26.48,21.14,26.62,20.96,26.62L20.96,26.62z M31.33,20.59c-0.11,0-0.18-0.04-0.25-0.11c-0.14-0.14-0.14-0.35,0-0.49
	l1.62-1.62c0.14-0.14,0.35-0.14,0.49,0c0.14,0.14,0.14,0.35,0,0.49l-1.62,1.62C31.54,20.56,31.43,20.59,31.33,20.59L31.33,20.59z
	 M18.64,20.59c-0.11,0-0.18-0.04-0.25-0.11l-1.62-1.62c-0.14-0.14-0.14-0.35,0-0.49c0.14-0.14,0.35-0.14,0.49,0l1.62,1.62
	c0.14,0.14,0.14,0.35,0,0.49C18.85,20.56,18.74,20.59,18.64,20.59L18.64,20.59z M24.98,17.95c-0.21,0-0.35-0.14-0.35-0.35v-2.29
	c0-0.21,0.14-0.35,0.35-0.35c0.21,0,0.35,0.14,0.35,0.35v2.29C25.33,17.81,25.19,17.95,24.98,17.95L24.98,17.95z"/>
</svg>
