<?xml version="1.0" encoding="utf-8"?>
<!-- Generator: Adobe Illustrator 27.0.0, SVG Export Plug-In . SVG Version: 6.00 Build 0)  -->
<svg version="1.1" id="Layer_1" xmlns="http://www.w3.org/2000/svg" xmlns:xlink="http://www.w3.org/1999/xlink" x="0px" y="0px"
	 viewBox="0 0 95 95" style="enable-background:new 0 0 95 95;" xml:space="preserve">
<style type="text/css">
	.st0{opacity:0.7;fill-rule:evenodd;clip-rule:evenodd;fill:url(#SVGID_1_);}
	.st1{opacity:0.5;}
	.st2{fill:#FF8888;}
	.st3{opacity:0.7;fill:#2E2923;}
	.st4{opacity:0.7;}
	.st5{fill-rule:evenodd;clip-rule:evenodd;fill:#FFFFFF;}
	.st6{opacity:0.7;fill-rule:evenodd;clip-rule:evenodd;fill:url(#SVGID_00000106127415525052788010000003810374817498368191_);}
	.st7{fill:#FFEFAB;}
	.st8{opacity:0.7;fill:#303030;}
	.st9{fill:#FFFFFF;}
	.st10{opacity:0.7;fill-rule:evenodd;clip-rule:evenodd;fill:url(#SVGID_00000181803836233454267390000007816621911065734530_);}
	.st11{font-family:'Prompt-Regular';}
	.st12{font-size:11px;}
	.st13{fill:#303030;}
	.st14{font-size:22.5305px;}
	.st15{opacity:0.5;fill-rule:evenodd;clip-rule:evenodd;fill:#FFFFFF;}
	.st16{opacity:0.7;fill-rule:evenodd;clip-rule:evenodd;fill:url(#SVGID_00000121260014156206855510000002542606605955421570_);}
	.st17{opacity:0.7;fill-rule:evenodd;clip-rule:evenodd;fill:url(#SVGID_00000016065827385640780460000011929740855935368638_);}
	.st18{fill-rule:evenodd;clip-rule:evenodd;fill:url(#SVGID_00000075132435446476741990000010609184718512762764_);}
	.st19{fill:#FF0000;}
	.st20{fill:#2E2923;}
	.st21{fill-rule:evenodd;clip-rule:evenodd;fill:url(#SVGID_00000109009041297985877490000007564329996288276124_);}
	.st22{fill:#FFCE00;}
	.st23{fill-rule:evenodd;clip-rule:evenodd;fill:url(#SVGID_00000062175918145728011720000013892243246350189710_);}
	.st24{fill-rule:evenodd;clip-rule:evenodd;fill:url(#SVGID_00000109726932369194454650000011829874065721997458_);}
	.st25{fill-rule:evenodd;clip-rule:evenodd;fill:url(#SVGID_00000163040606794102476790000004467059679387698079_);}
</style>
<g>
	<linearGradient id="SVGID_1_" gradientUnits="userSpaceOnUse" x1="11" y1="53.25" x2="91" y2="53.25">
		<stop  offset="0" style="stop-color:#13375C"/>
		<stop  offset="1" style="stop-color:#151E37"/>
	</linearGradient>
	<path class="st0" d="M22,85.75h58c6.08,0,11-4.92,11-11v-43c0-6.08-4.92-11-11-11H22c-6.08,0-11,4.92-11,11v43
		C11,80.83,15.92,85.75,22,85.75z"/>
	<g class="st1">
		<text transform="matrix(0.9821 0 0 1 18.0355 65.7686)"><tspan x="0" y="0" class="st9 st11 st12">Entry Detector</tspan><tspan x="10.05" y="13.2" class="st9 st11 st12">Activated!</tspan></text>
	</g>
	<path class="st7" d="M29.73,34.1H6.27c-1.75,0-2.84-1.89-1.96-3.4l5.46-9.46l6.27-10.86c0.87-1.51,3.05-1.51,3.93,0l6.55,11.35
		l5.18,8.96C32.57,32.21,31.47,34.1,29.73,34.1z"/>
	<path class="st3" d="M30.82,31.2L19.09,10.89c-0.33-0.57-0.87-0.63-1.09-0.63c-0.22,0-0.76,0.06-1.09,0.63L5.18,31.2
		c-0.33,0.57-0.11,1.07,0,1.26c0.11,0.19,0.44,0.63,1.09,0.63h23.46c0.66,0,0.98-0.44,1.09-0.63C30.93,32.27,31.15,31.77,30.82,31.2
		z M30.31,32.17c-0.09,0.15-0.26,0.34-0.58,0.34H6.27c-0.32,0-0.5-0.18-0.58-0.34c-0.09-0.15-0.16-0.4,0-0.68l11.73-20.32
		c0.16-0.28,0.41-0.34,0.58-0.34c0.18,0,0.42,0.06,0.58,0.34L30.31,31.5C30.48,31.77,30.4,32.02,30.31,32.17z"/>
	<g class="st4">
		<text transform="matrix(0.9821 0 0 1 15.455 31.0223)" class="st13 st11 st14">!</text>
	</g>
	<path class="st15" d="M58.69,27.84H43.27c-0.56,0-1.03,0.47-1.03,1.03v1.37c0,1.11,0.81,2.06,1.88,2.23l0,6.04
		c0,3.77,3.08,6.81,6.85,6.81c3.77,0,6.85-3.04,6.85-6.81v-6.04c1.07-0.17,1.84-1.11,1.84-2.23v-1.37
		C59.67,28.31,59.24,27.84,58.69,27.84L58.69,27.84z M44.55,31.65c-0.77,0-1.41-0.64-1.41-1.41v-1.37c0-0.09,0.09-0.17,0.17-0.17
		h15.42c0.04,0,0.13,0.09,0.13,0.17v1.37c0,0.77-0.64,1.41-1.37,1.41H44.55L44.55,31.65z M45.03,32.5h11.99v6c0,3.3-2.7,5.95-6,5.95
		c-3.3,0-6-2.66-6-5.95V32.5L45.03,32.5z M63.07,37.69h-2.78c-0.26,0-0.43,0.17-0.43,0.43c0,0.26,0.17,0.43,0.43,0.43h2.78
		c0.26,0,0.43-0.17,0.43-0.43C63.5,37.86,63.33,37.69,63.07,37.69L63.07,37.69z M41.71,37.69h-2.78c-0.26,0-0.43,0.17-0.43,0.43
		c0,0.26,0.17,0.43,0.43,0.43h2.78c0.26,0,0.43-0.17,0.43-0.43C42.14,37.86,41.93,37.69,41.71,37.69L41.71,37.69z M46.1,38.07
		c-0.26,0-0.43,0.17-0.43,0.43c0,2.31,1.46,4.33,3.64,5.05c0.21,0.09,0.47-0.04,0.56-0.26c0.09-0.21-0.04-0.47-0.26-0.56
		c-1.84-0.6-3.08-2.31-3.08-4.24C46.52,38.24,46.31,38.07,46.1,38.07L46.1,38.07z M57.88,44.59c-0.13,0-0.21,0.04-0.3,0.13
		c-0.17,0.17-0.17,0.43,0,0.6l1.97,1.97c0.17,0.17,0.43,0.17,0.6,0c0.17-0.17,0.17-0.43,0-0.6l-1.97-1.97
		C58.14,44.63,58.01,44.59,57.88,44.59L57.88,44.59z M44.08,44.59c-0.13,0-0.21,0.04-0.3,0.13l-1.97,1.97
		c-0.17,0.17-0.17,0.43,0,0.6c0.17,0.17,0.43,0.17,0.6,0l1.97-1.97c0.17-0.17,0.17-0.43,0-0.6C44.33,44.63,44.2,44.59,44.08,44.59
		L44.08,44.59z M50.98,47c-0.26,0-0.43,0.17-0.43,0.43v2.78c0,0.26,0.17,0.43,0.43,0.43c0.26,0,0.43-0.17,0.43-0.43v-2.78
		C51.41,47.17,51.24,47,50.98,47L50.98,47z"/>
</g>
</svg>
