<?xml version="1.0" encoding="utf-8"?>
<!-- Generator: Adobe Illustrator 27.0.0, SVG Export Plug-In . SVG Version: 6.00 Build 0)  -->
<svg version="1.1" id="Layer_1" xmlns="http://www.w3.org/2000/svg" xmlns:xlink="http://www.w3.org/1999/xlink" x="0px" y="0px"
	 viewBox="0 0 310 35" style="enable-background:new 0 0 310 35;" xml:space="preserve">
<style type="text/css">
	.st0{fill:url(#SVGID_1_);}
	.st1{fill:#FFFFFF;}
	.st2{fill:url(#SVGID_00000011723061514172261770000007651522498668907394_);}
	.st3{fill:url(#SVGID_00000146464457856116021250000007637623669795729558_);}
	.st4{fill:url(#SVGID_00000096776262173006504190000001378148348737359768_);}
	.st5{fill:#F7D418;}
	.st6{fill:#2E2923;}
	.st7{opacity:0.3;fill:#F7D418;}
	.st8{opacity:0.3;}
	.st9{fill:#29333F;}
	.st10{fill:#B9BBBC;}
	.st11{fill:#FFC200;}
	.st12{fill:#FFFFFE;}
	.st13{fill:url(#SVGID_00000074443253579239713880000018429143864392670900_);}
	.st14{fill:url(#SVGID_00000044858525599073218630000003796171599942017694_);}
	.st15{fill-rule:evenodd;clip-rule:evenodd;fill:#FFFFFF;}
</style>
<g>
	
		<linearGradient id="SVGID_1_" gradientUnits="userSpaceOnUse" x1="-2947.9075" y1="-86.4607" x2="-2869.5266" y2="49.0015" gradientTransform="matrix(1 0 0 1 3042.7539 0)">
		<stop  offset="0" style="stop-color:#13375C"/>
		<stop  offset="1" style="stop-color:#151E37"/>
	</linearGradient>
	<path class="st0" d="M300,32.5H10c-4.42,0-8-3.58-8-8v-14c0-4.42,3.58-8,8-8h290c4.42,0,8,3.58,8,8v14
		C308,28.92,304.42,32.5,300,32.5z"/>
	<g>
		<g>
			<path class="st5" d="M290.97,28.5h-20.95c-1.56,0-2.53-1.67-1.75-3.01l4.87-8.37l5.6-9.61c0.78-1.34,2.73-1.34,3.51,0l5.85,10.05
				l4.62,7.94C293.5,26.83,292.53,28.5,290.97,28.5z"/>
			<path class="st6" d="M291.95,25.93L281.48,7.95c-0.29-0.5-0.78-0.56-0.98-0.56s-0.68,0.05-0.98,0.56l-10.47,17.99
				c-0.29,0.5-0.1,0.95,0,1.12c0.1,0.17,0.39,0.56,0.98,0.56h20.95c0.59,0,0.88-0.39,0.98-0.56
				C292.05,26.88,292.24,26.44,291.95,25.93z M291.49,26.79c-0.08,0.14-0.23,0.3-0.52,0.3h-20.95c-0.29,0-0.44-0.16-0.52-0.3
				c-0.08-0.14-0.14-0.35,0-0.6l10.47-17.99c0.14-0.25,0.36-0.3,0.52-0.3c0.16,0,0.38,0.05,0.52,0.3l10.47,17.99
				C291.64,26.44,291.57,26.66,291.49,26.79z"/>
		</g>
		<polygon class="st6" points="280.05,12.78 282.44,12.78 279.61,18.89 283.32,17.07 281.11,25.04 282.51,24.42 280.32,26.72 
			279.57,23.79 280.48,24.65 280.95,19.33 277.68,21.51 		"/>
	</g>
	<path class="st1" d="M251.5,28.86L251.5,28.86c0.25,0,0.45-0.2,0.45-0.45V6.58c0-0.25-0.2-0.45-0.45-0.45l0,0
		c-0.25,0-0.45,0.2-0.45,0.45v21.83C251.05,28.66,251.25,28.86,251.5,28.86z"/>
	<polygon class="st7" points="14.4,7.5 18.2,7.5 13.7,16.26 19.61,13.66 16.09,25.09 18.31,24.19 14.82,27.5 13.64,23.29 
		15.08,24.53 15.82,16.89 10.61,20.03 	"/>
	<g class="st8">
		<path class="st9" d="M154.73,23.32l-1.74-1.74c0.21-0.36,0.4-0.75,0.55-1.14c1.42-3.52,0.61-7.52-2.07-10.21
			c-0.16-0.16-0.32-0.31-0.49-0.46l0.52-0.74c0.05-0.07,0.06-0.17,0.02-0.25c-0.04-0.08-0.12-0.13-0.21-0.13h-1.9
			c-2.21-1.23-4.86-1.53-7.29-0.8c-0.09,0.03-0.15,0.1-0.17,0.2l-0.24,1.8c-0.01,0.08,0.02,0.17,0.09,0.22
			c0.04,0.03,0.09,0.05,0.14,0.05c0.03,0,0.06-0.01,0.09-0.02c1.06-0.43,2.21-0.61,3.35-0.52L141.84,17l-0.56,1.03
			c-0.04,0.07-0.04,0.16,0,0.23c0.04,0.07,0.12,0.12,0.2,0.12h1.78l-2.67,4.54c-0.35-0.24-0.68-0.52-0.98-0.83
			c-1.91-1.91-2.62-4.71-1.84-7.31c0.1-0.35,0.23-0.69,0.39-1.02l1.54,1.54c0.06,0.06,0.16,0.09,0.24,0.06
			c0.09-0.03,0.15-0.1,0.16-0.19l0.75-5.59c0.01-0.07-0.02-0.15-0.07-0.2s-0.13-0.08-0.2-0.07l-5.59,0.75
			c-0.09,0.01-0.16,0.07-0.19,0.16c-0.03,0.09-0.01,0.18,0.06,0.24l1.75,1.75c-0.21,0.37-0.4,0.75-0.55,1.14
			c-1.42,3.52-0.61,7.52,2.07,10.21c0.43,0.43,0.9,0.82,1.4,1.15l-1.44,2.45c-0.06,0.1-0.04,0.23,0.06,0.31
			c0.04,0.03,0.09,0.05,0.15,0.05c0.06,0,0.12-0.02,0.17-0.07l2.16-2.11c1.31,0.65,2.73,0.98,4.17,0.98c0.9,0,1.81-0.13,2.69-0.39
			c0.09-0.03,0.16-0.1,0.17-0.2l0.24-1.79c0.01-0.08-0.02-0.17-0.09-0.22c-0.07-0.05-0.16-0.06-0.23-0.03
			c-1.7,0.69-3.62,0.71-5.33,0.08l5.4-5.27l0.71-0.7c0,0,0.01-0.01,0.01-0.01l2.93-2.86c0.07-0.07,0.09-0.17,0.05-0.26
			c-0.04-0.09-0.12-0.15-0.22-0.15h-3.51l2.15-3.05c0.08,0.07,0.15,0.14,0.23,0.22c1.91,1.91,2.62,4.71,1.84,7.31
			c-0.1,0.35-0.23,0.69-0.39,1.02l-1.55-1.55c-0.06-0.06-0.16-0.09-0.24-0.06c-0.09,0.03-0.15,0.1-0.16,0.19l-0.75,5.59
			c-0.01,0.07,0.02,0.15,0.07,0.2c0.04,0.04,0.11,0.07,0.17,0.07c0.01,0,0.02,0,0.03,0l1.65-0.22c0.01,0,0.01,0,0.02,0l3.92-0.53
			c0.09-0.01,0.16-0.07,0.19-0.16C154.82,23.48,154.79,23.38,154.73,23.32z M142.23,9.52l0.17-1.25c1.97-0.55,4.07-0.4,5.93,0.39
			h-2.36c-0.09,0-0.17,0.05-0.21,0.13l-0.16,0.33C144.46,9.01,143.3,9.15,142.23,9.52z M138.47,23.23
			c-2.55-2.55-3.32-6.35-1.97-9.69c0.17-0.42,0.38-0.84,0.62-1.23c0.06-0.09,0.04-0.21-0.04-0.29l-1.54-1.54l4.81-0.65l-0.65,4.81
			l-1.44-1.44c-0.05-0.05-0.13-0.08-0.2-0.07c-0.07,0.01-0.14,0.06-0.17,0.12c-0.23,0.44-0.43,0.91-0.57,1.39
			c-0.83,2.76-0.08,5.74,1.96,7.78c0.33,0.33,0.7,0.64,1.08,0.9l-0.58,0.99C139.31,23.99,138.87,23.63,138.47,23.23z M147.37,24.28
			l-0.17,1.25c-2.08,0.58-4.27,0.39-6.22-0.53l0.88-0.86C143.62,24.85,145.59,24.9,147.37,24.28z M146.95,14.88
			c0.04,0.08,0.12,0.13,0.21,0.13h3.38l-2.5,2.44c0,0-0.01,0.01-0.01,0.01l-8.63,8.42l0.65-1.11c0,0,0,0,0,0c0,0,0,0,0-0.01
			l3.83-6.51c0.04-0.07,0.04-0.16,0-0.24c-0.04-0.07-0.12-0.12-0.21-0.12h-1.8l0.37-0.68c0,0,0-0.01,0.01-0.01l3.85-8.07h4.73
			l-3.88,5.5C146.92,14.71,146.91,14.81,146.95,14.88z M150.59,23.78c-0.01,0-0.01,0-0.02,0l-1.32,0.18l0.65-4.81l1.45,1.45
			c0.05,0.05,0.13,0.08,0.2,0.07c0.07-0.01,0.14-0.06,0.17-0.12c0.23-0.44,0.43-0.91,0.57-1.39c0.83-2.76,0.08-5.74-1.96-7.78
			c-0.09-0.09-0.19-0.18-0.29-0.27l0.66-0.94c0.15,0.13,0.29,0.26,0.43,0.4c2.55,2.55,3.32,6.35,1.97,9.69
			c-0.17,0.43-0.38,0.84-0.62,1.24c-0.06,0.09-0.04,0.21,0.04,0.29l1.53,1.53L150.59,23.78z"/>
		<path class="st10" d="M147.37,24.28l-0.17,1.25c-2.08,0.58-4.27,0.39-6.22-0.53l0.88-0.86C143.62,24.85,145.59,24.9,147.37,24.28z
			"/>
		<path class="st10" d="M140.36,23.32l-0.58,0.99c-0.47-0.32-0.9-0.68-1.31-1.08c-2.55-2.55-3.32-6.35-1.97-9.69
			c0.17-0.42,0.38-0.84,0.62-1.23c0.06-0.09,0.04-0.21-0.04-0.29l-1.54-1.54l4.81-0.65l-0.65,4.81l-1.44-1.44
			c-0.05-0.05-0.13-0.08-0.2-0.07c-0.07,0.01-0.14,0.06-0.17,0.12c-0.23,0.44-0.43,0.91-0.57,1.39c-0.83,2.76-0.08,5.74,1.96,7.78
			C139.61,22.76,139.98,23.06,140.36,23.32z"/>
		<path class="st10" d="M154.06,23.31l-3.47,0.47c-0.01,0-0.01,0-0.02,0l-1.32,0.18l0.65-4.81l1.45,1.45
			c0.05,0.05,0.13,0.08,0.2,0.07c0.07-0.01,0.14-0.06,0.17-0.12c0.23-0.44,0.43-0.91,0.57-1.39c0.83-2.76,0.08-5.74-1.96-7.78
			c-0.09-0.09-0.19-0.18-0.29-0.27l0.66-0.94c0.15,0.13,0.29,0.26,0.43,0.4c2.55,2.55,3.32,6.35,1.97,9.69
			c-0.17,0.43-0.38,0.84-0.62,1.24c-0.06,0.09-0.04,0.21,0.04,0.29L154.06,23.31z"/>
		<path class="st10" d="M148.33,8.66h-2.36c-0.09,0-0.17,0.05-0.21,0.13l-0.16,0.33c-1.14-0.12-2.3,0.02-3.37,0.39l0.17-1.25
			C144.36,7.72,146.47,7.87,148.33,8.66z"/>
		<path class="st11" d="M147.16,15.01h3.38l-2.5,2.44c0,0-0.01,0.01-0.01,0.01l-8.63,8.42l0.65-1.11c0,0,0,0,0,0c0,0,0,0,0-0.01
			l3.83-6.51c0.04-0.07,0.04-0.16,0-0.24c-0.04-0.07-0.12-0.12-0.21-0.12h-1.8l0.37-0.68c0,0,0-0.01,0.01-0.01l3.85-8.07h4.73
			l-3.88,5.5c-0.05,0.07-0.06,0.17-0.02,0.25C146.99,14.96,147.08,15.01,147.16,15.01z"/>
	</g>
</g>
</svg>
