<?xml version="1.0" encoding="utf-8"?>
<!-- Generator: Adobe Illustrator 27.0.0, SVG Export Plug-In . SVG Version: 6.00 Build 0)  -->
<svg version="1.1" id="Layer_1" xmlns="http://www.w3.org/2000/svg" xmlns:xlink="http://www.w3.org/1999/xlink" x="0px" y="0px"
	 viewBox="0 0 310 35" style="enable-background:new 0 0 310 35;" xml:space="preserve">
<style type="text/css">
	.st0{fill:url(#SVGID_1_);}
	.st1{fill:url(#SVGID_00000125589861353818766480000017269629386704322691_);}
	.st2{fill:#FFFFFF;}
	.st3{font-family:'Prompt-Regular';}
	.st4{font-size:18px;}
	.st5{fill:#FFFFFE;}
</style>
<g>
	
		<linearGradient id="SVGID_1_" gradientUnits="userSpaceOnUse" x1="-2947.9075" y1="-86.4607" x2="-2869.5266" y2="49.0015" gradientTransform="matrix(1 0 0 1 3042.7539 0)">
		<stop  offset="0" style="stop-color:#13375C"/>
		<stop  offset="1" style="stop-color:#151E37"/>
	</linearGradient>
	<path class="st0" d="M300,32.5H10c-4.42,0-8-3.58-8-8v-14c0-4.42,3.58-8,8-8h290c4.42,0,8,3.58,8,8v14
		C308,28.92,304.42,32.5,300,32.5z"/>
	
		<linearGradient id="SVGID_00000158732271343349852120000008719950483481230771_" gradientUnits="userSpaceOnUse" x1="-726.0034" y1="1052.5607" x2="-482.1425" y2="1052.5607" gradientTransform="matrix(-1 0 0 1 -428.0034 -1035.0607)">
		<stop  offset="0" style="stop-color:#05CCFF"/>
		<stop  offset="0.0178" style="stop-color:#08C8FF"/>
		<stop  offset="0.3696" style="stop-color:#5080FF"/>
		<stop  offset="0.6619" style="stop-color:#844BFF"/>
		<stop  offset="0.8803" style="stop-color:#A42AFF"/>
		<stop  offset="1" style="stop-color:#B01EFF"/>
	</linearGradient>
	<path style="fill:url(#SVGID_00000158732271343349852120000008719950483481230771_);" d="M107.55,16.5l184.02,0
		c3.55,0,6.43,0.45,6.43,1s-2.88,1-6.43,1l-184.02,0V16.5z"/>
	<path class="st2" d="M32.32,15.39h-1.34c-0.29,0-0.54-0.19-0.64-0.47c-0.1-0.27-0.2-0.54-0.33-0.8c-0.13-0.26-0.09-0.58,0.12-0.79
		l0.95-0.95c0.26-0.26,0.26-0.69,0-0.96l-2.02-2.02c-0.26-0.26-0.69-0.26-0.96,0l-0.95,0.95c-0.21,0.21-0.52,0.25-0.78,0.12
		c-0.26-0.12-0.52-0.23-0.79-0.33c-0.28-0.1-0.47-0.35-0.47-0.64V8.18c0-0.37-0.3-0.68-0.68-0.68h-2.85c-0.37,0-0.68,0.3-0.68,0.68
		v1.34c0,0.29-0.19,0.54-0.47,0.64c-0.27,0.09-0.54,0.2-0.8,0.33c-0.26,0.13-0.58,0.09-0.78-0.12L17.9,9.42
		c-0.26-0.26-0.69-0.26-0.96,0l-2.02,2.02c-0.26,0.26-0.26,0.69,0,0.96l0.95,0.95c0.21,0.21,0.25,0.52,0.12,0.79
		c-0.12,0.26-0.23,0.52-0.33,0.8c-0.1,0.28-0.35,0.47-0.64,0.47h-1.34c-0.37,0-0.68,0.3-0.68,0.68v2.85c0,0.37,0.3,0.68,0.68,0.68
		h1.34c0.29,0,0.54,0.19,0.64,0.47c0.1,0.27,0.2,0.54,0.33,0.8c0.13,0.26,0.09,0.58-0.12,0.78l-0.95,0.95
		c-0.26,0.26-0.26,0.69,0,0.96l2.02,2.02c0.26,0.26,0.69,0.26,0.96,0l0.95-0.95c0.21-0.21,0.52-0.25,0.78-0.12
		c0.26,0.12,0.52,0.23,0.8,0.33c0.28,0.1,0.47,0.35,0.47,0.64v1.34c0,0.37,0.3,0.68,0.68,0.68h2.85c0.37,0,0.68-0.3,0.68-0.68v-1.34
		c0-0.29,0.19-0.54,0.47-0.64c0.27-0.09,0.54-0.2,0.8-0.33c0.26-0.13,0.58-0.09,0.78,0.12l0.95,0.95c0.26,0.26,0.69,0.26,0.96,0
		l2.02-2.02c0.26-0.26,0.26-0.69,0-0.96l-0.95-0.95c-0.21-0.21-0.25-0.52-0.12-0.78c0.12-0.26,0.23-0.52,0.33-0.8
		c0.1-0.28,0.35-0.47,0.64-0.47h1.34c0.37,0,0.68-0.3,0.68-0.68v-2.85C33,15.7,32.7,15.39,32.32,15.39z M23,20.9
		c-1.88,0-3.4-1.52-3.4-3.4c0-1.88,1.52-3.4,3.4-3.4s3.4,1.52,3.4,3.4C26.4,19.38,24.88,20.9,23,20.9z"/>
	<g>
		<text transform="matrix(0.9821 0 0 1 45.3456 22.4979)" class="st2 st3 st4">Setting</text>
	</g>
</g>
</svg>
