<?xml version="1.0" encoding="utf-8"?>
<!-- Generator: Adobe Illustrator 27.0.0, SVG Export Plug-In . SVG Version: 6.00 Build 0)  -->
<svg version="1.1" id="Layer_1" xmlns="http://www.w3.org/2000/svg" xmlns:xlink="http://www.w3.org/1999/xlink" x="0px" y="0px"
	 viewBox="0 0 145 35" style="enable-background:new 0 0 145 35;" xml:space="preserve">
<style type="text/css">
	.st0{fill:url(#SVGID_1_);}
	.st1{fill:#FFFFFF;}
	.st2{fill:url(#SVGID_00000071535095263037803460000015510134527708931203_);}
	.st3{fill:url(#SVGID_00000054261145013305784050000002324621323466954892_);}
	.st4{fill:#FFFFFE;}
	.st5{fill:url(#SVGID_00000078011130732449137690000003120062217499134892_);}
	.st6{fill:url(#SVGID_00000138570498567090276620000013164748054259554232_);}
	.st7{fill-rule:evenodd;clip-rule:evenodd;fill:#FFFFFF;}
</style>
<g>
	
		<linearGradient id="SVGID_1_" gradientUnits="userSpaceOnUse" x1="-3001.0518" y1="-35.7265" x2="-2960.9219" y2="33.6284" gradientTransform="matrix(1 0 0 1 3042.7539 0)">
		<stop  offset="0" style="stop-color:#13375C"/>
		<stop  offset="1" style="stop-color:#151E37"/>
	</linearGradient>
	<path class="st0" d="M132.5,32.5h-120c-5.52,0-10-4.48-10-10v-10c0-5.52,4.48-10,10-10h120c5.52,0,10,4.48,10,10v10
		C142.5,28.02,138.02,32.5,132.5,32.5z"/>
	<g>
		<g>
			<path class="st1" d="M21.88,17.64V7.97c0-1.34-1.11-2.43-2.48-2.43s-2.48,1.09-2.48,2.43v9.86c-1.45,0.89-2.35,2.46-2.35,4.14
				c0,2.69,2.24,4.89,5,4.89s5-2.19,5-4.89C24.57,20.15,23.52,18.47,21.88,17.64z M19.57,26.06c-2.31,0-4.19-1.84-4.19-4.1
				c0-1.48,0.82-2.85,2.14-3.57l0.21-0.11V7.97c0-0.9,0.75-1.64,1.68-1.64s1.68,0.74,1.68,1.64v10.17l0.23,0.11
				c1.49,0.67,2.45,2.13,2.45,3.73C23.76,24.23,21.88,26.06,19.57,26.06z"/>
			<path class="st1" d="M20.01,19.44v-8.13h-1.34v8.18c-1.09,0.32-1.88,1.31-1.88,2.48c0,1.43,1.19,2.59,2.65,2.59
				s2.65-1.16,2.65-2.59C22.09,20.73,21.2,19.69,20.01,19.44z"/>
			<rect x="22.33" y="7.86" class="st1" width="2.24" height="0.72"/>
			<rect x="22.33" y="9.15" class="st1" width="2.24" height="0.72"/>
			<rect x="22.33" y="10.42" class="st1" width="2.24" height="0.72"/>
			<rect x="22.33" y="11.71" class="st1" width="2.24" height="0.72"/>
			<rect x="22.33" y="12.98" class="st1" width="2.24" height="0.72"/>
			<rect x="22.33" y="14.27" class="st1" width="2.24" height="0.72"/>
			<rect x="22.33" y="15.53" class="st1" width="2.24" height="0.72"/>
			<rect x="22.33" y="16.82" class="st1" width="2.24" height="0.72"/>
		</g>
	</g>
</g>
</svg>
