<?xml version="1.0" encoding="utf-8"?>
<!-- Generator: Adobe Illustrator 27.0.0, SVG Export Plug-In . SVG Version: 6.00 Build 0)  -->
<svg version="1.1" id="Layer_1" xmlns="http://www.w3.org/2000/svg" xmlns:xlink="http://www.w3.org/1999/xlink" x="0px" y="0px"
	 viewBox="0 0 50 50" style="enable-background:new 0 0 50 50;" xml:space="preserve">
<style type="text/css">
	.st0{fill-rule:evenodd;clip-rule:evenodd;fill:#FFCE00;}
	.st1{opacity:0.5;}
	.st2{fill-rule:evenodd;clip-rule:evenodd;fill:#FFFFFF;}
	.st3{fill:#FFFFFF;}
	.st4{fill-rule:evenodd;clip-rule:evenodd;fill:#FF0000;}
	.st5{fill:#FF0000;}
	.st6{fill:#FFCE00;}
	.st7{fill-rule:evenodd;clip-rule:evenodd;fill:none;stroke:#FF0000;stroke-width:0.75;stroke-miterlimit:10;}
	.st8{fill:none;stroke:#FF0000;stroke-miterlimit:10;}
	.st9{fill:none;stroke:#FFCE00;stroke-width:0.75;stroke-miterlimit:10;}
	.st10{fill:none;stroke:#FFCE00;stroke-miterlimit:10;}
</style>
<g class="st1">
	<path class="st3" d="M10.38,40.87h29.25c0.21,0,0.38-0.17,0.38-0.38v-4.16c0-0.21-0.17-0.38-0.38-0.38h-3.16v-0.96l0,0l0,0V18.76
		l0,0l0,0v-1.42c0-0.21-0.17-0.38-0.38-0.38H13.91c-0.21,0-0.38,0.17-0.38,0.38v1.42l0,0l0,0v16.23l0,0l0,0v0.96h-3.16
		c-0.21,0-0.38,0.17-0.38,0.38v4.16C10,40.7,10.17,40.87,10.38,40.87z M14.29,19.13h21.43v15.48H14.29L14.29,19.13z M35.71,17.72
		v0.67H14.29v-0.67H35.71z M14.29,35.37h21.43v0.59H14.29L14.29,35.37z M10.75,36.71h28.5v3.41h-28.5V36.71z"/>
	<path class="st3" d="M16.89,15.98h4.57c0.21,0,0.38-0.17,0.38-0.38v-1.52v-1.52v-1.52V9.51c0-0.21-0.17-0.38-0.38-0.38h-4.57
		c-0.21,0-0.38,0.17-0.38,0.38v1.52v1.52v1.52v1.52C16.51,15.82,16.68,15.98,16.89,15.98z M17.27,12.93h3.82v0.77h-3.82V12.93z
		 M21.09,12.18h-3.82v-0.77h3.82L21.09,12.18z M21.09,15.23h-3.82v-0.77h3.82L21.09,15.23z M17.27,9.88h3.82v0.77h-3.82V9.88z"/>
	<path class="st3" d="M29.09,15.98h4.57c0.21,0,0.38-0.17,0.38-0.38v-1.52v-1.52v-1.52V9.51c0-0.21-0.17-0.38-0.38-0.38h-4.57
		c-0.21,0-0.38,0.17-0.38,0.38v1.52v1.52v1.52v1.52C28.72,15.82,28.88,15.98,29.09,15.98z M29.47,12.93h3.82v0.77h-3.82V12.93z
		 M33.29,12.18h-3.82v-0.77h3.82V12.18z M33.29,15.23h-3.82v-0.77h3.82V15.23z M29.47,9.88h3.82v0.77h-3.82V9.88z"/>
	<path class="st3" d="M27.75,26.62c-0.1-0.11-0.26-0.15-0.4-0.1l-4.17,1.46l2.53-6.54c0.08-0.19-0.02-0.41-0.21-0.48
		c-0.19-0.08-0.41,0.02-0.48,0.21l-2.82,7.3c-0.05,0.14-0.02,0.29,0.08,0.4c0.1,0.11,0.26,0.14,0.39,0.09l4.12-1.44l-1.76,3.91
		l-0.49-1.16c-0.08-0.19-0.3-0.28-0.49-0.2c-0.14,0.06-0.23,0.2-0.23,0.35c0,0.05,0.01,0.1,0.03,0.15l0.82,1.96l0,0l0,0l0,0l0,0l0,0
		c0.03,0.08,0.09,0.14,0.17,0.18c0.02,0.01,0.05,0.02,0.07,0.03c0.03,0.01,0.07,0.02,0.11,0.02c0.03,0,0.06,0,0.09-0.01
		c0.01,0,0.02-0.01,0.03-0.01l1.92-0.63c0.2-0.06,0.3-0.28,0.24-0.47s-0.27-0.3-0.47-0.24l-1.11,0.36l2.12-4.71
		C27.88,26.89,27.85,26.73,27.75,26.62z"/>
</g>
</svg>
