<?xml version="1.0" encoding="utf-8"?>
<!-- Generator: Adobe Illustrator 26.5.0, SVG Export Plug-In . SVG Version: 6.00 Build 0)  -->
<svg version="1.1" id="Layer_1" xmlns="http://www.w3.org/2000/svg" xmlns:xlink="http://www.w3.org/1999/xlink" x="0px" y="0px"
	 viewBox="0 0 26.68 26.09" style="enable-background:new 0 0 26.68 26.09;" xml:space="preserve">
<style type="text/css">
	.st0{opacity:0.5;}
	.st1{fill-rule:evenodd;clip-rule:evenodd;fill:none;stroke:#FFFFFF;stroke-width:0.75;stroke-miterlimit:10;}
	.st2{fill-rule:evenodd;clip-rule:evenodd;fill:none;}
	.st3{fill:none;stroke:#FFFFFF;stroke-width:0.75;stroke-miterlimit:10;}
	.st4{opacity:0.45;fill-rule:evenodd;clip-rule:evenodd;fill:#FFFFFF;}
	.st5{fill-rule:evenodd;clip-rule:evenodd;fill:#FFCE00;}
	.st6{fill:none;stroke:#FFFFFF;stroke-miterlimit:10;}
	.st7{opacity:0.5;fill:none;stroke:#FFFFFF;stroke-linecap:round;stroke-linejoin:round;stroke-miterlimit:10;}
	.st8{fill:none;}
	.st9{fill-rule:evenodd;clip-rule:evenodd;fill:#FFFFFF;}
	.st10{fill:#1000FF;}
	.st11{fill-rule:evenodd;clip-rule:evenodd;fill:#1000FF;}
	.st12{fill:url(#SVGID_1_);}
	.st13{fill:url(#SVGID_00000181084212989514308570000000466383923198386570_);}
	.st14{fill:#FF0000;}
	.st15{fill:url(#SVGID_00000114074408504409105430000017759135578367162263_);}
	.st16{fill:url(#SVGID_00000128446479318676570160000001635394320752431011_);}
	.st17{opacity:0.7;fill-rule:evenodd;clip-rule:evenodd;fill:url(#SVGID_00000140703596986648410120000011708253073962376581_);}
	.st18{fill:#FF8888;}
	.st19{opacity:0.7;fill:#2E2923;}
	.st20{opacity:0.7;}
	.st21{opacity:0.7;fill-rule:evenodd;clip-rule:evenodd;fill:url(#SVGID_00000173870499857580696420000002863955087776347267_);}
	.st22{fill:#FFEFAB;}
	.st23{opacity:0.7;fill:#303030;}
	.st24{fill:#FFFFFF;}
	.st25{opacity:0.7;fill-rule:evenodd;clip-rule:evenodd;fill:url(#SVGID_00000139973806161850550990000004480729818124795829_);}
	.st26{opacity:0.5;fill-rule:evenodd;clip-rule:evenodd;fill:#FFFFFF;}
	.st27{opacity:0.7;fill-rule:evenodd;clip-rule:evenodd;fill:url(#SVGID_00000002347738000529642580000010770916720048545444_);}
	.st28{fill:url(#SVGID_00000150067953571747047330000007576925884972600232_);}
	.st29{fill:url(#SVGID_00000008126711498938120920000017028597722874394016_);}
	.st30{fill:url(#SVGID_00000083774593214386304900000017769011909030642085_);}
	.st31{fill:url(#SVGID_00000059269883811352742090000004576014452592662714_);}
	.st32{fill:url(#SVGID_00000133524389993748807390000008178156935968448924_);}
	.st33{fill:url(#SVGID_00000121271369034839419620000013841550515831203005_);}
	.st34{fill:url(#SVGID_00000136395186929093039650000008906594059958537919_);}
	.st35{fill:url(#SVGID_00000173133292365396816450000008479782317891892623_);}
	.st36{fill:url(#SVGID_00000029728072759904279060000001828577936532455818_);}
	.st37{fill:url(#SVGID_00000078750626492814083010000012638436456470330533_);}
	.st38{fill:url(#SVGID_00000126324737743744219320000016337867187840311742_);}
	.st39{opacity:0.3;}
	.st40{fill:#F7D418;}
	.st41{fill:#2E2923;}
	.st42{fill:#29333F;}
	.st43{fill:#B9BBBC;}
	.st44{fill:#FFC200;}
	.st45{fill:url(#SVGID_00000135682082616369525580000004603119023353822082_);}
	.st46{fill:url(#SVGID_00000016758525443001914410000014130151476142101689_);}
	.st47{fill:url(#SVGID_00000009592497060624608920000008693129877808846497_);}
	.st48{fill:url(#SVGID_00000135686815524829530400000015840136956609341079_);}
	.st49{fill:#FFFFFE;}
	.st50{opacity:0.7;fill-rule:evenodd;clip-rule:evenodd;fill:url(#SVGID_00000150805466037586426670000000368433099967532474_);}
	.st51{opacity:0.7;fill-rule:evenodd;clip-rule:evenodd;fill:url(#SVGID_00000029724370692673396670000003929392715784707991_);}
	.st52{opacity:0.7;fill-rule:evenodd;clip-rule:evenodd;fill:url(#SVGID_00000125561573506382163470000004354798370285070723_);}
	.st53{opacity:0.7;fill-rule:evenodd;clip-rule:evenodd;fill:url(#SVGID_00000059284135193230385980000008160196219419041952_);}
	.st54{opacity:0.7;fill-rule:evenodd;clip-rule:evenodd;fill:url(#SVGID_00000068641178817588943280000007815814674404222084_);}
	.st55{opacity:0.7;fill-rule:evenodd;clip-rule:evenodd;fill:url(#SVGID_00000116956548175631845450000018052939360115917231_);}
	.st56{fill-rule:evenodd;clip-rule:evenodd;fill:url(#SVGID_00000072982005193111433250000001351245023399727511_);}
	.st57{fill-rule:evenodd;clip-rule:evenodd;fill:url(#SVGID_00000090295522114547842160000015891275573217408171_);}
	.st58{fill:#FFCE00;}
	.st59{fill:#303030;}
	.st60{fill-rule:evenodd;clip-rule:evenodd;fill:url(#SVGID_00000033339528833731230250000012833782941276091557_);}
	.st61{fill-rule:evenodd;clip-rule:evenodd;fill:url(#SVGID_00000090261525926766280930000017088189875125153433_);}
	.st62{fill-rule:evenodd;clip-rule:evenodd;fill:url(#SVGID_00000077284274416024673530000000424799132622389681_);}
	.st63{fill:url(#SVGID_00000142879663678996898710000000410659089739299462_);}
	.st64{fill:url(#SVGID_00000031170795091908298970000000576732096563437990_);}
	.st65{fill:url(#SVGID_00000033367963235332591320000002108011015368282548_);}
	.st66{fill:url(#SVGID_00000089561476891962199590000004881994459719644831_);}
	.st67{fill-rule:evenodd;clip-rule:evenodd;fill:#FF0000;}
	.st68{fill-rule:evenodd;clip-rule:evenodd;fill:none;stroke:#FF0000;stroke-width:0.75;stroke-miterlimit:10;}
	.st69{fill:none;stroke:#FF0000;stroke-miterlimit:10;}
	.st70{fill:none;stroke:#FFCE00;stroke-width:0.75;stroke-miterlimit:10;}
	.st71{fill:none;stroke:#FFCE00;stroke-miterlimit:10;}
	.st72{fill:url(#SVGID_00000176765893990114189380000003120509073706422437_);}
	.st73{fill:url(#SVGID_00000108296533544441090690000000908464631335186108_);}
	.st74{fill:url(#SVGID_00000075134636388577294280000002007401534201354395_);}
	.st75{fill:url(#SVGID_00000044887561335018554590000011268686465665430688_);}
	.st76{fill:url(#SVGID_00000176752708910506133120000012115868856137671599_);}
	.st77{fill:url(#SVGID_00000044870102279693768580000012749747942345786295_);}
	.st78{fill:url(#SVGID_00000043419163699034013310000007049411215560877240_);}
	.st79{fill:url(#SVGID_00000083047932390221386750000015728471266474373295_);}
	.st80{fill:url(#SVGID_00000071524683969982781330000005553257827654633605_);}
	.st81{fill:url(#SVGID_00000098194030989412075090000010625984553658751904_);}
	.st82{fill:url(#SVGID_00000040561887547817942620000003065330094925555879_);}
	.st83{fill:url(#SVGID_00000116955058031726658010000013593747775093373568_);}
	.st84{fill:url(#SVGID_00000128455056107966565370000013170752366631385276_);}
	.st85{fill:url(#SVGID_00000107556571831537711970000002783853213890251953_);}
	.st86{fill:url(#SVGID_00000132801442358191270850000012466780253385537426_);}
	.st87{fill:url(#SVGID_00000044178278301202869720000000489327522604555683_);}
	.st88{fill:url(#SVGID_00000101784588489826484840000008438503588700360091_);}
	.st89{fill:url(#SVGID_00000083071520695975871710000005666021369975878804_);}
	.st90{fill:url(#SVGID_00000051361012308402711200000008610661421312341382_);}
	.st91{fill:url(#SVGID_00000033342272207566947770000002595453432483061689_);}
	.st92{fill:url(#SVGID_00000072238339443517523770000001954580051478259882_);}
	.st93{fill:url(#SVGID_00000150066242260155045410000007808282307844098210_);}
	.st94{fill:url(#SVGID_00000138553519272137522340000000568700356328220583_);}
	.st95{fill-rule:evenodd;clip-rule:evenodd;fill:none;stroke:#FFFFFF;stroke-width:0.5;stroke-miterlimit:10;}
</style>
<g>
	<path class="st95" d="M17.3,25.76H2.45c-0.16,0-0.31-0.12-0.34-0.28l-1.74-8.57c-0.02-0.1,0.01-0.21,0.07-0.29
		C0.5,16.55,0.6,16.5,0.7,16.5h18.36c0.1,0,0.2,0.05,0.27,0.13c0.07,0.08,0.09,0.19,0.07,0.29l-1.77,8.57
		C17.6,25.65,17.46,25.76,17.3,25.76L17.3,25.76z M16.06,24.09c0.09,0,0.17-0.06,0.19-0.15l1.14-5.52c0.01-0.06,0-0.12-0.04-0.16
		c-0.04-0.05-0.09-0.07-0.15-0.07H2.57c-0.06,0-0.11,0.03-0.15,0.07c-0.04,0.04-0.05,0.1-0.04,0.16l1.12,5.52
		c0.02,0.09,0.1,0.16,0.19,0.16H16.06L16.06,24.09z M3.85,23.7H15.9l1.06-5.13H2.81L3.85,23.7z"/>
	<path class="st95" d="M4.93,9.94c-0.17,0-0.31-0.12-0.34-0.29C4.21,7.37,5.3,5.07,7.3,3.92c2.66-1.53,6.06-0.62,7.6,2.04
		c0.1,0.17,0.04,0.38-0.13,0.47c-0.17,0.1-0.38,0.04-0.47-0.13c-1.34-2.33-4.33-3.12-6.65-1.78c-1.75,1.01-2.7,3.03-2.37,5.02
		c0.03,0.19-0.1,0.37-0.28,0.4C4.97,9.93,4.95,9.94,4.93,9.94z"/>
	<path class="st95" d="M4.93,9.94c-0.07,0-0.15-0.02-0.21-0.07L3.34,8.79C3.19,8.67,3.16,8.46,3.28,8.31
		c0.12-0.15,0.33-0.18,0.49-0.06l1.11,0.86L5.73,8c0.12-0.15,0.33-0.18,0.49-0.06c0.15,0.12,0.18,0.33,0.06,0.49L5.2,9.8
		C5.14,9.89,5.03,9.94,4.93,9.94z"/>
	<path class="st95" d="M2.1,16.1v-4.6c0-0.19,0.15-0.35,0.35-0.35h6.18c0.14,0,0.27,0.09,0.32,0.22l1,2.64h7.35
		c0.19,0,0.35,0.15,0.35,0.35v1.74H2.1z"/>
	<path class="st95" d="M9.68,12.15h2.96c0.14,0,0.27,0.09,0.32,0.22l0.47,1.24h-3.2L9.68,12.15z"/>
	<path class="st95" d="M26.01,12.73h-9.22c-0.19,0-0.35-0.15-0.35-0.35V0.71c0-0.19,0.15-0.35,0.35-0.35h4.87
		c-0.05,0.1-0.08,0.22-0.08,0.35v3.68c0,0.42,0.34,0.75,0.75,0.75h3.68c0.12,0,0.24-0.03,0.35-0.08v7.33
		C26.36,12.58,26.2,12.73,26.01,12.73L26.01,12.73z M24.35,11.58c0.11,0,0.19-0.09,0.19-0.19c0-0.11-0.09-0.19-0.19-0.19h-5.9
		c-0.11,0-0.19,0.09-0.19,0.19s0.09,0.19,0.19,0.19H24.35L24.35,11.58z M24.35,9.95c0.11,0,0.19-0.09,0.19-0.19
		c0-0.11-0.09-0.19-0.19-0.19h-5.9c-0.11,0-0.19,0.09-0.19,0.19c0,0.11,0.09,0.19,0.19,0.19H24.35L24.35,9.95z M24.35,8.31
		c0.11,0,0.19-0.09,0.19-0.19c0-0.11-0.09-0.19-0.19-0.19h-5.9c-0.11,0-0.19,0.09-0.19,0.19c0,0.11,0.09,0.19,0.19,0.19H24.35
		L24.35,8.31z M24.35,6.68c0.11,0,0.19-0.09,0.19-0.19c0-0.11-0.09-0.19-0.19-0.19h-5.9c-0.11,0-0.19,0.09-0.19,0.19
		c0,0.11,0.09,0.19,0.19,0.19H24.35z"/>
	<path class="st95" d="M26.01,4.73h-3.68c-0.19,0-0.35-0.15-0.35-0.35V0.71c0-0.14,0.08-0.27,0.21-0.32
		c0.13-0.05,0.28-0.02,0.38,0.07l3.68,3.68c0.1,0.1,0.13,0.25,0.08,0.38C26.28,4.65,26.15,4.73,26.01,4.73z"/>
</g>
</svg>
