<?xml version="1.0" encoding="utf-8"?>
<!-- Generator: Adobe Illustrator 26.5.0, SVG Export Plug-In . SVG Version: 6.00 Build 0)  -->
<svg version="1.1" id="Layer_1" xmlns="http://www.w3.org/2000/svg" xmlns:xlink="http://www.w3.org/1999/xlink" x="0px" y="0px"
	 viewBox="0 0 35 21.61" style="enable-background:new 0 0 35 21.61;" xml:space="preserve">
<style type="text/css">
	.st0{opacity:0.5;}
	.st1{fill-rule:evenodd;clip-rule:evenodd;fill:none;stroke:#FFFFFF;stroke-width:0.75;stroke-miterlimit:10;}
	.st2{fill-rule:evenodd;clip-rule:evenodd;fill:none;}
	.st3{fill:none;stroke:#FFFFFF;stroke-width:0.75;stroke-miterlimit:10;}
	.st4{opacity:0.45;fill-rule:evenodd;clip-rule:evenodd;fill:#FFFFFF;}
	.st5{fill-rule:evenodd;clip-rule:evenodd;fill:#FFCE00;}
	.st6{fill:none;stroke:#FFFFFF;stroke-miterlimit:10;}
	.st7{opacity:0.5;fill:none;stroke:#FFFFFF;stroke-linecap:round;stroke-linejoin:round;stroke-miterlimit:10;}
	.st8{fill:none;}
	.st9{fill-rule:evenodd;clip-rule:evenodd;fill:#FFFFFF;}
	.st10{fill:#1000FF;}
	.st11{fill-rule:evenodd;clip-rule:evenodd;fill:#1000FF;}
	.st12{fill:url(#SVGID_1_);}
	.st13{fill:url(#SVGID_00000052804918630504003790000011311738743491079869_);}
	.st14{fill:#FF0000;}
	.st15{fill:url(#SVGID_00000110450051171049007810000003213580024792681353_);}
	.st16{fill:url(#SVGID_00000147203042860709832950000007749174055993763249_);}
	.st17{opacity:0.7;fill-rule:evenodd;clip-rule:evenodd;fill:url(#SVGID_00000067917150626338500480000009869043257930355105_);}
	.st18{fill:#FF8888;}
	.st19{opacity:0.7;fill:#2E2923;}
	.st20{opacity:0.7;}
	.st21{opacity:0.7;fill-rule:evenodd;clip-rule:evenodd;fill:url(#SVGID_00000151541832817542096900000011179579667635343764_);}
	.st22{fill:#FFEFAB;}
	.st23{opacity:0.7;fill:#303030;}
	.st24{fill:#FFFFFF;}
	.st25{opacity:0.7;fill-rule:evenodd;clip-rule:evenodd;fill:url(#SVGID_00000012437615949059365090000004817529446498765466_);}
	.st26{opacity:0.5;fill-rule:evenodd;clip-rule:evenodd;fill:#FFFFFF;}
	.st27{opacity:0.7;fill-rule:evenodd;clip-rule:evenodd;fill:url(#SVGID_00000129899218536807919380000009194828868761108397_);}
	.st28{fill:url(#SVGID_00000139997977921675999290000005858045550950401462_);}
	.st29{fill:url(#SVGID_00000096050043131056069120000015660502572348455839_);}
	.st30{fill:url(#SVGID_00000024717872092898511940000012897468917154367404_);}
	.st31{fill:url(#SVGID_00000163069548245151717010000001353308438809163414_);}
	.st32{fill:url(#SVGID_00000138538285273321077410000011209620519481844117_);}
	.st33{fill:url(#SVGID_00000158716478220060965430000010674716873164933007_);}
	.st34{fill:url(#SVGID_00000122717162019360906800000012369613498072103309_);}
	.st35{fill:url(#SVGID_00000123412414725735905750000003470655757866094483_);}
	.st36{fill:url(#SVGID_00000157273145494932195810000013263769656923176884_);}
	.st37{fill:url(#SVGID_00000089558852863806567660000001394208694842027160_);}
	.st38{fill:url(#SVGID_00000071522077968904322890000004190708063143514784_);}
	.st39{opacity:0.3;}
	.st40{fill:#F7D418;}
	.st41{fill:#2E2923;}
	.st42{fill:#29333F;}
	.st43{fill:#B9BBBC;}
	.st44{fill:#FFC200;}
	.st45{fill:url(#SVGID_00000054261738712783520740000008120267319386308543_);}
	.st46{fill:url(#SVGID_00000147180073958423954380000014574783913294534276_);}
	.st47{fill:url(#SVGID_00000157301312025121986460000017260569208448530346_);}
	.st48{fill:url(#SVGID_00000140698926345937402740000004154306650066077605_);}
	.st49{fill:#FFFFFE;}
	.st50{opacity:0.7;fill-rule:evenodd;clip-rule:evenodd;fill:url(#SVGID_00000090288889451165513010000013192153478878572476_);}
	.st51{opacity:0.7;fill-rule:evenodd;clip-rule:evenodd;fill:url(#SVGID_00000181051631703221832170000005796602359092317352_);}
	.st52{opacity:0.7;fill-rule:evenodd;clip-rule:evenodd;fill:url(#SVGID_00000078753059177939503630000004484493733659503764_);}
	.st53{opacity:0.7;fill-rule:evenodd;clip-rule:evenodd;fill:url(#SVGID_00000095324903226788321380000014001026392074776974_);}
	.st54{opacity:0.7;fill-rule:evenodd;clip-rule:evenodd;fill:url(#SVGID_00000037656312131800732600000006885674751575975043_);}
	.st55{opacity:0.7;fill-rule:evenodd;clip-rule:evenodd;fill:url(#SVGID_00000086681529099128727720000010588295146554786959_);}
	.st56{fill-rule:evenodd;clip-rule:evenodd;fill:url(#SVGID_00000093151688771239614190000010867149131591960725_);}
	.st57{fill-rule:evenodd;clip-rule:evenodd;fill:url(#SVGID_00000150082057971957519750000005377011204816153778_);}
	.st58{fill:#FFCE00;}
	.st59{fill:#303030;}
	.st60{fill-rule:evenodd;clip-rule:evenodd;fill:url(#SVGID_00000182517193219224173180000002262467161429188026_);}
	.st61{fill-rule:evenodd;clip-rule:evenodd;fill:url(#SVGID_00000117666721328626886870000002616730169901880997_);}
	.st62{fill-rule:evenodd;clip-rule:evenodd;fill:url(#SVGID_00000049930770484424336350000010742911433377050023_);}
	.st63{fill:url(#SVGID_00000177446699618976908870000000632760786457707918_);}
	.st64{fill:url(#SVGID_00000061467868258290966660000006930694768165086092_);}
	.st65{fill:url(#SVGID_00000061466766093728222470000000303924253264249767_);}
	.st66{fill:url(#SVGID_00000039117097720918158450000001760595199586862009_);}
	.st67{fill-rule:evenodd;clip-rule:evenodd;fill:#FF0000;}
	.st68{fill-rule:evenodd;clip-rule:evenodd;fill:none;stroke:#FF0000;stroke-width:0.75;stroke-miterlimit:10;}
	.st69{fill:none;stroke:#FF0000;stroke-miterlimit:10;}
	.st70{fill:none;stroke:#FFCE00;stroke-width:0.75;stroke-miterlimit:10;}
	.st71{fill:none;stroke:#FFCE00;stroke-miterlimit:10;}
	.st72{fill:url(#SVGID_00000127741504692838867480000014753652507677309113_);}
	.st73{fill:url(#SVGID_00000091709621348603273960000014322786339058593465_);}
	.st74{fill:url(#SVGID_00000181791804729403188350000009724254492659685033_);}
	.st75{fill:url(#SVGID_00000025437478253036513220000002746359597254431129_);}
	.st76{fill:url(#SVGID_00000015317076656744109070000007628949081923880617_);}
	.st77{fill:url(#SVGID_00000159447153177713106690000009710658933002912421_);}
	.st78{fill:url(#SVGID_00000119120122912593310000000009721835366813952902_);}
	.st79{fill:url(#SVGID_00000058583146081359816210000010013862971711583891_);}
	.st80{fill:url(#SVGID_00000117670607298623731650000018190419450244819867_);}
	.st81{fill:url(#SVGID_00000138542731562189006300000007319951673150756543_);}
	.st82{fill:url(#SVGID_00000049936241050969245280000017163558612020727682_);}
	.st83{fill:url(#SVGID_00000029016533741144386620000008083234653179424398_);}
	.st84{fill:url(#SVGID_00000007412725695926250190000005175616126452563859_);}
	.st85{fill:url(#SVGID_00000147181603863351859730000007046724251349088144_);}
	.st86{fill:url(#SVGID_00000106849650527523628730000014790594758973944720_);}
	.st87{fill:url(#SVGID_00000101793157007777343310000016616305997813726894_);}
	.st88{fill:url(#SVGID_00000028306984064406740330000002937936690460648344_);}
	.st89{fill:url(#SVGID_00000046313567747857948620000004433122641239419781_);}
	.st90{fill:url(#SVGID_00000143594751738292474790000001412123431847753393_);}
	.st91{fill:url(#SVGID_00000129927133958428242810000018316848146362671546_);}
	.st92{fill:url(#SVGID_00000008836353715605825140000016584952110750637234_);}
	.st93{fill:url(#SVGID_00000054958399961890074850000008724760244654407581_);}
	.st94{fill:url(#SVGID_00000096057669151698993280000016448163229154217605_);}
	.st95{fill-rule:evenodd;clip-rule:evenodd;fill:none;stroke:#FFFFFF;stroke-width:0.5;stroke-miterlimit:10;}
</style>
<g id="_223812384_00000153672375893824783280000013962264140696627341_">
	<path id="_223813104_00000172414012755678612710000010331605570519766680_" class="st49" d="M12.17,2.94
		c-1.13,1.13-1.9,2.61-2.13,4.26c0.21-0.02,0.81-0.07,1.26-0.12c-0.57,0.57-1.13,1.13-1.7,1.7c-0.57-0.57-1.13-1.13-1.7-1.7
		C8.22,7.11,8.82,7.16,9.3,7.2c0.24-1.86,1.09-3.52,2.35-4.78c3.23-3.23,8.46-3.23,11.69,0c1.26,1.26,2.11,2.93,2.35,4.78
		c0.49-0.04,1.08-0.09,1.4-0.12c-0.57,0.57-1.13,1.13-1.7,1.7c-0.57-0.57-1.13-1.13-1.7-1.7c0.45,0.04,1.05,0.1,1.26,0.12
		c-0.23-1.65-1.01-3.13-2.13-4.26C19.89-0.01,15.11-0.01,12.17,2.94L12.17,2.94z"/>
	<g>
		<g>
			<path id="_223813344_00000138556587470911366330000016711420080372964252_" class="st49" d="M27.79,19.36
				c0,2.02,2.25,0.01,2.25,2.25c-0.92,0-4.44,0-5.36,0c0-2.24,2.25-0.12,2.25-2.25C27.21,19.36,27.5,19.36,27.79,19.36L27.79,19.36z
				"/>
			<path id="_223813416_00000156566769715491572810000004679944512945047974_" class="st49" d="M20.14,10.62h14.43
				c0.24,0,0.43,0.2,0.43,0.43v8.3c0,0.24-0.2,0.43-0.43,0.43H20.14c-0.24,0-0.43-0.2-0.43-0.43v-8.3
				C19.71,10.81,19.9,10.62,20.14,10.62L20.14,10.62z M20.5,11.42V19h13.7v-7.58L20.5,11.42L20.5,11.42z"/>
		</g>
		<g>
			<path id="_223812216_00000027565601270624935900000003659331508133407931_" class="st49" d="M8.08,19.36
				c0,2.02,2.25,0.01,2.25,2.25c-0.92,0-4.44,0-5.36,0c0-2.24,2.25-0.12,2.25-2.25C7.5,19.36,7.79,19.36,8.08,19.36L8.08,19.36z"/>
			<path id="_223812192_00000131348362866231200570000000656173320438278076_" class="st49" d="M0.43,10.62h14.43
				c0.24,0,0.43,0.2,0.43,0.43v8.3c0,0.24-0.2,0.43-0.43,0.43H0.43C0.19,19.79,0,19.6,0,19.36v-8.3C0,10.81,0.19,10.62,0.43,10.62
				L0.43,10.62z M0.8,11.42V19h13.7v-7.58L0.8,11.42L0.8,11.42z"/>
		</g>
	</g>
</g>
</svg>
