<?xml version="1.0" encoding="utf-8"?>
<!-- Generator: Adobe Illustrator 26.5.0, SVG Export Plug-In . SVG Version: 6.00 Build 0)  -->
<svg version="1.1" id="Layer_1" xmlns="http://www.w3.org/2000/svg" xmlns:xlink="http://www.w3.org/1999/xlink" x="0px" y="0px"
	 viewBox="0 0 30.51 32.19" style="enable-background:new 0 0 30.51 32.19;" xml:space="preserve">
<style type="text/css">
	.st0{opacity:0.5;}
	.st1{fill-rule:evenodd;clip-rule:evenodd;fill:none;stroke:#FFFFFF;stroke-width:0.75;stroke-miterlimit:10;}
	.st2{fill-rule:evenodd;clip-rule:evenodd;fill:none;}
	.st3{fill:none;stroke:#FFFFFF;stroke-width:0.75;stroke-miterlimit:10;}
	.st4{opacity:0.45;fill-rule:evenodd;clip-rule:evenodd;fill:#FFFFFF;}
	.st5{fill-rule:evenodd;clip-rule:evenodd;fill:#FFCE00;}
	.st6{fill:none;stroke:#FFFFFF;stroke-width:0.5;stroke-miterlimit:10;}
	.st7{fill:none;stroke:#FFFFFF;stroke-miterlimit:10;}
	.st8{opacity:0.5;fill:none;stroke:#FFFFFF;stroke-linecap:round;stroke-linejoin:round;stroke-miterlimit:10;}
	.st9{fill:none;}
	.st10{fill-rule:evenodd;clip-rule:evenodd;fill:#FFFFFF;}
	.st11{fill:#1000FF;}
	.st12{fill-rule:evenodd;clip-rule:evenodd;fill:#1000FF;}
	.st13{fill:url(#SVGID_1_);}
	.st14{fill:url(#SVGID_00000012444246240814105220000005045670287262904206_);}
	.st15{fill:#FF0000;}
	.st16{fill:url(#SVGID_00000080201343241070471930000013909557290805129608_);}
	.st17{fill:url(#SVGID_00000137096319139719857560000009965745249007391415_);}
	.st18{opacity:0.7;fill-rule:evenodd;clip-rule:evenodd;fill:url(#SVGID_00000075841615588396166360000011818821672953201295_);}
	.st19{fill:#FF8888;}
	.st20{opacity:0.7;fill:#2E2923;}
	.st21{opacity:0.7;}
	.st22{opacity:0.7;fill-rule:evenodd;clip-rule:evenodd;fill:url(#SVGID_00000161604709954575010010000005543924636222169742_);}
	.st23{fill:#FFEFAB;}
	.st24{opacity:0.7;fill:#303030;}
	.st25{fill:#FFFFFF;}
	.st26{opacity:0.7;fill-rule:evenodd;clip-rule:evenodd;fill:url(#SVGID_00000151508819447572009820000002218420880525800624_);}
	.st27{opacity:0.5;fill-rule:evenodd;clip-rule:evenodd;fill:#FFFFFF;}
	.st28{opacity:0.7;fill-rule:evenodd;clip-rule:evenodd;fill:url(#SVGID_00000090258247420418992700000002226905049334334911_);}
	.st29{fill:url(#SVGID_00000016766823839880665860000016585955759420493698_);}
	.st30{fill:url(#SVGID_00000127747032181572393080000017923173886525332611_);}
	.st31{fill:url(#SVGID_00000010303796416347675470000016611724168432103067_);}
	.st32{fill:url(#SVGID_00000042697250657329185270000010090815620295068566_);}
	.st33{fill:url(#SVGID_00000147216510238652127570000000393208021359747232_);}
	.st34{fill:url(#SVGID_00000173120796635931011540000000770039123437332103_);}
	.st35{fill:url(#SVGID_00000029728702009853185660000012059578280136837549_);}
	.st36{fill:url(#SVGID_00000171685715677511294460000011481146157230541474_);}
	.st37{fill:url(#SVGID_00000161603684625239727740000016047080080807765173_);}
	.st38{fill:url(#SVGID_00000049934456572674217970000002146212096920944287_);}
	.st39{opacity:0.3;}
	.st40{fill:#F7D418;}
	.st41{fill:#2E2923;}
	.st42{fill:#29333F;}
	.st43{fill:#B9BBBC;}
	.st44{fill:#FFC200;}
	.st45{fill:url(#SVGID_00000127760594491243257900000014819237426782465707_);}
	.st46{fill:url(#SVGID_00000147190221475067934870000015935913647174156217_);}
	.st47{fill:url(#SVGID_00000158029167205592996560000008740222691945415559_);}
	.st48{fill:url(#SVGID_00000095305567734461936100000001005882135608587428_);}
	.st49{fill:#FFFFFE;}
	.st50{opacity:0.7;fill-rule:evenodd;clip-rule:evenodd;fill:url(#SVGID_00000098193470080767501050000011093020468488150953_);}
	.st51{opacity:0.7;fill-rule:evenodd;clip-rule:evenodd;fill:url(#SVGID_00000091697043360108958810000002320746760363606204_);}
	.st52{opacity:0.7;fill-rule:evenodd;clip-rule:evenodd;fill:url(#SVGID_00000124130759417993800190000015338662308349841064_);}
	.st53{opacity:0.7;fill-rule:evenodd;clip-rule:evenodd;fill:url(#SVGID_00000029007613922952373830000001374699642645535151_);}
	.st54{opacity:0.7;fill-rule:evenodd;clip-rule:evenodd;fill:url(#SVGID_00000031913666314449824820000002509937587566991749_);}
	.st55{opacity:0.7;fill-rule:evenodd;clip-rule:evenodd;fill:url(#SVGID_00000168804212368706949500000001885156620620267926_);}
	.st56{fill-rule:evenodd;clip-rule:evenodd;fill:url(#SVGID_00000097468153784778808920000009435142461105794944_);}
	.st57{fill-rule:evenodd;clip-rule:evenodd;fill:url(#SVGID_00000128465667649818363120000001599579276675647647_);}
	.st58{fill:#FFCE00;}
	.st59{fill:#303030;}
	.st60{fill-rule:evenodd;clip-rule:evenodd;fill:url(#SVGID_00000048468862803305614730000017118472640414444212_);}
	.st61{fill-rule:evenodd;clip-rule:evenodd;fill:url(#SVGID_00000150787009967329287840000008444645777505671577_);}
	.st62{fill-rule:evenodd;clip-rule:evenodd;fill:url(#SVGID_00000087414761324541977210000010405996136718740922_);}
	.st63{fill:url(#SVGID_00000103976803248049894520000004146848949451042448_);}
	.st64{fill:url(#SVGID_00000093859671150597867450000002852857032868782228_);}
	.st65{fill:url(#SVGID_00000073001571137635465040000013068000073785061519_);}
	.st66{fill:url(#SVGID_00000157284325997094744710000003234410471996912789_);}
	.st67{fill-rule:evenodd;clip-rule:evenodd;fill:#FF0000;}
	.st68{fill-rule:evenodd;clip-rule:evenodd;fill:none;stroke:#FF0000;stroke-width:0.75;stroke-miterlimit:10;}
	.st69{fill:none;stroke:#FF0000;stroke-miterlimit:10;}
	.st70{fill:none;stroke:#FFCE00;stroke-width:0.75;stroke-miterlimit:10;}
	.st71{fill:none;stroke:#FFCE00;stroke-miterlimit:10;}
	.st72{fill:url(#SVGID_00000103226808518735660770000007192057254793831046_);}
	.st73{fill:url(#SVGID_00000051385669378459345840000015414580377910541968_);}
	.st74{fill:url(#SVGID_00000038413512053043611220000009829053516173105577_);}
	.st75{fill:url(#SVGID_00000052792765199234334010000005001135773870917559_);}
	.st76{fill:url(#SVGID_00000057830030351122508350000007601304638480389536_);}
	.st77{fill:url(#SVGID_00000000922282286624405100000016115811336667624099_);}
	.st78{fill:url(#SVGID_00000145767797559395787900000016884628595674498744_);}
	.st79{fill:url(#SVGID_00000106129856458933624120000012048702734847622837_);}
	.st80{fill:url(#SVGID_00000114038936866073678060000013855472981486555266_);}
	.st81{fill:url(#SVGID_00000071550162204342620360000000777158834802733699_);}
	.st82{fill:url(#SVGID_00000181770830693448672050000017703166498242746553_);}
	.st83{fill:url(#SVGID_00000129191071383144266950000009497944625023944359_);}
	.st84{fill:url(#SVGID_00000067925092458064440280000007607600023369731006_);}
	.st85{fill:url(#SVGID_00000161616001351793651360000006977556747820645789_);}
	.st86{fill:url(#SVGID_00000006677399499381491830000006562115303105247162_);}
	.st87{fill:url(#SVGID_00000039836024324135206070000015540840406136118685_);}
	.st88{fill:url(#SVGID_00000156579391000841509490000001051378662490266300_);}
	.st89{fill:url(#SVGID_00000091731040073494095770000015004982942332680867_);}
	.st90{fill:url(#SVGID_00000031195393976312250790000004789287534990851483_);}
	.st91{fill:url(#SVGID_00000029767726060816836400000003788501822732670395_);}
	.st92{fill:url(#SVGID_00000124845154676161855390000007358018510529063857_);}
	.st93{fill:url(#SVGID_00000074421185345158953210000009391904858683659701_);}
	.st94{fill:url(#SVGID_00000164479858915109224900000008457684057363573943_);}
	.st95{fill-rule:evenodd;clip-rule:evenodd;fill:none;stroke:#FFFFFF;stroke-width:0.5;stroke-miterlimit:10;}
</style>
<g>
	<path class="st58" d="M0.63,31.96h29.25c0.21,0,0.38-0.17,0.38-0.38v-4.16c0-0.21-0.17-0.38-0.38-0.38h-3.16v-0.96l0,0l0,0V9.85
		l0,0l0,0V8.43c0-0.21-0.17-0.38-0.38-0.38H4.16c-0.21,0-0.38,0.17-0.38,0.38v1.42l0,0l0,0v16.23l0,0l0,0v0.96H0.63
		c-0.21,0-0.38,0.17-0.38,0.38v4.16C0.25,31.79,0.42,31.96,0.63,31.96z M4.54,10.23h21.43v15.48H4.54L4.54,10.23z M25.97,8.81v0.67
		H4.54V8.81H25.97z M4.54,26.46h21.43v0.59H4.54L4.54,26.46z M1,27.8h28.5v3.41H1V27.8z"/>
	<path class="st58" d="M7.14,7.08h4.57c0.21,0,0.38-0.17,0.38-0.38V5.18V3.65V2.13V0.6c0-0.21-0.17-0.38-0.38-0.38H7.14
		c-0.21,0-0.38,0.17-0.38,0.38v1.52v1.52v1.52V6.7C6.77,6.91,6.94,7.08,7.14,7.08z M7.52,4.03h3.82V4.8H7.52V4.03z M11.34,3.28H7.52
		V2.5h3.82L11.34,3.28z M11.34,6.32H7.52V5.55h3.82L11.34,6.32z M7.52,0.98h3.82v0.77H7.52V0.98z"/>
	<path class="st58" d="M19.34,7.08h4.57c0.21,0,0.38-0.17,0.38-0.38V5.18V3.65V2.13V0.6c0-0.21-0.17-0.38-0.38-0.38h-4.57
		c-0.21,0-0.38,0.17-0.38,0.38v1.52v1.52v1.52V6.7C18.97,6.91,19.14,7.08,19.34,7.08z M19.72,4.03h3.82V4.8h-3.82V4.03z M23.54,3.28
		h-3.82V2.5h3.82C23.54,2.5,23.54,3.28,23.54,3.28z M23.54,6.32h-3.82V5.55h3.82C23.54,5.55,23.54,6.32,23.54,6.32z M19.72,0.98
		h3.82v0.77h-3.82V0.98z"/>
	<path class="st58" d="M18,17.71c-0.1-0.11-0.26-0.15-0.4-0.1l-4.17,1.46l2.53-6.54c0.08-0.19-0.02-0.41-0.21-0.48
		c-0.19-0.08-0.41,0.02-0.48,0.21l-2.82,7.3c-0.05,0.14-0.02,0.29,0.08,0.4c0.1,0.11,0.26,0.14,0.39,0.09l4.12-1.44l-1.76,3.91
		l-0.49-1.16c-0.08-0.19-0.3-0.28-0.49-0.2c-0.14,0.06-0.23,0.2-0.23,0.35c0,0.05,0.01,0.1,0.03,0.15l0.82,1.96l0,0l0,0l0,0l0,0l0,0
		c0.03,0.08,0.09,0.14,0.17,0.18c0.02,0.01,0.05,0.02,0.07,0.03c0.03,0.01,0.07,0.02,0.11,0.02c0.03,0,0.06,0,0.09-0.01
		c0.01,0,0.02-0.01,0.03-0.01l1.92-0.63c0.2-0.06,0.3-0.28,0.24-0.47c-0.06-0.2-0.27-0.3-0.47-0.24l-1.11,0.36l2.12-4.71
		C18.13,17.98,18.1,17.82,18,17.71z"/>
</g>
</svg>
