<?xml version="1.0" encoding="utf-8"?>
<!-- Generator: Adobe Illustrator 27.0.0, SVG Export Plug-In . SVG Version: 6.00 Build 0)  -->
<svg version="1.1" id="Layer_1" xmlns="http://www.w3.org/2000/svg" xmlns:xlink="http://www.w3.org/1999/xlink" x="0px" y="0px"
	 viewBox="0 0 50 50" style="enable-background:new 0 0 50 50;" xml:space="preserve">
<style type="text/css">
	.st0{fill-rule:evenodd;clip-rule:evenodd;fill:#FFCE00;}
	.st1{opacity:0.5;}
	.st2{fill-rule:evenodd;clip-rule:evenodd;fill:#FFFFFF;}
	.st3{fill:#FFFFFF;}
	.st4{fill-rule:evenodd;clip-rule:evenodd;fill:#FF0000;}
	.st5{fill:#FF0000;}
	.st6{fill:#FFCE00;}
	.st7{fill-rule:evenodd;clip-rule:evenodd;fill:none;stroke:#FF0000;stroke-width:0.75;stroke-miterlimit:10;}
	.st8{fill:none;stroke:#FF0000;stroke-miterlimit:10;}
	.st9{fill:none;stroke:#FFCE00;stroke-width:0.75;stroke-miterlimit:10;}
</style>
<g>
	<path class="st9" d="M21.21,31.6h7.57c0.15,0,0.28,0.12,0.28,0.28v0.83c0,0.15-0.12,0.28-0.28,0.28h-7.57
		c-0.15,0-0.28-0.12-0.28-0.28v-0.83C20.94,31.72,21.06,31.6,21.21,31.6z"/>
	<path class="st9" d="M21.21,33.73h7.57c0.15,0,0.28,0.12,0.28,0.28v0.83c0,0.15-0.12,0.28-0.28,0.28h-7.57
		c-0.15,0-0.28-0.12-0.28-0.28v-0.83C20.94,33.85,21.06,33.73,21.21,33.73z"/>
	<path class="st9" d="M21.59,35.81v0.85c0,1.38,1.56,1.35,1.56,1.35H25h1.85c0,0,1.56,0.04,1.56-1.35v-0.85H21.59z"/>
	<path class="st9" d="M28.53,21.85l-2.14,0.69l-1.28-1.49C25.08,21,25.04,20.95,25,20.92c-0.04,0.03-0.08,0.08-0.11,0.12l-0.02,0.03
		l-1.26,1.46l-2.14-0.69c0.01,0.1,0.05,0.24,0.08,0.33l2.02,4.98v3.54h2.86v-3.54l2.02-4.98C28.49,22.07,28.52,21.94,28.53,21.85z"
		/>
	<path class="st9" d="M25,12c-4.97,0-9,4.03-9,9c0,3.27,1.74,6.12,4.34,7.7v0c0.66,0.47,0.97,1.33,1.12,1.99h1.38V27.3l-1.97-4.85
		c-0.07-0.17-0.27-0.74-0.02-1.11c0.12-0.18,0.31-0.27,0.55-0.27h0.06l1.91,0.62l0.93-1.08c0.09-0.12,0.35-0.44,0.71-0.44
		s0.62,0.32,0.71,0.44l0.93,1.08l1.91-0.62h0.06c0.23,0,0.43,0.1,0.55,0.27c0.25,0.37,0.05,0.94-0.02,1.11l-1.97,4.85v3.39h1.38
		c0.15-0.66,0.46-1.51,1.12-1.99v0C32.27,27.13,34,24.27,34,21C34,16.03,29.97,12,25,12z"/>
	<path class="st9" d="M21.21,31.6h7.57c0.15,0,0.28,0.12,0.28,0.28v0.83c0,0.15-0.12,0.28-0.28,0.28h-7.57
		c-0.15,0-0.28-0.12-0.28-0.28v-0.83C20.94,31.72,21.06,31.6,21.21,31.6z"/>
	<path class="st9" d="M21.21,33.73h7.57c0.15,0,0.28,0.12,0.28,0.28v0.83c0,0.15-0.12,0.28-0.28,0.28h-7.57
		c-0.15,0-0.28-0.12-0.28-0.28v-0.83C20.94,33.85,21.06,33.73,21.21,33.73z"/>
</g>
</svg>
