<?xml version="1.0" encoding="utf-8"?>
<!-- Generator: Adobe Illustrator 27.0.0, SVG Export Plug-In . SVG Version: 6.00 Build 0)  -->
<svg version="1.1" id="Layer_1" xmlns="http://www.w3.org/2000/svg" xmlns:xlink="http://www.w3.org/1999/xlink" x="0px" y="0px"
	 viewBox="0 0 50 50" style="enable-background:new 0 0 50 50;" xml:space="preserve">
<style type="text/css">
	.st0{fill-rule:evenodd;clip-rule:evenodd;fill:#FFCE00;}
	.st1{opacity:0.5;}
	.st2{fill-rule:evenodd;clip-rule:evenodd;fill:#FFFFFF;}
	.st3{fill:#FFFFFF;}
	.st4{fill-rule:evenodd;clip-rule:evenodd;fill:#FF0000;}
	.st5{fill:#FF0000;}
	.st6{fill:#FFCE00;}
	.st7{fill-rule:evenodd;clip-rule:evenodd;fill:none;stroke:#FF0000;stroke-width:0.75;stroke-miterlimit:10;}
	.st8{fill:none;stroke:#FF0000;stroke-miterlimit:10;}
</style>
<g class="st1">
	<g>
		<path class="st2" d="M37.5,18.06H12.49c-1.23,0-2.23-0.79-2.23-1.75v-2.6c0-0.97,1-1.75,2.23-1.75l25.01,0
			c1.23,0,2.23,0.79,2.23,1.75v2.6C39.74,17.28,38.73,18.06,37.5,18.06L37.5,18.06z M25,17.36c-1.65,0-2.99-1.05-2.99-2.35
			s1.34-2.35,2.99-2.35c1.65,0,2.99,1.05,2.99,2.35S26.65,17.36,25,17.36z M36.64,16.66h-4.32c-0.17,0-0.31-0.11-0.31-0.24
			c0-0.13,0.14-0.24,0.31-0.24h4.32c0.17,0,0.31,0.11,0.31,0.24C36.94,16.55,36.81,16.66,36.64,16.66z M36.64,15.25h-4.32
			c-0.17,0-0.31-0.11-0.31-0.24c0-0.13,0.14-0.24,0.31-0.24h4.32c0.17,0,0.31,0.11,0.31,0.24C36.94,15.14,36.81,15.25,36.64,15.25z
			 M36.64,13.84l-4.32,0c-0.17,0-0.31-0.11-0.31-0.24c0-0.13,0.14-0.24,0.31-0.24h4.32c0.17,0,0.31,0.11,0.31,0.24
			C36.94,13.74,36.81,13.84,36.64,13.84z M17.68,16.66h-4.32c-0.17,0-0.31-0.11-0.31-0.24c0-0.13,0.14-0.24,0.31-0.24h4.32
			c0.17,0,0.31,0.11,0.31,0.24C17.99,16.55,17.85,16.66,17.68,16.66L17.68,16.66z M17.68,15.25h-4.32c-0.17,0-0.31-0.11-0.31-0.24
			c0-0.13,0.14-0.24,0.31-0.24h4.32c0.17,0,0.31,0.11,0.31,0.24C17.99,15.14,17.85,15.25,17.68,15.25L17.68,15.25z M17.68,13.84
			h-4.32c-0.17,0-0.31-0.11-0.31-0.24c0-0.13,0.14-0.24,0.31-0.24h4.32c0.17,0,0.31,0.11,0.31,0.24
			C17.99,13.74,17.85,13.84,17.68,13.84L17.68,13.84z"/>
		<path class="st2" d="M35.06,24.35l-20.13,0c-0.54,0-0.99-0.35-0.99-0.77v-0.92c0-0.43,0.44-0.77,0.99-0.77h20.13
			c0.54,0,0.99,0.35,0.99,0.77v0.92C36.05,24,35.61,24.35,35.06,24.35z"/>
		<path class="st2" d="M34.37,22.37c-0.04,0-0.08-0.01-0.12-0.02c-0.16-0.05-0.23-0.19-0.17-0.31l2.22-4.3
			c0.06-0.12,0.24-0.18,0.4-0.13c0.16,0.05,0.23,0.19,0.17,0.31l-2.22,4.3C34.6,22.31,34.49,22.37,34.37,22.37L34.37,22.37z
			 M15.63,22.37c-0.12,0-0.24-0.06-0.28-0.15l-2.22-4.3c-0.06-0.12,0.01-0.26,0.17-0.31c0.16-0.05,0.34,0.01,0.4,0.13l2.22,4.3
			c0.06,0.12-0.01,0.26-0.17,0.31C15.71,22.36,15.67,22.37,15.63,22.37L15.63,22.37z"/>
		<path class="st2" d="M15.63,22.61c-0.25,0-0.47-0.12-0.57-0.3L12.85,18c-0.13-0.25,0.03-0.53,0.34-0.63
			c0.31-0.1,0.67,0.02,0.8,0.27l2.22,4.3c0.13,0.25-0.03,0.53-0.34,0.63C15.79,22.6,15.71,22.61,15.63,22.61L15.63,22.61z
			 M18.75,22.61c-0.28,0-0.52-0.15-0.59-0.36l-1.48-4.3c-0.09-0.26,0.11-0.52,0.43-0.59s0.67,0.08,0.75,0.34l1.48,4.3
			c0.09,0.26-0.11,0.52-0.43,0.59C18.86,22.6,18.81,22.61,18.75,22.61L18.75,22.61z M21.88,22.61c-0.31,0-0.57-0.18-0.61-0.42
			l-0.74-4.3c-0.05-0.26,0.19-0.51,0.53-0.54c0.34-0.04,0.65,0.15,0.69,0.41l0.74,4.3c0.05,0.26-0.19,0.51-0.53,0.54
			C21.9,22.61,21.93,22.61,21.88,22.61L21.88,22.61z M25,22.61c-0.34,0-0.61-0.22-0.61-0.48v-4.3c0-0.27,0.27-0.48,0.61-0.48
			c0.34,0,0.61,0.22,0.61,0.48v4.3C25.61,22.39,25.34,22.61,25,22.61z M28.12,22.61c-0.06,0-0.03,0-0.08,0
			c-0.34-0.04-0.57-0.28-0.53-0.54l0.74-4.3c0.05-0.26,0.36-0.45,0.69-0.41c0.34,0.04,0.57,0.28,0.53,0.54l-0.74,4.3
			C28.69,22.43,28.43,22.61,28.12,22.61z M31.24,22.61c-0.05,0-0.11-0.01-0.16-0.02c-0.33-0.07-0.52-0.34-0.43-0.59l1.48-4.3
			c0.09-0.26,0.43-0.41,0.75-0.34c0.33,0.07,0.52,0.34,0.43,0.59l-1.48,4.3C31.76,22.46,31.52,22.61,31.24,22.61L31.24,22.61z
			 M34.37,22.61c-0.08,0-0.16-0.01-0.23-0.04c-0.31-0.1-0.46-0.38-0.34-0.63l2.22-4.3c0.13-0.25,0.49-0.37,0.8-0.27
			c0.31,0.1,0.46,0.38,0.34,0.63l-2.22,4.3C34.84,22.49,34.62,22.61,34.37,22.61L34.37,22.61z"/>
		<path class="st2" d="M25,29.16c-2.26,0-4.43-0.51-6.09-1.44c-1.39-0.78-2.33-1.78-2.72-2.89h17.63c-0.39,1.11-1.33,2.11-2.72,2.89
			C29.43,28.65,27.26,29.16,25,29.16L25,29.16z"/>
		<path class="st2" d="M25,16.88c1.31,0,2.38-0.84,2.38-1.87s-1.07-1.87-2.38-1.87c-1.31,0-2.38,0.84-2.38,1.87
			S23.69,16.88,25,16.88z"/>
	</g>
	<path class="st3" d="M36.02,29.93c0.6-0.77,1.88-1.01,2.86-0.54c0.98,0.47,1.29,1.48,0.68,2.25c-3.14,4.01-8.58,6.41-14.57,6.41
		c-5.99,0-11.43-2.4-14.57-6.41c-0.21-0.27-0.31-0.56-0.31-0.85c0-0.55,0.35-1.09,0.99-1.39c0.98-0.47,2.26-0.23,2.86,0.54
		c2.37,3.04,6.49,4.85,11.02,4.85C29.53,34.78,33.65,32.96,36.02,29.93L36.02,29.93z M36.02,29.93"/>
</g>
</svg>
