<?xml version="1.0" encoding="utf-8"?>
<!-- Generator: Adobe Illustrator 27.0.0, SVG Export Plug-In . SVG Version: 6.00 Build 0)  -->
<svg version="1.1" id="Layer_1" xmlns="http://www.w3.org/2000/svg" xmlns:xlink="http://www.w3.org/1999/xlink" x="0px" y="0px"
	 viewBox="0 0 95 95" style="enable-background:new 0 0 95 95;" xml:space="preserve">
<style type="text/css">
	.st0{opacity:0.7;fill-rule:evenodd;clip-rule:evenodd;fill:url(#SVGID_1_);}
	.st1{opacity:0.5;}
	.st2{fill:#FF8888;}
	.st3{opacity:0.7;fill:#2E2923;}
	.st4{opacity:0.7;}
	.st5{fill-rule:evenodd;clip-rule:evenodd;fill:#FFFFFF;}
	.st6{opacity:0.7;fill-rule:evenodd;clip-rule:evenodd;fill:url(#SVGID_00000016770548360389906320000000671333742613414306_);}
	.st7{fill:#FFFFFF;}
	.st8{font-family:'Prompt-Regular';}
	.st9{font-size:11px;}
	.st10{fill:#FFEFAB;}
	.st11{opacity:0.7;fill:#303030;}
	.st12{fill:#303030;}
	.st13{font-size:22.5305px;}
	.st14{opacity:0.7;fill-rule:evenodd;clip-rule:evenodd;fill:url(#SVGID_00000125593793477821497400000013058394749274075054_);}
	.st15{fill-rule:evenodd;clip-rule:evenodd;fill:url(#SVGID_00000156568857455985310360000012122962919390450307_);}
	.st16{fill:#FF0000;}
	.st17{fill:#2E2923;}
	.st18{fill-rule:evenodd;clip-rule:evenodd;fill:url(#SVGID_00000144310663263600224500000006832487824776655510_);}
	.st19{fill:#FFCE00;}
	.st20{fill-rule:evenodd;clip-rule:evenodd;fill:url(#SVGID_00000121266514427565120610000004617514295906685112_);}
</style>
<g>
	<linearGradient id="SVGID_1_" gradientUnits="userSpaceOnUse" x1="11" y1="53.25" x2="91" y2="53.25">
		<stop  offset="0" style="stop-color:#13375C"/>
		<stop  offset="1" style="stop-color:#151E37"/>
	</linearGradient>
	<path class="st0" d="M22,85.75h58c6.08,0,11-4.92,11-11v-43c0-6.08-4.92-11-11-11H22c-6.08,0-11,4.92-11,11v43
		C11,80.83,15.92,85.75,22,85.75z"/>
	<g class="st1">
		<text transform="matrix(0.9821 0 0 1 13.5636 65.7686)"><tspan x="0" y="0" class="st7 st8 st9">Motion Detector</tspan><tspan x="14.71" y="13.2" class="st7 st8 st9">Activated!</tspan></text>
	</g>
	<g>
		<path class="st10" d="M29.73,34.1H6.27c-1.75,0-2.84-1.89-1.96-3.4l5.46-9.46l6.27-10.86c0.87-1.51,3.05-1.51,3.93,0l6.55,11.35
			l5.18,8.96C32.57,32.21,31.47,34.1,29.73,34.1z"/>
		<path class="st11" d="M30.82,31.2L19.09,10.89c-0.33-0.57-0.87-0.63-1.09-0.63c-0.22,0-0.76,0.06-1.09,0.63L5.18,31.2
			c-0.33,0.57-0.11,1.07,0,1.26c0.11,0.19,0.44,0.63,1.09,0.63h23.46c0.66,0,0.98-0.44,1.09-0.63
			C30.93,32.27,31.15,31.77,30.82,31.2z M30.31,32.17c-0.09,0.15-0.26,0.34-0.58,0.34H6.27c-0.32,0-0.5-0.18-0.58-0.34
			c-0.09-0.15-0.16-0.4,0-0.68l11.73-20.32c0.16-0.28,0.41-0.34,0.58-0.34c0.18,0,0.42,0.06,0.58,0.34L30.31,31.5
			C30.48,31.77,30.4,32.02,30.31,32.17z"/>
		<g class="st4">
			<text transform="matrix(0.9821 0 0 1 15.455 31.0223)" class="st12 st8 st13">!</text>
		</g>
	</g>
	<g class="st1">
		<g>
			<path class="st5" d="M59.41,32.09H42.59c-0.83,0-1.5-0.61-1.5-1.36v-2.02c0-0.75,0.67-1.36,1.5-1.36h16.81
				c0.83,0,1.5,0.61,1.5,1.36v2.02C60.91,31.48,60.23,32.09,59.41,32.09L59.41,32.09z M51,31.55c-1.11,0-2.01-0.82-2.01-1.82
				s0.9-1.82,2.01-1.82c1.11,0,2.01,0.82,2.01,1.82S52.11,31.55,51,31.55z M58.82,31h-2.9c-0.11,0-0.21-0.08-0.21-0.19
				c0-0.1,0.09-0.19,0.21-0.19h2.9c0.11,0,0.21,0.08,0.21,0.19C59.03,30.92,58.94,31,58.82,31z M58.82,29.91h-2.9
				c-0.11,0-0.21-0.08-0.21-0.19s0.09-0.19,0.21-0.19h2.9c0.11,0,0.21,0.08,0.21,0.19S58.94,29.91,58.82,29.91z M58.82,28.82h-2.9
				c-0.11,0-0.21-0.08-0.21-0.19s0.09-0.19,0.21-0.19h2.9c0.11,0,0.21,0.08,0.21,0.19C59.03,28.74,58.94,28.82,58.82,28.82z
				 M46.08,31h-2.9c-0.11,0-0.21-0.08-0.21-0.19s0.09-0.19,0.21-0.19h2.9c0.11,0,0.21,0.08,0.21,0.19C46.29,30.92,46.19,31,46.08,31
				L46.08,31z M46.08,29.91h-2.9c-0.11,0-0.21-0.08-0.21-0.19s0.09-0.19,0.21-0.19h2.9c0.11,0,0.21,0.08,0.21,0.19
				C46.29,29.83,46.19,29.91,46.08,29.91L46.08,29.91z M46.08,28.82h-2.9c-0.11,0-0.21-0.08-0.21-0.19s0.09-0.19,0.21-0.19h2.9
				c0.11,0,0.21,0.08,0.21,0.19C46.29,28.74,46.19,28.82,46.08,28.82L46.08,28.82z"/>
			<path class="st5" d="M57.76,36.96H44.23c-0.37,0-0.66-0.27-0.66-0.6v-0.71c0-0.33,0.3-0.6,0.66-0.6h13.53
				c0.37,0,0.66,0.27,0.66,0.6v0.71C58.43,36.69,58.13,36.96,57.76,36.96z"/>
			<path class="st5" d="M57.3,35.43c-0.03,0-0.05,0-0.08-0.01c-0.11-0.04-0.16-0.15-0.11-0.24l1.49-3.33
				c0.04-0.1,0.16-0.14,0.27-0.1c0.11,0.04,0.16,0.15,0.11,0.24l-1.49,3.33C57.45,35.38,57.38,35.43,57.3,35.43L57.3,35.43z
				 M44.7,35.43c-0.08,0-0.16-0.04-0.19-0.12l-1.49-3.33c-0.04-0.1,0.01-0.2,0.11-0.24c0.11-0.04,0.23,0.01,0.27,0.1l1.49,3.33
				c0.04,0.1-0.01,0.2-0.11,0.24C44.75,35.42,44.73,35.43,44.7,35.43L44.7,35.43z"/>
			<path class="st5" d="M44.7,35.61c-0.17,0-0.32-0.09-0.38-0.23l-1.49-3.33c-0.09-0.19,0.02-0.41,0.23-0.49
				c0.21-0.08,0.45,0.02,0.54,0.21l1.49,3.33c0.09,0.19-0.02,0.41-0.23,0.49C44.81,35.6,44.76,35.61,44.7,35.61L44.7,35.61z
				 M46.8,35.61c-0.19,0-0.35-0.11-0.4-0.28L45.41,32c-0.06-0.2,0.07-0.4,0.29-0.46c0.22-0.05,0.45,0.06,0.51,0.26l0.99,3.33
				c0.06,0.2-0.07,0.41-0.29,0.46C46.87,35.61,46.84,35.61,46.8,35.61L46.8,35.61z M48.9,35.61c-0.21,0-0.38-0.14-0.41-0.32
				l-0.5-3.33c-0.03-0.2,0.13-0.39,0.35-0.42c0.23-0.03,0.43,0.12,0.46,0.32l0.5,3.33c0.03,0.2-0.13,0.39-0.35,0.42
				C48.92,35.61,48.94,35.61,48.9,35.61L48.9,35.61z M51,35.61c-0.23,0-0.41-0.17-0.41-0.37V31.9c0-0.21,0.18-0.37,0.41-0.37
				s0.41,0.17,0.41,0.37v3.33C51.41,35.44,51.23,35.61,51,35.61z M53.1,35.61c-0.04,0-0.02,0-0.06,0c-0.23-0.03-0.38-0.22-0.35-0.42
				l0.5-3.33c0.03-0.2,0.24-0.35,0.46-0.32c0.23,0.03,0.38,0.22,0.35,0.42l-0.5,3.33C53.48,35.47,53.31,35.61,53.1,35.61z
				 M55.2,35.61c-0.04,0-0.07,0-0.11-0.01c-0.22-0.05-0.35-0.26-0.29-0.46l0.99-3.33c0.06-0.2,0.29-0.32,0.51-0.26
				c0.22,0.05,0.35,0.26,0.29,0.46l-0.99,3.33C55.55,35.5,55.38,35.61,55.2,35.61L55.2,35.61z M57.3,35.61
				c-0.05,0-0.11-0.01-0.15-0.03c-0.21-0.08-0.31-0.3-0.23-0.49l1.49-3.33c0.09-0.19,0.33-0.28,0.54-0.21
				c0.21,0.08,0.31,0.3,0.23,0.49l-1.49,3.33C57.62,35.52,57.46,35.61,57.3,35.61L57.3,35.61z"/>
			<path class="st5" d="M51,40.69c-1.52,0-2.98-0.4-4.1-1.12c-0.93-0.6-1.57-1.38-1.83-2.24h11.85c-0.26,0.86-0.9,1.64-1.83,2.24
				C53.98,40.3,52.52,40.69,51,40.69L51,40.69z"/>
			<path class="st5" d="M51,31.17c0.88,0,1.6-0.65,1.6-1.45s-0.72-1.45-1.6-1.45s-1.6,0.65-1.6,1.45S50.12,31.17,51,31.17z"/>
		</g>
		<path class="st7" d="M58.41,39.73c0.4-0.6,1.26-0.78,1.92-0.42c0.66,0.37,0.86,1.14,0.46,1.74c-2.11,3.11-5.77,4.97-9.79,4.97
			c-4.02,0-7.69-1.86-9.79-4.97C41.07,40.85,41,40.62,41,40.4c0-0.43,0.24-0.84,0.67-1.08c0.66-0.37,1.52-0.18,1.92,0.42
			c1.59,2.35,4.37,3.76,7.41,3.76C54.04,43.49,56.82,42.09,58.41,39.73L58.41,39.73z M58.41,39.73"/>
	</g>
</g>
</svg>
