<?xml version="1.0" encoding="utf-8"?>
<!-- Generator: Adobe Illustrator 27.0.0, SVG Export Plug-In . SVG Version: 6.00 Build 0)  -->
<svg version="1.1" id="Layer_1" xmlns="http://www.w3.org/2000/svg" xmlns:xlink="http://www.w3.org/1999/xlink" x="0px" y="0px"
	 viewBox="0 0 50 50" style="enable-background:new 0 0 50 50;" xml:space="preserve">
<style type="text/css">
	.st0{fill-rule:evenodd;clip-rule:evenodd;fill:#FFCE00;}
	.st1{opacity:0.5;}
	.st2{fill-rule:evenodd;clip-rule:evenodd;fill:#FFFFFF;}
	.st3{fill-rule:evenodd;clip-rule:evenodd;fill:#FF0000;}
	.st4{fill:#FF0000;}
	.st5{fill:#FFCE00;}
	.st6{fill-rule:evenodd;clip-rule:evenodd;fill:none;stroke:#FF0000;stroke-width:0.75;stroke-miterlimit:10;}
	.st7{fill:none;stroke:#FF0000;stroke-miterlimit:10;}
</style>
<g>
	<g>
		<path class="st6" d="M37.5,18.06H12.49c-1.23,0-2.23-0.79-2.23-1.75v-2.6c0-0.97,1-1.75,2.23-1.75l25.01,0
			c1.23,0,2.23,0.79,2.23,1.75v2.6C39.74,17.28,38.73,18.06,37.5,18.06L37.5,18.06z M25,17.36c-1.65,0-2.99-1.05-2.99-2.35
			s1.34-2.35,2.99-2.35c1.65,0,2.99,1.05,2.99,2.35S26.65,17.36,25,17.36z M36.64,16.66h-4.32c-0.17,0-0.31-0.11-0.31-0.24
			c0-0.13,0.14-0.24,0.31-0.24h4.32c0.17,0,0.31,0.11,0.31,0.24C36.94,16.55,36.81,16.66,36.64,16.66z M36.64,15.25h-4.32
			c-0.17,0-0.31-0.11-0.31-0.24c0-0.13,0.14-0.24,0.31-0.24h4.32c0.17,0,0.31,0.11,0.31,0.24C36.94,15.14,36.81,15.25,36.64,15.25z
			 M36.64,13.84l-4.32,0c-0.17,0-0.31-0.11-0.31-0.24c0-0.13,0.14-0.24,0.31-0.24h4.32c0.17,0,0.31,0.11,0.31,0.24
			C36.94,13.74,36.81,13.84,36.64,13.84z M17.68,16.66h-4.32c-0.17,0-0.31-0.11-0.31-0.24c0-0.13,0.14-0.24,0.31-0.24h4.32
			c0.17,0,0.31,0.11,0.31,0.24C17.99,16.55,17.85,16.66,17.68,16.66L17.68,16.66z M17.68,15.25h-4.32c-0.17,0-0.31-0.11-0.31-0.24
			c0-0.13,0.14-0.24,0.31-0.24h4.32c0.17,0,0.31,0.11,0.31,0.24C17.99,15.14,17.85,15.25,17.68,15.25L17.68,15.25z M17.68,13.84
			h-4.32c-0.17,0-0.31-0.11-0.31-0.24c0-0.13,0.14-0.24,0.31-0.24h4.32c0.17,0,0.31,0.11,0.31,0.24
			C17.99,13.74,17.85,13.84,17.68,13.84L17.68,13.84z"/>
		<path class="st6" d="M35.06,24.35l-20.13,0c-0.54,0-0.99-0.35-0.99-0.77v-0.92c0-0.43,0.44-0.77,0.99-0.77h20.13
			c0.54,0,0.99,0.35,0.99,0.77v0.92C36.05,24,35.61,24.35,35.06,24.35z"/>
		<path class="st6" d="M15.63,21.89c-0.25,0-0.47-0.09-0.57-0.22l-2.22-3.12c-0.13-0.18,0.03-0.38,0.34-0.46
			c0.31-0.07,0.67,0.01,0.8,0.19l2.22,3.12c0.13,0.18-0.03,0.38-0.34,0.46C15.79,21.88,15.71,21.89,15.63,21.89L15.63,21.89z
			 M18.75,21.89c-0.28,0-0.52-0.11-0.59-0.26l-1.48-3.12c-0.09-0.19,0.11-0.38,0.43-0.43c0.33-0.05,0.67,0.06,0.75,0.25l1.48,3.12
			c0.09,0.19-0.11,0.38-0.43,0.43C18.86,21.88,18.81,21.89,18.75,21.89L18.75,21.89z M21.88,21.89c-0.31,0-0.57-0.13-0.61-0.3
			l-0.74-3.12c-0.05-0.19,0.19-0.37,0.53-0.39c0.34-0.03,0.65,0.11,0.69,0.3l0.74,3.12c0.05,0.19-0.19,0.37-0.53,0.39
			C21.9,21.89,21.93,21.89,21.88,21.89L21.88,21.89z M25,21.89c-0.34,0-0.61-0.16-0.61-0.35v-3.12c0-0.19,0.27-0.35,0.61-0.35
			c0.34,0,0.61,0.16,0.61,0.35v3.12C25.61,21.73,25.34,21.89,25,21.89z M28.12,21.89c-0.06,0-0.03,0-0.08,0
			c-0.34-0.03-0.57-0.2-0.53-0.39l0.74-3.12c0.05-0.19,0.36-0.33,0.69-0.3c0.34,0.03,0.57,0.2,0.53,0.39l-0.74,3.12
			C28.69,21.76,28.43,21.89,28.12,21.89z M31.24,21.89c-0.05,0-0.11,0-0.16-0.01c-0.33-0.05-0.52-0.24-0.43-0.43l1.48-3.12
			c0.09-0.19,0.43-0.3,0.75-0.25c0.33,0.05,0.52,0.24,0.43,0.43l-1.48,3.12C31.76,21.78,31.52,21.89,31.24,21.89L31.24,21.89z
			 M34.37,21.89c-0.08,0-0.16-0.01-0.23-0.03c-0.31-0.07-0.46-0.28-0.34-0.46l2.22-3.12c0.13-0.18,0.49-0.27,0.8-0.19
			s0.46,0.28,0.34,0.46l-2.22,3.12C34.84,21.8,34.62,21.89,34.37,21.89L34.37,21.89z"/>
		<path class="st6" d="M25,29.16c-2.26,0-4.43-0.51-6.09-1.44c-1.39-0.78-2.33-1.78-2.72-2.89h17.63c-0.39,1.11-1.33,2.11-2.72,2.89
			C29.43,28.65,27.26,29.16,25,29.16L25,29.16z"/>
		<path class="st6" d="M25,16.88c1.31,0,2.38-0.84,2.38-1.87s-1.07-1.87-2.38-1.87c-1.31,0-2.38,0.84-2.38,1.87
			S23.69,16.88,25,16.88z"/>
	</g>
	<path class="st7" d="M36.02,29.93c0.6-0.77,1.88-1.01,2.86-0.54c0.98,0.47,1.29,1.48,0.68,2.25c-3.14,4.01-8.58,6.41-14.57,6.41
		c-5.99,0-11.43-2.4-14.57-6.41c-0.21-0.27-0.31-0.56-0.31-0.85c0-0.55,0.35-1.09,0.99-1.39c0.98-0.47,2.26-0.23,2.86,0.54
		c2.37,3.04,6.49,4.85,11.02,4.85C29.53,34.78,33.65,32.96,36.02,29.93L36.02,29.93z M36.02,29.93"/>
</g>
</svg>
