<?xml version="1.0" encoding="utf-8"?>
<!-- Generator: Adobe Illustrator 26.5.0, SVG Export Plug-In . SVG Version: 6.00 Build 0)  -->
<svg version="1.1" id="Layer_1" xmlns="http://www.w3.org/2000/svg" xmlns:xlink="http://www.w3.org/1999/xlink" x="0px" y="0px"
	 viewBox="0 0 10 15" style="enable-background:new 0 0 10 15;" xml:space="preserve">
<style type="text/css">
	.st0{opacity:0.5;}
	.st1{fill-rule:evenodd;clip-rule:evenodd;fill:none;stroke:#FFFFFF;stroke-width:0.75;stroke-miterlimit:10;}
	.st2{fill-rule:evenodd;clip-rule:evenodd;fill:none;}
	.st3{fill:none;stroke:#FFFFFF;stroke-width:0.75;stroke-miterlimit:10;}
	.st4{opacity:0.45;fill-rule:evenodd;clip-rule:evenodd;fill:#FFFFFF;}
	.st5{fill-rule:evenodd;clip-rule:evenodd;fill:#FFCE00;}
	.st6{fill:none;stroke:#FFFFFF;stroke-miterlimit:10;}
	.st7{opacity:0.5;fill:none;stroke:#FFFFFF;stroke-linecap:round;stroke-linejoin:round;stroke-miterlimit:10;}
	.st8{fill:none;}
	.st9{fill-rule:evenodd;clip-rule:evenodd;fill:#FFFFFF;}
	.st10{fill:#1000FF;}
	.st11{fill-rule:evenodd;clip-rule:evenodd;fill:#1000FF;}
	.st12{fill:url(#SVGID_1_);}
	.st13{fill:url(#SVGID_00000112592824329228452080000008641697706520566190_);}
	.st14{fill:#FF0000;}
	.st15{fill:url(#SVGID_00000069387536432747388280000000146358007913018523_);}
	.st16{fill:url(#SVGID_00000103230565675554057470000010972170585058634168_);}
	.st17{opacity:0.7;fill-rule:evenodd;clip-rule:evenodd;fill:url(#SVGID_00000111890807207580955240000013835985679667848634_);}
	.st18{fill:#FF8888;}
	.st19{opacity:0.7;fill:#2E2923;}
	.st20{opacity:0.7;}
	.st21{opacity:0.7;fill-rule:evenodd;clip-rule:evenodd;fill:url(#SVGID_00000016054131457586544610000010584996613950200501_);}
	.st22{fill:#FFEFAB;}
	.st23{opacity:0.7;fill:#303030;}
	.st24{fill:#FFFFFF;}
	.st25{opacity:0.7;fill-rule:evenodd;clip-rule:evenodd;fill:url(#SVGID_00000170275985314242728900000017936709518661996681_);}
	.st26{opacity:0.5;fill-rule:evenodd;clip-rule:evenodd;fill:#FFFFFF;}
	.st27{opacity:0.7;fill-rule:evenodd;clip-rule:evenodd;fill:url(#SVGID_00000005963761341718003410000012391958032306513330_);}
	.st28{fill:url(#SVGID_00000178201875967210890120000015774801030859832733_);}
	.st29{fill:url(#SVGID_00000154417778653143399160000014564074380507119267_);}
	.st30{fill:url(#SVGID_00000158002542313857632800000002252809942030334115_);}
	.st31{fill:url(#SVGID_00000113318094603293926250000016685843555676117656_);}
	.st32{fill:url(#SVGID_00000140721964591916395380000000366775859742357390_);}
	.st33{fill:url(#SVGID_00000133509139671941679160000006846194839955188881_);}
	.st34{fill:url(#SVGID_00000144318720473151051340000009531164878438759085_);}
	.st35{fill:url(#SVGID_00000164506689794889537510000005247626992763138720_);}
	.st36{fill:url(#SVGID_00000052791046098058869490000011157960801336475831_);}
	.st37{fill:url(#SVGID_00000150095003635492587540000015624423866483883650_);}
	.st38{opacity:0.3;}
	.st39{fill:#F7D418;}
	.st40{fill:#2E2923;}
	.st41{fill:#29333F;}
	.st42{fill:#B9BBBC;}
	.st43{fill:#FFC200;}
	.st44{fill:url(#SVGID_00000036938809905858003810000004606390102918098063_);}
	.st45{fill:url(#SVGID_00000075877915243763490040000008578189231501675914_);}
	.st46{fill:url(#SVGID_00000163790250306640195740000007756203209817905804_);}
	.st47{fill:url(#SVGID_00000060001149666236397850000006076523153816596875_);}
	.st48{fill:#FFFFFE;}
	.st49{opacity:0.7;fill-rule:evenodd;clip-rule:evenodd;fill:url(#SVGID_00000027594999063729088790000001357301476510410174_);}
	.st50{opacity:0.7;fill-rule:evenodd;clip-rule:evenodd;fill:url(#SVGID_00000173160166660084615590000005282562626315363770_);}
	.st51{opacity:0.7;fill-rule:evenodd;clip-rule:evenodd;fill:url(#SVGID_00000116950237272218690710000003062026825696790404_);}
	.st52{opacity:0.7;fill-rule:evenodd;clip-rule:evenodd;fill:url(#SVGID_00000165203226639334149440000004804208036746635188_);}
	.st53{opacity:0.7;fill-rule:evenodd;clip-rule:evenodd;fill:url(#SVGID_00000169524240460014291960000015218853802777536384_);}
	.st54{opacity:0.7;fill-rule:evenodd;clip-rule:evenodd;fill:url(#SVGID_00000025414581928890776470000018207267125449393285_);}
	.st55{fill-rule:evenodd;clip-rule:evenodd;fill:url(#SVGID_00000173875502259810665960000006542855946389257122_);}
	.st56{fill-rule:evenodd;clip-rule:evenodd;fill:url(#SVGID_00000039118381537977487940000016573977709334098315_);}
	.st57{fill:#FFCE00;}
	.st58{fill:#303030;}
	.st59{fill-rule:evenodd;clip-rule:evenodd;fill:url(#SVGID_00000027592110486227379820000008927305144513329848_);}
	.st60{fill-rule:evenodd;clip-rule:evenodd;fill:url(#SVGID_00000109726051561208504590000011462057451715049359_);}
	.st61{fill-rule:evenodd;clip-rule:evenodd;fill:url(#SVGID_00000147918258963241365960000009466221043889392305_);}
	.st62{fill:url(#SVGID_00000130608744778346858870000008209958264433769618_);}
	.st63{fill:url(#SVGID_00000111172621403409102240000003473165028426624157_);}
	.st64{fill:url(#SVGID_00000044156851792928786590000016703609625787220404_);}
	.st65{fill:url(#SVGID_00000183223981074350646060000006990312795159753874_);}
	.st66{fill-rule:evenodd;clip-rule:evenodd;fill:#FF0000;}
	.st67{fill-rule:evenodd;clip-rule:evenodd;fill:none;stroke:#FF0000;stroke-width:0.75;stroke-miterlimit:10;}
	.st68{fill:none;stroke:#FF0000;stroke-miterlimit:10;}
	.st69{fill:none;stroke:#FFCE00;stroke-width:0.75;stroke-miterlimit:10;}
	.st70{fill:none;stroke:#FFCE00;stroke-miterlimit:10;}
	.st71{fill:url(#SVGID_00000150085250203136589430000001238153809150695317_);}
	.st72{fill:url(#SVGID_00000056421036105379660750000001166763347089814203_);}
	.st73{fill:url(#SVGID_00000125585422377628042150000007786614382811301008_);}
	.st74{fill:url(#SVGID_00000166640648369148933790000015119192215981132189_);}
	.st75{fill:url(#SVGID_00000155840669145708766060000001891885373917857956_);}
	.st76{fill:url(#SVGID_00000158029272626782030990000010109724527960304531_);}
</style>
<g>
	<path id="_255330216_00000028310799207819496290000014312991627201492407_" class="st9" d="M3.13,7.36c-0.3,0.28-0.3,0.74,0,1.02
		c0.3,0.28,0.8,0.28,1.1,0c0.3-0.28,0.3-0.74,0-1.02C4.09,7.22,3.89,7.15,3.68,7.15C3.48,7.15,3.28,7.22,3.13,7.36z"/>
	<path id="_255330048_00000167383523889293298730000004585980472656391580_" class="st9" d="M5.77,9.8 M6.87,9.8
		c-0.3-0.28-0.8-0.28-1.1,0c-0.3,0.28-0.3,0.74,0,1.02c0.3,0.28,0.8,0.28,1.1,0C7.17,10.54,7.17,10.09,6.87,9.8L6.87,9.8z"/>
	<path id="_255330072_00000040532646427197813570000007089712964597287358_" class="st9" d="M5,0C2.84,2.5,1.36,4.85,0.6,6.96
		c-1.16,3.2-0.42,5.13,0.39,6.19C1.89,14.31,3.39,15,5,15c1.6,0,3.09-0.68,3.99-1.83c0.81-1.03,1.55-2.91,0.47-6.04
		C8.72,4.97,7.22,2.57,5,0L5,0z M6.93,7.59l-3.54,3.29c-0.04,0.04-0.1,0.06-0.16,0.06c-0.2,0-0.3-0.22-0.16-0.35L6.61,7.3
		c0.09-0.08,0.23-0.08,0.32,0C7.01,7.38,7.01,7.51,6.93,7.59L6.93,7.59z M2.82,7.06 M2.82,7.06c0.48-0.44,1.25-0.44,1.73,0
		c0.48,0.44,0.48,1.17,0,1.61C4.32,8.89,4.01,9.01,3.68,9.01c-0.68,0-1.22-0.51-1.22-1.14C2.46,7.56,2.59,7.28,2.82,7.06L2.82,7.06z
		 M5.45,9.51 M6.32,9.18c0.68,0,1.22,0.51,1.22,1.14c0,0.63-0.55,1.14-1.22,1.14s-1.22-0.51-1.22-1.14c0-0.3,0.13-0.59,0.36-0.8
		C5.68,9.3,5.99,9.18,6.32,9.18L6.32,9.18z"/>
</g>
</svg>
