<?xml version="1.0" encoding="utf-8"?>
<!-- Generator: Adobe Illustrator 26.5.0, SVG Export Plug-In . SVG Version: 6.00 Build 0)  -->
<svg version="1.1" id="Layer_1" xmlns="http://www.w3.org/2000/svg" xmlns:xlink="http://www.w3.org/1999/xlink" x="0px" y="0px"
	 viewBox="0 0 20 20" style="enable-background:new 0 0 20 20;" xml:space="preserve">
<style type="text/css">
	.st0{opacity:0.5;}
	.st1{fill-rule:evenodd;clip-rule:evenodd;fill:none;stroke:#FFFFFF;stroke-width:0.75;stroke-miterlimit:10;}
	.st2{fill-rule:evenodd;clip-rule:evenodd;fill:none;}
	.st3{fill:none;stroke:#FFFFFF;stroke-width:0.75;stroke-miterlimit:10;}
	.st4{opacity:0.45;fill-rule:evenodd;clip-rule:evenodd;fill:#FFFFFF;}
	.st5{fill-rule:evenodd;clip-rule:evenodd;fill:#FFCE00;}
	.st6{fill:none;stroke:#FFFFFF;stroke-miterlimit:10;}
	.st7{opacity:0.5;fill:none;stroke:#FFFFFF;stroke-linecap:round;stroke-linejoin:round;stroke-miterlimit:10;}
	.st8{fill:none;}
	.st9{fill-rule:evenodd;clip-rule:evenodd;fill:#FFFFFF;}
	.st10{fill:#1000FF;}
	.st11{fill-rule:evenodd;clip-rule:evenodd;fill:#1000FF;}
	.st12{fill:url(#SVGID_1_);}
	.st13{fill:url(#SVGID_00000117648665128915393480000005318430412146334125_);}
	.st14{fill:#FF0000;}
	.st15{fill:url(#SVGID_00000114069343297099626770000003976555242436489880_);}
	.st16{fill:url(#SVGID_00000170271033634937119760000011551850935401360537_);}
	.st17{opacity:0.7;fill-rule:evenodd;clip-rule:evenodd;fill:url(#SVGID_00000175281940691769357500000000183720324289203371_);}
	.st18{fill:#FF8888;}
	.st19{opacity:0.7;fill:#2E2923;}
	.st20{opacity:0.7;}
	.st21{opacity:0.7;fill-rule:evenodd;clip-rule:evenodd;fill:url(#SVGID_00000089550456952615080130000005083256469656973982_);}
	.st22{fill:#FFEFAB;}
	.st23{opacity:0.7;fill:#303030;}
	.st24{fill:#FFFFFF;}
	.st25{opacity:0.7;fill-rule:evenodd;clip-rule:evenodd;fill:url(#SVGID_00000031902951302906934680000016534984636970637448_);}
	.st26{opacity:0.5;fill-rule:evenodd;clip-rule:evenodd;fill:#FFFFFF;}
	.st27{opacity:0.7;fill-rule:evenodd;clip-rule:evenodd;fill:url(#SVGID_00000001627914954906351380000015780226893327259292_);}
	.st28{fill:url(#SVGID_00000029007974019234786510000014519614065946685866_);}
	.st29{fill:url(#SVGID_00000142138464683758982370000015441417476690453412_);}
	.st30{fill:url(#SVGID_00000096024575147055584680000008629128980483867533_);}
	.st31{fill:url(#SVGID_00000006667414803766421150000008678128217685988020_);}
	.st32{fill:url(#SVGID_00000007430792790582907510000018267205497672283298_);}
	.st33{fill:url(#SVGID_00000044140083968331223320000006847310808763022484_);}
	.st34{fill:url(#SVGID_00000024721408678180924600000010839572466185718444_);}
	.st35{fill:url(#SVGID_00000036945101446985763660000008473602439408730002_);}
	.st36{fill:url(#SVGID_00000018231186043293180680000006129335159335844761_);}
	.st37{fill:url(#SVGID_00000178178502346309360700000001622205988645739949_);}
	.st38{opacity:0.3;}
	.st39{fill:#F7D418;}
	.st40{fill:#2E2923;}
	.st41{fill:#29333F;}
	.st42{fill:#B9BBBC;}
	.st43{fill:#FFC200;}
	.st44{fill:url(#SVGID_00000052064941116965065490000008491108072094091448_);}
	.st45{fill:url(#SVGID_00000182488204078420795270000012645138831246802835_);}
	.st46{fill:url(#SVGID_00000062151793483043687940000006072240682096634526_);}
	.st47{fill:url(#SVGID_00000071521164361920745500000016319823792223998110_);}
	.st48{fill:#FFFFFE;}
	.st49{opacity:0.7;fill-rule:evenodd;clip-rule:evenodd;fill:url(#SVGID_00000107588795045632689140000014703341467682337981_);}
	.st50{opacity:0.7;fill-rule:evenodd;clip-rule:evenodd;fill:url(#SVGID_00000064331508629833054070000005558570694168062871_);}
	.st51{opacity:0.7;fill-rule:evenodd;clip-rule:evenodd;fill:url(#SVGID_00000152249441425117603530000009017685428996164005_);}
	.st52{opacity:0.7;fill-rule:evenodd;clip-rule:evenodd;fill:url(#SVGID_00000013902720430537990460000010999316619425646223_);}
	.st53{opacity:0.7;fill-rule:evenodd;clip-rule:evenodd;fill:url(#SVGID_00000073711816485227307490000010810326320751273101_);}
	.st54{opacity:0.7;fill-rule:evenodd;clip-rule:evenodd;fill:url(#SVGID_00000044900205365641552050000017131339716561218975_);}
	.st55{fill-rule:evenodd;clip-rule:evenodd;fill:url(#SVGID_00000056392618051107323580000004955098123884527023_);}
	.st56{fill-rule:evenodd;clip-rule:evenodd;fill:url(#SVGID_00000031183397136980046610000015448646701322555524_);}
	.st57{fill:#FFCE00;}
	.st58{fill:#303030;}
	.st59{fill-rule:evenodd;clip-rule:evenodd;fill:url(#SVGID_00000037668348936311643770000017787565129752662701_);}
	.st60{fill-rule:evenodd;clip-rule:evenodd;fill:url(#SVGID_00000015314495008779312570000000832239214034004635_);}
	.st61{fill-rule:evenodd;clip-rule:evenodd;fill:url(#SVGID_00000009569822283742948460000010365996221461390499_);}
	.st62{fill:url(#SVGID_00000005230283522344662900000010892436125956112021_);}
	.st63{fill:url(#SVGID_00000107569729323878565160000006087163214194688409_);}
	.st64{fill:url(#SVGID_00000124845165200983677090000015813176112012994187_);}
	.st65{fill:url(#SVGID_00000183246093732714696740000007579074086434285713_);}
	.st66{fill-rule:evenodd;clip-rule:evenodd;fill:#FF0000;}
	.st67{fill-rule:evenodd;clip-rule:evenodd;fill:none;stroke:#FF0000;stroke-width:0.75;stroke-miterlimit:10;}
	.st68{fill:none;stroke:#FF0000;stroke-miterlimit:10;}
	.st69{fill:none;stroke:#FFCE00;stroke-width:0.75;stroke-miterlimit:10;}
	.st70{fill:none;stroke:#FFCE00;stroke-miterlimit:10;}
	.st71{fill:url(#SVGID_00000154388292710894751920000005866574734979642291_);}
	.st72{fill:url(#SVGID_00000116952593134906261670000018388194652962590911_);}
	.st73{fill:url(#SVGID_00000142177286860491522780000001546522578506925194_);}
	.st74{fill:url(#SVGID_00000182488530428355360110000010850083972546607528_);}
	.st75{fill:url(#SVGID_00000152239913157049996870000001592268922961394612_);}
	.st76{fill:url(#SVGID_00000057856060684449473210000002378015705827983038_);}
</style>
<path class="st24" d="M19.32,7.89h-1.34c-0.29,0-0.54-0.19-0.64-0.47c-0.1-0.27-0.2-0.54-0.33-0.79c-0.13-0.26-0.09-0.58,0.12-0.79
	l0.95-0.95c0.26-0.26,0.26-0.69,0-0.96l-2.02-2.02c-0.26-0.26-0.69-0.26-0.96,0l-0.95,0.95c-0.21,0.21-0.52,0.25-0.78,0.12
	c-0.26-0.12-0.52-0.23-0.79-0.33c-0.28-0.1-0.47-0.35-0.47-0.64V0.68C12.1,0.3,11.8,0,11.43,0H8.57C8.2,0,7.9,0.3,7.9,0.68v1.34
	c0,0.29-0.19,0.54-0.47,0.64c-0.27,0.09-0.54,0.2-0.8,0.33C6.36,3.12,6.05,3.07,5.84,2.87L4.9,1.92c-0.26-0.26-0.69-0.26-0.96,0
	L1.92,3.94c-0.26,0.26-0.26,0.69,0,0.96l0.95,0.95c0.21,0.21,0.25,0.52,0.12,0.79C2.87,6.89,2.76,7.15,2.66,7.42
	C2.56,7.7,2.31,7.89,2.02,7.89H0.68C0.3,7.89,0,8.2,0,8.57v2.85c0,0.37,0.3,0.68,0.68,0.68h1.34c0.29,0,0.54,0.19,0.64,0.47
	c0.1,0.27,0.2,0.54,0.33,0.8c0.13,0.26,0.09,0.58-0.12,0.78L1.92,15.1c-0.26,0.26-0.26,0.69,0,0.96l2.02,2.02
	c0.26,0.26,0.69,0.26,0.96,0l0.95-0.95c0.21-0.21,0.52-0.25,0.78-0.12c0.26,0.12,0.52,0.23,0.8,0.33c0.28,0.1,0.47,0.35,0.47,0.64
	v1.34C7.9,19.7,8.2,20,8.57,20h2.85c0.37,0,0.68-0.3,0.68-0.68v-1.34c0-0.29,0.19-0.54,0.47-0.64c0.27-0.09,0.54-0.2,0.8-0.33
	c0.26-0.13,0.58-0.09,0.78,0.12l0.95,0.95c0.26,0.26,0.69,0.26,0.96,0l2.02-2.02c0.26-0.26,0.26-0.69,0-0.96l-0.95-0.95
	c-0.21-0.21-0.25-0.52-0.12-0.78c0.12-0.26,0.23-0.52,0.33-0.8c0.1-0.28,0.35-0.47,0.64-0.47h1.34c0.37,0,0.68-0.3,0.68-0.68V8.57
	C20,8.2,19.7,7.89,19.32,7.89z M10,13.4c-1.88,0-3.4-1.52-3.4-3.4c0-1.88,1.52-3.4,3.4-3.4s3.4,1.52,3.4,3.4
	C13.4,11.88,11.88,13.4,10,13.4z"/>
</svg>
