<?xml version="1.0" encoding="utf-8"?>
<!-- Generator: Adobe Illustrator 27.0.0, SVG Export Plug-In . SVG Version: 6.00 Build 0)  -->
<svg version="1.1" id="Layer_1" xmlns="http://www.w3.org/2000/svg" xmlns:xlink="http://www.w3.org/1999/xlink" x="0px" y="0px"
	 viewBox="0 0 50 50" style="enable-background:new 0 0 50 50;" xml:space="preserve">
<style type="text/css">
	.st0{fill-rule:evenodd;clip-rule:evenodd;fill:#FFCE00;}
	.st1{fill-rule:evenodd;clip-rule:evenodd;fill:#FF0000;}
	.st2{fill:#FF0000;}
	.st3{fill:#FFCE00;}
	.st4{fill-rule:evenodd;clip-rule:evenodd;fill:none;stroke:#FF0000;stroke-width:0.75;stroke-miterlimit:10;}
</style>
<g>
	<path class="st4" d="M37.73,28.23H12.27c-1.25,0-2.27,1.02-2.27,2.27v3.37c0,1.25,1.02,2.27,2.27,2.27h25.46
		c1.25,0,2.27-1.02,2.27-2.27V30.5C40,29.25,38.98,28.23,37.73,28.23L37.73,28.23z M25,29.15c-1.68,0-3.05,1.37-3.05,3.05
		c0,1.68,1.37,3.05,3.05,3.05s3.05-1.37,3.05-3.05C28.04,30.51,26.68,29.15,25,29.15z M36.84,30.06h-4.4
		c-0.17,0-0.31,0.14-0.31,0.31c0,0.17,0.14,0.31,0.31,0.31h4.4c0.17,0,0.31-0.14,0.31-0.31C37.16,30.19,37.02,30.06,36.84,30.06z
		 M36.84,31.88h-4.4c-0.17,0-0.31,0.14-0.31,0.31c0,0.17,0.14,0.31,0.31,0.31h4.4c0.17,0,0.31-0.14,0.31-0.31
		C37.16,32.02,37.02,31.88,36.84,31.88z M36.84,33.7h-4.4c-0.17,0-0.31,0.14-0.31,0.31c0,0.17,0.14,0.31,0.31,0.31h4.4
		c0.17,0,0.31-0.14,0.31-0.31S37.02,33.7,36.84,33.7z M17.55,30.06h-4.4c-0.17,0-0.31,0.14-0.31,0.31c0,0.17,0.14,0.31,0.31,0.31
		h4.4c0.17,0,0.31-0.14,0.31-0.31C17.86,30.19,17.72,30.06,17.55,30.06L17.55,30.06z M17.55,31.88h-4.4c-0.17,0-0.31,0.14-0.31,0.31
		c0,0.17,0.14,0.31,0.31,0.31h4.4c0.17,0,0.31-0.14,0.31-0.31C17.86,32.02,17.72,31.88,17.55,31.88L17.55,31.88z M17.55,33.7h-4.4
		c-0.17,0-0.31,0.14-0.31,0.31c0,0.17,0.14,0.31,0.31,0.31h4.4c0.17,0,0.31-0.14,0.31-0.31C17.86,33.84,17.72,33.7,17.55,33.7
		L17.55,33.7z"/>
	<path class="st4" d="M35.24,20.08H14.76c-0.55,0-1,0.45-1,1v1.19c0,0.55,0.45,1,1,1h20.49c0.55,0,1-0.45,1-1v-1.19
		C36.25,20.54,35.8,20.08,35.24,20.08z"/>
	<path class="st4" d="M15.47,23.28c-0.25,0-0.48,0.11-0.58,0.28l-2.26,4.04c-0.13,0.23,0.03,0.5,0.34,0.59
		c0.32,0.09,0.68-0.02,0.81-0.25l2.26-4.04c0.13-0.23-0.03-0.5-0.34-0.59C15.63,23.29,15.54,23.28,15.47,23.28L15.47,23.28z
		 M18.64,23.28c-0.28,0-0.53,0.14-0.6,0.33l-1.51,4.04c-0.09,0.24,0.11,0.49,0.44,0.56c0.33,0.07,0.68-0.08,0.77-0.32l1.51-4.04
		c0.09-0.24-0.11-0.49-0.44-0.56C18.75,23.29,18.7,23.28,18.64,23.28L18.64,23.28z M21.82,23.28c-0.31,0-0.58,0.17-0.62,0.39
		l-0.75,4.04c-0.05,0.25,0.19,0.48,0.54,0.51c0.34,0.03,0.66-0.14,0.7-0.39l0.75-4.04c0.05-0.25-0.19-0.48-0.54-0.51
		C21.85,23.28,21.88,23.28,21.82,23.28L21.82,23.28z M25,23.28c-0.34,0-0.63,0.2-0.63,0.45v4.04c0,0.25,0.28,0.45,0.63,0.45
		s0.63-0.2,0.63-0.45v-4.04C25.62,23.49,25.34,23.28,25,23.28z M28.18,23.28c-0.06,0-0.03,0-0.08,0c-0.34,0.03-0.58,0.26-0.54,0.51
		l0.75,4.04c0.05,0.25,0.36,0.42,0.7,0.39s0.58-0.26,0.54-0.51l-0.75-4.04C28.76,23.45,28.49,23.28,28.18,23.28z M31.35,23.28
		c-0.06,0-0.11,0.01-0.16,0.02c-0.33,0.07-0.53,0.32-0.44,0.56l1.51,4.04c0.09,0.24,0.43,0.38,0.77,0.32
		c0.33-0.07,0.53-0.32,0.44-0.56l-1.51-4.04C31.88,23.42,31.64,23.28,31.35,23.28L31.35,23.28z M34.53,23.28
		c-0.08,0-0.16,0.01-0.23,0.03c-0.32,0.09-0.47,0.36-0.34,0.59l2.26,4.04c0.13,0.23,0.5,0.34,0.81,0.25
		c0.32-0.09,0.47-0.36,0.34-0.59l-2.26-4.04C35.02,23.39,34.79,23.28,34.53,23.28L34.53,23.28z"/>
	<path class="st4" d="M25,13.85c-2.3,0-4.51,0.66-6.2,1.87c-1.42,1-2.38,2.31-2.77,3.74h17.95c-0.4-1.43-1.36-2.74-2.77-3.74
		C29.5,14.52,27.3,13.85,25,13.85L25,13.85z"/>
	<path class="st4" d="M25,29.77c1.33,0,2.42,1.09,2.42,2.42c0,1.33-1.09,2.42-2.42,2.42s-2.42-1.09-2.42-2.42
		C22.58,30.86,23.66,29.77,25,29.77z"/>
</g>
</svg>
