<?xml version="1.0" encoding="utf-8"?>
<!-- Generator: Adobe Illustrator 27.0.0, SVG Export Plug-In . SVG Version: 6.00 Build 0)  -->
<svg version="1.1" id="Layer_1" xmlns="http://www.w3.org/2000/svg" xmlns:xlink="http://www.w3.org/1999/xlink" x="0px" y="0px"
	 viewBox="0 0 50 50" style="enable-background:new 0 0 50 50;" xml:space="preserve">
<style type="text/css">
	.st0{fill-rule:evenodd;clip-rule:evenodd;fill:#FFCE00;}
	.st1{opacity:0.5;}
	.st2{fill-rule:evenodd;clip-rule:evenodd;fill:#FFFFFF;}
	.st3{fill-rule:evenodd;clip-rule:evenodd;fill:#FF0000;}
	.st4{fill:#FF0000;}
	.st5{fill:#FFCE00;}
	.st6{fill-rule:evenodd;clip-rule:evenodd;fill:none;stroke:#FF0000;stroke-width:0.75;stroke-miterlimit:10;}
</style>
<g class="st1">
	<path class="st2" d="M37.73,28.23H12.27c-1.25,0-2.27,1.02-2.27,2.27v3.37c0,1.25,1.02,2.27,2.27,2.27h25.46
		c1.25,0,2.27-1.02,2.27-2.27V30.5C40,29.25,38.98,28.23,37.73,28.23L37.73,28.23z M25,29.15c-1.68,0-3.05,1.37-3.05,3.05
		c0,1.68,1.37,3.05,3.05,3.05s3.05-1.37,3.05-3.05C28.04,30.51,26.68,29.15,25,29.15z M36.84,30.06h-4.4
		c-0.17,0-0.31,0.14-0.31,0.31c0,0.17,0.14,0.31,0.31,0.31h4.4c0.17,0,0.31-0.14,0.31-0.31C37.16,30.19,37.02,30.06,36.84,30.06z
		 M36.84,31.88h-4.4c-0.17,0-0.31,0.14-0.31,0.31c0,0.17,0.14,0.31,0.31,0.31h4.4c0.17,0,0.31-0.14,0.31-0.31
		C37.16,32.02,37.02,31.88,36.84,31.88z M36.84,33.7h-4.4c-0.17,0-0.31,0.14-0.31,0.31c0,0.17,0.14,0.31,0.31,0.31h4.4
		c0.17,0,0.31-0.14,0.31-0.31S37.02,33.7,36.84,33.7z M17.55,30.06h-4.4c-0.17,0-0.31,0.14-0.31,0.31c0,0.17,0.14,0.31,0.31,0.31
		h4.4c0.17,0,0.31-0.14,0.31-0.31C17.86,30.19,17.72,30.06,17.55,30.06L17.55,30.06z M17.55,31.88h-4.4c-0.17,0-0.31,0.14-0.31,0.31
		c0,0.17,0.14,0.31,0.31,0.31h4.4c0.17,0,0.31-0.14,0.31-0.31C17.86,32.02,17.72,31.88,17.55,31.88L17.55,31.88z M17.55,33.7h-4.4
		c-0.17,0-0.31,0.14-0.31,0.31c0,0.17,0.14,0.31,0.31,0.31h4.4c0.17,0,0.31-0.14,0.31-0.31C17.86,33.84,17.72,33.7,17.55,33.7
		L17.55,33.7z"/>
	<path class="st2" d="M35.24,20.08H14.76c-0.55,0-1,0.45-1,1v1.19c0,0.55,0.45,1,1,1h20.49c0.55,0,1-0.45,1-1v-1.19
		C36.25,20.54,35.8,20.08,35.24,20.08z"/>
	<path class="st2" d="M34.53,22.66c-0.04,0-0.08,0.01-0.12,0.02c-0.16,0.07-0.24,0.25-0.17,0.41l2.26,5.58
		c0.07,0.16,0.25,0.24,0.41,0.17c0.16-0.07,0.24-0.25,0.17-0.41l-2.26-5.57C34.77,22.73,34.66,22.66,34.53,22.66L34.53,22.66z
		 M15.47,22.66c-0.12,0-0.24,0.07-0.29,0.2l-2.26,5.57c-0.07,0.16,0.01,0.34,0.17,0.41c0.16,0.07,0.34-0.01,0.41-0.17l2.26-5.58
		c0.07-0.16-0.01-0.34-0.17-0.41C15.54,22.67,15.5,22.66,15.47,22.66L15.47,22.66z"/>
	<path class="st2" d="M15.47,22.35c-0.25,0-0.48,0.15-0.58,0.39l-2.26,5.57c-0.13,0.32,0.03,0.68,0.34,0.81
		c0.32,0.13,0.68-0.03,0.81-0.34l2.26-5.58c0.13-0.32-0.03-0.68-0.34-0.81C15.63,22.36,15.54,22.35,15.47,22.35L15.47,22.35z
		 M18.64,22.35c-0.28,0-0.53,0.19-0.6,0.46l-1.51,5.57c-0.09,0.33,0.11,0.68,0.44,0.77c0.33,0.09,0.68-0.11,0.77-0.44l1.51-5.58
		c0.09-0.33-0.11-0.68-0.44-0.77C18.75,22.35,18.7,22.35,18.64,22.35L18.64,22.35z M21.82,22.35c-0.31,0-0.58,0.23-0.62,0.54
		l-0.75,5.57c-0.05,0.34,0.19,0.66,0.54,0.7c0.34,0.05,0.66-0.19,0.7-0.54l0.75-5.57c0.05-0.34-0.19-0.66-0.54-0.7
		C21.85,22.34,21.88,22.35,21.82,22.35L21.82,22.35z M25,22.35c-0.34,0-0.63,0.28-0.63,0.63v5.57c0,0.34,0.28,0.63,0.63,0.63
		s0.63-0.28,0.63-0.63v-5.57C25.62,22.63,25.34,22.35,25,22.35z M28.18,22.35c-0.06,0-0.03,0-0.08,0.01
		c-0.34,0.05-0.58,0.36-0.54,0.7l0.75,5.57c0.05,0.34,0.36,0.58,0.7,0.54s0.58-0.36,0.54-0.7l-0.75-5.57
		C28.76,22.58,28.49,22.35,28.18,22.35z M31.35,22.35c-0.06,0-0.11,0.01-0.16,0.02c-0.33,0.09-0.53,0.43-0.44,0.77l1.51,5.58
		c0.09,0.33,0.43,0.53,0.77,0.44c0.33-0.09,0.53-0.43,0.44-0.77l-1.51-5.57C31.88,22.54,31.64,22.35,31.35,22.35L31.35,22.35z
		 M34.53,22.35c-0.08,0-0.16,0.02-0.23,0.05c-0.32,0.13-0.47,0.5-0.34,0.81l2.26,5.58c0.13,0.32,0.5,0.47,0.81,0.34
		c0.32-0.13,0.47-0.5,0.34-0.81l-2.26-5.57C35.02,22.5,34.79,22.35,34.53,22.35L34.53,22.35z"/>
	<path class="st2" d="M25,13.85c-2.3,0-4.51,0.66-6.2,1.87c-1.42,1-2.38,2.31-2.77,3.74h17.95c-0.4-1.43-1.36-2.74-2.77-3.74
		C29.5,14.52,27.3,13.85,25,13.85L25,13.85z"/>
	<path class="st2" d="M25,29.77c1.33,0,2.42,1.09,2.42,2.42c0,1.33-1.09,2.42-2.42,2.42s-2.42-1.09-2.42-2.42
		C22.58,30.86,23.66,29.77,25,29.77z"/>
</g>
</svg>
