<?xml version="1.0" encoding="utf-8"?>
<!-- Generator: Adobe Illustrator 27.0.0, SVG Export Plug-In . SVG Version: 6.00 Build 0)  -->
<svg version="1.1" id="Layer_1" xmlns="http://www.w3.org/2000/svg" xmlns:xlink="http://www.w3.org/1999/xlink" x="0px" y="0px"
	 viewBox="0 0 130 70" style="enable-background:new 0 0 130 70;" xml:space="preserve">
<style type="text/css">
	.st0{fill:#1000FF;}
	.st1{fill-rule:evenodd;clip-rule:evenodd;fill:#1000FF;}
	.st2{fill:url(#SVGID_1_);}
</style>
<path class="st0" d="M21.48,19.02V9.35c0-1.34-1.11-2.43-2.48-2.43c-1.37,0-2.48,1.09-2.48,2.43v9.86
	c-1.45,0.89-2.35,2.46-2.35,4.14c0,2.69,2.24,4.89,5,4.89s5-2.19,5-4.89C24.16,21.53,23.12,19.86,21.48,19.02z M19.16,27.45
	c-2.31,0-4.19-1.84-4.19-4.1c0-1.48,0.82-2.85,2.14-3.57l0.21-0.11V9.35c0-0.9,0.75-1.64,1.68-1.64c0.93,0,1.68,0.74,1.68,1.64
	v10.17l0.23,0.11c1.49,0.67,2.45,2.13,2.45,3.73C23.36,25.61,21.47,27.45,19.16,27.45z"/>
<path class="st0" d="M19.6,20.82v-8.13h-1.34v8.18c-1.09,0.32-1.88,1.31-1.88,2.48c0,1.43,1.19,2.59,2.65,2.59
	c1.46,0,2.65-1.16,2.65-2.59C21.68,22.11,20.79,21.07,19.6,20.82z"/>
<rect x="21.92" y="9.24" class="st0" width="2.24" height="0.72"/>
<rect x="21.92" y="10.53" class="st0" width="2.24" height="0.72"/>
<rect x="21.92" y="11.8" class="st0" width="2.24" height="0.72"/>
<rect x="21.92" y="13.09" class="st0" width="2.24" height="0.72"/>
<rect x="21.92" y="14.36" class="st0" width="2.24" height="0.72"/>
<rect x="21.92" y="15.65" class="st0" width="2.24" height="0.72"/>
<rect x="21.92" y="16.91" class="st0" width="2.24" height="0.72"/>
<rect x="21.92" y="18.2" class="st0" width="2.24" height="0.72"/>
<path id="_255330216_00000047020065168699298020000018351393127034914493_" class="st1" d="M16.95,49.99c-0.3,0.27-0.3,0.7,0,0.97
	c0.3,0.27,0.8,0.27,1.1,0c0.3-0.27,0.3-0.7,0-0.97c-0.15-0.13-0.34-0.2-0.55-0.2C17.29,49.79,17.1,49.86,16.95,49.99z"/>
<path id="_255330048_00000155137645881453552600000013707391351161856433_" class="st1" d="M19.58,52.32 M20.68,52.32
	c-0.3-0.27-0.8-0.27-1.1,0c-0.3,0.27-0.3,0.7,0,0.97c0.3,0.27,0.8,0.27,1.1,0C20.98,53.02,20.98,52.59,20.68,52.32L20.68,52.32z"/>
<path id="_255330072_00000027592519087907596900000015895763999162661562_" class="st1" d="M18.81,42.98
	c-2.16,2.39-3.64,4.62-4.4,6.63c-1.16,3.05-0.42,4.89,0.39,5.89c0.9,1.1,2.4,1.76,4.01,1.76c1.6,0,3.09-0.65,3.99-1.74
	c0.81-0.98,1.55-2.78,0.47-5.75C22.53,47.72,21.03,45.43,18.81,42.98L18.81,42.98z M20.74,50.21l-3.54,3.13
	c-0.04,0.04-0.1,0.06-0.16,0.06c-0.2,0-0.3-0.21-0.16-0.34l3.54-3.13c0.09-0.08,0.23-0.08,0.32,0
	C20.83,50.01,20.83,50.14,20.74,50.21L20.74,50.21z M16.63,49.71 M16.63,49.71c0.48-0.42,1.25-0.42,1.73,0
	c0.48,0.42,0.48,1.11,0,1.53c-0.23,0.2-0.54,0.32-0.87,0.32c-0.68,0-1.22-0.48-1.22-1.08C16.27,50.18,16.4,49.91,16.63,49.71
	L16.63,49.71z M19.27,52.04 M20.13,51.72c0.68,0,1.22,0.48,1.22,1.08c0,0.6-0.55,1.08-1.22,1.08c-0.68,0-1.22-0.48-1.22-1.08
	c0-0.29,0.13-0.56,0.36-0.77S19.8,51.72,20.13,51.72L20.13,51.72z"/>
<linearGradient id="SVGID_1_" gradientUnits="userSpaceOnUse" x1="-2126.2883" y1="2093.8257" x2="-1995.6523" y2="2093.8257" gradientTransform="matrix(1 0 0 1 2140.45 -2059.6138)">
	<stop  offset="0" style="stop-color:#05CCFF"/>
	<stop  offset="0.0178" style="stop-color:#08C8FF"/>
	<stop  offset="0.3696" style="stop-color:#5080FF"/>
	<stop  offset="0.6619" style="stop-color:#844BFF"/>
	<stop  offset="0.8803" style="stop-color:#A42AFF"/>
	<stop  offset="1" style="stop-color:#B01EFF"/>
</linearGradient>
<path class="st2" d="M116.19,33.63l-98.58,0c-1.9,0-3.45,0.26-3.45,0.58c0,0.32,1.54,0.58,3.45,0.58l98.58,0V33.63z"/>
</svg>
