<?xml version="1.0" encoding="utf-8"?>
<!-- Generator: Adobe Illustrator 27.0.0, SVG Export Plug-In . SVG Version: 6.00 Build 0)  -->
<svg version="1.1" id="Layer_1" xmlns="http://www.w3.org/2000/svg" xmlns:xlink="http://www.w3.org/1999/xlink" x="0px" y="0px"
	 viewBox="0 0 70 70" style="enable-background:new 0 0 70 70;" xml:space="preserve">
<style type="text/css">
	.st0{fill:url(#SVGID_1_);}
	.st1{fill:#FF0000;}
</style>
<linearGradient id="SVGID_1_" gradientUnits="userSpaceOnUse" x1="-2131.5562" y1="2095.4902" x2="-2073.9053" y2="2095.4902" gradientTransform="matrix(1 0 0 1 2140.45 -2059.6138)">
	<stop  offset="0" style="stop-color:#05CCFF"/>
	<stop  offset="0.0178" style="stop-color:#08C8FF"/>
	<stop  offset="0.3696" style="stop-color:#5080FF"/>
	<stop  offset="0.6619" style="stop-color:#844BFF"/>
	<stop  offset="0.8803" style="stop-color:#A42AFF"/>
	<stop  offset="1" style="stop-color:#B01EFF"/>
</linearGradient>
<path class="st0" d="M53.92,35.3l-43.5,0c-0.84,0-1.52,0.26-1.52,0.58c0,0.32,0.68,0.58,1.52,0.58l43.5,0V35.3z"/>
<g>
	<path class="st1" d="M14.3,23.56v-7.74c0-1.07-0.89-1.94-1.99-1.94s-1.99,0.87-1.99,1.94v7.89c-1.16,0.71-1.88,1.97-1.88,3.31
		c0,2.16,1.79,3.91,4,3.91s4-1.75,4-3.91C16.45,25.57,15.62,24.23,14.3,23.56z M12.45,30.3c-1.85,0-3.36-1.47-3.36-3.28
		c0-1.18,0.66-2.28,1.71-2.86l0.16-0.09v-8.25c0-0.72,0.6-1.31,1.34-1.31s1.34,0.59,1.34,1.31v8.13l0.19,0.08
		c1.19,0.53,1.96,1.7,1.96,2.98C15.81,28.83,14.3,30.3,12.45,30.3z"/>
	<path class="st1" d="M12.8,25v-6.5h-1.07v6.54c-0.87,0.26-1.5,1.05-1.5,1.98c0,1.14,0.95,2.07,2.12,2.07s2.12-0.93,2.12-2.07
		C14.46,26.03,13.75,25.2,12.8,25z"/>
	<rect x="14.66" y="15.74" class="st1" width="1.79" height="0.57"/>
	<rect x="14.66" y="16.77" class="st1" width="1.79" height="0.57"/>
	<rect x="14.66" y="17.79" class="st1" width="1.79" height="0.57"/>
	<rect x="14.66" y="18.82" class="st1" width="1.79" height="0.57"/>
	<rect x="14.66" y="19.83" class="st1" width="1.79" height="0.57"/>
	<rect x="14.66" y="20.86" class="st1" width="1.79" height="0.57"/>
	<rect x="14.66" y="21.88" class="st1" width="1.79" height="0.57"/>
	<rect x="14.66" y="22.91" class="st1" width="1.79" height="0.57"/>
</g>
</svg>
