<?xml version="1.0" encoding="utf-8"?>
<!-- Generator: Adobe Illustrator 26.5.0, SVG Export Plug-In . SVG Version: 6.00 Build 0)  -->
<svg version="1.1" id="Layer_1" xmlns="http://www.w3.org/2000/svg" xmlns:xlink="http://www.w3.org/1999/xlink" x="0px" y="0px"
	 viewBox="0 0 33 40" style="enable-background:new 0 0 33 40;" xml:space="preserve">
<style type="text/css">
	.st0{fill:none;stroke:#F7EA08;stroke-width:1.0131;stroke-miterlimit:10;}
</style>
<g>
	<path class="st0" d="M19.9,5v30c0,2.5-2,4.5-4.5,4.5h-1.3v-39h1.3C17.9,0.5,19.9,2.5,19.9,5z"/>
	<path class="st0" d="M32.5,20c0,0.2,0,0.4-0.2,0.5c-0.1,0.2-1.2,1.7-2.8,1.7c-1,0-1.9-0.6-2.7-1.7c-0.2-0.3-0.6-0.9-1.1-0.9
		s-1,0.6-1.2,0.9c-0.3,0.4-0.9,0.6-1.3,0.3s-0.6-0.9-0.3-1.4c0.1-0.2,1.2-1.7,2.8-1.7c1,0,1.9,0.6,2.7,1.7c0.2,0.3,0.6,0.9,1.1,0.9
		s1-0.6,1.2-0.9c0.3-0.4,0.9-0.6,1.3-0.3C32.3,19.4,32.5,19.7,32.5,20z"/>
	<path class="st0" d="M32.5,10.2c0,0.2,0,0.4-0.2,0.5c-0.1,0.2-1.2,1.7-2.8,1.7c-1,0-1.9-0.6-2.7-1.7c-0.2-0.3-0.6-0.9-1.1-0.9
		s-1,0.6-1.2,0.9c-0.3,0.4-0.9,0.6-1.3,0.3s-0.6-0.9-0.3-1.4C23.1,9.5,24.2,8,25.8,8c1,0,1.9,0.6,2.7,1.7c0.2,0.3,0.6,0.9,1.1,0.9
		s1-0.6,1.2-0.9c0.3-0.4,0.9-0.6,1.3-0.3C32.3,9.6,32.5,9.9,32.5,10.2z"/>
	<path class="st0" d="M32.5,29.8c0,0.2,0,0.4-0.2,0.5c-0.1,0.2-1.2,1.7-2.8,1.7c-1,0-1.9-0.6-2.7-1.7c-0.2-0.3-0.6-0.9-1.1-0.9
		s-1,0.6-1.2,0.9c-0.3,0.4-0.9,0.6-1.3,0.3s-0.6-0.9-0.3-1.4c0.1-0.2,1.2-1.7,2.8-1.7c1,0,1.9,0.6,2.7,1.7c0.2,0.3,0.6,0.9,1.1,0.9
		s1-0.6,1.2-0.9c0.3-0.4,0.9-0.6,1.3-0.3C32.3,29.1,32.5,29.4,32.5,29.8z"/>
	<path class="st0" d="M13.1,0.5H6.3c-3.2,0-5.8,2.6-5.8,5.8v27.3c0,3.2,2.6,5.8,5.8,5.8h6.8V0.5z M3.4,7.3c0-1.6,1.3-2.9,2.9-2.9
		s2.9,1.3,2.9,2.9s-1.3,2.9-2.9,2.9S3.4,8.9,3.4,7.3z"/>
</g>
</svg>
