<?xml version="1.0" encoding="utf-8"?>
<!-- Generator: Adobe Illustrator 26.5.0, SVG Export Plug-In . SVG Version: 6.00 Build 0)  -->
<svg version="1.1" id="Layer_1" xmlns="http://www.w3.org/2000/svg" xmlns:xlink="http://www.w3.org/1999/xlink" x="0px" y="0px"
	 viewBox="0 0 33 40" style="enable-background:new 0 0 33 40;" xml:space="preserve">
<style type="text/css">
	.st0{fill:none;stroke:#F7EA08;stroke-width:1.0131;stroke-miterlimit:10;}
</style>
<g>
	<path class="st0" d="M13.1,5v30c0,2.5,2,4.5,4.5,4.5h1.3v-39h-1.3C15.1,0.5,13.1,2.5,13.1,5z"/>
	<path class="st0" d="M0.5,20c0,0.2,0.1,0.4,0.2,0.5c0.1,0.2,1.2,1.7,2.8,1.7c1,0,1.9-0.6,2.7-1.7c0.2-0.3,0.6-0.9,1.1-0.9
		s1,0.6,1.2,0.9c0.3,0.4,0.9,0.6,1.3,0.3c0.4-0.3,0.6-0.9,0.3-1.4c-0.1-0.2-1.2-1.7-2.8-1.7c-1,0-1.9,0.6-2.7,1.7
		c-0.2,0.3-0.6,0.9-1.1,0.9s-1-0.6-1.2-0.9C2,19,1.4,18.9,0.9,19.2C0.6,19.4,0.5,19.7,0.5,20z"/>
	<path class="st0" d="M0.5,10.2c0,0.2,0.1,0.4,0.2,0.5c0.1,0.2,1.2,1.7,2.8,1.7c1,0,1.9-0.6,2.7-1.7c0.2-0.3,0.6-0.9,1.1-0.9
		s1,0.6,1.2,0.9c0.3,0.4,0.9,0.6,1.3,0.3c0.4-0.3,0.6-0.9,0.3-1.4C9.9,9.5,8.8,8,7.2,8c-1,0-1.9,0.6-2.7,1.7
		c-0.2,0.3-0.6,0.9-1.1,0.9s-1-0.6-1.2-0.9C2,9.3,1.4,9.1,0.9,9.4C0.6,9.6,0.5,9.9,0.5,10.2z"/>
	<path class="st0" d="M0.5,29.8c0,0.2,0.1,0.4,0.2,0.5C0.8,30.5,1.9,32,3.5,32c1,0,1.9-0.6,2.7-1.7c0.2-0.3,0.6-0.9,1.1-0.9
		s1,0.6,1.2,0.9c0.3,0.4,0.9,0.6,1.3,0.3c0.4-0.3,0.6-0.9,0.3-1.4C10,29,8.9,27.5,7.3,27.5c-1,0-1.9,0.6-2.7,1.7
		c-0.2,0.3-0.6,0.9-1.1,0.9s-1-0.6-1.2-0.9C2,28.8,1.4,28.6,1,28.9C0.6,29.1,0.5,29.4,0.5,29.8z"/>
	<path class="st0" d="M19.9,0.5h6.8c3.2,0,5.8,2.6,5.8,5.8v27.3c0,3.2-2.6,5.8-5.8,5.8h-6.8C19.9,39.4,19.9,0.5,19.9,0.5z M29.6,7.3
		c0-1.6-1.3-2.9-2.9-2.9s-2.9,1.3-2.9,2.9s1.3,2.9,2.9,2.9S29.6,8.9,29.6,7.3z"/>
</g>
</svg>
