<?xml version="1.0" encoding="utf-8"?>
<!-- Generator: Adobe Illustrator 26.5.0, SVG Export Plug-In . SVG Version: 6.00 Build 0)  -->
<svg version="1.1" id="Layer_1" xmlns="http://www.w3.org/2000/svg" xmlns:xlink="http://www.w3.org/1999/xlink" x="0px" y="0px"
	 viewBox="0 0 23.8 20.6" style="enable-background:new 0 0 23.8 20.6;" xml:space="preserve">
<style type="text/css">
	.st0{fill-rule:evenodd;clip-rule:evenodd;fill:#FFCE00;}
</style>
<path class="st0" d="M18.3,20.3H5.6c-0.5,0-0.9-0.4-0.9-0.8v-1.1c0-0.9,0.7-1.7,1.5-1.8v-5c0-3.1,2.5-5.6,5.6-5.6s5.6,2.5,5.6,5.6v5
	c0.9,0.1,1.5,0.9,1.5,1.8v1.1C19.1,19.9,18.8,20.3,18.3,20.3L18.3,20.3z M6.7,17.1c-0.6,0-1.2,0.5-1.2,1.2v1.1
	c0,0.1,0.1,0.1,0.1,0.1h12.7c0,0,0.1-0.1,0.1-0.1v-1.1c0-0.6-0.5-1.2-1.1-1.2H6.7L6.7,17.1z M7.1,16.4h9.9v-4.9
	c0-2.7-2.2-4.9-4.9-4.9s-4.9,2.2-4.9,4.9L7.1,16.4L7.1,16.4z M23.3,12.2H21c-0.2,0-0.3-0.1-0.3-0.4c0-0.2,0.1-0.4,0.3-0.4h2.3
	c0.2,0,0.3,0.1,0.3,0.4C23.6,12,23.5,12.2,23.3,12.2L23.3,12.2z M3,12.2H0.7c-0.2,0-0.4-0.1-0.4-0.4c0-0.2,0.1-0.4,0.4-0.4H3
	c0.2,0,0.4,0.1,0.4,0.4C3.4,12,3.2,12.2,3,12.2L3,12.2z M8,11.8c-0.2,0-0.4-0.1-0.4-0.4c0-1.9,1.2-3.6,3-4.2c0.2-0.1,0.4,0,0.5,0.2
	c0.1,0.2,0,0.4-0.2,0.5c-1.5,0.5-2.5,1.9-2.5,3.5C8.3,11.7,8.1,11.8,8,11.8L8,11.8z M18.3,5.8c-0.1,0-0.2,0-0.2-0.1
	c-0.1-0.1-0.1-0.4,0-0.5l1.6-1.6c0.1-0.1,0.3-0.1,0.5,0c0.1,0.1,0.1,0.4,0,0.5l-1.6,1.6C18.5,5.8,18.4,5.8,18.3,5.8L18.3,5.8z
	 M5.6,5.8c-0.1,0-0.2,0-0.2-0.1L3.8,4.1c-0.1-0.1-0.1-0.4,0-0.5s0.4-0.1,0.5,0l1.6,1.6C6,5.4,6,5.6,5.9,5.7C5.8,5.8,5.7,5.8,5.6,5.8
	L5.6,5.8z M12,3.2c-0.2,0-0.4-0.1-0.4-0.4V0.5c0-0.2,0.1-0.4,0.4-0.4c0.2,0,0.4,0.1,0.4,0.4v2.3C12.3,3,12.2,3.2,12,3.2L12,3.2z"/>
</svg>
