<?xml version="1.0" encoding="utf-8"?>
<!-- Generator: Adobe Illustrator 26.5.0, SVG Export Plug-In . SVG Version: 6.00 Build 0)  -->
<svg version="1.1" id="Layer_1" xmlns="http://www.w3.org/2000/svg" xmlns:xlink="http://www.w3.org/1999/xlink" x="0px" y="0px"
	 viewBox="0 0 87 76.5" style="enable-background:new 0 0 87 76.5;" xml:space="preserve">
<style type="text/css">
	.st0{opacity:0.5;}
	.st1{fill-rule:evenodd;clip-rule:evenodd;fill:none;stroke:#FFFFFF;stroke-width:0.75;stroke-miterlimit:10;}
	.st2{fill-rule:evenodd;clip-rule:evenodd;fill:none;}
	.st3{fill:none;stroke:#FFFFFF;stroke-width:0.75;stroke-miterlimit:10;}
	.st4{opacity:0.45;fill-rule:evenodd;clip-rule:evenodd;fill:#FFFFFF;}
	.st5{fill-rule:evenodd;clip-rule:evenodd;fill:#FFCE00;}
	.st6{fill:none;stroke:#FFFFFF;stroke-width:0.5;stroke-miterlimit:10;}
	.st7{fill:none;stroke:#FFFFFF;stroke-miterlimit:10;}
	.st8{opacity:0.5;fill:none;stroke:#FFFFFF;stroke-linecap:round;stroke-linejoin:round;stroke-miterlimit:10;}
	.st9{fill:none;}
	.st10{fill-rule:evenodd;clip-rule:evenodd;fill:#FFFFFF;}
	.st11{fill:#1000FF;}
	.st12{fill-rule:evenodd;clip-rule:evenodd;fill:#1000FF;}
	.st13{fill:url(#SVGID_1_);}
	.st14{fill:url(#SVGID_00000000211869076972818280000016114899523634641080_);}
	.st15{fill:#FF0000;}
	.st16{fill:url(#SVGID_00000122685369927238567240000007169903608310206602_);}
	.st17{fill:url(#SVGID_00000112604527518815385830000002869525670143475090_);}
	.st18{opacity:0.7;fill-rule:evenodd;clip-rule:evenodd;fill:url(#SVGID_00000041290774998442699850000015138103760963640481_);}
	.st19{fill:#FF8888;}
	.st20{opacity:0.7;fill:#2E2923;}
	.st21{opacity:0.7;}
	.st22{opacity:0.7;fill-rule:evenodd;clip-rule:evenodd;fill:url(#SVGID_00000020375464638772628650000008755507479504584628_);}
	.st23{fill:#FFEFAB;}
	.st24{opacity:0.7;fill:#303030;}
	.st25{fill:#FFFFFF;}
	.st26{opacity:0.7;fill-rule:evenodd;clip-rule:evenodd;fill:url(#SVGID_00000093178576906435534220000002313160944382700427_);}
	.st27{opacity:0.5;fill-rule:evenodd;clip-rule:evenodd;fill:#FFFFFF;}
	.st28{opacity:0.7;fill-rule:evenodd;clip-rule:evenodd;fill:url(#SVGID_00000163038886261081221800000013427927671361234313_);}
	.st29{fill:url(#SVGID_00000172422940591310452110000010229799481768518833_);}
	.st30{fill:url(#SVGID_00000060716998311370717090000004406824421498313909_);}
	.st31{fill:url(#SVGID_00000012432494591291608990000004471598816012124572_);}
	.st32{fill:url(#SVGID_00000178188269879431286660000009429668844016659889_);}
	.st33{fill:url(#SVGID_00000015326762925176666340000011852313111104392846_);}
	.st34{fill:url(#SVGID_00000057840556869345167840000000869986515688891778_);}
	.st35{fill:url(#SVGID_00000046302388206234982380000008801483258802585743_);}
	.st36{fill:url(#SVGID_00000059309138613848413940000009487141016864165305_);}
	.st37{fill:url(#SVGID_00000155118890699223508450000018137119237638102172_);}
	.st38{fill:url(#SVGID_00000140707957581526168590000011126559069011132580_);}
	.st39{opacity:0.3;}
	.st40{fill:#F7D418;}
	.st41{fill:#2E2923;}
	.st42{fill:#29333F;}
	.st43{fill:#B9BBBC;}
	.st44{fill:#FFC200;}
	.st45{fill:url(#SVGID_00000089562752402821284870000008435485371941751989_);}
	.st46{fill:url(#SVGID_00000121253871609197542140000011622171275432100509_);}
	.st47{fill:url(#SVGID_00000062889752177102236180000001897363721263457952_);}
	.st48{fill:url(#SVGID_00000143576202368402302840000018393602932963010746_);}
	.st49{fill:#FFFFFE;}
	.st50{opacity:0.7;fill-rule:evenodd;clip-rule:evenodd;fill:url(#SVGID_00000127025847279352033070000007691309469101329586_);}
	.st51{opacity:0.7;fill-rule:evenodd;clip-rule:evenodd;fill:url(#SVGID_00000153703312099485112360000010906196242972134544_);}
	.st52{opacity:0.7;fill-rule:evenodd;clip-rule:evenodd;fill:url(#SVGID_00000003065321000401144490000001721200393027229063_);}
	.st53{opacity:0.7;fill-rule:evenodd;clip-rule:evenodd;fill:url(#SVGID_00000153686695527842777140000015990065464710815124_);}
	.st54{opacity:0.7;fill-rule:evenodd;clip-rule:evenodd;fill:url(#SVGID_00000034054174966758821870000007924014157307275136_);}
	.st55{fill:#303030;}
	.st56{font-family:'Prompt-Regular';}
	.st57{font-size:22.5305px;}
	.st58{opacity:0.7;fill-rule:evenodd;clip-rule:evenodd;fill:url(#SVGID_00000048465769596063410150000007003688465947181738_);}
	.st59{fill-rule:evenodd;clip-rule:evenodd;fill:url(#SVGID_00000035489995350773972450000003233607826139679632_);}
	.st60{fill-rule:evenodd;clip-rule:evenodd;fill:url(#SVGID_00000084489607486937712990000000389254665861563063_);}
	.st61{fill:#FFCE00;}
	.st62{fill-rule:evenodd;clip-rule:evenodd;fill:url(#SVGID_00000157298103983785208060000016089723400792530834_);}
	.st63{fill-rule:evenodd;clip-rule:evenodd;fill:url(#SVGID_00000129189050147425347230000000096048206284357762_);}
	.st64{fill-rule:evenodd;clip-rule:evenodd;fill:url(#SVGID_00000014634281365694007240000008372109930997956776_);}
	.st65{fill:url(#SVGID_00000061461549632017695620000003021797009600854954_);}
	.st66{fill:url(#SVGID_00000101784399774455634490000004992437029555424399_);}
	.st67{fill:url(#SVGID_00000007399831303903168560000006716145174498321546_);}
	.st68{fill:url(#SVGID_00000170240295225815273200000009171864048532285578_);}
	.st69{fill-rule:evenodd;clip-rule:evenodd;fill:#FF0000;}
	.st70{fill-rule:evenodd;clip-rule:evenodd;fill:none;stroke:#FF0000;stroke-width:0.75;stroke-miterlimit:10;}
	.st71{fill:none;stroke:#FF0000;stroke-miterlimit:10;}
	.st72{fill:none;stroke:#FFCE00;stroke-width:0.75;stroke-miterlimit:10;}
	.st73{fill:none;stroke:#FFCE00;stroke-miterlimit:10;}
	.st74{fill:url(#SVGID_00000032636922878725880680000003225532160959128757_);}
	.st75{fill:url(#SVGID_00000068665265556469053150000014026392143568909230_);}
	.st76{fill:url(#SVGID_00000080904851808173225160000016078289607728235960_);}
	.st77{fill:url(#SVGID_00000053537942111397433730000003849504930602678702_);}
	.st78{fill:url(#SVGID_00000000938584453580498950000017281908226066858395_);}
	.st79{fill:url(#SVGID_00000180361531568054148830000005155385491278287747_);}
	.st80{fill:url(#SVGID_00000123433927520301520260000010223514191268234897_);}
	.st81{fill:url(#SVGID_00000147909399818863905290000000876589473047257787_);}
	.st82{fill:url(#SVGID_00000005245735429683699030000005127394304906838965_);}
	.st83{fill:url(#SVGID_00000049917395339181693350000008551295288954657981_);}
	.st84{fill:url(#SVGID_00000023249127404668421860000017615160223340194693_);}
	.st85{fill:url(#SVGID_00000106131091968889707200000005375918869301034137_);}
	.st86{fill:url(#SVGID_00000124842016884672661850000012458054601895181448_);}
	.st87{fill:url(#SVGID_00000161629342877267211980000015612369932427234957_);}
	.st88{fill:url(#SVGID_00000017475042262687489520000006853049368117517977_);}
	.st89{fill:url(#SVGID_00000114794391148335831150000010207983356803891132_);}
	.st90{fill:url(#SVGID_00000086656617577795440500000003577005193632029862_);}
	.st91{fill:url(#SVGID_00000016064286470381538910000015494112111548150972_);}
	.st92{fill:url(#SVGID_00000179623932484845442000000015096720207780802722_);}
	.st93{fill:url(#SVGID_00000071540947402694190280000016752770996771618957_);}
	.st94{fill:url(#SVGID_00000067197255773341672380000013339964607249737376_);}
	.st95{fill:url(#SVGID_00000013901562517437974760000006191611624972137361_);}
	.st96{fill:url(#SVGID_00000062881227621332572720000007997652392135794823_);}
	.st97{fill-rule:evenodd;clip-rule:evenodd;fill:none;stroke:#FFFFFF;stroke-width:0.5;stroke-miterlimit:10;}
</style>
<linearGradient id="SVGID_1_" gradientUnits="userSpaceOnUse" x1="7" y1="44" x2="87" y2="44">
	<stop  offset="0" style="stop-color:#13375C"/>
	<stop  offset="1" style="stop-color:#151E37"/>
</linearGradient>
<path style="opacity:0.7;fill-rule:evenodd;clip-rule:evenodd;fill:url(#SVGID_1_);" d="M18,76.5h58c6.08,0,11-4.92,11-11v-43
	c0-6.08-4.92-11-11-11H18c-6.08,0-11,4.92-11,11v43C7,71.58,11.92,76.5,18,76.5z"/>
<g class="st0">
	<g>
		<path class="st25" d="M12.82,49.05h-2.21v-0.81H16v0.81h-2.23v6.6h-0.95V49.05z"/>
		<path class="st25" d="M16.54,53.16c0.02,1.31,0.84,1.85,1.79,1.85c0.68,0,1.09-0.12,1.45-0.28l0.16,0.69
			c-0.33,0.15-0.91,0.33-1.74,0.33c-1.61,0-2.57-1.08-2.57-2.68s0.93-2.87,2.45-2.87c1.71,0,2.16,1.53,2.16,2.51
			c0,0.2-0.02,0.35-0.03,0.45H16.54z M19.32,52.47c0.01-0.62-0.25-1.57-1.32-1.57c-0.96,0-1.38,0.9-1.46,1.57H19.32z"/>
		<path class="st25" d="M21.42,51.76c0-0.55-0.01-1-0.04-1.44h0.83l0.04,0.86h0.03c0.29-0.51,0.78-0.98,1.64-0.98
			c0.71,0,1.25,0.44,1.48,1.07h0.02c0.16-0.3,0.37-0.53,0.58-0.69c0.31-0.24,0.66-0.37,1.16-0.37c0.69,0,1.72,0.46,1.72,2.31v3.14
			h-0.93v-3.01c0-1.02-0.37-1.64-1.13-1.64c-0.54,0-0.96,0.41-1.12,0.88c-0.04,0.13-0.08,0.31-0.08,0.48v3.29h-0.93v-3.19
			c0-0.85-0.37-1.46-1.09-1.46c-0.59,0-1.03,0.48-1.18,0.97c-0.05,0.14-0.08,0.31-0.08,0.47v3.21h-0.93V51.76z"/>
		<path class="st25" d="M30.43,52.06c0-0.68-0.02-1.23-0.04-1.74h0.85l0.04,0.91h0.02c0.39-0.65,1.01-1.03,1.86-1.03
			c1.26,0,2.21,1.09,2.21,2.71c0,1.91-1.15,2.86-2.38,2.86c-0.69,0-1.3-0.31-1.61-0.84h-0.02v2.89h-0.94V52.06z M31.37,53.48
			c0,0.14,0.02,0.27,0.04,0.4c0.17,0.67,0.75,1.13,1.43,1.13c1,0,1.59-0.84,1.59-2.06c0-1.07-0.55-1.98-1.56-1.98
			c-0.65,0-1.25,0.47-1.44,1.2c-0.03,0.12-0.07,0.26-0.07,0.4V53.48z"/>
		<path class="st25" d="M37.1,53.16c0.02,1.31,0.84,1.85,1.79,1.85c0.68,0,1.09-0.12,1.45-0.28l0.16,0.69
			c-0.34,0.15-0.91,0.33-1.74,0.33c-1.61,0-2.57-1.08-2.57-2.68s0.93-2.87,2.45-2.87c1.71,0,2.16,1.53,2.16,2.51
			c0,0.2-0.02,0.35-0.03,0.45H37.1z M39.89,52.47c0.01-0.62-0.25-1.57-1.32-1.57c-0.96,0-1.38,0.9-1.46,1.57H39.89z"/>
		<path class="st25" d="M41.99,51.98c0-0.63-0.01-1.17-0.04-1.66h0.83l0.03,1.05h0.04c0.24-0.72,0.81-1.17,1.45-1.17
			c0.11,0,0.18,0.01,0.27,0.03v0.91c-0.1-0.02-0.19-0.03-0.32-0.03c-0.67,0-1.14,0.52-1.27,1.24c-0.02,0.13-0.04,0.29-0.04,0.45
			v2.84h-0.94V51.98z"/>
		<path class="st25" d="M46.92,48.79v1.53h1.36v0.74h-1.36v2.87c0,0.66,0.18,1.03,0.71,1.03c0.25,0,0.43-0.03,0.55-0.07l0.04,0.73
			c-0.18,0.08-0.47,0.13-0.84,0.13c-0.44,0-0.8-0.14-1.03-0.41c-0.27-0.29-0.37-0.76-0.37-1.39v-2.9h-0.81v-0.74h0.81v-1.28
			L46.92,48.79z"/>
		<path class="st25" d="M53.73,54.2c0,0.55,0.01,1.03,0.04,1.45h-0.84l-0.05-0.87h-0.02c-0.25,0.43-0.8,0.99-1.73,0.99
			c-0.82,0-1.8-0.46-1.8-2.33v-3.11h0.95v2.95c0,1.01,0.3,1.69,1.17,1.69c0.64,0,1.08-0.45,1.25-0.88c0.05-0.14,0.09-0.32,0.09-0.5
			v-3.27h0.95V54.2z"/>
		<path class="st25" d="M55.31,51.98c0-0.63-0.01-1.17-0.04-1.66h0.83l0.03,1.05h0.04c0.24-0.72,0.81-1.17,1.45-1.17
			c0.11,0,0.18,0.01,0.27,0.03v0.91c-0.1-0.02-0.19-0.03-0.32-0.03c-0.67,0-1.14,0.52-1.27,1.24c-0.02,0.13-0.04,0.29-0.04,0.45
			v2.84h-0.94V51.98z"/>
		<path class="st25" d="M59.26,53.16c0.02,1.31,0.84,1.85,1.79,1.85c0.68,0,1.09-0.12,1.45-0.28l0.16,0.69
			c-0.34,0.15-0.91,0.33-1.74,0.33c-1.61,0-2.57-1.08-2.57-2.68s0.93-2.87,2.45-2.87c1.71,0,2.16,1.53,2.16,2.51
			c0,0.2-0.02,0.35-0.03,0.45H59.26z M62.05,52.47c0.01-0.62-0.25-1.57-1.32-1.57c-0.96,0-1.38,0.9-1.46,1.57H62.05z"/>
		<path class="st25" d="M66.47,48.33c0.48-0.1,1.16-0.15,1.8-0.15c1,0,1.65,0.19,2.11,0.6c0.37,0.33,0.57,0.84,0.57,1.41
			c0,0.98-0.61,1.63-1.37,1.89v0.03c0.56,0.2,0.9,0.73,1.07,1.5c0.24,1.03,0.41,1.75,0.56,2.04h-0.97
			c-0.12-0.21-0.28-0.85-0.49-1.77c-0.22-1.02-0.61-1.41-1.46-1.44h-0.89v3.21h-0.94V48.33z M67.41,51.71h0.96
			c1,0,1.64-0.56,1.64-1.41c0-0.96-0.68-1.38-1.67-1.39c-0.45,0-0.78,0.04-0.93,0.09V51.71z"/>
		<path class="st25" d="M73.41,48.83c0.01,0.33-0.23,0.59-0.61,0.59c-0.33,0-0.57-0.26-0.57-0.59c0-0.34,0.25-0.6,0.59-0.6
			C73.19,48.22,73.41,48.49,73.41,48.83z M72.35,55.65v-5.33h0.95v5.33H72.35z"/>
		<path class="st25" d="M74.75,54.66c0.28,0.19,0.78,0.38,1.25,0.38c0.69,0,1.02-0.35,1.02-0.79c0-0.46-0.27-0.71-0.97-0.98
			c-0.94-0.34-1.38-0.87-1.38-1.51c0-0.86,0.68-1.56,1.8-1.56c0.53,0,0.99,0.15,1.29,0.33l-0.24,0.7c-0.21-0.13-0.58-0.31-1.07-0.31
			c-0.56,0-0.88,0.33-0.88,0.73c0,0.44,0.31,0.64,0.99,0.9c0.91,0.35,1.37,0.81,1.37,1.61c0,0.94-0.71,1.6-1.96,1.6
			c-0.57,0-1.1-0.14-1.47-0.36L74.75,54.66z"/>
		<path class="st25" d="M79.69,53.16c0.02,1.31,0.84,1.85,1.79,1.85c0.68,0,1.09-0.12,1.45-0.28l0.16,0.69
			c-0.34,0.15-0.91,0.33-1.74,0.33c-1.61,0-2.57-1.08-2.57-2.68s0.93-2.87,2.45-2.87c1.71,0,2.16,1.53,2.16,2.51
			c0,0.2-0.02,0.35-0.03,0.45H79.69z M82.48,52.47c0.01-0.62-0.25-1.57-1.32-1.57c-0.96,0-1.38,0.9-1.46,1.57H82.48z"/>
		<path class="st25" d="M28.9,68.85l-1.85-7.42h0.99l0.87,3.75c0.22,0.92,0.41,1.85,0.54,2.56h0.02c0.12-0.74,0.35-1.62,0.59-2.57
			l0.97-3.74h0.98l0.89,3.76c0.21,0.88,0.4,1.76,0.51,2.54h0.02c0.15-0.81,0.36-1.64,0.58-2.56l0.96-3.74h0.96l-2.06,7.42H32.9
			l-0.92-3.86c-0.23-0.95-0.38-1.67-0.48-2.42h-0.02c-0.13,0.74-0.29,1.46-0.56,2.42l-1.04,3.86H28.9z"/>
		<path class="st25" d="M39.36,68.85l-0.08-0.67h-0.03c-0.29,0.42-0.85,0.79-1.6,0.79c-1.06,0-1.6-0.76-1.6-1.53
			c0-1.29,1.12-1.99,3.14-1.98v-0.11c0-0.44-0.12-1.23-1.19-1.23c-0.49,0-0.99,0.15-1.36,0.4l-0.22-0.64
			c0.43-0.29,1.06-0.47,1.72-0.47c1.6,0,1.99,1.11,1.99,2.18v1.99c0,0.46,0.02,0.91,0.09,1.28H39.36z M39.22,66.13
			c-1.04-0.02-2.21,0.17-2.21,1.2c0,0.63,0.41,0.92,0.9,0.92c0.68,0,1.11-0.44,1.26-0.89c0.03-0.1,0.05-0.21,0.05-0.31V66.13z"/>
		<path class="st25" d="M41.67,65.18c0-0.63-0.01-1.17-0.04-1.66h0.83l0.03,1.05h0.04c0.24-0.72,0.81-1.17,1.45-1.17
			c0.11,0,0.18,0.01,0.27,0.03v0.91c-0.1-0.02-0.19-0.03-0.32-0.03c-0.67,0-1.14,0.52-1.27,1.24c-0.02,0.13-0.04,0.29-0.04,0.45
			v2.84h-0.94V65.18z"/>
		<path class="st25" d="M45.25,64.96c0-0.55-0.01-1-0.04-1.44h0.84l0.05,0.88h0.02c0.26-0.51,0.86-1,1.73-1
			c0.72,0,1.85,0.44,1.85,2.27v3.18h-0.95v-3.07c0-0.86-0.31-1.57-1.21-1.57c-0.63,0-1.11,0.45-1.27,0.99
			c-0.04,0.12-0.07,0.29-0.07,0.45v3.2h-0.95V64.96z"/>
		<path class="st25" d="M52.3,62.03c0.01,0.33-0.23,0.59-0.6,0.59c-0.33,0-0.57-0.26-0.57-0.59c0-0.34,0.25-0.6,0.59-0.6
			C52.08,61.42,52.3,61.69,52.3,62.03z M51.24,68.85v-5.33h0.95v5.33H51.24z"/>
		<path class="st25" d="M53.77,64.96c0-0.55-0.01-1-0.04-1.44h0.84l0.05,0.88h0.02c0.26-0.51,0.86-1,1.73-1
			c0.72,0,1.85,0.44,1.85,2.27v3.18h-0.95v-3.07c0-0.86-0.31-1.57-1.21-1.57c-0.63,0-1.11,0.45-1.27,0.99
			c-0.04,0.12-0.07,0.29-0.07,0.45v3.2h-0.95V64.96z"/>
		<path class="st25" d="M64.27,63.52c-0.02,0.39-0.04,0.81-0.04,1.46v3.09c0,1.22-0.24,1.97-0.75,2.43
			c-0.51,0.48-1.24,0.64-1.9,0.64c-0.63,0-1.32-0.15-1.74-0.44l0.24-0.74c0.35,0.22,0.88,0.42,1.53,0.42c0.97,0,1.69-0.52,1.69-1.86
			v-0.59h-0.02c-0.29,0.5-0.85,0.89-1.66,0.89c-1.3,0-2.22-1.12-2.22-2.6c0-1.8,1.16-2.83,2.35-2.83c0.91,0,1.4,0.48,1.63,0.92h0.02
			l0.04-0.8H64.27z M63.29,65.62c0-0.17-0.01-0.31-0.05-0.44c-0.17-0.56-0.64-1.02-1.33-1.02c-0.91,0-1.56,0.78-1.56,2.01
			c0,1.05,0.52,1.92,1.54,1.92c0.58,0,1.11-0.37,1.32-0.99c0.05-0.17,0.08-0.35,0.08-0.52V65.62z"/>
		<path class="st25" d="M65.62,68.29c0-0.4,0.27-0.68,0.64-0.68c0.39,0,0.64,0.29,0.64,0.68c0,0.39-0.25,0.68-0.64,0.68
			C65.88,68.97,65.62,68.67,65.62,68.29z M65.89,66.71l-0.15-5.28h1.04l-0.15,5.28H65.89z"/>
	</g>
</g>
<path class="st19" d="M25.73,24.85H2.27c-1.75,0-2.84-1.89-1.96-3.4l5.46-9.46l6.27-10.86c0.87-1.51,3.05-1.51,3.93,0l6.55,11.35
	l5.18,8.96C28.57,22.96,27.47,24.85,25.73,24.85z"/>
<path class="st20" d="M26.82,21.95L15.09,1.64C14.76,1.07,14.22,1.01,14,1.01c-0.22,0-0.76,0.06-1.09,0.63L1.18,21.95
	c-0.33,0.57-0.11,1.07,0,1.26c0.11,0.19,0.44,0.63,1.09,0.63h23.46c0.66,0,0.98-0.44,1.09-0.63C26.93,23.02,27.15,22.52,26.82,21.95
	z M26.31,22.92c-0.09,0.15-0.26,0.34-0.58,0.34H2.27c-0.32,0-0.5-0.18-0.58-0.34c-0.09-0.15-0.16-0.4,0-0.68L13.42,1.93
	c0.16-0.28,0.41-0.34,0.58-0.34c0.18,0,0.42,0.06,0.58,0.34l11.73,20.32C26.48,22.52,26.4,22.77,26.31,22.92z"/>
<g class="st21">
	<text transform="matrix(0.9821 0 0 1 11.455 21.7726)" class="st55 st56 st57">!</text>
</g>
<g class="st0">
	<path class="st25" d="M49.32,29.53v-9.67c0-1.34-1.11-2.43-2.48-2.43s-2.48,1.09-2.48,2.43v9.86C42.89,30.61,42,32.17,42,33.86
		c0,2.69,2.24,4.89,5,4.89s5-2.19,5-4.89C52,32.04,50.95,30.37,49.32,29.53z M47,37.96c-2.31,0-4.19-1.84-4.19-4.1
		c0-1.48,0.82-2.85,2.14-3.57l0.21-0.11V19.86c0-0.9,0.75-1.64,1.68-1.64s1.68,0.74,1.68,1.64v10.17l0.23,0.11
		c1.49,0.67,2.45,2.13,2.45,3.73C51.19,36.12,49.31,37.96,47,37.96z"/>
	<path class="st25" d="M47.44,31.33V23.2h-1.34v8.18c-1.09,0.32-1.88,1.31-1.88,2.48c0,1.43,1.19,2.59,2.65,2.59
		c1.46,0,2.65-1.16,2.65-2.59C49.52,32.62,48.63,31.58,47.44,31.33z"/>
	<rect x="49.76" y="19.76" class="st25" width="2.24" height="0.72"/>
	<rect x="49.76" y="21.05" class="st25" width="2.24" height="0.72"/>
	<rect x="49.76" y="22.31" class="st25" width="2.24" height="0.72"/>
	<rect x="49.76" y="23.6" class="st25" width="2.24" height="0.72"/>
	<rect x="49.76" y="24.87" class="st25" width="2.24" height="0.72"/>
	<rect x="49.76" y="26.16" class="st25" width="2.24" height="0.72"/>
	<rect x="49.76" y="27.43" class="st25" width="2.24" height="0.72"/>
	<rect x="49.76" y="28.72" class="st25" width="2.24" height="0.72"/>
</g>
</svg>
