<?xml version="1.0" encoding="utf-8"?>
<!-- Generator: Adobe Illustrator 26.5.0, SVG Export Plug-In . SVG Version: 6.00 Build 0)  -->
<svg version="1.1" id="Layer_1" xmlns="http://www.w3.org/2000/svg" xmlns:xlink="http://www.w3.org/1999/xlink" x="0px" y="0px"
	 viewBox="0 0 23.6 20.6" style="enable-background:new 0 0 23.6 20.6;" xml:space="preserve">
<style type="text/css">
	.st0{opacity:0.45;fill-rule:evenodd;clip-rule:evenodd;fill:#FFFFFF;enable-background:new    ;}
</style>
<path class="st0" d="M18.1,20.3H5.4c-0.5,0-0.9-0.4-0.9-0.8v-1.1c0-0.9,0.7-1.7,1.5-1.8v-5c0-3.1,2.5-5.6,5.6-5.6s5.6,2.5,5.6,5.6v5
	c0.9,0.1,1.5,0.9,1.5,1.8v1.1C18.9,19.9,18.6,20.3,18.1,20.3L18.1,20.3z M6.5,17.2c-0.6,0-1.2,0.5-1.2,1.2v1.1
	c0,0.1,0.1,0.1,0.1,0.1h12.7c0,0,0.1-0.1,0.1-0.1v-1.1c0-0.6-0.5-1.2-1.1-1.2H6.5L6.5,17.2z M6.9,16.4h9.9v-4.9
	c0-2.7-2.2-4.9-4.9-4.9s-4.9,2.2-4.9,4.9L6.9,16.4L6.9,16.4z M23.1,12.2h-2.3c-0.2,0-0.3-0.1-0.3-0.4c0-0.2,0.1-0.4,0.3-0.4h2.3
	c0.2,0,0.3,0.1,0.3,0.4C23.4,12,23.3,12.2,23.1,12.2L23.1,12.2z M2.8,12.2H0.5c-0.2,0-0.4-0.1-0.4-0.4c0-0.2,0.1-0.4,0.4-0.4h2.3
	c0.2,0,0.4,0.1,0.4,0.4C3.2,12,3,12.2,2.8,12.2L2.8,12.2z M7.8,11.9c-0.2,0-0.4-0.1-0.4-0.4c0-1.9,1.2-3.6,3-4.2
	c0.2-0.1,0.4,0,0.5,0.2c0.1,0.2,0,0.4-0.2,0.5c-1.5,0.5-2.5,1.9-2.5,3.5C8.1,11.7,7.9,11.9,7.8,11.9L7.8,11.9z M18.1,5.8
	c-0.1,0-0.2,0-0.2-0.1c-0.1-0.1-0.1-0.4,0-0.5l1.6-1.6c0.1-0.1,0.3-0.1,0.5,0c0.1,0.1,0.1,0.4,0,0.5l-1.6,1.6
	C18.3,5.8,18.2,5.8,18.1,5.8L18.1,5.8z M5.4,5.8c-0.1,0-0.2,0-0.2-0.1L3.6,4.1C3.4,4,3.4,3.8,3.6,3.6s0.4-0.1,0.5,0l1.6,1.6
	c0.1,0.1,0.1,0.4,0,0.5C5.6,5.8,5.5,5.8,5.4,5.8L5.4,5.8z M11.8,3.2c-0.2,0-0.4-0.1-0.4-0.4V0.6c0-0.2,0.1-0.4,0.4-0.4
	c0.2,0,0.4,0.1,0.4,0.4v2.3C12.1,3.1,12,3.2,11.8,3.2L11.8,3.2z"/>
</svg>
