<?xml version="1.0" encoding="utf-8"?>
<!-- Generator: Adobe Illustrator 26.5.0, SVG Export Plug-In . SVG Version: 6.00 Build 0)  -->
<svg version="1.1" id="Layer_1" xmlns="http://www.w3.org/2000/svg" xmlns:xlink="http://www.w3.org/1999/xlink" x="0px" y="0px"
	 viewBox="0 0 87 76.5" style="enable-background:new 0 0 87 76.5;" xml:space="preserve">
<style type="text/css">
	.st0{opacity:0.5;}
	.st1{fill-rule:evenodd;clip-rule:evenodd;fill:none;stroke:#FFFFFF;stroke-width:0.75;stroke-miterlimit:10;}
	.st2{fill-rule:evenodd;clip-rule:evenodd;fill:none;}
	.st3{fill:none;stroke:#FFFFFF;stroke-width:0.75;stroke-miterlimit:10;}
	.st4{opacity:0.45;fill-rule:evenodd;clip-rule:evenodd;fill:#FFFFFF;}
	.st5{fill-rule:evenodd;clip-rule:evenodd;fill:#FFCE00;}
	.st6{fill:none;stroke:#FFFFFF;stroke-width:0.5;stroke-miterlimit:10;}
	.st7{fill:none;stroke:#FFFFFF;stroke-miterlimit:10;}
	.st8{opacity:0.5;fill:none;stroke:#FFFFFF;stroke-linecap:round;stroke-linejoin:round;stroke-miterlimit:10;}
	.st9{fill:none;}
	.st10{fill-rule:evenodd;clip-rule:evenodd;fill:#FFFFFF;}
	.st11{fill:#1000FF;}
	.st12{fill-rule:evenodd;clip-rule:evenodd;fill:#1000FF;}
	.st13{fill:url(#SVGID_1_);}
	.st14{fill:url(#SVGID_00000103247516674054482930000010392337673226104238_);}
	.st15{fill:#FF0000;}
	.st16{fill:url(#SVGID_00000130644914986570569050000018001770117996279735_);}
	.st17{fill:url(#SVGID_00000128454371208044257000000010708565644268671896_);}
	.st18{opacity:0.7;fill-rule:evenodd;clip-rule:evenodd;fill:url(#SVGID_00000144302968177351174880000014099302711999576708_);}
	.st19{fill:#FF8888;}
	.st20{opacity:0.7;fill:#2E2923;}
	.st21{opacity:0.7;}
	.st22{opacity:0.7;fill-rule:evenodd;clip-rule:evenodd;fill:url(#SVGID_00000060016874480272745070000008890387374613895059_);}
	.st23{fill:#FFEFAB;}
	.st24{opacity:0.7;fill:#303030;}
	.st25{fill:#FFFFFF;}
	.st26{opacity:0.7;fill-rule:evenodd;clip-rule:evenodd;fill:url(#SVGID_00000098938302734957855790000004287344009201659293_);}
	.st27{opacity:0.5;fill-rule:evenodd;clip-rule:evenodd;fill:#FFFFFF;}
	.st28{opacity:0.7;fill-rule:evenodd;clip-rule:evenodd;fill:url(#SVGID_00000160877182269393775730000003610953890943634581_);}
	.st29{fill:url(#SVGID_00000039812502457622256170000000788142346499830405_);}
	.st30{fill:url(#SVGID_00000099662276829738951110000004982181031069864596_);}
	.st31{fill:url(#SVGID_00000062886223540353657190000015889351891822086800_);}
	.st32{fill:url(#SVGID_00000168836275914575912540000006902029725882821811_);}
	.st33{fill:url(#SVGID_00000083089198594118742010000009578412662567729808_);}
	.st34{fill:url(#SVGID_00000015315056705630881910000011141257360550530443_);}
	.st35{fill:url(#SVGID_00000173154187827789020950000006868014136967451579_);}
	.st36{fill:url(#SVGID_00000059287599138868614330000011643399115203251633_);}
	.st37{fill:url(#SVGID_00000150096473516864821510000012983167476284009400_);}
	.st38{fill:url(#SVGID_00000109746149445770709780000008899365676035791794_);}
	.st39{opacity:0.3;}
	.st40{fill:#F7D418;}
	.st41{fill:#2E2923;}
	.st42{fill:#29333F;}
	.st43{fill:#B9BBBC;}
	.st44{fill:#FFC200;}
	.st45{fill:url(#SVGID_00000016075118638047092640000006559384072136113573_);}
	.st46{fill:url(#SVGID_00000091009564726517025930000017052245527138262708_);}
	.st47{fill:url(#SVGID_00000159445804306814625430000007876604124100293024_);}
	.st48{fill:url(#SVGID_00000135650599978207165640000017319717459634907778_);}
	.st49{fill:#FFFFFE;}
	.st50{opacity:0.7;fill-rule:evenodd;clip-rule:evenodd;fill:url(#SVGID_00000164479606485152132620000005706101545510032827_);}
	.st51{opacity:0.7;fill-rule:evenodd;clip-rule:evenodd;fill:url(#SVGID_00000179610687730875453220000007318110696605252774_);}
	.st52{opacity:0.7;fill-rule:evenodd;clip-rule:evenodd;fill:url(#SVGID_00000003102722533252910160000008266912694487717277_);}
	.st53{opacity:0.7;fill-rule:evenodd;clip-rule:evenodd;fill:url(#SVGID_00000062165929105810229120000000568166538050249614_);}
	.st54{opacity:0.7;fill-rule:evenodd;clip-rule:evenodd;fill:url(#SVGID_00000091722870343448228030000009888989520216516030_);}
	.st55{opacity:0.7;fill-rule:evenodd;clip-rule:evenodd;fill:url(#SVGID_00000173147141640485798910000000592539810819840433_);}
	.st56{fill-rule:evenodd;clip-rule:evenodd;fill:url(#SVGID_00000102511952277485099230000000086480897213305510_);}
	.st57{fill-rule:evenodd;clip-rule:evenodd;fill:url(#SVGID_00000050661521578711826210000014295955127419759794_);}
	.st58{fill:#FFCE00;}
	.st59{fill:#303030;}
	.st60{fill-rule:evenodd;clip-rule:evenodd;fill:url(#SVGID_00000052813174166702304010000006105324311990678146_);}
	.st61{fill-rule:evenodd;clip-rule:evenodd;fill:url(#SVGID_00000039822393965116854790000004336719144663765127_);}
	.st62{fill-rule:evenodd;clip-rule:evenodd;fill:url(#SVGID_00000013915380762385096720000017087302541697893563_);}
	.st63{font-family:'Prompt-Regular';}
	.st64{font-size:22.5305px;}
	.st65{fill:url(#SVGID_00000048468494133839731130000017701311884302903946_);}
	.st66{fill:url(#SVGID_00000026164044340170582840000001186295921058408081_);}
	.st67{fill:url(#SVGID_00000128483778186860846960000015720222365559079076_);}
	.st68{fill:url(#SVGID_00000003093616421240167580000000258710495807073723_);}
	.st69{fill-rule:evenodd;clip-rule:evenodd;fill:#FF0000;}
	.st70{fill-rule:evenodd;clip-rule:evenodd;fill:none;stroke:#FF0000;stroke-width:0.75;stroke-miterlimit:10;}
	.st71{fill:none;stroke:#FF0000;stroke-miterlimit:10;}
	.st72{fill:none;stroke:#FFCE00;stroke-width:0.75;stroke-miterlimit:10;}
	.st73{fill:none;stroke:#FFCE00;stroke-miterlimit:10;}
	.st74{fill:url(#SVGID_00000053542045229418812120000010714157058112167348_);}
	.st75{fill:url(#SVGID_00000165956936022644601340000014021733422605499040_);}
	.st76{fill:url(#SVGID_00000151520426260852385820000014847387413955774347_);}
	.st77{fill:url(#SVGID_00000078729539258509497890000008255726160456160949_);}
	.st78{fill:url(#SVGID_00000125589717821836720720000017640830202951847863_);}
	.st79{fill:url(#SVGID_00000069380594405571537230000016316079008561133976_);}
	.st80{fill:url(#SVGID_00000145030346937447001410000005289148704783327892_);}
	.st81{fill:url(#SVGID_00000146459098430849760620000009564539843981818781_);}
	.st82{fill:url(#SVGID_00000114781487619285878530000003703962774472482227_);}
	.st83{fill:url(#SVGID_00000063598555763849593340000003401381575862408576_);}
	.st84{fill:url(#SVGID_00000171689925313399436880000001615488964866441897_);}
	.st85{fill:url(#SVGID_00000162322397517513766540000013029193337937931162_);}
	.st86{fill:url(#SVGID_00000012468081773464420810000009550918072973783476_);}
	.st87{fill:url(#SVGID_00000078018796740816570300000003730192565161514687_);}
	.st88{fill:url(#SVGID_00000181781989545482565350000007534230488080731300_);}
	.st89{fill:url(#SVGID_00000062172240703285620100000012918019787679824770_);}
	.st90{fill:url(#SVGID_00000135686130038176380260000002965045371968076933_);}
	.st91{fill:url(#SVGID_00000151534368464964109310000008738035686486793096_);}
	.st92{fill:url(#SVGID_00000179607973432890865710000004515583284837555382_);}
	.st93{fill:url(#SVGID_00000104686525745789738410000012613518076994417075_);}
	.st94{fill:url(#SVGID_00000176044490596151414560000005395165477701254529_);}
	.st95{fill:url(#SVGID_00000108283247137078665340000012582266936970874008_);}
	.st96{fill:url(#SVGID_00000047752493535410380710000006964988159734554780_);}
	.st97{fill-rule:evenodd;clip-rule:evenodd;fill:none;stroke:#FFFFFF;stroke-width:0.5;stroke-miterlimit:10;}
</style>
<linearGradient id="SVGID_1_" gradientUnits="userSpaceOnUse" x1="7" y1="44" x2="87" y2="44">
	<stop  offset="0" style="stop-color:#13375C"/>
	<stop  offset="1" style="stop-color:#151E37"/>
</linearGradient>
<path style="fill-rule:evenodd;clip-rule:evenodd;fill:url(#SVGID_1_);" d="M18,76.5h58c6.08,0,11-4.92,11-11v-43
	c0-6.08-4.92-11-11-11H18c-6.08,0-11,4.92-11,11v43C7,71.58,11.92,76.5,18,76.5z"/>
<g>
	<g>
		<path class="st25" d="M30.55,56.42c-0.42,0.15-1.25,0.41-2.24,0.41c-1.1,0-2.01-0.29-2.72-0.98c-0.63-0.62-1.02-1.61-1.02-2.76
			c0.01-2.21,1.5-3.83,3.94-3.83c0.84,0,1.5,0.19,1.81,0.34l-0.23,0.78c-0.39-0.18-0.88-0.32-1.61-0.32c-1.77,0-2.93,1.12-2.93,2.98
			c0,1.88,1.11,2.99,2.81,2.99c0.62,0,1.04-0.09,1.25-0.2v-2.21h-1.48v-0.77h2.4V56.42z"/>
		<path class="st25" d="M32.54,54.26c0.02,1.31,0.84,1.85,1.79,1.85c0.68,0,1.09-0.12,1.45-0.28l0.16,0.69
			c-0.33,0.15-0.91,0.33-1.74,0.33c-1.61,0-2.57-1.08-2.57-2.69c0-1.61,0.93-2.87,2.45-2.87c1.71,0,2.16,1.53,2.16,2.51
			c0,0.2-0.02,0.35-0.03,0.45H32.54z M35.33,53.57c0.01-0.62-0.25-1.57-1.32-1.57c-0.96,0-1.38,0.9-1.46,1.57H35.33z"/>
		<path class="st25" d="M37.42,52.86c0-0.55-0.01-1-0.04-1.44h0.84l0.05,0.88h0.02c0.26-0.51,0.86-1,1.73-1
			c0.72,0,1.85,0.44,1.85,2.27v3.18h-0.95v-3.07c0-0.86-0.31-1.57-1.21-1.57c-0.63,0-1.11,0.45-1.28,0.99
			c-0.04,0.12-0.06,0.29-0.06,0.45v3.2h-0.95V52.86z"/>
		<path class="st25" d="M43.95,54.26c0.02,1.31,0.84,1.85,1.79,1.85c0.68,0,1.09-0.12,1.45-0.28l0.16,0.69
			c-0.33,0.15-0.91,0.33-1.74,0.33c-1.61,0-2.57-1.08-2.57-2.69c0-1.61,0.93-2.87,2.45-2.87c1.71,0,2.16,1.53,2.16,2.51
			c0,0.2-0.02,0.35-0.03,0.45H43.95z M46.74,53.57c0.01-0.62-0.25-1.57-1.32-1.57c-0.96,0-1.38,0.9-1.46,1.57H46.74z"/>
		<path class="st25" d="M48.83,53.08c0-0.63-0.01-1.17-0.04-1.66h0.83l0.03,1.04h0.04c0.24-0.71,0.81-1.17,1.45-1.17
			c0.11,0,0.18,0.01,0.27,0.03v0.91c-0.1-0.02-0.19-0.03-0.32-0.03c-0.67,0-1.15,0.52-1.27,1.24c-0.02,0.13-0.04,0.29-0.04,0.45
			v2.84h-0.94V53.08z"/>
		<path class="st25" d="M55.2,56.75l-0.08-0.67H55.1c-0.29,0.42-0.85,0.79-1.6,0.79c-1.06,0-1.6-0.76-1.6-1.53
			c0-1.29,1.12-1.99,3.14-1.98v-0.11c0-0.44-0.12-1.23-1.19-1.23c-0.49,0-0.99,0.15-1.36,0.4l-0.22-0.64
			c0.43-0.29,1.06-0.47,1.72-0.47c1.6,0,1.99,1.11,1.99,2.18v1.99c0,0.46,0.02,0.91,0.09,1.28H55.2z M55.06,54.03
			c-1.04-0.02-2.21,0.16-2.21,1.2c0,0.63,0.41,0.92,0.9,0.92c0.68,0,1.11-0.44,1.26-0.89c0.03-0.1,0.05-0.21,0.05-0.31V54.03z"/>
		<path class="st25" d="M58.62,49.89v1.53h1.36v0.74h-1.36v2.87c0,0.66,0.18,1.03,0.71,1.03c0.25,0,0.43-0.03,0.55-0.07l0.04,0.73
			c-0.18,0.08-0.48,0.13-0.84,0.13c-0.44,0-0.8-0.14-1.03-0.41c-0.27-0.29-0.37-0.76-0.37-1.39v-2.9h-0.81v-0.74h0.81v-1.28
			L58.62,49.89z"/>
		<path class="st25" d="M65.72,54.04c0,1.97-1.34,2.83-2.6,2.83c-1.42,0-2.51-1.06-2.51-2.74c0-1.78,1.14-2.83,2.59-2.83
			C64.7,51.3,65.72,52.41,65.72,54.04z M61.57,54.1c0,1.17,0.66,2.04,1.59,2.04c0.91,0,1.59-0.87,1.59-2.07
			c0-0.9-0.44-2.04-1.57-2.04C62.05,52.03,61.57,53.08,61.57,54.1z"/>
		<path class="st25" d="M66.91,53.08c0-0.63-0.01-1.17-0.04-1.66h0.83l0.03,1.04h0.04c0.24-0.71,0.81-1.17,1.45-1.17
			c0.11,0,0.18,0.01,0.27,0.03v0.91c-0.1-0.02-0.19-0.03-0.32-0.03c-0.67,0-1.15,0.52-1.27,1.24c-0.02,0.13-0.04,0.29-0.04,0.45
			v2.84h-0.94V53.08z"/>
		<path class="st25" d="M26.23,67.62l-0.76,2.33H24.5l2.47-7.42h1.13l2.48,7.42h-1l-0.78-2.33H26.23z M28.62,66.87l-0.71-2.13
			c-0.16-0.48-0.27-0.92-0.38-1.35h-0.02c-0.11,0.44-0.23,0.89-0.37,1.34l-0.71,2.15H28.62z"/>
		<path class="st25" d="M35.23,69.75c-0.25,0.13-0.8,0.31-1.5,0.31c-1.58,0-2.6-1.09-2.6-2.72c0-1.64,1.1-2.83,2.81-2.83
			c0.56,0,1.06,0.14,1.32,0.28l-0.22,0.75c-0.23-0.13-0.58-0.25-1.1-0.25c-1.2,0-1.85,0.9-1.85,2.01c0,1.23,0.78,1.99,1.81,1.99
			c0.54,0,0.9-0.14,1.17-0.26L35.23,69.75z"/>
		<path class="st25" d="M37.63,63.09v1.53h1.36v0.74h-1.36v2.87c0,0.66,0.18,1.04,0.71,1.04c0.25,0,0.43-0.03,0.55-0.07l0.04,0.72
			c-0.18,0.08-0.48,0.13-0.84,0.13c-0.44,0-0.8-0.14-1.03-0.41c-0.27-0.29-0.37-0.76-0.37-1.39v-2.9h-0.81v-0.74h0.81v-1.28
			L37.63,63.09z"/>
		<path class="st25" d="M41.12,63.13c0.01,0.33-0.23,0.6-0.61,0.6c-0.33,0-0.57-0.27-0.57-0.6c0-0.34,0.25-0.6,0.59-0.6
			C40.89,62.52,41.12,62.79,41.12,63.13z M40.06,69.95v-5.33h0.95v5.33H40.06z"/>
		<path class="st25" d="M42.95,64.62l1.03,2.99c0.17,0.48,0.31,0.92,0.42,1.36h0.03c0.12-0.44,0.27-0.88,0.44-1.36l1.01-2.99h0.99
			l-2.05,5.33h-0.91l-1.99-5.33H42.95z"/>
		<path class="st25" d="M50.64,69.95l-0.08-0.67h-0.03c-0.29,0.42-0.85,0.79-1.6,0.79c-1.06,0-1.6-0.76-1.6-1.53
			c0-1.29,1.12-1.99,3.14-1.98v-0.11c0-0.44-0.12-1.23-1.19-1.23c-0.49,0-0.99,0.15-1.36,0.39l-0.22-0.64
			c0.43-0.29,1.06-0.47,1.72-0.47c1.6,0,1.99,1.11,1.99,2.18v1.99c0,0.46,0.02,0.91,0.09,1.28H50.64z M50.49,67.23
			c-1.04-0.02-2.21,0.17-2.21,1.2c0,0.63,0.41,0.93,0.9,0.93c0.68,0,1.11-0.44,1.26-0.89c0.03-0.1,0.05-0.21,0.05-0.31V67.23z"/>
		<path class="st25" d="M54.05,63.09v1.53h1.36v0.74h-1.36v2.87c0,0.66,0.18,1.04,0.71,1.04c0.25,0,0.43-0.03,0.55-0.07l0.04,0.72
			c-0.18,0.08-0.48,0.13-0.84,0.13c-0.44,0-0.8-0.14-1.03-0.41c-0.27-0.29-0.37-0.76-0.37-1.39v-2.9h-0.81v-0.74h0.81v-1.28
			L54.05,63.09z"/>
		<path class="st25" d="M56.94,67.46c0.02,1.31,0.84,1.85,1.79,1.85c0.68,0,1.09-0.12,1.45-0.28l0.16,0.69
			c-0.33,0.15-0.91,0.33-1.74,0.33c-1.61,0-2.57-1.08-2.57-2.68c0-1.61,0.93-2.87,2.45-2.87c1.71,0,2.16,1.53,2.16,2.51
			c0,0.2-0.02,0.35-0.03,0.45H56.94z M59.73,66.77c0.01-0.62-0.25-1.57-1.32-1.57c-0.96,0-1.38,0.9-1.46,1.57H59.73z"/>
		<path class="st25" d="M66.34,62.14v6.44c0,0.47,0.01,1.01,0.04,1.38h-0.85l-0.04-0.92h-0.02c-0.29,0.59-0.93,1.04-1.78,1.04
			c-1.26,0-2.24-1.09-2.24-2.71c-0.01-1.77,1.07-2.86,2.34-2.86c0.8,0,1.34,0.38,1.58,0.81h0.02v-3.18H66.34z M65.39,66.79
			c0-0.12-0.01-0.29-0.04-0.41c-0.14-0.62-0.66-1.12-1.37-1.12c-0.98,0-1.57,0.88-1.57,2.06c0,1.08,0.52,1.97,1.54,1.97
			c0.64,0,1.22-0.43,1.39-1.16c0.03-0.13,0.04-0.26,0.04-0.42V66.79z"/>
		<path class="st25" d="M67.74,69.39c0-0.39,0.27-0.68,0.64-0.68c0.39,0,0.64,0.29,0.64,0.68c0,0.39-0.25,0.68-0.64,0.68
			C67.99,70.07,67.74,69.77,67.74,69.39z M68.01,67.81l-0.15-5.28h1.04l-0.15,5.28H68.01z"/>
	</g>
</g>
<g>
	<path class="st58" d="M25.73,24.85H2.27c-1.75,0-2.84-1.89-1.96-3.4l5.46-9.46l6.27-10.86c0.87-1.51,3.05-1.51,3.93,0l6.55,11.35
		l5.18,8.96C28.57,22.96,27.47,24.85,25.73,24.85z"/>
	<path class="st59" d="M26.82,21.95L15.09,1.64C14.76,1.07,14.22,1.01,14,1.01c-0.22,0-0.76,0.06-1.09,0.63L1.18,21.95
		c-0.33,0.57-0.11,1.07,0,1.26c0.11,0.19,0.44,0.63,1.09,0.63h23.46c0.66,0,0.98-0.44,1.09-0.63
		C26.93,23.02,27.15,22.52,26.82,21.95z M26.31,22.92c-0.09,0.15-0.26,0.34-0.58,0.34H2.27c-0.32,0-0.5-0.18-0.58-0.34
		c-0.09-0.15-0.16-0.4,0-0.68L13.42,1.93c0.16-0.28,0.41-0.34,0.58-0.34c0.18,0,0.42,0.06,0.58,0.34l11.73,20.32
		C26.48,22.52,26.4,22.77,26.31,22.92z"/>
	<g>
		<text transform="matrix(0.9821 0 0 1 11.4551 21.7724)" class="st59 st63 st64">!</text>
	</g>
</g>
<g>
	<path class="st25" d="M36.13,41.38h21.45c0.15,0,0.28-0.12,0.28-0.28v-3.05c0-0.15-0.12-0.28-0.28-0.28h-2.32v-0.71l0,0l0,0V25.17
		l0,0l0,0v-1.04c0-0.15-0.12-0.28-0.28-0.28H38.72c-0.15,0-0.28,0.12-0.28,0.28v1.04l0,0l0,0v11.9l0,0l0,0v0.71h-2.32
		c-0.15,0-0.28,0.12-0.28,0.28v3.05C35.86,41.26,35.98,41.38,36.13,41.38z M39,25.44h15.71V36.8H39V25.44z M54.71,24.4v0.49H39V24.4
		H54.71z M39,37.35h15.71v0.43H39V37.35z M36.41,38.33h20.9v2.5h-20.9V38.33z"/>
	<path class="st25" d="M40.91,23.13h3.35c0.15,0,0.28-0.12,0.28-0.28v-1.12v-1.12V19.5v-1.12c0-0.15-0.12-0.28-0.28-0.28h-3.35
		c-0.15,0-0.28,0.12-0.28,0.28v1.12v1.12v1.12v1.12C40.63,23.01,40.76,23.13,40.91,23.13z M41.18,20.9h2.8v0.57h-2.8V20.9z
		 M43.99,20.35h-2.8v-0.57h2.8V20.35z M43.99,22.58h-2.8v-0.57h2.8V22.58z M41.18,18.66h2.8v0.57h-2.8V18.66z"/>
	<path class="st25" d="M49.86,23.13h3.35c0.15,0,0.28-0.12,0.28-0.28v-1.12v-1.12V19.5v-1.12c0-0.15-0.12-0.28-0.28-0.28h-3.35
		c-0.15,0-0.28,0.12-0.28,0.28v1.12v1.12v1.12v1.12C49.58,23.01,49.7,23.13,49.86,23.13z M50.13,20.9h2.8v0.57h-2.8V20.9z
		 M52.94,20.35h-2.8v-0.57h2.8C52.94,19.78,52.94,20.35,52.94,20.35z M52.94,22.58h-2.8v-0.57h2.8
		C52.94,22.01,52.94,22.58,52.94,22.58z M50.13,18.66h2.8v0.57h-2.8V18.66z"/>
	<path class="st25" d="M48.87,30.93c-0.07-0.08-0.19-0.11-0.29-0.07l-3.06,1.07l1.85-4.79c0.06-0.14-0.02-0.3-0.16-0.36
		c-0.14-0.06-0.3,0.02-0.36,0.16l-2.07,5.35c-0.04,0.1-0.02,0.21,0.06,0.29s0.19,0.1,0.29,0.07l3.02-1.05l-1.29,2.86l-0.36-0.85
		c-0.06-0.14-0.22-0.21-0.36-0.15c-0.1,0.04-0.17,0.15-0.17,0.25c0,0.04,0.01,0.07,0.02,0.11l0.6,1.44l0,0l0,0l0,0l0,0l0,0
		c0.02,0.06,0.07,0.1,0.12,0.13c0.02,0.01,0.03,0.02,0.05,0.02c0.02,0.01,0.05,0.01,0.08,0.01c0.02,0,0.04,0,0.06-0.01
		c0.01,0,0.02-0.01,0.02-0.01l1.41-0.46c0.14-0.05,0.22-0.2,0.18-0.35s-0.2-0.22-0.35-0.18l-0.82,0.27l1.55-3.46
		C48.97,31.13,48.95,31.01,48.87,30.93z"/>
</g>
</svg>
