<?xml version="1.0" encoding="utf-8"?>
<!-- Generator: Adobe Illustrator 26.5.0, SVG Export Plug-In . SVG Version: 6.00 Build 0)  -->
<svg version="1.1" id="Layer_1" xmlns="http://www.w3.org/2000/svg" xmlns:xlink="http://www.w3.org/1999/xlink" x="0px" y="0px"
	 viewBox="0 0 87 76.5" style="enable-background:new 0 0 87 76.5;" xml:space="preserve">
<style type="text/css">
	.st0{opacity:0.5;}
	.st1{fill-rule:evenodd;clip-rule:evenodd;fill:none;stroke:#FFFFFF;stroke-width:0.75;stroke-miterlimit:10;}
	.st2{fill-rule:evenodd;clip-rule:evenodd;fill:none;}
	.st3{fill:none;stroke:#FFFFFF;stroke-width:0.75;stroke-miterlimit:10;}
	.st4{opacity:0.45;fill-rule:evenodd;clip-rule:evenodd;fill:#FFFFFF;}
	.st5{fill-rule:evenodd;clip-rule:evenodd;fill:#FFCE00;}
	.st6{fill:none;stroke:#FFFFFF;stroke-width:0.5;stroke-miterlimit:10;}
	.st7{fill:none;stroke:#FFFFFF;stroke-miterlimit:10;}
	.st8{opacity:0.5;fill:none;stroke:#FFFFFF;stroke-linecap:round;stroke-linejoin:round;stroke-miterlimit:10;}
	.st9{fill:none;}
	.st10{fill-rule:evenodd;clip-rule:evenodd;fill:#FFFFFF;}
	.st11{fill:#1000FF;}
	.st12{fill-rule:evenodd;clip-rule:evenodd;fill:#1000FF;}
	.st13{fill:url(#SVGID_1_);}
	.st14{fill:url(#SVGID_00000165201232240716184480000015676485937017719179_);}
	.st15{fill:#FF0000;}
	.st16{fill:url(#SVGID_00000144320512154498672850000010483451150105761710_);}
	.st17{fill:url(#SVGID_00000042004742593069999250000014517946211228347551_);}
	.st18{opacity:0.7;fill-rule:evenodd;clip-rule:evenodd;fill:url(#SVGID_00000170249559607717617600000006998687944697760162_);}
	.st19{fill:#FF8888;}
	.st20{opacity:0.7;fill:#2E2923;}
	.st21{opacity:0.7;}
	.st22{opacity:0.7;fill-rule:evenodd;clip-rule:evenodd;fill:url(#SVGID_00000018226798427226044790000000830930881945836735_);}
	.st23{fill:#FFEFAB;}
	.st24{opacity:0.7;fill:#303030;}
	.st25{fill:#FFFFFF;}
	.st26{opacity:0.7;fill-rule:evenodd;clip-rule:evenodd;fill:url(#SVGID_00000025441890171079649910000009219114979555076520_);}
	.st27{opacity:0.5;fill-rule:evenodd;clip-rule:evenodd;fill:#FFFFFF;}
	.st28{opacity:0.7;fill-rule:evenodd;clip-rule:evenodd;fill:url(#SVGID_00000167354067762418786610000007014218984618053309_);}
	.st29{fill:url(#SVGID_00000148620547789013235170000007951138434358506681_);}
	.st30{fill:url(#SVGID_00000156568680155298250820000016636979614866276005_);}
	.st31{fill:url(#SVGID_00000155829703903943381400000005259369731998704310_);}
	.st32{fill:url(#SVGID_00000137825684469202291110000001376875986654798761_);}
	.st33{fill:url(#SVGID_00000150814478780388860240000010943795027489955738_);}
	.st34{fill:url(#SVGID_00000033331928544255795380000001354792664916308652_);}
	.st35{fill:url(#SVGID_00000119800580690696353370000008335365371688242879_);}
	.st36{fill:url(#SVGID_00000120548832478885122130000010862733866805008793_);}
	.st37{fill:url(#SVGID_00000041990919485223551860000016964292577380209040_);}
	.st38{fill:url(#SVGID_00000067932867900008685060000013683621549720281493_);}
	.st39{opacity:0.3;}
	.st40{fill:#F7D418;}
	.st41{fill:#2E2923;}
	.st42{fill:#29333F;}
	.st43{fill:#B9BBBC;}
	.st44{fill:#FFC200;}
	.st45{fill:url(#SVGID_00000059280765440494639030000005836550755412484791_);}
	.st46{fill:url(#SVGID_00000118388463653023307580000014653566985030120341_);}
	.st47{fill:url(#SVGID_00000039831098726016791910000000955291514120514192_);}
	.st48{fill:url(#SVGID_00000076575313029659027450000011737389851846503348_);}
	.st49{fill:#FFFFFE;}
	.st50{opacity:0.7;fill-rule:evenodd;clip-rule:evenodd;fill:url(#SVGID_00000083801852419651053300000017632709414475280795_);}
	.st51{opacity:0.7;fill-rule:evenodd;clip-rule:evenodd;fill:url(#SVGID_00000065064192580523368890000002099174429506453161_);}
	.st52{opacity:0.7;fill-rule:evenodd;clip-rule:evenodd;fill:url(#SVGID_00000008120877312748205360000013783445493090164101_);}
	.st53{opacity:0.7;fill-rule:evenodd;clip-rule:evenodd;fill:url(#SVGID_00000096740023626749522340000015162550021933895326_);}
	.st54{opacity:0.7;fill-rule:evenodd;clip-rule:evenodd;fill:url(#SVGID_00000001624486218763010530000001271809519462998702_);}
	.st55{opacity:0.7;fill-rule:evenodd;clip-rule:evenodd;fill:url(#SVGID_00000119094912441918413760000000744001238749903529_);}
	.st56{fill:#303030;}
	.st57{font-family:'Prompt-Regular';}
	.st58{font-size:22.5305px;}
	.st59{fill-rule:evenodd;clip-rule:evenodd;fill:url(#SVGID_00000182513608559515492090000011771603953572356538_);}
	.st60{fill-rule:evenodd;clip-rule:evenodd;fill:url(#SVGID_00000021086959792636363460000011676711931327396008_);}
	.st61{fill:#FFCE00;}
	.st62{fill-rule:evenodd;clip-rule:evenodd;fill:url(#SVGID_00000047041131367754715270000007110453444833632134_);}
	.st63{fill-rule:evenodd;clip-rule:evenodd;fill:url(#SVGID_00000078007334295280433160000008893859939504730527_);}
	.st64{fill-rule:evenodd;clip-rule:evenodd;fill:url(#SVGID_00000016777351405681675930000000127232461640678570_);}
	.st65{fill:url(#SVGID_00000132783178988661912630000006957421770379371674_);}
	.st66{fill:url(#SVGID_00000140013684761033156550000000658128609580719536_);}
	.st67{fill:url(#SVGID_00000132798851921235907880000003256867489253207688_);}
	.st68{fill:url(#SVGID_00000072242763194754830070000012528714941866418561_);}
	.st69{fill-rule:evenodd;clip-rule:evenodd;fill:#FF0000;}
	.st70{fill-rule:evenodd;clip-rule:evenodd;fill:none;stroke:#FF0000;stroke-width:0.75;stroke-miterlimit:10;}
	.st71{fill:none;stroke:#FF0000;stroke-miterlimit:10;}
	.st72{fill:none;stroke:#FFCE00;stroke-width:0.75;stroke-miterlimit:10;}
	.st73{fill:none;stroke:#FFCE00;stroke-miterlimit:10;}
	.st74{fill:url(#SVGID_00000117662645522972973360000017726458403748555944_);}
	.st75{fill:url(#SVGID_00000129207136291129333490000003907607868289519807_);}
	.st76{fill:url(#SVGID_00000106863027897259223390000014467618545604488102_);}
	.st77{fill:url(#SVGID_00000176021340043924590580000011222154290415604891_);}
	.st78{fill:url(#SVGID_00000115483740590640645680000004728239209520002480_);}
	.st79{fill:url(#SVGID_00000083062878033807932530000013749225095452697527_);}
	.st80{fill:url(#SVGID_00000012454392104919167690000008215715904495580061_);}
	.st81{fill:url(#SVGID_00000172416468462150409880000007891218402095116972_);}
	.st82{fill:url(#SVGID_00000124865916835362825520000003346743384842655367_);}
	.st83{fill:url(#SVGID_00000019670200523865292660000016615142706247304587_);}
	.st84{fill:url(#SVGID_00000058588156456962656010000014135506440082606724_);}
	.st85{fill:url(#SVGID_00000114770884765836943600000017977354820611374002_);}
	.st86{fill:url(#SVGID_00000155855983382900980100000012087855692657635725_);}
	.st87{fill:url(#SVGID_00000036961080298445837480000014935780057892286363_);}
	.st88{fill:url(#SVGID_00000129167089733129165450000004369662414569443736_);}
	.st89{fill:url(#SVGID_00000072240390147072390200000005906973419644877213_);}
	.st90{fill:url(#SVGID_00000096044494108455199380000007684169550581379512_);}
	.st91{fill:url(#SVGID_00000061443104958293784680000012394224301442590874_);}
	.st92{fill:url(#SVGID_00000154421756304069587400000007054289490885168525_);}
	.st93{fill:url(#SVGID_00000119078490063954568880000004367079905786292394_);}
	.st94{fill:url(#SVGID_00000024690309163159939400000013878342596747895459_);}
	.st95{fill:url(#SVGID_00000076600890135172336920000009258014106335181445_);}
	.st96{fill:url(#SVGID_00000083774938315597577000000004066338109613740477_);}
	.st97{fill-rule:evenodd;clip-rule:evenodd;fill:none;stroke:#FFFFFF;stroke-width:0.5;stroke-miterlimit:10;}
</style>
<linearGradient id="SVGID_1_" gradientUnits="userSpaceOnUse" x1="7" y1="44" x2="87" y2="44">
	<stop  offset="0" style="stop-color:#13375C"/>
	<stop  offset="1" style="stop-color:#151E37"/>
</linearGradient>
<path style="opacity:0.7;fill-rule:evenodd;clip-rule:evenodd;fill:url(#SVGID_1_);" d="M18,76.5h58c6.08,0,11-4.92,11-11v-43
	c0-6.08-4.92-11-11-11H18c-6.08,0-11,4.92-11,11v43C7,71.58,11.92,76.5,18,76.5z"/>
<g class="st0">
	<g>
		<path class="st25" d="M30.55,56.42c-0.42,0.15-1.25,0.41-2.24,0.41c-1.1,0-2.01-0.29-2.72-0.98c-0.63-0.62-1.02-1.61-1.02-2.76
			c0.01-2.21,1.5-3.83,3.94-3.83c0.84,0,1.5,0.19,1.81,0.34l-0.23,0.78c-0.39-0.18-0.88-0.32-1.61-0.32c-1.77,0-2.93,1.12-2.93,2.98
			c0,1.88,1.11,2.99,2.81,2.99c0.62,0,1.04-0.09,1.25-0.2v-2.21h-1.48v-0.77h2.4V56.42z"/>
		<path class="st25" d="M32.54,54.26c0.02,1.31,0.84,1.85,1.79,1.85c0.68,0,1.09-0.12,1.45-0.28l0.16,0.69
			c-0.33,0.15-0.91,0.33-1.74,0.33c-1.61,0-2.57-1.08-2.57-2.68s0.93-2.87,2.45-2.87c1.71,0,2.16,1.53,2.16,2.51
			c0,0.2-0.02,0.35-0.03,0.45H32.54z M35.33,53.57c0.01-0.62-0.25-1.57-1.32-1.57c-0.96,0-1.38,0.9-1.46,1.57H35.33z"/>
		<path class="st25" d="M37.42,52.86c0-0.55-0.01-1-0.04-1.44h0.84l0.05,0.88h0.02c0.26-0.51,0.86-1,1.73-1
			c0.72,0,1.85,0.44,1.85,2.27v3.18h-0.95v-3.07c0-0.86-0.31-1.57-1.21-1.57c-0.63,0-1.11,0.45-1.28,0.99
			c-0.04,0.12-0.06,0.29-0.06,0.45v3.2h-0.95V52.86z"/>
		<path class="st25" d="M43.95,54.26c0.02,1.31,0.84,1.85,1.79,1.85c0.68,0,1.09-0.12,1.45-0.28l0.16,0.69
			c-0.33,0.15-0.91,0.33-1.74,0.33c-1.61,0-2.57-1.08-2.57-2.68s0.93-2.87,2.45-2.87c1.71,0,2.16,1.53,2.16,2.51
			c0,0.2-0.02,0.35-0.03,0.45H43.95z M46.73,53.57c0.01-0.62-0.25-1.57-1.32-1.57c-0.96,0-1.38,0.9-1.46,1.57H46.73z"/>
		<path class="st25" d="M48.83,53.08c0-0.63-0.01-1.17-0.04-1.66h0.83l0.03,1.05h0.04c0.24-0.72,0.81-1.17,1.45-1.17
			c0.11,0,0.18,0.01,0.27,0.03v0.91c-0.1-0.02-0.19-0.03-0.32-0.03c-0.67,0-1.15,0.52-1.27,1.24c-0.02,0.13-0.04,0.29-0.04,0.45
			v2.84h-0.94V53.08z"/>
		<path class="st25" d="M55.2,56.75l-0.08-0.67H55.1c-0.29,0.42-0.85,0.79-1.6,0.79c-1.06,0-1.6-0.76-1.6-1.53
			c0-1.29,1.12-1.99,3.14-1.98v-0.11c0-0.44-0.12-1.23-1.19-1.23c-0.49,0-0.99,0.15-1.36,0.4l-0.22-0.64
			c0.43-0.29,1.06-0.47,1.72-0.47c1.6,0,1.99,1.11,1.99,2.18v1.99c0,0.46,0.02,0.91,0.09,1.28H55.2z M55.06,54.03
			c-1.04-0.02-2.21,0.17-2.21,1.2c0,0.63,0.41,0.92,0.9,0.92c0.68,0,1.11-0.44,1.26-0.89c0.03-0.1,0.05-0.21,0.05-0.31V54.03z"/>
		<path class="st25" d="M58.62,49.89v1.53h1.36v0.74h-1.36v2.87c0,0.66,0.18,1.03,0.71,1.03c0.25,0,0.43-0.03,0.55-0.07l0.04,0.73
			c-0.18,0.08-0.48,0.13-0.84,0.13c-0.44,0-0.8-0.14-1.03-0.41c-0.27-0.29-0.37-0.76-0.37-1.39v-2.9h-0.81v-0.74h0.81v-1.28
			L58.62,49.89z"/>
		<path class="st25" d="M65.72,54.04c0,1.97-1.34,2.83-2.6,2.83c-1.42,0-2.51-1.06-2.51-2.74c0-1.78,1.14-2.83,2.59-2.83
			C64.7,51.3,65.72,52.41,65.72,54.04z M61.57,54.1c0,1.17,0.66,2.05,1.59,2.05c0.91,0,1.59-0.87,1.59-2.07
			c0-0.9-0.44-2.05-1.57-2.05C62.05,52.03,61.57,53.08,61.57,54.1z"/>
		<path class="st25" d="M66.91,53.08c0-0.63-0.01-1.17-0.04-1.66h0.83l0.03,1.05h0.04c0.24-0.72,0.81-1.17,1.45-1.17
			c0.11,0,0.18,0.01,0.27,0.03v0.91c-0.1-0.02-0.19-0.03-0.32-0.03c-0.67,0-1.15,0.52-1.27,1.24c-0.02,0.13-0.04,0.29-0.04,0.45
			v2.84h-0.94V53.08z"/>
		<path class="st25" d="M26.23,67.62l-0.76,2.33H24.5l2.47-7.42h1.13l2.48,7.42h-1l-0.78-2.33H26.23z M28.62,66.87l-0.71-2.13
			c-0.16-0.48-0.27-0.92-0.38-1.35h-0.02c-0.11,0.44-0.23,0.89-0.37,1.34l-0.71,2.15H28.62z"/>
		<path class="st25" d="M35.23,69.75c-0.25,0.13-0.8,0.31-1.5,0.31c-1.58,0-2.6-1.09-2.6-2.72c0-1.64,1.1-2.83,2.81-2.83
			c0.56,0,1.06,0.14,1.32,0.27l-0.22,0.75c-0.23-0.13-0.58-0.25-1.1-0.25c-1.2,0-1.85,0.9-1.85,2.01c0,1.23,0.78,1.99,1.81,1.99
			c0.54,0,0.9-0.14,1.17-0.26L35.23,69.75z"/>
		<path class="st25" d="M37.63,63.09v1.53h1.36v0.74h-1.36v2.87c0,0.66,0.18,1.03,0.71,1.03c0.25,0,0.43-0.03,0.55-0.07l0.04,0.73
			c-0.18,0.08-0.48,0.13-0.84,0.13c-0.44,0-0.8-0.14-1.03-0.41c-0.27-0.29-0.37-0.76-0.37-1.39v-2.9h-0.81v-0.74h0.81v-1.28
			L37.63,63.09z"/>
		<path class="st25" d="M41.12,63.13c0.01,0.33-0.23,0.59-0.61,0.59c-0.33,0-0.57-0.26-0.57-0.59c0-0.34,0.25-0.6,0.59-0.6
			C40.89,62.52,41.12,62.79,41.12,63.13z M40.06,69.95v-5.33h0.95v5.33H40.06z"/>
		<path class="st25" d="M42.95,64.62l1.03,2.99c0.17,0.48,0.31,0.92,0.42,1.36h0.03c0.12-0.44,0.27-0.88,0.44-1.36l1.01-2.99h0.99
			l-2.05,5.33h-0.91l-1.99-5.33H42.95z"/>
		<path class="st25" d="M50.64,69.95l-0.08-0.67h-0.03c-0.29,0.42-0.85,0.79-1.6,0.79c-1.06,0-1.6-0.76-1.6-1.53
			c0-1.29,1.12-1.99,3.14-1.98v-0.11c0-0.44-0.12-1.23-1.19-1.23c-0.49,0-0.99,0.15-1.36,0.4l-0.22-0.64
			c0.43-0.29,1.06-0.47,1.72-0.47c1.6,0,1.99,1.11,1.99,2.18v1.99c0,0.46,0.02,0.91,0.09,1.28H50.64z M50.49,67.23
			c-1.04-0.02-2.21,0.17-2.21,1.2c0,0.63,0.41,0.92,0.9,0.92c0.68,0,1.11-0.44,1.26-0.89c0.03-0.1,0.05-0.21,0.05-0.31V67.23z"/>
		<path class="st25" d="M54.05,63.09v1.53h1.36v0.74h-1.36v2.87c0,0.66,0.18,1.03,0.71,1.03c0.25,0,0.43-0.03,0.55-0.07l0.04,0.73
			c-0.18,0.08-0.48,0.13-0.84,0.13c-0.44,0-0.8-0.14-1.03-0.41c-0.27-0.29-0.37-0.76-0.37-1.39v-2.9h-0.81v-0.74h0.81v-1.28
			L54.05,63.09z"/>
		<path class="st25" d="M56.94,67.46c0.02,1.31,0.84,1.85,1.79,1.85c0.68,0,1.09-0.12,1.45-0.28l0.16,0.69
			c-0.33,0.15-0.91,0.33-1.74,0.33c-1.61,0-2.57-1.08-2.57-2.68s0.93-2.87,2.45-2.87c1.71,0,2.16,1.53,2.16,2.51
			c0,0.2-0.02,0.35-0.03,0.45H56.94z M59.73,66.77c0.01-0.62-0.25-1.57-1.32-1.57c-0.96,0-1.38,0.9-1.46,1.57H59.73z"/>
		<path class="st25" d="M66.34,62.14v6.44c0,0.47,0.01,1.01,0.04,1.38h-0.85l-0.04-0.92h-0.02c-0.29,0.59-0.93,1.04-1.78,1.04
			c-1.26,0-2.24-1.09-2.24-2.71c-0.01-1.77,1.07-2.86,2.34-2.86c0.8,0,1.34,0.38,1.58,0.81h0.02v-3.18H66.34z M65.39,66.79
			c0-0.12-0.01-0.29-0.04-0.41c-0.14-0.62-0.66-1.12-1.37-1.12c-0.98,0-1.57,0.88-1.57,2.06c0,1.08,0.52,1.97,1.54,1.97
			c0.64,0,1.22-0.43,1.39-1.16c0.03-0.13,0.04-0.26,0.04-0.42V66.79z"/>
		<path class="st25" d="M67.73,69.39c0-0.4,0.27-0.68,0.64-0.68c0.39,0,0.64,0.29,0.64,0.68c0,0.39-0.25,0.68-0.64,0.68
			C67.99,70.07,67.73,69.77,67.73,69.39z M68.01,67.81l-0.15-5.28h1.04l-0.15,5.28H68.01z"/>
	</g>
</g>
<g>
	<path class="st23" d="M25.73,24.85H2.27c-1.75,0-2.84-1.89-1.96-3.4l5.46-9.46l6.27-10.86c0.87-1.51,3.05-1.51,3.93,0l6.55,11.35
		l5.18,8.96C28.57,22.96,27.47,24.85,25.73,24.85z"/>
	<path class="st24" d="M26.82,21.95L15.09,1.64C14.76,1.07,14.22,1.01,14,1.01c-0.22,0-0.76,0.06-1.09,0.63L1.18,21.95
		c-0.33,0.57-0.11,1.07,0,1.26c0.11,0.19,0.44,0.63,1.09,0.63h23.46c0.66,0,0.98-0.44,1.09-0.63
		C26.93,23.02,27.15,22.52,26.82,21.95z M26.31,22.92c-0.09,0.15-0.26,0.34-0.58,0.34H2.27c-0.32,0-0.5-0.18-0.58-0.34
		c-0.09-0.15-0.16-0.4,0-0.68L13.42,1.93c0.16-0.28,0.41-0.34,0.58-0.34c0.18,0,0.42,0.06,0.58,0.34l11.73,20.32
		C26.48,22.52,26.4,22.77,26.31,22.92z"/>
	<g class="st21">
		<text transform="matrix(0.9821 0 0 1 11.4549 21.7726)" class="st56 st57 st58">!</text>
	</g>
</g>
<g class="st0">
	<path class="st25" d="M36.13,41.38h21.45c0.15,0,0.28-0.12,0.28-0.28v-3.05c0-0.15-0.12-0.28-0.28-0.28h-2.32v-0.71l0,0l0,0V25.17
		l0,0l0,0v-1.04c0-0.15-0.12-0.28-0.28-0.28H38.72c-0.15,0-0.28,0.12-0.28,0.28v1.04l0,0l0,0v11.9l0,0l0,0v0.71h-2.32
		c-0.15,0-0.28,0.12-0.28,0.28v3.05C35.86,41.26,35.98,41.38,36.13,41.38z M39,25.44h15.71V36.8H39V25.44z M54.71,24.4v0.49H39V24.4
		H54.71z M39,37.35h15.71v0.43H39V37.35z M36.41,38.33h20.9v2.5h-20.9V38.33z"/>
	<path class="st25" d="M40.91,23.13h3.35c0.15,0,0.28-0.12,0.28-0.28v-1.12v-1.12V19.5v-1.12c0-0.15-0.12-0.28-0.28-0.28h-3.35
		c-0.15,0-0.28,0.12-0.28,0.28v1.12v1.12v1.12v1.12C40.63,23.01,40.76,23.13,40.91,23.13z M41.18,20.9h2.8v0.57h-2.8V20.9z
		 M43.99,20.35h-2.8v-0.57h2.8V20.35z M43.99,22.58h-2.8v-0.57h2.8V22.58z M41.18,18.66h2.8v0.57h-2.8V18.66z"/>
	<path class="st25" d="M49.86,23.13h3.35c0.15,0,0.28-0.12,0.28-0.28v-1.12v-1.12V19.5v-1.12c0-0.15-0.12-0.28-0.28-0.28h-3.35
		c-0.15,0-0.28,0.12-0.28,0.28v1.12v1.12v1.12v1.12C49.58,23.01,49.7,23.13,49.86,23.13z M50.13,20.9h2.8v0.57h-2.8V20.9z
		 M52.94,20.35h-2.8v-0.57h2.8L52.94,20.35z M52.94,22.58h-2.8v-0.57h2.8L52.94,22.58z M50.13,18.66h2.8v0.57h-2.8V18.66z"/>
	<path class="st25" d="M48.87,30.93c-0.07-0.08-0.19-0.11-0.29-0.07l-3.06,1.07l1.85-4.79c0.06-0.14-0.02-0.3-0.16-0.36
		c-0.14-0.06-0.3,0.02-0.36,0.16l-2.07,5.35c-0.04,0.1-0.02,0.21,0.06,0.29s0.19,0.1,0.29,0.07l3.02-1.05l-1.29,2.86l-0.36-0.85
		c-0.06-0.14-0.22-0.21-0.36-0.15c-0.1,0.04-0.17,0.15-0.17,0.25c0,0.04,0.01,0.07,0.02,0.11l0.6,1.44l0,0l0,0l0,0l0,0l0,0
		c0.02,0.06,0.07,0.1,0.12,0.13c0.02,0.01,0.03,0.02,0.05,0.02c0.02,0.01,0.05,0.01,0.08,0.01c0.02,0,0.04,0,0.06-0.01
		c0.01,0,0.02-0.01,0.02-0.01l1.41-0.46c0.14-0.05,0.22-0.2,0.18-0.35s-0.2-0.22-0.35-0.18l-0.82,0.27l1.55-3.46
		C48.97,31.13,48.95,31.01,48.87,30.93z"/>
</g>
</svg>
