<?xml version="1.0" encoding="utf-8"?>
<!-- Generator: Adobe Illustrator 27.0.0, SVG Export Plug-In . SVG Version: 6.00 Build 0)  -->
<svg version="1.1" id="Layer_1" xmlns="http://www.w3.org/2000/svg" xmlns:xlink="http://www.w3.org/1999/xlink" x="0px" y="0px"
	 viewBox="0 0 50 50" style="enable-background:new 0 0 50 50;" xml:space="preserve">
<style type="text/css">
	.st0{fill-rule:evenodd;clip-rule:evenodd;fill:#FFCE00;}
	.st1{opacity:0.5;}
	.st2{fill-rule:evenodd;clip-rule:evenodd;fill:#FFFFFF;}
	.st3{fill:#FFFFFF;}
	.st4{fill-rule:evenodd;clip-rule:evenodd;fill:#FF0000;}
	.st5{fill:#FF0000;}
	.st6{fill:#FFCE00;}
	.st7{fill-rule:evenodd;clip-rule:evenodd;fill:none;stroke:#FF0000;stroke-width:0.75;stroke-miterlimit:10;}
	.st8{fill:none;stroke:#FF0000;stroke-miterlimit:10;}
	.st9{fill:none;stroke:#FFCE00;stroke-width:0.75;stroke-miterlimit:10;}
	.st10{fill:none;stroke:#FFCE00;stroke-miterlimit:10;}
</style>
<g class="st1">
	<path class="st3" d="M21.64,10.29v29.42c0,2.48,2.01,4.49,4.49,4.49h1.27l0-38.39h-1.27C23.65,5.8,21.64,7.81,21.64,10.29z"/>
	<path class="st3" d="M9.16,25c0,0.18,0.05,0.37,0.16,0.53c0.12,0.17,1.18,1.71,2.79,1.71c1,0,1.89-0.57,2.65-1.71
		c0.21-0.32,0.63-0.85,1.05-0.85c0.46,0,1.01,0.58,1.2,0.86c0.3,0.44,0.89,0.55,1.33,0.26c0.44-0.3,0.56-0.89,0.26-1.33
		c-0.12-0.17-1.18-1.71-2.79-1.71c-1,0-1.89,0.57-2.65,1.71c-0.21,0.32-0.63,0.85-1.05,0.85c-0.46,0-1.01-0.58-1.2-0.86
		c-0.3-0.44-0.89-0.55-1.33-0.26C9.31,24.39,9.16,24.69,9.16,25z"/>
	<path class="st3" d="M9.16,15.41c0,0.18,0.05,0.37,0.16,0.53c0.12,0.17,1.18,1.71,2.79,1.71c1,0,1.89-0.57,2.65-1.71
		c0.21-0.32,0.63-0.85,1.05-0.85c0.46,0,1.01,0.58,1.2,0.86c0.3,0.44,0.89,0.55,1.33,0.26c0.44-0.3,0.56-0.89,0.26-1.33
		c-0.12-0.17-1.18-1.71-2.79-1.71c-1,0-1.89,0.57-2.65,1.71c-0.21,0.32-0.63,0.85-1.05,0.85c-0.46,0-1.01-0.58-1.2-0.86
		c-0.3-0.44-0.89-0.55-1.33-0.26C9.31,14.79,9.16,15.1,9.16,15.41z"/>
	<path class="st3" d="M9.16,34.6c0,0.18,0.05,0.37,0.16,0.53c0.12,0.17,1.18,1.71,2.79,1.71c1,0,1.89-0.57,2.65-1.71
		c0.21-0.32,0.63-0.85,1.05-0.85c0.46,0,1.01,0.58,1.2,0.86c0.3,0.44,0.89,0.55,1.33,0.26c0.44-0.3,0.56-0.89,0.26-1.33
		c-0.12-0.17-1.18-1.71-2.79-1.71c-1,0-1.89,0.57-2.65,1.71c-0.21,0.32-0.63,0.85-1.05,0.85c-0.46,0-1.01-0.58-1.2-0.86
		c-0.3-0.44-0.89-0.55-1.33-0.26C9.31,33.99,9.16,34.29,9.16,34.6z"/>
	<path class="st3" d="M28.36,5.8l6.72,0c3.18,0,5.76,2.58,5.76,5.76v26.87c0,3.18-2.58,5.76-5.76,5.76h-6.72V5.8z M37.96,12.52
		c0-1.59-1.29-2.88-2.88-2.88c-1.59,0-2.88,1.29-2.88,2.88s1.29,2.88,2.88,2.88S37.96,14.11,37.96,12.52z"/>
</g>
</svg>
