<?xml version="1.0" encoding="utf-8"?>
<!-- Generator: Adobe Illustrator 26.5.0, SVG Export Plug-In . SVG Version: 6.00 Build 0)  -->
<svg version="1.1" id="Layer_1" xmlns="http://www.w3.org/2000/svg" xmlns:xlink="http://www.w3.org/1999/xlink" x="0px" y="0px"
	 viewBox="0 0 20.63 20.53" style="enable-background:new 0 0 20.63 20.53;" xml:space="preserve">
<style type="text/css">
	.st0{opacity:0.5;}
	.st1{fill-rule:evenodd;clip-rule:evenodd;fill:none;stroke:#FFFFFF;stroke-width:0.75;stroke-miterlimit:10;}
	.st2{fill-rule:evenodd;clip-rule:evenodd;fill:none;}
	.st3{fill:none;stroke:#FFFFFF;stroke-width:0.75;stroke-miterlimit:10;}
	.st4{opacity:0.45;fill-rule:evenodd;clip-rule:evenodd;fill:#FFFFFF;}
	.st5{fill-rule:evenodd;clip-rule:evenodd;fill:#FFCE00;}
	.st6{fill:none;stroke:#FFFFFF;stroke-miterlimit:10;}
	.st7{opacity:0.5;fill:none;stroke:#FFFFFF;stroke-linecap:round;stroke-linejoin:round;stroke-miterlimit:10;}
	.st8{fill:none;}
	.st9{fill-rule:evenodd;clip-rule:evenodd;fill:#FFFFFF;}
	.st10{fill:#1000FF;}
	.st11{fill-rule:evenodd;clip-rule:evenodd;fill:#1000FF;}
	.st12{fill:url(#SVGID_1_);}
	.st13{fill:url(#SVGID_00000129166522882750190590000010333167618996557972_);}
	.st14{fill:#FF0000;}
	.st15{fill:url(#SVGID_00000008850273154534691220000013418465746526348931_);}
	.st16{fill:url(#SVGID_00000127004485110241040010000009334871371593551504_);}
	.st17{opacity:0.7;fill-rule:evenodd;clip-rule:evenodd;fill:url(#SVGID_00000093898427052940919450000007263325881345071244_);}
	.st18{fill:#FF8888;}
	.st19{opacity:0.7;fill:#2E2923;}
	.st20{opacity:0.7;}
	.st21{opacity:0.7;fill-rule:evenodd;clip-rule:evenodd;fill:url(#SVGID_00000064334557998129380360000004720389743207945887_);}
	.st22{fill:#FFEFAB;}
	.st23{opacity:0.7;fill:#303030;}
	.st24{fill:#FFFFFF;}
	.st25{opacity:0.7;fill-rule:evenodd;clip-rule:evenodd;fill:url(#SVGID_00000130635040430643355860000014766708999965562757_);}
	.st26{opacity:0.5;fill-rule:evenodd;clip-rule:evenodd;fill:#FFFFFF;}
	.st27{opacity:0.7;fill-rule:evenodd;clip-rule:evenodd;fill:url(#SVGID_00000065769932456294153500000008149753984668630191_);}
	.st28{fill:url(#SVGID_00000084498654261334737020000003654546547192032387_);}
	.st29{fill:url(#SVGID_00000016061597532009580520000012974722061439131285_);}
	.st30{fill:url(#SVGID_00000013166553790342814910000001512881639526697400_);}
	.st31{fill:url(#SVGID_00000119087633505100978780000008678274489778075526_);}
	.st32{fill:url(#SVGID_00000116223467144111398150000017939783343104346289_);}
	.st33{fill:url(#SVGID_00000118383367580430884750000002317741823914566304_);}
	.st34{fill:url(#SVGID_00000123403360978268474080000012741872296518899073_);}
	.st35{fill:url(#SVGID_00000135687729504675594250000005316709694132997509_);}
	.st36{fill:url(#SVGID_00000041268432095824821960000016133857106027302800_);}
	.st37{fill:url(#SVGID_00000048489965053080634570000005362884052622954116_);}
	.st38{opacity:0.3;}
	.st39{fill:#F7D418;}
	.st40{fill:#2E2923;}
	.st41{fill:#29333F;}
	.st42{fill:#B9BBBC;}
	.st43{fill:#FFC200;}
	.st44{fill:url(#SVGID_00000028308272320872458400000007284169467789456524_);}
	.st45{fill:url(#SVGID_00000090982712226169920990000013846806771588775350_);}
	.st46{fill:url(#SVGID_00000018917235187135256810000000727239548101309872_);}
	.st47{fill:url(#SVGID_00000098934649789833426030000008928976983247569536_);}
	.st48{fill:#FFFFFE;}
	.st49{opacity:0.7;fill-rule:evenodd;clip-rule:evenodd;fill:url(#SVGID_00000133515067654382549520000000708442175000335031_);}
	.st50{opacity:0.7;fill-rule:evenodd;clip-rule:evenodd;fill:url(#SVGID_00000124135965259621039060000004216601045016900497_);}
	.st51{opacity:0.7;fill-rule:evenodd;clip-rule:evenodd;fill:url(#SVGID_00000130609268710136304710000014713200797044021647_);}
	.st52{opacity:0.7;fill-rule:evenodd;clip-rule:evenodd;fill:url(#SVGID_00000119100551070844388160000009674001953194925754_);}
	.st53{opacity:0.7;fill-rule:evenodd;clip-rule:evenodd;fill:url(#SVGID_00000181781301105363206680000012465150878974114218_);}
	.st54{opacity:0.7;fill-rule:evenodd;clip-rule:evenodd;fill:url(#SVGID_00000178914987403614781570000015295497091640407442_);}
	.st55{fill-rule:evenodd;clip-rule:evenodd;fill:url(#SVGID_00000065055713558128695890000012299591983928084386_);}
	.st56{fill-rule:evenodd;clip-rule:evenodd;fill:url(#SVGID_00000147201384633844609030000018020591012071398310_);}
	.st57{fill:#FFCE00;}
	.st58{fill:#303030;}
	.st59{fill-rule:evenodd;clip-rule:evenodd;fill:url(#SVGID_00000035502850065544875230000004455682248579335861_);}
	.st60{fill-rule:evenodd;clip-rule:evenodd;fill:url(#SVGID_00000153675822678184059270000011379227503171900821_);}
	.st61{fill-rule:evenodd;clip-rule:evenodd;fill:url(#SVGID_00000017509522025719202670000007181093540168995717_);}
	.st62{fill:url(#SVGID_00000097496028122227074910000007501374299613245118_);}
	.st63{fill:url(#SVGID_00000039850593812202993380000008897301315924456112_);}
	.st64{fill:url(#SVGID_00000105415865119124301290000013738428089056396161_);}
	.st65{fill:url(#SVGID_00000131329487322323438940000016707553143734341280_);}
	.st66{fill-rule:evenodd;clip-rule:evenodd;fill:#FF0000;}
	.st67{fill-rule:evenodd;clip-rule:evenodd;fill:none;stroke:#FF0000;stroke-width:0.75;stroke-miterlimit:10;}
	.st68{fill:none;stroke:#FF0000;stroke-miterlimit:10;}
	.st69{fill:none;stroke:#FFCE00;stroke-width:0.75;stroke-miterlimit:10;}
	.st70{fill:none;stroke:#FFCE00;stroke-miterlimit:10;}
	.st71{fill:url(#SVGID_00000109713802498061108800000005103139410848261290_);}
	.st72{fill:url(#SVGID_00000052104199119407290730000008110326823973293975_);}
	.st73{fill:url(#SVGID_00000178174925110518443120000000087845228146914219_);}
	.st74{fill:url(#SVGID_00000166642372787687876400000014865776072071500703_);}
	.st75{fill:url(#SVGID_00000013154242229795654080000018280714589607229830_);}
	.st76{fill:url(#SVGID_00000093894712621806431380000014969744575702692770_);}
</style>
<g>
	<path class="st41" d="M20.25,16.08l-1.74-1.74c0.21-0.36,0.4-0.75,0.55-1.14C20.48,9.69,19.67,5.68,16.99,3
		c-0.16-0.16-0.32-0.31-0.49-0.46l0.52-0.74c0.05-0.07,0.06-0.17,0.02-0.25c-0.04-0.08-0.12-0.13-0.21-0.13h-1.9
		c-2.21-1.23-4.86-1.53-7.29-0.8c-0.09,0.03-0.15,0.1-0.17,0.2l-0.24,1.8C7.21,2.7,7.24,2.78,7.31,2.84
		C7.35,2.87,7.4,2.89,7.45,2.89c0.03,0,0.06-0.01,0.09-0.02C8.6,2.44,9.75,2.26,10.9,2.35L7.36,9.76L6.8,10.79
		c-0.04,0.07-0.04,0.16,0,0.23c0.04,0.07,0.12,0.12,0.2,0.12h1.78l-2.67,4.54c-0.35-0.24-0.68-0.52-0.98-0.83
		c-1.91-1.91-2.62-4.71-1.84-7.31C3.4,7.2,3.53,6.86,3.68,6.53l1.54,1.54c0.06,0.06,0.16,0.09,0.24,0.06
		c0.09-0.03,0.15-0.1,0.16-0.19l0.75-5.59c0.01-0.07-0.02-0.15-0.07-0.2s-0.13-0.08-0.2-0.07L0.52,2.83
		C0.43,2.84,0.36,2.91,0.33,2.99C0.3,3.08,0.32,3.17,0.39,3.23l1.75,1.75c-0.21,0.37-0.4,0.75-0.55,1.14
		c-1.42,3.52-0.61,7.52,2.07,10.21c0.43,0.43,0.9,0.82,1.4,1.15l-1.44,2.45c-0.06,0.1-0.04,0.23,0.06,0.31
		c0.04,0.03,0.09,0.05,0.15,0.05c0.06,0,0.12-0.02,0.17-0.07l2.16-2.11c1.31,0.65,2.73,0.98,4.17,0.98c0.9,0,1.81-0.13,2.69-0.39
		c0.09-0.03,0.16-0.1,0.17-0.2l0.24-1.79c0.01-0.08-0.02-0.17-0.09-0.22c-0.07-0.05-0.16-0.06-0.23-0.03
		c-1.7,0.69-3.62,0.71-5.33,0.08l5.4-5.27l0.71-0.7c0,0,0.01-0.01,0.01-0.01l2.93-2.86c0.07-0.07,0.09-0.17,0.05-0.26
		c-0.04-0.09-0.12-0.15-0.22-0.15h-3.51l2.15-3.05c0.08,0.07,0.15,0.14,0.23,0.22c1.91,1.91,2.62,4.71,1.84,7.31
		c-0.1,0.35-0.23,0.69-0.39,1.02l-1.55-1.55c-0.06-0.06-0.16-0.09-0.24-0.06c-0.09,0.03-0.15,0.1-0.16,0.19l-0.75,5.59
		c-0.01,0.07,0.02,0.15,0.07,0.2c0.04,0.04,0.11,0.07,0.17,0.07c0.01,0,0.02,0,0.03,0l1.65-0.22c0.01,0,0.01,0,0.02,0l3.92-0.53
		c0.09-0.01,0.16-0.07,0.19-0.16C20.33,16.24,20.31,16.15,20.25,16.08z M7.74,2.29l0.17-1.25c1.97-0.55,4.07-0.4,5.93,0.39h-2.36
		c-0.09,0-0.17,0.05-0.21,0.13l-0.16,0.33C9.97,1.78,8.82,1.91,7.74,2.29z M3.99,16C1.44,13.45,0.67,9.64,2.02,6.3
		C2.19,5.88,2.4,5.46,2.63,5.07C2.69,4.97,2.68,4.85,2.6,4.78L1.06,3.24l4.81-0.65L5.22,7.4L3.79,5.96C3.73,5.91,3.66,5.89,3.58,5.9
		C3.51,5.91,3.44,5.95,3.41,6.02C3.17,6.46,2.98,6.93,2.84,7.41c-0.83,2.76-0.08,5.74,1.96,7.78c0.33,0.33,0.7,0.64,1.08,0.9
		l-0.58,0.99C4.83,16.76,4.39,16.4,3.99,16z M12.89,17.04l-0.17,1.25c-2.08,0.58-4.27,0.39-6.22-0.53l0.88-0.86
		C9.13,17.61,11.11,17.66,12.89,17.04z M12.47,7.65c0.04,0.08,0.12,0.13,0.21,0.13h3.38l-2.5,2.44c0,0-0.01,0.01-0.01,0.01
		l-8.63,8.42l0.65-1.11c0,0,0,0,0,0c0,0,0,0,0-0.01l3.83-6.51c0.04-0.07,0.04-0.16,0-0.24c-0.04-0.07-0.12-0.12-0.21-0.12h-1.8
		l0.37-0.68c0,0,0-0.01,0.01-0.01l3.85-8.07h4.73l-3.88,5.5C12.44,7.48,12.43,7.57,12.47,7.65z M16.11,16.55c-0.01,0-0.01,0-0.02,0
		l-1.32,0.18l0.65-4.81l1.45,1.45c0.05,0.05,0.13,0.08,0.2,0.07c0.07-0.01,0.14-0.06,0.17-0.12c0.23-0.44,0.43-0.91,0.57-1.39
		c0.83-2.76,0.08-5.74-1.96-7.78c-0.09-0.09-0.19-0.18-0.29-0.27l0.66-0.94c0.15,0.13,0.29,0.26,0.43,0.4
		c2.55,2.55,3.32,6.35,1.97,9.69c-0.17,0.43-0.38,0.84-0.62,1.24c-0.06,0.09-0.04,0.21,0.04,0.29l1.53,1.53L16.11,16.55z"/>
	<path class="st42" d="M12.89,17.04l-0.17,1.25c-2.08,0.58-4.27,0.39-6.22-0.53l0.88-0.86C9.13,17.61,11.11,17.66,12.89,17.04z"/>
	<path class="st42" d="M5.87,16.09l-0.58,0.99C4.83,16.76,4.39,16.4,3.99,16C1.44,13.45,0.67,9.64,2.02,6.3
		C2.19,5.88,2.4,5.46,2.63,5.07C2.69,4.97,2.68,4.85,2.6,4.78L1.06,3.24l4.81-0.65L5.22,7.4L3.79,5.96C3.73,5.91,3.66,5.89,3.58,5.9
		C3.51,5.91,3.44,5.95,3.41,6.02C3.17,6.46,2.98,6.93,2.84,7.41c-0.83,2.76-0.08,5.74,1.96,7.78C5.13,15.52,5.49,15.82,5.87,16.09z"
		/>
	<path class="st42" d="M19.57,16.08l-3.47,0.47c-0.01,0-0.01,0-0.02,0l-1.32,0.18l0.65-4.81l1.45,1.45c0.05,0.05,0.13,0.08,0.2,0.07
		c0.07-0.01,0.14-0.06,0.17-0.12c0.23-0.44,0.43-0.91,0.57-1.39c0.83-2.76,0.08-5.74-1.96-7.78c-0.09-0.09-0.19-0.18-0.29-0.27
		l0.66-0.94c0.15,0.13,0.29,0.26,0.43,0.4c2.55,2.55,3.32,6.35,1.97,9.69c-0.17,0.43-0.38,0.84-0.62,1.24
		c-0.06,0.09-0.04,0.21,0.04,0.29L19.57,16.08z"/>
	<path class="st42" d="M13.84,1.43h-2.36c-0.09,0-0.17,0.05-0.21,0.13l-0.16,0.33c-1.14-0.12-2.3,0.02-3.37,0.39l0.17-1.25
		C9.87,0.49,11.98,0.64,13.84,1.43z"/>
	<path class="st43" d="M12.68,7.78h3.38l-2.5,2.44c0,0-0.01,0.01-0.01,0.01l-8.63,8.42l0.65-1.11c0,0,0,0,0,0c0,0,0,0,0-0.01
		l3.83-6.51c0.04-0.07,0.04-0.16,0-0.24c-0.04-0.07-0.12-0.12-0.21-0.12h-1.8l0.37-0.68c0,0,0-0.01,0.01-0.01l3.85-8.07h4.73
		l-3.88,5.5c-0.05,0.07-0.06,0.17-0.02,0.25C12.51,7.73,12.59,7.78,12.68,7.78z"/>
</g>
</svg>
