<?xml version="1.0" encoding="utf-8"?>
<!-- Generator: Adobe Illustrator 27.0.0, SVG Export Plug-In . SVG Version: 6.00 Build 0)  -->
<svg version="1.1" id="Layer_1" xmlns="http://www.w3.org/2000/svg" xmlns:xlink="http://www.w3.org/1999/xlink" x="0px" y="0px"
	 viewBox="0 0 145 80" style="enable-background:new 0 0 145 80;" xml:space="preserve">
<style type="text/css">
	.st0{fill:url(#SVGID_1_);}
	.st1{fill:url(#SVGID_00000168811097429352768970000014214611689151079563_);}
	.st2{fill:#FFFFFF;}
	.st3{fill:#FFFFFE;}
	.st4{fill:url(#SVGID_00000035507936241110286680000014880822602968953229_);}
	.st5{fill:url(#SVGID_00000096041999198788385070000014242214984684541108_);}
	.st6{fill-rule:evenodd;clip-rule:evenodd;fill:#FFFFFF;}
</style>
<g>
	
		<linearGradient id="SVGID_1_" gradientUnits="userSpaceOnUse" x1="-3014.5669" y1="-36.5841" x2="-2956.8264" y2="63.2061" gradientTransform="matrix(1 0 0 1 3042.7539 0)">
		<stop  offset="0" style="stop-color:#13375C"/>
		<stop  offset="1" style="stop-color:#151E37"/>
	</linearGradient>
	<path class="st0" d="M132.5,77.5h-120c-5.52,0-10-4.48-10-10v-55c0-5.52,4.48-10,10-10h120c5.52,0,10,4.48,10,10v55
		C142.5,73.02,138.02,77.5,132.5,77.5z"/>
	<g>
		
			<linearGradient id="SVGID_00000109714917907763430770000000036927693224094376_" gradientUnits="userSpaceOnUse" x1="-459.422" y1="1075.0612" x2="-310.2882" y2="1075.0612" gradientTransform="matrix(-1 0 0 1 -329.3698 -1035.0607)">
			<stop  offset="0" style="stop-color:#05CCFF"/>
			<stop  offset="0.0178" style="stop-color:#08C8FF"/>
			<stop  offset="0.3696" style="stop-color:#5080FF"/>
			<stop  offset="0.6619" style="stop-color:#844BFF"/>
			<stop  offset="0.8803" style="stop-color:#A42AFF"/>
			<stop  offset="1" style="stop-color:#B01EFF"/>
		</linearGradient>
		<path style="fill:url(#SVGID_00000109714917907763430770000000036927693224094376_);" d="M13.58,39l112.54,0
			c2.17,0,3.93,0.45,3.93,1s-1.76,1-3.93,1L13.58,41L13.58,39z"/>
		<g>
			<path class="st2" d="M22.87,20.03v-9.67c0-1.34-1.11-2.43-2.48-2.43s-2.48,1.09-2.48,2.43v9.86c-1.45,0.89-2.35,2.46-2.35,4.14
				c0,2.69,2.24,4.89,5,4.89s5-2.19,5-4.89C25.56,22.54,24.51,20.87,22.87,20.03z M20.56,28.46c-2.31,0-4.19-1.84-4.19-4.1
				c0-1.48,0.82-2.85,2.14-3.57l0.21-0.11V10.36c0-0.9,0.75-1.64,1.68-1.64s1.68,0.74,1.68,1.64v10.17l0.23,0.11
				c1.49,0.67,2.45,2.13,2.45,3.73C24.75,26.62,22.87,28.46,20.56,28.46z"/>
			<path class="st2" d="M20.99,21.83V13.7h-1.34v8.18c-1.09,0.32-1.88,1.31-1.88,2.48c0,1.43,1.19,2.59,2.65,2.59
				c1.46,0,2.65-1.16,2.65-2.59C23.07,23.12,22.18,22.09,20.99,21.83z"/>
			<rect x="23.32" y="10.26" class="st2" width="2.24" height="0.72"/>
			<rect x="23.32" y="11.55" class="st2" width="2.24" height="0.72"/>
			<rect x="23.32" y="12.81" class="st2" width="2.24" height="0.72"/>
			<rect x="23.32" y="14.1" class="st2" width="2.24" height="0.72"/>
			<rect x="23.32" y="15.37" class="st2" width="2.24" height="0.72"/>
			<rect x="23.32" y="16.66" class="st2" width="2.24" height="0.72"/>
			<rect x="23.32" y="17.93" class="st2" width="2.24" height="0.72"/>
			<rect x="23.32" y="19.22" class="st2" width="2.24" height="0.72"/>
		</g>
		<g>
			<path id="_255330216_00000080922430898926621310000003412621084460655529_" class="st6" d="M18.69,59.97
				c-0.3,0.27-0.3,0.7,0,0.97c0.3,0.27,0.8,0.27,1.1,0c0.3-0.27,0.3-0.7,0-0.97c-0.15-0.13-0.34-0.2-0.55-0.2
				C19.03,59.77,18.84,59.84,18.69,59.97z"/>
			<path id="_255330048_00000168833083712611011650000010702727580881208209_" class="st6" d="M21.32,62.3 M22.42,62.3
				c-0.3-0.27-0.8-0.27-1.1,0c-0.3,0.27-0.3,0.7,0,0.97c0.3,0.27,0.8,0.27,1.1,0C22.73,63,22.73,62.57,22.42,62.3L22.42,62.3z"/>
			<path id="_255330072_00000061454415816487304350000010793876421868395961_" class="st6" d="M20.56,52.96
				c-2.16,2.39-3.64,4.62-4.4,6.63c-1.16,3.05-0.42,4.89,0.39,5.89c0.9,1.1,2.4,1.76,4.01,1.76c1.6,0,3.09-0.65,3.99-1.74
				c0.81-0.98,1.55-2.78,0.47-5.75C24.27,57.7,22.77,55.41,20.56,52.96L20.56,52.96z M22.48,60.2l-3.54,3.13
				c-0.04,0.04-0.1,0.06-0.16,0.06c-0.2,0-0.3-0.21-0.16-0.34l3.54-3.13c0.09-0.08,0.23-0.08,0.32,0
				C22.57,59.99,22.57,60.12,22.48,60.2L22.48,60.2z M18.37,59.69 M18.37,59.69c0.48-0.42,1.25-0.42,1.73,0
				c0.48,0.42,0.48,1.11,0,1.53c-0.23,0.2-0.54,0.32-0.87,0.32c-0.68,0-1.22-0.48-1.22-1.08C18.02,60.17,18.14,59.89,18.37,59.69
				L18.37,59.69z M21.01,62.02 M21.87,61.7c0.68,0,1.22,0.48,1.22,1.08c0,0.6-0.55,1.08-1.22,1.08s-1.22-0.48-1.22-1.08
				c0-0.29,0.13-0.56,0.36-0.77S21.55,61.7,21.87,61.7L21.87,61.7z"/>
		</g>
	</g>
</g>
</svg>
