<?xml version="1.0" encoding="utf-8"?>
<!-- Generator: Adobe Illustrator 27.0.0, SVG Export Plug-In . SVG Version: 6.00 Build 0)  -->
<svg version="1.1" id="Layer_1" xmlns="http://www.w3.org/2000/svg" xmlns:xlink="http://www.w3.org/1999/xlink" x="0px" y="0px"
	 viewBox="0 0 95 95" style="enable-background:new 0 0 95 95;" xml:space="preserve">
<style type="text/css">
	.st0{opacity:0.7;fill-rule:evenodd;clip-rule:evenodd;fill:url(#SVGID_1_);}
	.st1{opacity:0.5;}
	.st2{fill:#FF8888;}
	.st3{opacity:0.7;fill:#2E2923;}
	.st4{opacity:0.7;}
	.st5{fill-rule:evenodd;clip-rule:evenodd;fill:#FFFFFF;}
	.st6{opacity:0.7;fill-rule:evenodd;clip-rule:evenodd;fill:url(#SVGID_00000046299221652549927740000011418209158147215528_);}
	.st7{fill:#FFEFAB;}
	.st8{opacity:0.7;fill:#303030;}
	.st9{fill:#FFFFFF;}
	.st10{opacity:0.7;fill-rule:evenodd;clip-rule:evenodd;fill:url(#SVGID_00000098931077048847775680000011111811027704897446_);}
	.st11{fill-rule:evenodd;clip-rule:evenodd;fill:url(#SVGID_00000166633241544601609770000009899857888901936029_);}
	.st12{fill:#FF0000;}
	.st13{fill:#2E2923;}
	.st14{fill-rule:evenodd;clip-rule:evenodd;fill:url(#SVGID_00000122000170116754063540000005819847496362705814_);}
	.st15{fill:#FFCE00;}
	.st16{fill:#303030;}
	.st17{fill-rule:evenodd;clip-rule:evenodd;fill:url(#SVGID_00000180334511658257379180000013954620790184811946_);}
	.st18{fill-rule:evenodd;clip-rule:evenodd;fill:url(#SVGID_00000160190332455068174710000008436898996469537457_);}
	.st19{font-family:'Prompt-Regular';}
	.st20{font-size:11px;}
	.st21{font-size:22.5305px;}
</style>
<g>
	<linearGradient id="SVGID_1_" gradientUnits="userSpaceOnUse" x1="11" y1="53.25" x2="91" y2="53.25">
		<stop  offset="0" style="stop-color:#13375C"/>
		<stop  offset="1" style="stop-color:#151E37"/>
	</linearGradient>
	<path style="fill-rule:evenodd;clip-rule:evenodd;fill:url(#SVGID_1_);" d="M22,85.75h58c6.08,0,11-4.92,11-11v-43
		c0-6.08-4.92-11-11-11H22c-6.08,0-11,4.92-11,11v43C11,80.83,15.92,85.75,22,85.75z"/>
	<g>
		<text transform="matrix(0.9821 0 0 1 28.1363 65.7686)"><tspan x="0" y="0" class="st9 st19 st20">Generator</tspan><tspan x="0.03" y="13.2" class="st9 st19 st20">Activated!</tspan></text>
	</g>
	<g>
		<path class="st15" d="M29.73,34.1H6.27c-1.75,0-2.84-1.89-1.96-3.4l5.46-9.46l6.27-10.86c0.87-1.51,3.05-1.51,3.93,0l6.55,11.35
			l5.18,8.96C32.57,32.21,31.47,34.1,29.73,34.1z"/>
		<path class="st16" d="M30.82,31.2L19.09,10.89c-0.33-0.57-0.87-0.63-1.09-0.63c-0.22,0-0.76,0.06-1.09,0.63L5.18,31.2
			c-0.33,0.57-0.11,1.07,0,1.26c0.11,0.19,0.44,0.63,1.09,0.63h23.46c0.66,0,0.98-0.44,1.09-0.63
			C30.93,32.27,31.15,31.77,30.82,31.2z M30.31,32.17c-0.09,0.15-0.26,0.34-0.58,0.34H6.27c-0.32,0-0.5-0.18-0.58-0.34
			c-0.09-0.15-0.16-0.4,0-0.68l11.73-20.32c0.16-0.28,0.41-0.34,0.58-0.34c0.18,0,0.42,0.06,0.58,0.34L30.31,31.5
			C30.48,31.77,30.4,32.02,30.31,32.17z"/>
		<g>
			<text transform="matrix(0.9821 0 0 1 15.4551 31.0223)" class="st16 st19 st21">!</text>
		</g>
	</g>
	<g>
		<path class="st9" d="M40.13,50.63h21.45c0.15,0,0.28-0.12,0.28-0.28V47.3c0-0.15-0.12-0.28-0.28-0.28h-2.32v-0.71l0,0l0,0V34.42
			l0,0l0,0v-1.04c0-0.15-0.12-0.28-0.28-0.28H42.72c-0.15,0-0.28,0.12-0.28,0.28v1.04l0,0l0,0v11.9l0,0l0,0v0.71h-2.32
			c-0.15,0-0.28,0.12-0.28,0.28v3.05C39.86,50.51,39.98,50.63,40.13,50.63z M43,34.69h15.71v11.36H43V34.69z M58.71,33.65v0.49H43
			v-0.49H58.71z M43,46.6h15.71v0.43H43V46.6z M40.41,47.58h20.9v2.5h-20.9V47.58z"/>
		<path class="st9" d="M44.91,32.38h3.35c0.15,0,0.28-0.12,0.28-0.28v-1.12v-1.12v-1.12v-1.12c0-0.15-0.12-0.28-0.28-0.28h-3.35
			c-0.15,0-0.28,0.12-0.28,0.28v1.12v1.12v1.12v1.12C44.63,32.26,44.76,32.38,44.91,32.38z M45.18,30.15h2.8v0.57h-2.8V30.15z
			 M47.99,29.6h-2.8v-0.57h2.8V29.6z M47.99,31.83h-2.8v-0.57h2.8V31.83z M45.18,27.91h2.8v0.57h-2.8V27.91z"/>
		<path class="st9" d="M53.86,32.38h3.35c0.15,0,0.28-0.12,0.28-0.28v-1.12v-1.12v-1.12v-1.12c0-0.15-0.12-0.28-0.28-0.28h-3.35
			c-0.15,0-0.28,0.12-0.28,0.28v1.12v1.12v1.12v1.12C53.58,32.26,53.7,32.38,53.86,32.38z M54.13,30.15h2.8v0.57h-2.8V30.15z
			 M56.94,29.6h-2.8v-0.57h2.8C56.94,29.03,56.94,29.6,56.94,29.6z M56.94,31.83h-2.8v-0.57h2.8
			C56.94,31.26,56.94,31.83,56.94,31.83z M54.13,27.91h2.8v0.57h-2.8V27.91z"/>
		<path class="st9" d="M52.87,40.18c-0.07-0.08-0.19-0.11-0.29-0.07l-3.06,1.07l1.85-4.79c0.06-0.14-0.02-0.3-0.16-0.36
			s-0.3,0.02-0.36,0.16l-2.07,5.35c-0.04,0.1-0.02,0.21,0.06,0.29s0.19,0.1,0.29,0.07l3.02-1.05l-1.29,2.86l-0.36-0.85
			c-0.06-0.14-0.22-0.21-0.36-0.15c-0.1,0.04-0.17,0.15-0.17,0.25c0,0.04,0.01,0.07,0.02,0.11l0.6,1.44l0,0l0,0l0,0l0,0l0,0
			c0.02,0.06,0.07,0.1,0.12,0.13c0.02,0.01,0.03,0.02,0.05,0.02c0.02,0.01,0.05,0.01,0.08,0.01c0.02,0,0.04,0,0.06-0.01
			c0.01,0,0.02-0.01,0.02-0.01l1.41-0.46c0.14-0.05,0.22-0.2,0.18-0.35s-0.2-0.22-0.35-0.18l-0.82,0.27l1.55-3.46
			C52.97,40.38,52.95,40.26,52.87,40.18z"/>
	</g>
</g>
</svg>
