<?xml version="1.0" encoding="utf-8"?>
<!-- Generator: Adobe Illustrator 26.5.0, SVG Export Plug-In . SVG Version: 6.00 Build 0)  -->
<svg version="1.1" id="Layer_1" xmlns="http://www.w3.org/2000/svg" xmlns:xlink="http://www.w3.org/1999/xlink" x="0px" y="0px"
	 viewBox="0 0 10.67 14.83" style="enable-background:new 0 0 10.67 14.83;" xml:space="preserve">
<style type="text/css">
	.st0{opacity:0.5;}
	.st1{fill-rule:evenodd;clip-rule:evenodd;fill:none;stroke:#FFFFFF;stroke-width:0.75;stroke-miterlimit:10;}
	.st2{fill-rule:evenodd;clip-rule:evenodd;fill:none;}
	.st3{fill:none;stroke:#FFFFFF;stroke-width:0.75;stroke-miterlimit:10;}
	.st4{opacity:0.45;fill-rule:evenodd;clip-rule:evenodd;fill:#FFFFFF;}
	.st5{fill-rule:evenodd;clip-rule:evenodd;fill:#FFCE00;}
	.st6{fill:none;stroke:#FFFFFF;stroke-miterlimit:10;}
	.st7{opacity:0.5;fill:none;stroke:#FFFFFF;stroke-linecap:round;stroke-linejoin:round;stroke-miterlimit:10;}
	.st8{fill:none;}
	.st9{fill-rule:evenodd;clip-rule:evenodd;fill:#FFFFFF;}
	.st10{fill-rule:evenodd;clip-rule:evenodd;fill:#1000FF;}
	.st11{fill:url(#SVGID_1_);}
	.st12{fill:url(#SVGID_00000101085261760292440630000014449651685019771008_);}
	.st13{fill:#FF0000;}
	.st14{fill:url(#SVGID_00000088094407598477436720000009410919922570458257_);}
	.st15{fill:#1000FF;}
	.st16{fill:url(#SVGID_00000127024782839304377960000016990964232089995448_);}
	.st17{opacity:0.7;fill-rule:evenodd;clip-rule:evenodd;fill:url(#SVGID_00000051376638682945991790000014977911035572952232_);}
	.st18{fill:#FF8888;}
	.st19{opacity:0.7;fill:#2E2923;}
	.st20{opacity:0.7;}
	.st21{opacity:0.7;fill-rule:evenodd;clip-rule:evenodd;fill:url(#SVGID_00000146481286327719416970000002948822240688040587_);}
	.st22{fill:#FFEFAB;}
	.st23{opacity:0.7;fill:#303030;}
	.st24{fill:#FFFFFF;}
	.st25{opacity:0.7;fill-rule:evenodd;clip-rule:evenodd;fill:url(#SVGID_00000094581935264728784920000001032803021723171231_);}
	.st26{opacity:0.5;fill-rule:evenodd;clip-rule:evenodd;fill:#FFFFFF;}
	.st27{opacity:0.7;fill-rule:evenodd;clip-rule:evenodd;fill:url(#SVGID_00000132082200483322753960000002706644936190731139_);}
	.st28{fill:url(#SVGID_00000051364233477672274840000010098326021611972776_);}
	.st29{fill:url(#SVGID_00000129185006548684560080000004278624754654805919_);}
	.st30{fill:url(#SVGID_00000148657435354510943480000005042885681154860180_);}
	.st31{fill:url(#SVGID_00000083069412693208668050000000754794011950049214_);}
	.st32{fill:url(#SVGID_00000155829000258698107430000008024607587574942905_);}
	.st33{fill:url(#SVGID_00000083070090115154114430000009776665682237289104_);}
	.st34{fill:url(#SVGID_00000044890661575684354090000005106331401522488972_);}
	.st35{fill:url(#SVGID_00000092455848087411968850000007796920938395525551_);}
	.st36{fill:url(#SVGID_00000129925291791369959640000003411703682105367199_);}
	.st37{fill:url(#SVGID_00000119091628911196634200000000066584706862982055_);}
	.st38{opacity:0.3;}
	.st39{fill:#F7D418;}
	.st40{fill:#2E2923;}
	.st41{fill:#29333F;}
	.st42{fill:#B9BBBC;}
	.st43{fill:#FFC200;}
	.st44{fill:url(#SVGID_00000080916969201794661280000010588693172724029060_);}
	.st45{fill:url(#SVGID_00000033363726349613363650000004766904863218338441_);}
	.st46{fill:url(#SVGID_00000151515338506781286170000007011684378330518660_);}
	.st47{fill:url(#SVGID_00000106862266801004469350000007063784112255739535_);}
	.st48{fill:#FFFFFE;}
	.st49{opacity:0.7;fill-rule:evenodd;clip-rule:evenodd;fill:url(#SVGID_00000111158294937439104630000007869979493731164295_);}
	.st50{opacity:0.7;fill-rule:evenodd;clip-rule:evenodd;fill:url(#SVGID_00000007429887544099430830000014986797816484487835_);}
	.st51{opacity:0.7;fill-rule:evenodd;clip-rule:evenodd;fill:url(#SVGID_00000065045263699089256870000006466303483304160135_);}
	.st52{opacity:0.7;fill-rule:evenodd;clip-rule:evenodd;fill:url(#SVGID_00000025431568053637982940000013717391696188481965_);}
	.st53{opacity:0.7;fill-rule:evenodd;clip-rule:evenodd;fill:url(#SVGID_00000103950634657737121620000012766484360155932344_);}
	.st54{opacity:0.7;fill-rule:evenodd;clip-rule:evenodd;fill:url(#SVGID_00000083068248750146179240000010871286433843668371_);}
	.st55{fill-rule:evenodd;clip-rule:evenodd;fill:url(#SVGID_00000144300065350703066120000008520066677525320347_);}
	.st56{fill-rule:evenodd;clip-rule:evenodd;fill:url(#SVGID_00000083784867179868826730000006971284671171014538_);}
	.st57{fill:#FFCE00;}
	.st58{fill:#303030;}
	.st59{fill-rule:evenodd;clip-rule:evenodd;fill:url(#SVGID_00000174563716290657581740000013112277430759191974_);}
	.st60{fill-rule:evenodd;clip-rule:evenodd;fill:url(#SVGID_00000032641977953205711130000012710534037480729224_);}
	.st61{fill-rule:evenodd;clip-rule:evenodd;fill:url(#SVGID_00000057842628390673672720000001585795289193460653_);}
	.st62{fill:url(#SVGID_00000183940517273886644680000002965129319696866712_);}
	.st63{fill:url(#SVGID_00000002370614099444937610000012535679052931142021_);}
	.st64{fill:url(#SVGID_00000157267502562078122320000008023000265633390246_);}
	.st65{fill:url(#SVGID_00000110461458778166192040000009428670648234872704_);}
	.st66{fill-rule:evenodd;clip-rule:evenodd;fill:#FF0000;}
	.st67{fill-rule:evenodd;clip-rule:evenodd;fill:none;stroke:#FF0000;stroke-width:0.75;stroke-miterlimit:10;}
	.st68{fill:none;stroke:#FF0000;stroke-miterlimit:10;}
	.st69{fill:none;stroke:#FFCE00;stroke-width:0.75;stroke-miterlimit:10;}
	.st70{fill:none;stroke:#FFCE00;stroke-miterlimit:10;}
	.st71{fill:url(#SVGID_00000049220230948091490370000005865193588224839857_);}
	.st72{fill:url(#SVGID_00000096022404433421052680000000635578848780068519_);}
	.st73{fill:url(#SVGID_00000040542500186939751440000013045533155085100723_);}
	.st74{fill:url(#SVGID_00000096760541314732471410000001669844823342174084_);}
	.st75{fill:url(#SVGID_00000062159897790926076860000016519898328810102671_);}
	.st76{fill:url(#SVGID_00000060714558807210315150000006039732277221928875_);}
</style>
<g>
	<path id="_255330216_00000084528226604100140020000002900955629629988010_" class="st10" d="M3.47,7.28c-0.3,0.27-0.3,0.7,0,0.97
		c0.3,0.27,0.8,0.27,1.1,0c0.3-0.27,0.3-0.7,0-0.97c-0.15-0.13-0.34-0.2-0.55-0.2C3.81,7.08,3.61,7.15,3.47,7.28z"/>
	<path id="_255330048_00000083083117717562241860000009377457800755116475_" class="st10" d="M6.1,9.61 M7.2,9.61
		c-0.3-0.27-0.8-0.27-1.1,0c-0.3,0.27-0.3,0.7,0,0.97c0.3,0.27,0.8,0.27,1.1,0C7.5,10.31,7.5,9.88,7.2,9.61L7.2,9.61z"/>
	<path id="_255330072_00000058573335169660100640000001697248114090857107_" class="st10" d="M5.33,0.27
		C3.18,2.66,1.69,4.89,0.93,6.9c-1.16,3.05-0.42,4.89,0.39,5.89c0.9,1.1,2.4,1.76,4.01,1.76c1.6,0,3.09-0.65,3.99-1.74
		c0.81-0.98,1.55-2.78,0.47-5.75C9.05,5.01,7.55,2.72,5.33,0.27L5.33,0.27z M7.26,7.5l-3.54,3.13c-0.04,0.04-0.1,0.06-0.16,0.06
		c-0.2,0-0.3-0.21-0.16-0.34l3.54-3.13c0.09-0.08,0.23-0.08,0.32,0C7.35,7.3,7.35,7.43,7.26,7.5L7.26,7.5z M3.15,7 M3.15,7
		C3.63,6.57,4.4,6.57,4.88,7c0.48,0.42,0.48,1.11,0,1.53c-0.23,0.2-0.54,0.32-0.87,0.32c-0.68,0-1.22-0.48-1.22-1.08
		C2.79,7.47,2.92,7.2,3.15,7L3.15,7z M5.78,9.33 M6.65,9.01c0.68,0,1.22,0.48,1.22,1.08c0,0.6-0.55,1.08-1.22,1.08
		s-1.22-0.48-1.22-1.08c0-0.29,0.13-0.56,0.36-0.77C6.02,9.12,6.32,9.01,6.65,9.01L6.65,9.01z"/>
</g>
</svg>
