<?xml version="1.0" encoding="utf-8"?>
<!-- Generator: Adobe Illustrator 26.5.0, SVG Export Plug-In . SVG Version: 6.00 Build 0)  -->
<svg version="1.1" id="Layer_1" xmlns="http://www.w3.org/2000/svg" xmlns:xlink="http://www.w3.org/1999/xlink" x="0px" y="0px"
	 viewBox="0 0 19.24 27.22" style="enable-background:new 0 0 19.24 27.22;" xml:space="preserve">
<style type="text/css">
	.st0{opacity:0.5;}
	.st1{fill-rule:evenodd;clip-rule:evenodd;fill:none;stroke:#FFFFFF;stroke-width:0.75;stroke-miterlimit:10;}
	.st2{fill-rule:evenodd;clip-rule:evenodd;fill:none;}
	.st3{fill:none;stroke:#FFFFFF;stroke-width:0.75;stroke-miterlimit:10;}
	.st4{opacity:0.45;fill-rule:evenodd;clip-rule:evenodd;fill:#FFFFFF;}
	.st5{fill-rule:evenodd;clip-rule:evenodd;fill:#FFCE00;}
	.st6{fill:none;stroke:#FFFFFF;stroke-width:0.5;stroke-miterlimit:10;}
	.st7{fill:none;stroke:#FFFFFF;stroke-miterlimit:10;}
	.st8{opacity:0.5;fill:none;stroke:#FFFFFF;stroke-linecap:round;stroke-linejoin:round;stroke-miterlimit:10;}
	.st9{fill:none;}
	.st10{fill-rule:evenodd;clip-rule:evenodd;fill:#FFFFFF;}
	.st11{fill:#1000FF;}
	.st12{fill-rule:evenodd;clip-rule:evenodd;fill:#1000FF;}
	.st13{fill:url(#SVGID_1_);}
	.st14{fill:url(#SVGID_00000127021530737914971670000002686349727680724893_);}
	.st15{fill:#FF0000;}
	.st16{fill:url(#SVGID_00000117672478134428970150000011723806736952891831_);}
	.st17{fill:url(#SVGID_00000176000882979848929230000005719978031599371650_);}
	.st18{opacity:0.7;fill-rule:evenodd;clip-rule:evenodd;fill:url(#SVGID_00000011023824636621062410000011256353788979478171_);}
	.st19{fill:#FF8888;}
	.st20{opacity:0.7;fill:#2E2923;}
	.st21{opacity:0.7;}
	.st22{opacity:0.7;fill-rule:evenodd;clip-rule:evenodd;fill:url(#SVGID_00000035510542258703762660000011708115005093509539_);}
	.st23{fill:#FFEFAB;}
	.st24{opacity:0.7;fill:#303030;}
	.st25{fill:#FFFFFF;}
	.st26{opacity:0.7;fill-rule:evenodd;clip-rule:evenodd;fill:url(#SVGID_00000080199086413419723890000015096245557400777626_);}
	.st27{opacity:0.5;fill-rule:evenodd;clip-rule:evenodd;fill:#FFFFFF;}
	.st28{opacity:0.7;fill-rule:evenodd;clip-rule:evenodd;fill:url(#SVGID_00000096028906781617364970000008987019918717303192_);}
	.st29{fill:url(#SVGID_00000093898710393481142420000015776824299604336045_);}
	.st30{fill:url(#SVGID_00000140005518268063524590000013842135930790068874_);}
	.st31{fill:url(#SVGID_00000168106238619218816490000010962027843153064859_);}
	.st32{fill:url(#SVGID_00000009561261129717011730000008674685546395989397_);}
	.st33{fill:url(#SVGID_00000159446457506899309230000015226327626802813318_);}
	.st34{fill:url(#SVGID_00000138553607474404409580000011642170226722543254_);}
	.st35{fill:url(#SVGID_00000093897535767400781790000012939765052562254524_);}
	.st36{fill:url(#SVGID_00000005949956871861191880000002540887758635001239_);}
	.st37{fill:url(#SVGID_00000009573207885256847130000004232791933617323688_);}
	.st38{fill:url(#SVGID_00000089558520294506954260000018014457806775524743_);}
	.st39{opacity:0.3;}
	.st40{fill:#F7D418;}
	.st41{fill:#2E2923;}
	.st42{fill:#29333F;}
	.st43{fill:#B9BBBC;}
	.st44{fill:#FFC200;}
	.st45{fill:url(#SVGID_00000086665072508117494890000003444912198445602696_);}
	.st46{fill:url(#SVGID_00000010278643929472635180000008074024691333726345_);}
	.st47{fill:url(#SVGID_00000151537397304834264750000009452390052231153087_);}
	.st48{fill:url(#SVGID_00000008145181988860706410000014795230389867776427_);}
	.st49{fill:#FFFFFE;}
	.st50{opacity:0.7;fill-rule:evenodd;clip-rule:evenodd;fill:url(#SVGID_00000062191944915510400950000018094382669843296896_);}
	.st51{opacity:0.7;fill-rule:evenodd;clip-rule:evenodd;fill:url(#SVGID_00000108305622409502601700000012152690292816537987_);}
	.st52{opacity:0.7;fill-rule:evenodd;clip-rule:evenodd;fill:url(#SVGID_00000109714459717223577790000012240830120725700486_);}
	.st53{opacity:0.7;fill-rule:evenodd;clip-rule:evenodd;fill:url(#SVGID_00000176005718368808444730000007362680932139287199_);}
	.st54{opacity:0.7;fill-rule:evenodd;clip-rule:evenodd;fill:url(#SVGID_00000018942087294041000070000016627559798590661564_);}
	.st55{opacity:0.7;fill-rule:evenodd;clip-rule:evenodd;fill:url(#SVGID_00000060728609667948844040000007694869662778146731_);}
	.st56{fill-rule:evenodd;clip-rule:evenodd;fill:url(#SVGID_00000093889398661829761120000000352122835483751330_);}
	.st57{fill-rule:evenodd;clip-rule:evenodd;fill:url(#SVGID_00000056404727072499557110000008576999082387152027_);}
	.st58{fill:#FFCE00;}
	.st59{fill:#303030;}
	.st60{fill-rule:evenodd;clip-rule:evenodd;fill:url(#SVGID_00000054958449415177003490000018100248534905204375_);}
	.st61{fill-rule:evenodd;clip-rule:evenodd;fill:url(#SVGID_00000160886272007038455370000005780314282199728016_);}
	.st62{fill-rule:evenodd;clip-rule:evenodd;fill:url(#SVGID_00000098928656406813643230000009723328205536838546_);}
	.st63{fill:url(#SVGID_00000003798526927969966850000009102419295093566904_);}
	.st64{fill:url(#SVGID_00000042009084916474509920000011027400804255555485_);}
	.st65{fill:url(#SVGID_00000033355543794989800400000007056917984168289437_);}
	.st66{fill:url(#SVGID_00000039120604064197146390000015401428227083811498_);}
	.st67{fill-rule:evenodd;clip-rule:evenodd;fill:#FF0000;}
	.st68{fill-rule:evenodd;clip-rule:evenodd;fill:none;stroke:#FF0000;stroke-width:0.75;stroke-miterlimit:10;}
	.st69{fill:none;stroke:#FF0000;stroke-miterlimit:10;}
	.st70{fill:none;stroke:#FFCE00;stroke-width:0.75;stroke-miterlimit:10;}
	.st71{fill:none;stroke:#FFCE00;stroke-miterlimit:10;}
	.st72{fill:url(#SVGID_00000069388489332109722480000016752515529115779218_);}
	.st73{fill:url(#SVGID_00000176032052433487493140000002437696950664509312_);}
	.st74{fill:url(#SVGID_00000038404290249282284020000010567823524542603678_);}
	.st75{fill:url(#SVGID_00000170960910791786806100000008034365993458821797_);}
	.st76{fill:url(#SVGID_00000051342450211498582320000008466138695826388887_);}
	.st77{fill:url(#SVGID_00000099644826329496224050000014628864971466450609_);}
	.st78{fill:url(#SVGID_00000180353356577429426320000016048219741823014305_);}
	.st79{fill:url(#SVGID_00000164508785416351907600000003667145321609792945_);}
	.st80{fill:url(#SVGID_00000017481215578196058040000012328719503192203444_);}
	.st81{fill:url(#SVGID_00000114791732278863705520000011271597462009737345_);}
	.st82{fill:url(#SVGID_00000092450588026371783540000006981243357613306042_);}
	.st83{fill:url(#SVGID_00000104680065499493594490000010844915741065605293_);}
	.st84{fill:url(#SVGID_00000145738614140682151050000010241879982956586416_);}
	.st85{fill:url(#SVGID_00000031190672044544398770000005111924461744109995_);}
	.st86{fill:url(#SVGID_00000049906499635117499510000003043385068145029817_);}
	.st87{fill:url(#SVGID_00000067194604519553163420000012797588966218958468_);}
	.st88{fill:url(#SVGID_00000157284315734200567790000012106478876490848388_);}
	.st89{fill:url(#SVGID_00000062153682211231234320000013397327944340776322_);}
	.st90{fill:url(#SVGID_00000098925989057872054610000005975121222242889360_);}
	.st91{fill:url(#SVGID_00000015352216063860048630000016925906491840782469_);}
	.st92{fill:url(#SVGID_00000104687247933410310070000011342555201152336061_);}
	.st93{fill:url(#SVGID_00000080194655899178835530000008580248192096416187_);}
	.st94{fill:url(#SVGID_00000043448063777945120890000005567583147186259083_);}
	.st95{fill-rule:evenodd;clip-rule:evenodd;fill:none;stroke:#FFFFFF;stroke-width:0.5;stroke-miterlimit:10;}
</style>
<g>
	<path class="st70" d="M5.83,20.21h7.57c0.15,0,0.28,0.12,0.28,0.28v0.83c0,0.15-0.12,0.28-0.28,0.28H5.83
		c-0.15,0-0.28-0.12-0.28-0.28v-0.83C5.56,20.34,5.68,20.21,5.83,20.21z"/>
	<path class="st70" d="M5.83,22.34h7.57c0.15,0,0.28,0.12,0.28,0.28v0.83c0,0.15-0.12,0.28-0.28,0.28H5.83
		c-0.15,0-0.28-0.12-0.28-0.28v-0.83C5.56,22.47,5.68,22.34,5.83,22.34z"/>
	<path class="st70" d="M6.21,24.42v0.85c0,1.38,1.56,1.35,1.56,1.35h1.85h1.85c0,0,1.56,0.04,1.56-1.35v-0.85H6.21z"/>
	<path class="st70" d="M13.15,10.46l-2.14,0.69L9.73,9.66C9.7,9.62,9.66,9.57,9.62,9.54C9.58,9.57,9.54,9.62,9.51,9.66L9.48,9.69
		l-1.26,1.46l-2.14-0.69c0.01,0.1,0.05,0.24,0.08,0.33l2.02,4.98v3.54h2.86v-3.54l2.02-4.98C13.11,10.69,13.14,10.56,13.15,10.46z"
		/>
	<path class="st70" d="M9.62,0.61c-4.97,0-9,4.03-9,9c0,3.27,1.74,6.12,4.34,7.7v0c0.66,0.47,0.97,1.33,1.12,1.99h1.38v-3.39
		l-1.97-4.85c-0.07-0.17-0.27-0.74-0.02-1.11c0.12-0.18,0.31-0.27,0.55-0.27h0.06l1.91,0.62l0.93-1.08C9,9.1,9.27,8.78,9.62,8.78
		s0.62,0.32,0.71,0.44l0.93,1.08l1.91-0.62h0.06c0.23,0,0.43,0.1,0.55,0.27c0.25,0.37,0.05,0.94-0.02,1.11l-1.97,4.85v3.39h1.38
		c0.15-0.66,0.46-1.51,1.12-1.99v0c2.6-1.58,4.34-4.44,4.34-7.7C18.63,4.64,14.59,0.61,9.62,0.61z"/>
	<path class="st70" d="M5.83,20.21h7.57c0.15,0,0.28,0.12,0.28,0.28v0.83c0,0.15-0.12,0.28-0.28,0.28H5.83
		c-0.15,0-0.28-0.12-0.28-0.28v-0.83C5.56,20.34,5.68,20.21,5.83,20.21z"/>
	<path class="st70" d="M5.83,22.34h7.57c0.15,0,0.28,0.12,0.28,0.28v0.83c0,0.15-0.12,0.28-0.28,0.28H5.83
		c-0.15,0-0.28-0.12-0.28-0.28v-0.83C5.56,22.47,5.68,22.34,5.83,22.34z"/>
</g>
</svg>
