<?xml version="1.0" encoding="utf-8"?>
<!-- Generator: Adobe Illustrator 26.5.0, SVG Export Plug-In . SVG Version: 6.00 Build 0)  -->
<svg version="1.1" id="Layer_1" xmlns="http://www.w3.org/2000/svg" xmlns:xlink="http://www.w3.org/1999/xlink" x="0px" y="0px"
	 viewBox="0 0 29.93 26.68" style="enable-background:new 0 0 29.93 26.68;" xml:space="preserve">
<style type="text/css">
	.st0{opacity:0.5;}
	.st1{fill-rule:evenodd;clip-rule:evenodd;fill:none;stroke:#FFFFFF;stroke-width:0.75;stroke-miterlimit:10;}
	.st2{fill-rule:evenodd;clip-rule:evenodd;fill:none;}
	.st3{fill:none;stroke:#FFFFFF;stroke-width:0.75;stroke-miterlimit:10;}
	.st4{opacity:0.45;fill-rule:evenodd;clip-rule:evenodd;fill:#FFFFFF;}
	.st5{fill-rule:evenodd;clip-rule:evenodd;fill:#FFCE00;}
	.st6{fill:none;stroke:#FFFFFF;stroke-width:0.5;stroke-miterlimit:10;}
	.st7{fill:none;stroke:#FFFFFF;stroke-miterlimit:10;}
	.st8{opacity:0.5;fill:none;stroke:#FFFFFF;stroke-linecap:round;stroke-linejoin:round;stroke-miterlimit:10;}
	.st9{fill:none;}
	.st10{fill-rule:evenodd;clip-rule:evenodd;fill:#FFFFFF;}
	.st11{fill:#1000FF;}
	.st12{fill-rule:evenodd;clip-rule:evenodd;fill:#1000FF;}
	.st13{fill:url(#SVGID_1_);}
	.st14{fill:url(#SVGID_00000134927948689050172140000014838480688693979568_);}
	.st15{fill:#FF0000;}
	.st16{fill:url(#SVGID_00000089560583405031319310000010195439226045388433_);}
	.st17{fill:url(#SVGID_00000174604365280978658600000009124328333945311660_);}
	.st18{opacity:0.7;fill-rule:evenodd;clip-rule:evenodd;fill:url(#SVGID_00000005956010429063185270000007180139596170759100_);}
	.st19{fill:#FF8888;}
	.st20{opacity:0.7;fill:#2E2923;}
	.st21{opacity:0.7;}
	.st22{opacity:0.7;fill-rule:evenodd;clip-rule:evenodd;fill:url(#SVGID_00000061439722907865077820000018129223407127015861_);}
	.st23{fill:#FFEFAB;}
	.st24{opacity:0.7;fill:#303030;}
	.st25{fill:#FFFFFF;}
	.st26{opacity:0.7;fill-rule:evenodd;clip-rule:evenodd;fill:url(#SVGID_00000141430499205414224720000011195074525615672966_);}
	.st27{opacity:0.5;fill-rule:evenodd;clip-rule:evenodd;fill:#FFFFFF;}
	.st28{opacity:0.7;fill-rule:evenodd;clip-rule:evenodd;fill:url(#SVGID_00000011722114761877337780000001491663391957505939_);}
	.st29{fill:url(#SVGID_00000175281251767686997320000011023262126957263517_);}
	.st30{fill:url(#SVGID_00000021101656619953784800000010791965455376611225_);}
	.st31{fill:url(#SVGID_00000025433071647451039260000018170609166355900036_);}
	.st32{fill:url(#SVGID_00000079454306736582815050000009823591678889928102_);}
	.st33{fill:url(#SVGID_00000052790296674295750540000017805507027075685305_);}
	.st34{fill:url(#SVGID_00000025430681856361258100000010180197222902845582_);}
	.st35{fill:url(#SVGID_00000087374070428772044250000010808309968216126107_);}
	.st36{fill:url(#SVGID_00000101810315826677099220000011870206112847375533_);}
	.st37{fill:url(#SVGID_00000085935361636035399090000008342536503155079824_);}
	.st38{fill:url(#SVGID_00000089556626079091390750000007515302613017816978_);}
	.st39{opacity:0.3;}
	.st40{fill:#F7D418;}
	.st41{fill:#2E2923;}
	.st42{fill:#29333F;}
	.st43{fill:#B9BBBC;}
	.st44{fill:#FFC200;}
	.st45{fill:url(#SVGID_00000114058455191085943370000016124524688443297211_);}
	.st46{fill:url(#SVGID_00000033364139640514630860000014847382798561905067_);}
	.st47{fill:url(#SVGID_00000134236477017502400750000009573917575169838235_);}
	.st48{fill:url(#SVGID_00000176761352027920048850000001654410210082515126_);}
	.st49{fill:#FFFFFE;}
	.st50{opacity:0.7;fill-rule:evenodd;clip-rule:evenodd;fill:url(#SVGID_00000028288944667221205460000016826356827317133234_);}
	.st51{opacity:0.7;fill-rule:evenodd;clip-rule:evenodd;fill:url(#SVGID_00000003785185088729736930000010450794176251623615_);}
	.st52{opacity:0.7;fill-rule:evenodd;clip-rule:evenodd;fill:url(#SVGID_00000015322295647954153390000008148368732345235084_);}
	.st53{opacity:0.7;fill-rule:evenodd;clip-rule:evenodd;fill:url(#SVGID_00000000930128921016150220000015460143023021809796_);}
	.st54{opacity:0.7;fill-rule:evenodd;clip-rule:evenodd;fill:url(#SVGID_00000047055771379442905210000003703506907747166365_);}
	.st55{opacity:0.7;fill-rule:evenodd;clip-rule:evenodd;fill:url(#SVGID_00000157999508959336112840000002936099846394103705_);}
	.st56{fill-rule:evenodd;clip-rule:evenodd;fill:url(#SVGID_00000085232042664843418640000002441481247064519853_);}
	.st57{fill-rule:evenodd;clip-rule:evenodd;fill:url(#SVGID_00000107569473469765335000000015502682388997288592_);}
	.st58{fill:#FFCE00;}
	.st59{fill:#303030;}
	.st60{fill-rule:evenodd;clip-rule:evenodd;fill:url(#SVGID_00000177460038296637831100000013484909845483616167_);}
	.st61{fill-rule:evenodd;clip-rule:evenodd;fill:url(#SVGID_00000002351180739165743090000003294193763331542155_);}
	.st62{fill-rule:evenodd;clip-rule:evenodd;fill:url(#SVGID_00000180327804629341005060000000860914823706974383_);}
	.st63{fill:url(#SVGID_00000018940416369313562410000015993744965901667006_);}
	.st64{fill:url(#SVGID_00000110459523605212468510000016613736848493293708_);}
	.st65{fill:url(#SVGID_00000018921253149536359430000015435240338921120385_);}
	.st66{fill:url(#SVGID_00000183938986813369472030000010159995385327232432_);}
	.st67{fill-rule:evenodd;clip-rule:evenodd;fill:#FF0000;}
	.st68{fill-rule:evenodd;clip-rule:evenodd;fill:none;stroke:#FF0000;stroke-width:0.75;stroke-miterlimit:10;}
	.st69{fill:none;stroke:#FF0000;stroke-miterlimit:10;}
	.st70{fill:none;stroke:#FFCE00;stroke-width:0.75;stroke-miterlimit:10;}
	.st71{fill:none;stroke:#FFCE00;stroke-miterlimit:10;}
	.st72{fill:url(#SVGID_00000170275486273295197230000016502803545956287397_);}
	.st73{fill:url(#SVGID_00000085960709123853876060000005747375677167522693_);}
	.st74{fill:url(#SVGID_00000134946179885330005970000017206264697003163296_);}
	.st75{fill:url(#SVGID_00000063617974583641539670000015030347886892802955_);}
	.st76{fill:url(#SVGID_00000089575947654296408200000007849399392662914192_);}
	.st77{fill:url(#SVGID_00000129204620920570942560000017105469294424255917_);}
	.st78{fill:url(#SVGID_00000004535262231541357190000018326693513750799028_);}
	.st79{fill:url(#SVGID_00000013153824975640706810000016614496328559603127_);}
	.st80{fill:url(#SVGID_00000145042427881548921950000007060030322410186634_);}
	.st81{fill:url(#SVGID_00000090975761709954376070000012231605134689717387_);}
	.st82{fill:url(#SVGID_00000142137464430971037300000010388953294155030425_);}
	.st83{fill:url(#SVGID_00000149373836622637019610000000872644129013282460_);}
	.st84{fill:url(#SVGID_00000067226354183629846950000010479352657756863413_);}
	.st85{fill:url(#SVGID_00000132060575199731754180000000115188849003500709_);}
	.st86{fill:url(#SVGID_00000008128709524697512290000010528355022190261120_);}
	.st87{fill:url(#SVGID_00000010271990367399549640000018187910029429765777_);}
	.st88{fill:url(#SVGID_00000014602261014876103890000015018028537146112148_);}
	.st89{fill:url(#SVGID_00000011021232093756947900000017496142961847858079_);}
	.st90{fill:url(#SVGID_00000104697163310249343990000002345448661395045787_);}
	.st91{fill:url(#SVGID_00000027583876003355930430000016031585302019627688_);}
	.st92{fill:url(#SVGID_00000028319137658443462880000004692876437848827523_);}
	.st93{fill:url(#SVGID_00000012444696726724861750000008037036064455202733_);}
	.st94{fill:url(#SVGID_00000052088089561096779460000012326335042471612555_);}
	.st95{fill-rule:evenodd;clip-rule:evenodd;fill:none;stroke:#FFFFFF;stroke-width:0.5;stroke-miterlimit:10;}
</style>
<g>
	<g>
		<path class="st67" d="M27.47,6.41l-25.01,0c-1.23,0-2.23-0.79-2.23-1.75l0-2.6c0-0.97,1-1.75,2.23-1.75l25.01,0
			c1.23,0,2.23,0.79,2.23,1.75v2.6C29.7,5.62,28.7,6.41,27.47,6.41L27.47,6.41z M14.96,5.7c-1.65,0-2.99-1.05-2.99-2.35
			S13.32,1,14.96,1c1.65,0,2.99,1.05,2.99,2.35S16.61,5.7,14.96,5.7z M26.6,5h-4.32c-0.17,0-0.31-0.11-0.31-0.24
			c0-0.13,0.14-0.24,0.31-0.24h4.32c0.17,0,0.31,0.11,0.31,0.24C26.91,4.89,26.77,5,26.6,5z M26.6,3.59h-4.32
			c-0.17,0-0.31-0.11-0.31-0.24c0-0.13,0.14-0.24,0.31-0.24l4.32,0c0.17,0,0.31,0.11,0.31,0.24C26.91,3.48,26.77,3.59,26.6,3.59z
			 M26.6,2.19h-4.32c-0.17,0-0.31-0.11-0.31-0.24c0-0.13,0.14-0.24,0.31-0.24h4.32c0.17,0,0.31,0.11,0.31,0.24
			C26.91,2.08,26.77,2.19,26.6,2.19z M7.64,5H3.33C3.16,5,3.02,4.89,3.02,4.76c0-0.13,0.14-0.24,0.31-0.24h4.32
			c0.17,0,0.31,0.11,0.31,0.24C7.95,4.89,7.81,5,7.64,5L7.64,5z M7.64,3.59H3.33c-0.17,0-0.31-0.11-0.31-0.24
			c0-0.13,0.14-0.24,0.31-0.24h4.32c0.17,0,0.31,0.11,0.31,0.24C7.95,3.48,7.81,3.59,7.64,3.59L7.64,3.59z M7.64,2.19l-4.32,0
			c-0.17,0-0.31-0.11-0.31-0.24c0-0.13,0.14-0.24,0.31-0.24l4.32,0c0.17,0,0.31,0.11,0.31,0.24C7.95,2.08,7.81,2.19,7.64,2.19
			L7.64,2.19z"/>
		<path class="st67" d="M25.03,12.7H4.9c-0.54,0-0.99-0.35-0.99-0.77V11c0-0.43,0.44-0.77,0.99-0.77l20.13,0
			c0.54,0,0.99,0.35,0.99,0.77v0.92C26.02,12.35,25.57,12.7,25.03,12.7z"/>
		<path class="st67" d="M24.33,10.71c-0.04,0-0.08-0.01-0.12-0.02c-0.16-0.05-0.23-0.19-0.17-0.31l2.22-4.3
			c0.06-0.12,0.24-0.18,0.4-0.13c0.16,0.05,0.23,0.19,0.17,0.31l-2.22,4.3C24.57,10.65,24.45,10.71,24.33,10.71L24.33,10.71z
			 M5.6,10.71c-0.12,0-0.24-0.06-0.28-0.15L3.1,6.26C3.03,6.13,3.11,5.99,3.26,5.94c0.16-0.05,0.34,0.01,0.4,0.13l2.22,4.3
			c0.06,0.12-0.01,0.26-0.17,0.31C5.68,10.7,5.64,10.71,5.6,10.71L5.6,10.71z"/>
		<path class="st67" d="M5.6,10.95c-0.25,0-0.47-0.12-0.57-0.3l-2.22-4.3C2.68,6.1,2.84,5.82,3.15,5.72c0.31-0.1,0.67,0.02,0.8,0.27
			l2.22,4.3c0.13,0.25-0.03,0.53-0.34,0.63C5.76,10.94,5.68,10.95,5.6,10.95L5.6,10.95z M8.72,10.95c-0.28,0-0.52-0.15-0.59-0.36
			l-1.48-4.3C6.56,6.04,6.75,5.77,7.08,5.7c0.33-0.07,0.67,0.08,0.75,0.34l1.48,4.3c0.09,0.26-0.11,0.52-0.43,0.59
			C8.83,10.94,8.77,10.95,8.72,10.95L8.72,10.95z M11.84,10.95c-0.31,0-0.57-0.18-0.61-0.42l-0.74-4.3
			c-0.05-0.26,0.19-0.51,0.53-0.54c0.34-0.04,0.65,0.15,0.69,0.41l0.74,4.3c0.05,0.26-0.19,0.51-0.53,0.54
			C11.87,10.95,11.9,10.95,11.84,10.95L11.84,10.95z M14.96,10.95c-0.34,0-0.61-0.22-0.61-0.48v-4.3c0-0.27,0.27-0.48,0.61-0.48
			c0.34,0,0.61,0.22,0.61,0.48v4.3C15.58,10.73,15.3,10.95,14.96,10.95z M18.09,10.95c-0.06,0-0.03,0-0.08,0
			c-0.34-0.04-0.57-0.28-0.53-0.54l0.74-4.3c0.05-0.26,0.36-0.45,0.69-0.41c0.34,0.04,0.57,0.28,0.53,0.54l-0.74,4.3
			C18.65,10.77,18.39,10.95,18.09,10.95z M21.21,10.95c-0.05,0-0.11-0.01-0.16-0.02c-0.33-0.07-0.52-0.34-0.43-0.59l1.48-4.3
			c0.09-0.26,0.43-0.41,0.75-0.34c0.33,0.07,0.52,0.34,0.43,0.59l-1.48,4.3C21.73,10.8,21.49,10.95,21.21,10.95L21.21,10.95z
			 M24.33,10.95c-0.08,0-0.16-0.01-0.23-0.04c-0.31-0.1-0.46-0.38-0.34-0.63l2.22-4.3c0.13-0.25,0.49-0.37,0.8-0.27
			c0.31,0.1,0.46,0.38,0.34,0.63l-2.22,4.3C24.81,10.83,24.58,10.95,24.33,10.95L24.33,10.95z"/>
		<path class="st67" d="M14.96,17.51c-2.26,0-4.43-0.51-6.09-1.44c-1.39-0.78-2.33-1.78-2.72-2.89h17.63
			c-0.39,1.11-1.33,2.11-2.72,2.89C19.39,16.99,17.23,17.51,14.96,17.51L14.96,17.51z"/>
		<path class="st67" d="M14.96,5.22c1.31,0,2.38-0.84,2.38-1.87s-1.07-1.87-2.38-1.87s-2.38,0.84-2.38,1.87S13.65,5.22,14.96,5.22z"
			/>
	</g>
	<path class="st15" d="M25.99,18.27c0.6-0.77,1.88-1.01,2.86-0.54c0.98,0.47,1.29,1.48,0.68,2.25c-3.14,4.01-8.58,6.41-14.57,6.41
		c-5.99,0-11.43-2.4-14.57-6.41c-0.21-0.27-0.31-0.56-0.31-0.85c0-0.55,0.35-1.09,0.99-1.39c0.98-0.47,2.26-0.23,2.86,0.54
		c2.37,3.04,6.49,4.85,11.02,4.85C19.49,23.12,23.62,21.31,25.99,18.27L25.99,18.27z M25.99,18.27"/>
</g>
</svg>
