<?xml version="1.0" encoding="utf-8"?>
<!-- Generator: Adobe Illustrator 26.5.0, SVG Export Plug-In . SVG Version: 6.00 Build 0)  -->
<svg version="1.1" id="Layer_1" xmlns="http://www.w3.org/2000/svg" xmlns:xlink="http://www.w3.org/1999/xlink" x="0px" y="0px"
	 viewBox="0 0 33.38 39.81" style="enable-background:new 0 0 33.38 39.81;" xml:space="preserve">
<style type="text/css">
	.st0{opacity:0.5;}
	.st1{fill-rule:evenodd;clip-rule:evenodd;fill:none;stroke:#FFFFFF;stroke-width:0.75;stroke-miterlimit:10;}
	.st2{fill-rule:evenodd;clip-rule:evenodd;fill:none;}
	.st3{fill:none;stroke:#FFFFFF;stroke-width:0.75;stroke-miterlimit:10;}
	.st4{opacity:0.45;fill-rule:evenodd;clip-rule:evenodd;fill:#FFFFFF;}
	.st5{fill-rule:evenodd;clip-rule:evenodd;fill:#FFCE00;}
	.st6{fill:none;stroke:#FFFFFF;stroke-width:0.5;stroke-miterlimit:10;}
	.st7{fill:none;stroke:#FFFFFF;stroke-miterlimit:10;}
	.st8{opacity:0.5;fill:none;stroke:#FFFFFF;stroke-linecap:round;stroke-linejoin:round;stroke-miterlimit:10;}
	.st9{fill:none;}
	.st10{fill-rule:evenodd;clip-rule:evenodd;fill:#FFFFFF;}
	.st11{fill:#1000FF;}
	.st12{fill-rule:evenodd;clip-rule:evenodd;fill:#1000FF;}
	.st13{fill:url(#SVGID_1_);}
	.st14{fill:url(#SVGID_00000180335010127539034450000016444022272124373943_);}
	.st15{fill:#FF0000;}
	.st16{fill:url(#SVGID_00000093892837359473764120000012507173490825552063_);}
	.st17{fill:url(#SVGID_00000137811739931419959050000011231739189911198900_);}
	.st18{opacity:0.7;fill-rule:evenodd;clip-rule:evenodd;fill:url(#SVGID_00000114754834282034816220000016531611440540948117_);}
	.st19{fill:#FF8888;}
	.st20{opacity:0.7;fill:#2E2923;}
	.st21{opacity:0.7;}
	.st22{opacity:0.7;fill-rule:evenodd;clip-rule:evenodd;fill:url(#SVGID_00000080185717640489730300000010920038584758059682_);}
	.st23{fill:#FFEFAB;}
	.st24{opacity:0.7;fill:#303030;}
	.st25{fill:#FFFFFF;}
	.st26{opacity:0.7;fill-rule:evenodd;clip-rule:evenodd;fill:url(#SVGID_00000041266093004986511960000013944508825415300530_);}
	.st27{opacity:0.5;fill-rule:evenodd;clip-rule:evenodd;fill:#FFFFFF;}
	.st28{opacity:0.7;fill-rule:evenodd;clip-rule:evenodd;fill:url(#SVGID_00000109019161026811497670000004945881028495235494_);}
	.st29{fill:url(#SVGID_00000122718852112827759160000001453423678658794906_);}
	.st30{fill:url(#SVGID_00000018947879621355019060000015645423415921813635_);}
	.st31{fill:url(#SVGID_00000153670453112908921160000002302624181667498654_);}
	.st32{fill:url(#SVGID_00000168112047523962413700000004164140801746050196_);}
	.st33{fill:url(#SVGID_00000002346353170459850740000006039949694576880545_);}
	.st34{fill:url(#SVGID_00000047738893114452684370000005286939198844217745_);}
	.st35{fill:url(#SVGID_00000158720675249891358410000015991289328794989713_);}
	.st36{fill:url(#SVGID_00000018946864149186156850000001387683670487231374_);}
	.st37{fill:url(#SVGID_00000097492872521558510730000012690982244247429017_);}
	.st38{fill:url(#SVGID_00000142884494156942171600000010774650679180924558_);}
	.st39{opacity:0.3;}
	.st40{fill:#F7D418;}
	.st41{fill:#2E2923;}
	.st42{fill:#29333F;}
	.st43{fill:#B9BBBC;}
	.st44{fill:#FFC200;}
	.st45{fill:url(#SVGID_00000155848810175001398580000010867232675059666851_);}
	.st46{fill:url(#SVGID_00000010305198565855802660000010134876140330143410_);}
	.st47{fill:url(#SVGID_00000027592269062004755580000004031755889949080253_);}
	.st48{fill:url(#SVGID_00000067935726105706598260000012777695293683561393_);}
	.st49{fill:#FFFFFE;}
	.st50{opacity:0.7;fill-rule:evenodd;clip-rule:evenodd;fill:url(#SVGID_00000037692916499683974620000002715214527377927096_);}
	.st51{opacity:0.7;fill-rule:evenodd;clip-rule:evenodd;fill:url(#SVGID_00000047742720377533515330000012009240253203954581_);}
	.st52{opacity:0.7;fill-rule:evenodd;clip-rule:evenodd;fill:url(#SVGID_00000053533130012005090200000012183254151884033932_);}
	.st53{opacity:0.7;fill-rule:evenodd;clip-rule:evenodd;fill:url(#SVGID_00000063596806313337151360000017140718618958613174_);}
	.st54{opacity:0.7;fill-rule:evenodd;clip-rule:evenodd;fill:url(#SVGID_00000005243058491488279380000000411434745291443387_);}
	.st55{opacity:0.7;fill-rule:evenodd;clip-rule:evenodd;fill:url(#SVGID_00000160889163315333495430000005151286771543846559_);}
	.st56{fill-rule:evenodd;clip-rule:evenodd;fill:url(#SVGID_00000029038861811931835600000015550403014295615929_);}
	.st57{fill-rule:evenodd;clip-rule:evenodd;fill:url(#SVGID_00000083078661738239610120000006326465657328102067_);}
	.st58{fill:#FFCE00;}
	.st59{fill:#303030;}
	.st60{fill-rule:evenodd;clip-rule:evenodd;fill:url(#SVGID_00000152945297433751396330000002061218910747143093_);}
	.st61{fill-rule:evenodd;clip-rule:evenodd;fill:url(#SVGID_00000016775273719317488360000006366331671183377291_);}
	.st62{fill-rule:evenodd;clip-rule:evenodd;fill:url(#SVGID_00000123443575224980964790000006317009894471882161_);}
	.st63{fill:url(#SVGID_00000132067853000821103120000016027082239656709802_);}
	.st64{fill:url(#SVGID_00000173876919348983384900000016453688403359808901_);}
	.st65{fill:url(#SVGID_00000094614996620378922640000001742318607622982316_);}
	.st66{fill:url(#SVGID_00000133487520819317965340000000551911651752340101_);}
	.st67{fill-rule:evenodd;clip-rule:evenodd;fill:#FF0000;}
	.st68{fill-rule:evenodd;clip-rule:evenodd;fill:none;stroke:#FF0000;stroke-width:0.75;stroke-miterlimit:10;}
	.st69{fill:none;stroke:#FF0000;stroke-miterlimit:10;}
	.st70{fill:none;stroke:#FFCE00;stroke-width:0.75;stroke-miterlimit:10;}
	.st71{fill:none;stroke:#FFCE00;stroke-miterlimit:10;}
	.st72{fill:url(#SVGID_00000104700965637321736890000017857911277373927851_);}
	.st73{fill:url(#SVGID_00000095328775043301736050000001132418345462657699_);}
	.st74{fill:url(#SVGID_00000065033599457659953470000004744643087693356448_);}
	.st75{fill:url(#SVGID_00000018200057268386835350000012548874853917485479_);}
	.st76{fill:url(#SVGID_00000021818807700972047700000018289544334808617880_);}
	.st77{fill:url(#SVGID_00000054973219186109616140000013486737548561122178_);}
	.st78{fill:url(#SVGID_00000150088068984000742040000009266535998512027033_);}
	.st79{fill:url(#SVGID_00000102546312150117775490000001728071608347713445_);}
	.st80{fill:url(#SVGID_00000038405792015349213600000013210801652478085762_);}
	.st81{fill:url(#SVGID_00000018946017165838434350000000661941858802149563_);}
	.st82{fill:url(#SVGID_00000129888158614619561130000016124275044606923148_);}
	.st83{fill:url(#SVGID_00000042012726404704097830000000163163031210193853_);}
	.st84{fill:url(#SVGID_00000111161882720388129670000008242914864660053635_);}
	.st85{fill:url(#SVGID_00000017505425485893733210000017457997196391783052_);}
	.st86{fill:url(#SVGID_00000180364812022624974790000005595541010445045673_);}
	.st87{fill:url(#SVGID_00000023963501386088267650000005969049906594625977_);}
	.st88{fill:url(#SVGID_00000164514976741809064930000008854194732335301289_);}
	.st89{fill:url(#SVGID_00000146475281278536263310000005848780963849596348_);}
	.st90{fill:url(#SVGID_00000163794664176711208000000005357595958582414724_);}
	.st91{fill:url(#SVGID_00000119834516705047096130000011291711037622456510_);}
	.st92{fill:url(#SVGID_00000091733961966127986980000006174014306774774923_);}
	.st93{fill:url(#SVGID_00000154419772156615668910000002252241007756363918_);}
	.st94{fill:url(#SVGID_00000127746906104025462880000001624146252440608386_);}
	.st95{fill-rule:evenodd;clip-rule:evenodd;fill:none;stroke:#FFFFFF;stroke-width:0.5;stroke-miterlimit:10;}
</style>
<g>
	<path class="st71" d="M13.37,5.19l0,29.42c0,2.48,2.01,4.49,4.49,4.49h1.27l0-38.39l-1.27,0C15.38,0.71,13.37,2.72,13.37,5.19z"/>
	<path class="st71" d="M0.89,19.91c0,0.18,0.05,0.37,0.16,0.53c0.12,0.17,1.18,1.71,2.79,1.71c1,0,1.89-0.57,2.65-1.71
		c0.21-0.32,0.63-0.85,1.05-0.85c0.46,0,1.01,0.58,1.2,0.86c0.3,0.44,0.89,0.55,1.33,0.26c0.44-0.3,0.56-0.89,0.26-1.33
		c-0.12-0.17-1.18-1.71-2.79-1.71c-1,0-1.89,0.57-2.65,1.71c-0.21,0.32-0.63,0.85-1.05,0.85c-0.46,0-1.01-0.58-1.2-0.86
		c-0.3-0.44-0.89-0.55-1.33-0.26C1.04,19.3,0.89,19.6,0.89,19.91z"/>
	<path class="st71" d="M0.89,10.31c0,0.18,0.05,0.37,0.16,0.53c0.12,0.17,1.18,1.71,2.79,1.71c1,0,1.89-0.57,2.65-1.71
		c0.21-0.32,0.63-0.85,1.05-0.85c0.46,0,1.01,0.58,1.2,0.86c0.3,0.44,0.89,0.55,1.33,0.26c0.44-0.3,0.56-0.89,0.26-1.33
		C10.21,9.6,9.14,8.07,7.54,8.07c-1,0-1.89,0.57-2.65,1.71c-0.21,0.32-0.63,0.85-1.05,0.85c-0.46,0-1.01-0.58-1.2-0.86
		c-0.3-0.44-0.89-0.55-1.33-0.26C1.04,9.7,0.89,10,0.89,10.31z"/>
	<path class="st71" d="M0.89,29.5c0,0.18,0.05,0.37,0.16,0.53c0.12,0.17,1.18,1.71,2.79,1.71c1,0,1.89-0.57,2.65-1.71
		c0.21-0.32,0.63-0.85,1.05-0.85c0.46,0,1.01,0.58,1.2,0.86c0.3,0.44,0.89,0.55,1.33,0.26c0.44-0.3,0.56-0.89,0.26-1.33
		c-0.12-0.17-1.18-1.71-2.79-1.71c-1,0-1.89,0.57-2.65,1.71c-0.21,0.32-0.63,0.85-1.05,0.85c-0.46,0-1.01-0.58-1.2-0.86
		c-0.3-0.44-0.89-0.55-1.33-0.26C1.04,28.89,0.89,29.19,0.89,29.5z"/>
	<path class="st71" d="M20.08,0.71l6.72,0c3.18,0,5.76,2.58,5.76,5.76l0,26.87c0,3.18-2.58,5.76-5.76,5.76h-6.72V0.71z M29.68,7.43
		c0-1.59-1.29-2.88-2.88-2.88s-2.88,1.29-2.88,2.88s1.29,2.88,2.88,2.88S29.68,9.02,29.68,7.43z"/>
</g>
</svg>
