<?xml version="1.0" encoding="utf-8"?>
<!-- Generator: Adobe Illustrator 27.0.0, SVG Export Plug-In . SVG Version: 6.00 Build 0)  -->
<svg version="1.1" id="Layer_1" xmlns="http://www.w3.org/2000/svg" xmlns:xlink="http://www.w3.org/1999/xlink" x="0px" y="0px"
	 viewBox="0 0 55 40" style="enable-background:new 0 0 55 40;" xml:space="preserve">
<style type="text/css">
	.st0{fill:#FFFFFF;}
	.st1{font-family:'Prompt-Regular';}
	.st2{font-size:12px;}
	.st3{fill-rule:evenodd;clip-rule:evenodd;fill:#FF0000;}
	.st4{fill:#FF0000;}
</style>
<g>
	<g>
		<g>
			<text transform="matrix(0.9821 0 0 1 0.4897 33.141)" class="st0 st1 st2">Connected</text>
		</g>
	</g>
	<g id="_223812384_00000060001587069788112330000001751898952302101430_">
		<path id="_223813104_00000127730973251383447360000017532734424242938001_" class="st0" d="M23.01,6.33
			c-0.95,0.95-1.6,2.2-1.8,3.59c0.17-0.01,0.68-0.06,1.06-0.1c-0.48,0.48-0.96,0.96-1.43,1.43c-0.48-0.48-0.96-0.96-1.43-1.43
			c0.27,0.03,0.77,0.07,1.18,0.11c0.2-1.57,0.92-2.97,1.99-4.03c2.72-2.72,7.13-2.72,9.86,0c1.06,1.06,1.78,2.47,1.99,4.03
			c0.41-0.04,0.91-0.08,1.18-0.11c-0.48,0.48-0.96,0.96-1.43,1.43c-0.48-0.48-0.96-0.96-1.43-1.43c0.38,0.04,0.89,0.08,1.06,0.1
			c-0.2-1.39-0.85-2.64-1.8-3.59C29.51,3.85,25.49,3.85,23.01,6.33L23.01,6.33z"/>
		<g>
			<g>
				<path id="_223813344_00000028317611959588029600000010880133721483283585_" class="st0" d="M36.18,20.18
					c0,1.7,1.89,0.01,1.89,1.9c-0.77,0-3.75,0-4.52,0c0-1.89,1.89-0.11,1.89-1.9C35.69,20.18,35.93,20.18,36.18,20.18L36.18,20.18z"
					/>
				<path id="_223813416_00000046318960504079917280000006790479466190342027_" class="st0" d="M29.73,12.81h12.17
					c0.2,0,0.37,0.16,0.37,0.37v7c0,0.2-0.16,0.37-0.37,0.37H29.73c-0.2,0-0.37-0.16-0.37-0.37v-7
					C29.36,12.98,29.52,12.81,29.73,12.81L29.73,12.81z M30.03,13.49v6.39h11.55v-6.39L30.03,13.49L30.03,13.49z"/>
			</g>
			<g>
				<path id="_223812216_00000173861962015568073540000011120606262619634085_" class="st0" d="M19.56,20.18
					c0,1.7,1.89,0.01,1.89,1.9c-0.77,0-3.75,0-4.52,0c0-1.89,1.89-0.11,1.89-1.9C19.07,20.18,19.31,20.18,19.56,20.18L19.56,20.18z"
					/>
				<path id="_223812192_00000165950118858209256220000005880646420167225497_" class="st0" d="M13.11,12.81h12.17
					c0.2,0,0.37,0.16,0.37,0.37v7c0,0.2-0.16,0.37-0.37,0.37H13.11c-0.2,0-0.37-0.16-0.37-0.37v-7
					C12.74,12.98,12.9,12.81,13.11,12.81L13.11,12.81z M13.41,13.49v6.39h11.55v-6.39L13.41,13.49L13.41,13.49z"/>
			</g>
		</g>
	</g>
</g>
</svg>
