<?xml version="1.0" encoding="utf-8"?>
<!-- Generator: Adobe Illustrator 26.5.0, SVG Export Plug-In . SVG Version: 6.00 Build 0)  -->
<svg version="1.1" id="Layer_1" xmlns="http://www.w3.org/2000/svg" xmlns:xlink="http://www.w3.org/1999/xlink" x="0px" y="0px"
	 viewBox="0 0 23.91 20.58" style="enable-background:new 0 0 23.91 20.58;" xml:space="preserve">
<style type="text/css">
	.st0{opacity:0.5;}
	.st1{fill-rule:evenodd;clip-rule:evenodd;fill:none;stroke:#FFFFFF;stroke-width:0.75;stroke-miterlimit:10;}
	.st2{fill-rule:evenodd;clip-rule:evenodd;fill:none;}
	.st3{fill:none;stroke:#FFFFFF;stroke-width:0.75;stroke-miterlimit:10;}
	.st4{opacity:0.45;fill-rule:evenodd;clip-rule:evenodd;fill:#FFFFFF;}
	.st5{fill-rule:evenodd;clip-rule:evenodd;fill:#FFCE00;}
	.st6{fill:none;stroke:#FFFFFF;stroke-width:0.5;stroke-miterlimit:10;}
	.st7{fill:none;stroke:#FFFFFF;stroke-miterlimit:10;}
	.st8{opacity:0.5;fill:none;stroke:#FFFFFF;stroke-linecap:round;stroke-linejoin:round;stroke-miterlimit:10;}
	.st9{fill:none;}
	.st10{fill-rule:evenodd;clip-rule:evenodd;fill:#FFFFFF;}
	.st11{fill:#1000FF;}
	.st12{fill-rule:evenodd;clip-rule:evenodd;fill:#1000FF;}
	.st13{fill:url(#SVGID_1_);}
	.st14{fill:url(#SVGID_00000119101118729885365420000013607796054654510777_);}
	.st15{fill:#FF0000;}
	.st16{fill:url(#SVGID_00000036949957909786713590000006996507495648988302_);}
	.st17{fill:url(#SVGID_00000003086746448738781900000008322695259387250561_);}
	.st18{opacity:0.7;fill-rule:evenodd;clip-rule:evenodd;fill:url(#SVGID_00000160912814337404858130000002154572098571669407_);}
	.st19{fill:#FF8888;}
	.st20{opacity:0.7;fill:#2E2923;}
	.st21{opacity:0.7;}
	.st22{opacity:0.7;fill-rule:evenodd;clip-rule:evenodd;fill:url(#SVGID_00000098205711247316745690000002449097093278742144_);}
	.st23{fill:#FFEFAB;}
	.st24{opacity:0.7;fill:#303030;}
	.st25{fill:#FFFFFF;}
	.st26{opacity:0.7;fill-rule:evenodd;clip-rule:evenodd;fill:url(#SVGID_00000147212028314362008150000006794298721089800110_);}
	.st27{opacity:0.5;fill-rule:evenodd;clip-rule:evenodd;fill:#FFFFFF;}
	.st28{opacity:0.7;fill-rule:evenodd;clip-rule:evenodd;fill:url(#SVGID_00000108266694665358873210000002598831192414057401_);}
	.st29{fill:url(#SVGID_00000183232736883536243870000012841941120097807282_);}
	.st30{fill:url(#SVGID_00000149361295636114980850000012734681697582574011_);}
	.st31{fill:url(#SVGID_00000093137098984648474040000018406641193837675166_);}
	.st32{fill:url(#SVGID_00000079451199365971715150000006777487673556271544_);}
	.st33{fill:url(#SVGID_00000116937075501588975600000002891485197783596184_);}
	.st34{fill:url(#SVGID_00000127754089520234986790000001337331299725474441_);}
	.st35{fill:url(#SVGID_00000014630743042811434400000001832873099433491853_);}
	.st36{fill:url(#SVGID_00000069391759866129832260000018341198697850974902_);}
	.st37{fill:url(#SVGID_00000107563322158428086770000016814239279099536816_);}
	.st38{fill:url(#SVGID_00000041989821452914550580000010121045690013570705_);}
	.st39{opacity:0.3;}
	.st40{fill:#F7D418;}
	.st41{fill:#2E2923;}
	.st42{fill:#29333F;}
	.st43{fill:#B9BBBC;}
	.st44{fill:#FFC200;}
	.st45{fill:url(#SVGID_00000164485334936756611880000009476060040378227876_);}
	.st46{fill:url(#SVGID_00000013192178913438834140000006222084487453383594_);}
	.st47{fill:url(#SVGID_00000027594058285660896250000017664965358595202177_);}
	.st48{fill:url(#SVGID_00000013879507733010028640000009003289184062568614_);}
	.st49{fill:#FFFFFE;}
	.st50{opacity:0.7;fill-rule:evenodd;clip-rule:evenodd;fill:url(#SVGID_00000099628544964913099530000011713015547348673419_);}
	.st51{opacity:0.7;fill-rule:evenodd;clip-rule:evenodd;fill:url(#SVGID_00000068640466448523394950000004087409595640132537_);}
	.st52{opacity:0.7;fill-rule:evenodd;clip-rule:evenodd;fill:url(#SVGID_00000113355519059373596790000012108834169371327148_);}
	.st53{opacity:0.7;fill-rule:evenodd;clip-rule:evenodd;fill:url(#SVGID_00000075123724543187115650000005389901561969135751_);}
	.st54{opacity:0.7;fill-rule:evenodd;clip-rule:evenodd;fill:url(#SVGID_00000124152959767311114460000004124767311730678694_);}
	.st55{opacity:0.7;fill-rule:evenodd;clip-rule:evenodd;fill:url(#SVGID_00000178176187301599928560000012052425542866348426_);}
	.st56{fill-rule:evenodd;clip-rule:evenodd;fill:url(#SVGID_00000099658709593715468490000008709758327456836015_);}
	.st57{fill-rule:evenodd;clip-rule:evenodd;fill:url(#SVGID_00000023244364280056911310000015961738758840784003_);}
	.st58{fill:#FFCE00;}
	.st59{fill:#303030;}
	.st60{fill-rule:evenodd;clip-rule:evenodd;fill:url(#SVGID_00000030444985637935079470000002455630385277093764_);}
	.st61{fill-rule:evenodd;clip-rule:evenodd;fill:url(#SVGID_00000127724653020073269490000010241935400045945008_);}
	.st62{fill-rule:evenodd;clip-rule:evenodd;fill:url(#SVGID_00000177462258693750159830000015495106556693151143_);}
	.st63{fill:url(#SVGID_00000056393738010391929580000007510250847971568023_);}
	.st64{fill:url(#SVGID_00000036213592768672386930000014292274764007099545_);}
	.st65{fill:url(#SVGID_00000137840799533743554030000012784013548968083364_);}
	.st66{fill:url(#SVGID_00000085235467890397280760000005089260307047528629_);}
	.st67{fill-rule:evenodd;clip-rule:evenodd;fill:#FF0000;}
	.st68{fill-rule:evenodd;clip-rule:evenodd;fill:none;stroke:#FF0000;stroke-width:0.75;stroke-miterlimit:10;}
	.st69{fill:none;stroke:#FF0000;stroke-miterlimit:10;}
	.st70{fill:none;stroke:#FFCE00;stroke-width:0.75;stroke-miterlimit:10;}
	.st71{fill:none;stroke:#FFCE00;stroke-miterlimit:10;}
	.st72{fill:url(#SVGID_00000155863655959606776980000014377329074042273465_);}
	.st73{fill:url(#SVGID_00000174565153497846504160000014676813728939901630_);}
	.st74{fill:url(#SVGID_00000114048937077044153410000014876844555746954371_);}
	.st75{fill:url(#SVGID_00000111159528722274893110000003735419756596302483_);}
	.st76{fill:url(#SVGID_00000031190053932242944180000010302714419036575654_);}
	.st77{fill:url(#SVGID_00000002353361282483410320000001026419337129669037_);}
	.st78{fill:url(#SVGID_00000069381639626592323990000012487644480790169746_);}
	.st79{fill:url(#SVGID_00000029752462852757320730000015937147823746614671_);}
	.st80{fill:url(#SVGID_00000176742776235112583290000016928751926554143903_);}
	.st81{fill:url(#SVGID_00000147219173685130787690000006469994064644573330_);}
	.st82{fill:url(#SVGID_00000075148858335828385660000010897386660205766833_);}
	.st83{fill:url(#SVGID_00000003794479292097856010000013381691570209310893_);}
	.st84{fill:url(#SVGID_00000083050905619470555030000013002548738296462209_);}
	.st85{fill:url(#SVGID_00000128466841355411129570000006990522933879172483_);}
	.st86{fill:url(#SVGID_00000136370802247589663450000005547844339385257096_);}
	.st87{fill:url(#SVGID_00000108994254798408809200000014510002424318119597_);}
	.st88{fill:url(#SVGID_00000177458930753931721430000009220937916231307679_);}
	.st89{fill:url(#SVGID_00000025417255817910912830000016841075043889780132_);}
	.st90{fill:url(#SVGID_00000120531000154668332230000000344406188300790170_);}
	.st91{fill:url(#SVGID_00000064350071433566688580000000451179458724499611_);}
	.st92{fill:url(#SVGID_00000074423425358243135420000012665973295739401632_);}
	.st93{fill:url(#SVGID_00000114034593287146684380000010134889757989732004_);}
	.st94{fill:url(#SVGID_00000142167518792094553300000012584238615752891839_);}
	.st95{fill-rule:evenodd;clip-rule:evenodd;fill:none;stroke:#FFFFFF;stroke-width:0.5;stroke-miterlimit:10;}
</style>
<path class="st5" d="M18.28,20.34H5.59c-0.46,0-0.85-0.39-0.85-0.85v-1.13c0-0.92,0.67-1.69,1.55-1.83l0-4.97
	c0-3.1,2.54-5.6,5.64-5.6c3.1,0,5.64,2.5,5.64,5.6v4.97c0.88,0.14,1.52,0.92,1.52,1.83v1.13C19.09,19.95,18.74,20.34,18.28,20.34
	L18.28,20.34z M6.65,17.2c-0.63,0-1.16,0.53-1.16,1.16v1.13c0,0.07,0.07,0.14,0.14,0.14h12.69c0.04,0,0.11-0.07,0.11-0.14v-1.13
	c0-0.63-0.53-1.16-1.13-1.16H6.65L6.65,17.2z M7.04,16.5h9.87v-4.93c0-2.71-2.22-4.9-4.93-4.9c-2.71,0-4.93,2.19-4.93,4.9V16.5
	L7.04,16.5z M23.21,12.23h-2.29c-0.21,0-0.35-0.14-0.35-0.35c0-0.21,0.14-0.35,0.35-0.35h2.29c0.21,0,0.35,0.14,0.35,0.35
	C23.57,12.09,23.43,12.23,23.21,12.23L23.21,12.23z M2.98,12.23H0.69c-0.21,0-0.35-0.14-0.35-0.35c0-0.21,0.14-0.35,0.35-0.35h2.29
	c0.21,0,0.35,0.14,0.35,0.35C3.33,12.09,3.16,12.23,2.98,12.23L2.98,12.23z M7.92,11.91c-0.21,0-0.35-0.14-0.35-0.35
	c0-1.9,1.2-3.56,3-4.16c0.18-0.07,0.39,0.04,0.46,0.21c0.07,0.18-0.04,0.39-0.21,0.46c-1.52,0.49-2.54,1.9-2.54,3.49
	C8.27,11.77,8.09,11.91,7.92,11.91L7.92,11.91z M18.28,5.89c-0.11,0-0.18-0.04-0.25-0.11c-0.14-0.14-0.14-0.35,0-0.49l1.62-1.62
	c0.14-0.14,0.35-0.14,0.49,0c0.14,0.14,0.14,0.35,0,0.49l-1.62,1.62C18.49,5.85,18.39,5.89,18.28,5.89L18.28,5.89z M5.59,5.89
	c-0.11,0-0.18-0.04-0.25-0.11L3.72,4.16c-0.14-0.14-0.14-0.35,0-0.49c0.14-0.14,0.35-0.14,0.49,0l1.62,1.62
	c0.14,0.14,0.14,0.35,0,0.49C5.8,5.85,5.7,5.89,5.59,5.89L5.59,5.89z M11.94,3.24c-0.21,0-0.35-0.14-0.35-0.35V0.6
	c0-0.21,0.14-0.35,0.35-0.35c0.21,0,0.35,0.14,0.35,0.35v2.29C12.29,3.1,12.15,3.24,11.94,3.24L11.94,3.24z"/>
</svg>
