<?xml version="1.0" encoding="utf-8"?>
<!-- Generator: Adobe Illustrator 26.5.0, SVG Export Plug-In . SVG Version: 6.00 Build 0)  -->
<svg version="1.1" id="Layer_1" xmlns="http://www.w3.org/2000/svg" xmlns:xlink="http://www.w3.org/1999/xlink" x="0px" y="0px"
	 viewBox="0 0 30.36 22.79" style="enable-background:new 0 0 30.36 22.79;" xml:space="preserve">
<style type="text/css">
	.st0{opacity:0.5;}
	.st1{fill-rule:evenodd;clip-rule:evenodd;fill:none;stroke:#FFFFFF;stroke-width:0.75;stroke-miterlimit:10;}
	.st2{fill-rule:evenodd;clip-rule:evenodd;fill:none;}
	.st3{fill:none;stroke:#FFFFFF;stroke-width:0.75;stroke-miterlimit:10;}
	.st4{opacity:0.45;fill-rule:evenodd;clip-rule:evenodd;fill:#FFFFFF;}
	.st5{fill-rule:evenodd;clip-rule:evenodd;fill:#FFCE00;}
	.st6{fill:none;stroke:#FFFFFF;stroke-width:0.5;stroke-miterlimit:10;}
	.st7{fill:none;stroke:#FFFFFF;stroke-miterlimit:10;}
	.st8{opacity:0.5;fill:none;stroke:#FFFFFF;stroke-linecap:round;stroke-linejoin:round;stroke-miterlimit:10;}
	.st9{fill:none;}
	.st10{fill-rule:evenodd;clip-rule:evenodd;fill:#FFFFFF;}
	.st11{fill:#1000FF;}
	.st12{fill-rule:evenodd;clip-rule:evenodd;fill:#1000FF;}
	.st13{fill:url(#SVGID_1_);}
	.st14{fill:url(#SVGID_00000136392837262792077980000016902463416132666556_);}
	.st15{fill:#FF0000;}
	.st16{fill:url(#SVGID_00000078005910474499021500000008871909236775483025_);}
	.st17{fill:url(#SVGID_00000161625519627494090580000017926070979559879046_);}
	.st18{opacity:0.7;fill-rule:evenodd;clip-rule:evenodd;fill:url(#SVGID_00000047041730359144978900000005757273848527492741_);}
	.st19{fill:#FF8888;}
	.st20{opacity:0.7;fill:#2E2923;}
	.st21{opacity:0.7;}
	.st22{opacity:0.7;fill-rule:evenodd;clip-rule:evenodd;fill:url(#SVGID_00000110457087421716451700000008125333733831100322_);}
	.st23{fill:#FFEFAB;}
	.st24{opacity:0.7;fill:#303030;}
	.st25{fill:#FFFFFF;}
	.st26{opacity:0.7;fill-rule:evenodd;clip-rule:evenodd;fill:url(#SVGID_00000015339160292543109700000018073614437405690789_);}
	.st27{opacity:0.5;fill-rule:evenodd;clip-rule:evenodd;fill:#FFFFFF;}
	.st28{opacity:0.7;fill-rule:evenodd;clip-rule:evenodd;fill:url(#SVGID_00000129199588960877562140000004317352309184619914_);}
	.st29{fill:url(#SVGID_00000137823138920408230390000017118024064240547260_);}
	.st30{fill:url(#SVGID_00000168835228775799939510000003189865326623648942_);}
	.st31{fill:url(#SVGID_00000022552549535088904540000005532198452134659495_);}
	.st32{fill:url(#SVGID_00000001650246243441207510000009771583250095361415_);}
	.st33{fill:url(#SVGID_00000163768259046806479650000009008888042185328543_);}
	.st34{fill:url(#SVGID_00000018937689977759901940000007332545683424257963_);}
	.st35{fill:url(#SVGID_00000055679944733158346050000001829949608421061301_);}
	.st36{fill:url(#SVGID_00000122719908183080821160000003660461203739445947_);}
	.st37{fill:url(#SVGID_00000001660586019908846450000015960096185725435807_);}
	.st38{fill:url(#SVGID_00000103974183456168327010000011252349832461893251_);}
	.st39{opacity:0.3;}
	.st40{fill:#F7D418;}
	.st41{fill:#2E2923;}
	.st42{fill:#29333F;}
	.st43{fill:#B9BBBC;}
	.st44{fill:#FFC200;}
	.st45{fill:url(#SVGID_00000151513204435630472740000009995935617927476125_);}
	.st46{fill:url(#SVGID_00000131345237867021968100000014313543832364036769_);}
	.st47{fill:url(#SVGID_00000109720492837403122690000000817613695552147887_);}
	.st48{fill:url(#SVGID_00000066494219729887119910000018052022381952592792_);}
	.st49{fill:#FFFFFE;}
	.st50{opacity:0.7;fill-rule:evenodd;clip-rule:evenodd;fill:url(#SVGID_00000157301738492770941500000000263413351134125219_);}
	.st51{opacity:0.7;fill-rule:evenodd;clip-rule:evenodd;fill:url(#SVGID_00000101084459686430224950000010823771737761695636_);}
	.st52{opacity:0.7;fill-rule:evenodd;clip-rule:evenodd;fill:url(#SVGID_00000016798393826247161070000015847997687283320219_);}
	.st53{opacity:0.7;fill-rule:evenodd;clip-rule:evenodd;fill:url(#SVGID_00000024695336496504243650000000761291204856544649_);}
	.st54{opacity:0.7;fill-rule:evenodd;clip-rule:evenodd;fill:url(#SVGID_00000067918548868041514820000016380568661007995008_);}
	.st55{opacity:0.7;fill-rule:evenodd;clip-rule:evenodd;fill:url(#SVGID_00000052797387230068158580000015478573068747078280_);}
	.st56{fill-rule:evenodd;clip-rule:evenodd;fill:url(#SVGID_00000174599132738887982550000010666936478310355379_);}
	.st57{fill-rule:evenodd;clip-rule:evenodd;fill:url(#SVGID_00000003807284655138567080000005478437906466450571_);}
	.st58{fill:#FFCE00;}
	.st59{fill:#303030;}
	.st60{fill-rule:evenodd;clip-rule:evenodd;fill:url(#SVGID_00000105396579640298435760000013257738489401294473_);}
	.st61{fill-rule:evenodd;clip-rule:evenodd;fill:url(#SVGID_00000182505928793337555630000009498012925546179495_);}
	.st62{fill-rule:evenodd;clip-rule:evenodd;fill:url(#SVGID_00000127743264097020262540000014002079891805995408_);}
	.st63{fill:url(#SVGID_00000153669628838103472640000013726588805673749903_);}
	.st64{fill:url(#SVGID_00000016764306248141449690000005816565011960873898_);}
	.st65{fill:url(#SVGID_00000085969293051913107670000002033432053671445679_);}
	.st66{fill:url(#SVGID_00000102502700611927028510000016208315198046460829_);}
	.st67{fill-rule:evenodd;clip-rule:evenodd;fill:#FF0000;}
	.st68{fill-rule:evenodd;clip-rule:evenodd;fill:none;stroke:#FF0000;stroke-width:0.75;stroke-miterlimit:10;}
	.st69{fill:none;stroke:#FF0000;stroke-miterlimit:10;}
	.st70{fill:none;stroke:#FFCE00;stroke-width:0.75;stroke-miterlimit:10;}
	.st71{fill:none;stroke:#FFCE00;stroke-miterlimit:10;}
	.st72{fill:url(#SVGID_00000039092139358244838690000000965499620385720486_);}
	.st73{fill:url(#SVGID_00000031905081351855586190000016071167858429684408_);}
	.st74{fill:url(#SVGID_00000173144619788782381090000002016323910599677323_);}
	.st75{fill:url(#SVGID_00000034785852939050410210000017513704553977481608_);}
	.st76{fill:url(#SVGID_00000019669578879728159770000004669108685600590218_);}
	.st77{fill:url(#SVGID_00000138566407819701324690000008021913501689065122_);}
	.st78{fill:url(#SVGID_00000038409801041849906340000011733072325523256974_);}
	.st79{fill:url(#SVGID_00000142142363592866296110000012710239629887081627_);}
	.st80{fill:url(#SVGID_00000052090385461038721200000004838072587251868060_);}
	.st81{fill:url(#SVGID_00000147905576213773111960000017322089881363121287_);}
	.st82{fill:url(#SVGID_00000141438481086943010460000016141323707835776661_);}
	.st83{fill:url(#SVGID_00000121986715377296650590000003916277766845807541_);}
	.st84{fill:url(#SVGID_00000018923759252156159460000009100462002761788594_);}
	.st85{fill:url(#SVGID_00000155123311121978808370000002082821776515513529_);}
	.st86{fill:url(#SVGID_00000005229390725206532150000012319351552341505936_);}
	.st87{fill:url(#SVGID_00000072995297684459968110000004199660446269844650_);}
	.st88{fill:url(#SVGID_00000071542041300866687140000004058797671580566972_);}
	.st89{fill:url(#SVGID_00000070839568851030838480000010419997420389468315_);}
	.st90{fill:url(#SVGID_00000165232161142472338120000012030887702135491998_);}
	.st91{fill:url(#SVGID_00000035506699185013949980000008170894205271862169_);}
	.st92{fill:url(#SVGID_00000093857152624073183180000006449401110405592192_);}
	.st93{fill:url(#SVGID_00000098199218879442294170000013959127266838113464_);}
	.st94{fill:url(#SVGID_00000044154761339484316210000009881761898374362507_);}
	.st95{fill-rule:evenodd;clip-rule:evenodd;fill:none;stroke:#FFFFFF;stroke-width:0.5;stroke-miterlimit:10;}
</style>
<g>
	<path class="st67" d="M27.91,14.63H2.45c-1.25,0-2.27,1.02-2.27,2.27v3.37c0,1.25,1.02,2.27,2.27,2.27h25.46
		c1.25,0,2.27-1.02,2.27-2.27V16.9C30.18,15.64,29.16,14.63,27.91,14.63L27.91,14.63z M15.18,15.54c-1.68,0-3.05,1.37-3.05,3.05
		c0,1.68,1.37,3.05,3.05,3.05s3.05-1.37,3.05-3.05C18.22,16.91,16.86,15.54,15.18,15.54z M27.02,16.45h-4.4
		c-0.17,0-0.31,0.14-0.31,0.31c0,0.17,0.14,0.31,0.31,0.31h4.4c0.17,0,0.31-0.14,0.31-0.31C27.34,16.59,27.2,16.45,27.02,16.45z
		 M27.02,18.27h-4.4c-0.17,0-0.31,0.14-0.31,0.31c0,0.17,0.14,0.31,0.31,0.31h4.4c0.17,0,0.31-0.14,0.31-0.31
		C27.34,18.41,27.2,18.27,27.02,18.27z M27.02,20.09h-4.4c-0.17,0-0.31,0.14-0.31,0.31s0.14,0.31,0.31,0.31h4.4
		c0.17,0,0.31-0.14,0.31-0.31C27.34,20.23,27.2,20.09,27.02,20.09z M7.73,16.45h-4.4c-0.17,0-0.31,0.14-0.31,0.31
		c0,0.17,0.14,0.31,0.31,0.31h4.4c0.17,0,0.31-0.14,0.31-0.31C8.04,16.59,7.9,16.45,7.73,16.45L7.73,16.45z M7.73,18.27h-4.4
		c-0.17,0-0.31,0.14-0.31,0.31c0,0.17,0.14,0.31,0.31,0.31h4.4c0.17,0,0.31-0.14,0.31-0.31C8.04,18.41,7.9,18.27,7.73,18.27
		L7.73,18.27z M7.73,20.09h-4.4c-0.17,0-0.31,0.14-0.31,0.31s0.14,0.31,0.31,0.31h4.4c0.17,0,0.31-0.14,0.31-0.31
		C8.04,20.23,7.9,20.09,7.73,20.09L7.73,20.09z"/>
	<path class="st67" d="M25.42,6.48H4.94c-0.55,0-1,0.45-1,1v1.19c0,0.55,0.45,1,1,1h20.49c0.55,0,1-0.45,1-1V7.48
		C26.43,6.93,25.98,6.48,25.42,6.48z"/>
	<path class="st67" d="M24.71,9.05c-0.04,0-0.08,0.01-0.12,0.02c-0.16,0.07-0.24,0.25-0.17,0.41l2.26,5.58
		c0.07,0.16,0.25,0.24,0.41,0.17c0.16-0.07,0.24-0.25,0.17-0.41L25,9.25C24.95,9.13,24.84,9.05,24.71,9.05L24.71,9.05z M5.64,9.05
		c-0.12,0-0.24,0.07-0.29,0.2L3.1,14.82c-0.07,0.16,0.01,0.34,0.17,0.41c0.16,0.07,0.34-0.01,0.41-0.17l2.26-5.58
		C6,9.32,5.92,9.14,5.76,9.07C5.72,9.06,5.68,9.05,5.64,9.05L5.64,9.05z"/>
	<path class="st67" d="M5.64,8.74c-0.25,0-0.48,0.15-0.58,0.39L2.81,14.7c-0.13,0.32,0.03,0.68,0.34,0.81
		c0.32,0.13,0.68-0.03,0.81-0.34L6.22,9.6C6.35,9.28,6.2,8.91,5.88,8.78C5.8,8.75,5.72,8.74,5.64,8.74L5.64,8.74z M8.82,8.74
		c-0.28,0-0.53,0.19-0.6,0.46l-1.51,5.57c-0.09,0.33,0.11,0.68,0.44,0.77c0.33,0.09,0.68-0.11,0.77-0.44l1.51-5.58
		c0.09-0.33-0.11-0.68-0.44-0.77C8.93,8.75,8.88,8.74,8.82,8.74L8.82,8.74z M12,8.74c-0.31,0-0.58,0.23-0.62,0.54l-0.75,5.57
		c-0.05,0.34,0.19,0.66,0.54,0.7c0.34,0.05,0.66-0.19,0.7-0.54l0.75-5.57c0.05-0.34-0.19-0.66-0.54-0.7
		C12.03,8.74,12.05,8.74,12,8.74L12,8.74z M15.18,8.74c-0.34,0-0.63,0.28-0.63,0.63v5.57c0,0.34,0.28,0.63,0.63,0.63
		s0.63-0.28,0.63-0.63V9.36C15.8,9.02,15.52,8.74,15.18,8.74z M18.36,8.74c-0.06,0-0.03,0-0.08,0.01c-0.34,0.05-0.58,0.36-0.54,0.7
		l0.75,5.57c0.05,0.34,0.36,0.58,0.7,0.54c0.34-0.05,0.58-0.36,0.54-0.7l-0.75-5.57C18.93,8.97,18.67,8.74,18.36,8.74z M21.53,8.74
		c-0.06,0-0.11,0.01-0.16,0.02c-0.33,0.09-0.53,0.43-0.44,0.77l1.51,5.58c0.09,0.33,0.43,0.53,0.77,0.44
		c0.33-0.09,0.53-0.43,0.44-0.77L22.14,9.2C22.06,8.93,21.82,8.74,21.53,8.74L21.53,8.74z M24.71,8.74c-0.08,0-0.16,0.02-0.23,0.05
		C24.16,8.91,24,9.28,24.13,9.6l2.26,5.58c0.13,0.32,0.5,0.47,0.81,0.34c0.32-0.13,0.47-0.5,0.34-0.81l-2.26-5.57
		C25.2,8.89,24.97,8.74,24.71,8.74L24.71,8.74z"/>
	<path class="st67" d="M15.18,0.25c-2.3,0-4.51,0.66-6.2,1.87c-1.42,1-2.38,2.31-2.77,3.74h17.95c-0.4-1.43-1.36-2.74-2.77-3.74
		C19.68,0.91,17.48,0.25,15.18,0.25L15.18,0.25z"/>
	<path class="st67" d="M15.18,16.16c1.33,0,2.42,1.09,2.42,2.42c0,1.33-1.09,2.42-2.42,2.42s-2.42-1.09-2.42-2.42
		C12.76,17.25,13.84,16.16,15.18,16.16z"/>
</g>
</svg>
