<?xml version="1.0" encoding="utf-8"?>
<!-- Generator: Adobe Illustrator 26.5.0, SVG Export Plug-In . SVG Version: 6.00 Build 0)  -->
<svg version="1.1" id="Layer_1" xmlns="http://www.w3.org/2000/svg" xmlns:xlink="http://www.w3.org/1999/xlink" x="0px" y="0px"
	 viewBox="0 0 19 27" style="enable-background:new 0 0 19 27;" xml:space="preserve">
<style type="text/css">
	.st0{fill:none;stroke:#F7EA08;stroke-width:0.75;stroke-miterlimit:10;}
</style>
<g>
	<path class="st0" d="M5.7,6.9h7.6c0.1,0,0.3-0.1,0.3-0.3V5.8c0-0.2-0.1-0.3-0.3-0.3H5.7c-0.2,0-0.3,0.1-0.3,0.3v0.8
		C5.4,6.8,5.6,6.9,5.7,6.9z"/>
	<path class="st0" d="M5.7,4.8h7.6c0.1,0,0.3-0.1,0.3-0.3V3.7c0-0.2-0.1-0.3-0.3-0.3H5.7c-0.2,0-0.3,0.1-0.3,0.3v0.8
		C5.4,4.7,5.6,4.8,5.7,4.8z"/>
	<path class="st0" d="M6.1,2.7V1.9c0-1.4,1.6-1.4,1.6-1.4h1.8h1.9c0,0,1.6,0,1.6,1.4v0.9L6.1,2.7L6.1,2.7z"/>
	<path class="st0" d="M13,16.6L10.9,16l-1.3,1.5l-0.1,0.1l-0.1-0.1l0,0L8.1,16L6,16.6c0-0.1,0-0.2,0-0.3l2-5V7.8h2.9v3.5l2,5
		C13,16.4,13,16.6,13,16.6z"/>
	<path class="st0" d="M9.5,26.5c-5,0-9-4-9-9c0-3.3,1.7-6.1,4.3-7.7l0,0c0.6-0.5,1-1.3,1.1-2h1.4v3.4l-2,4.9c-0.1,0.2-0.3,0.7,0,1.1
		c0.1,0.2,0.3,0.3,0.6,0.3H6l1.9-0.6L8.8,18c0.1,0.1,0.4,0.4,0.7,0.4s0.6-0.3,0.7-0.4l0.9-1.1l1.9,0.6h0.1c0.2,0,0.4-0.1,0.6-0.3
		c0.2-0.4,0.1-0.9,0-1.1l-2-4.9V7.8h1.4c0.1,0.7,0.5,1.5,1.1,2l0,0c2.6,1.6,4.3,4.4,4.3,7.7C18.5,22.5,14.5,26.5,9.5,26.5z"/>
	<path class="st0" d="M5.7,6.9h7.6c0.1,0,0.3-0.1,0.3-0.3V5.8c0-0.2-0.1-0.3-0.3-0.3H5.7c-0.2,0-0.3,0.1-0.3,0.3v0.8
		C5.4,6.8,5.6,6.9,5.7,6.9z"/>
	<path class="st0" d="M5.7,4.8h7.6c0.1,0,0.3-0.1,0.3-0.3V3.7c0-0.2-0.1-0.3-0.3-0.3H5.7c-0.2,0-0.3,0.1-0.3,0.3v0.8
		C5.4,4.7,5.6,4.8,5.7,4.8z"/>
</g>
</svg>
