<?xml version="1.0" encoding="utf-8"?>
<!-- Generator: Adobe Illustrator 26.5.0, SVG Export Plug-In . SVG Version: 6.00 Build 0)  -->
<svg version="1.1" id="Layer_1" xmlns="http://www.w3.org/2000/svg" xmlns:xlink="http://www.w3.org/1999/xlink" x="0px" y="0px"
	 viewBox="0 0 19 27" style="enable-background:new 0 0 19 27;" xml:space="preserve">
<style type="text/css">
	.st0{opacity:0.5;}
	.st1{fill-rule:evenodd;clip-rule:evenodd;fill:none;stroke:#FFFFFF;stroke-width:0.75;stroke-miterlimit:10;}
	.st2{fill-rule:evenodd;clip-rule:evenodd;fill:none;}
	.st3{fill:none;stroke:#FFFFFF;stroke-width:0.75;stroke-miterlimit:10;}
	.st4{opacity:0.45;fill-rule:evenodd;clip-rule:evenodd;fill:#FFFFFF;}
	.st5{fill-rule:evenodd;clip-rule:evenodd;fill:#FFCE00;}
	.st6{fill:none;stroke:#FFFFFF;stroke-width:0.7498;stroke-miterlimit:10;}
	.st7{fill:none;stroke:#FFFFFF;stroke-miterlimit:10;}
	.st8{opacity:0.5;fill:none;stroke:#FFFFFF;stroke-linecap:round;stroke-linejoin:round;stroke-miterlimit:10;}
	.st9{fill:none;}
	.st10{fill-rule:evenodd;clip-rule:evenodd;fill:#FFFFFF;}
	.st11{fill:#1000FF;}
	.st12{fill-rule:evenodd;clip-rule:evenodd;fill:#1000FF;}
	.st13{fill:url(#SVGID_1_);}
	.st14{fill:url(#SVGID_00000160178752000579934260000003346811542522040983_);}
	.st15{fill:#FF0000;}
	.st16{fill:url(#SVGID_00000015322144721067444090000006253918580295178910_);}
	.st17{fill:url(#SVGID_00000100378368689873644770000012505704640893613198_);}
	.st18{opacity:0.7;fill-rule:evenodd;clip-rule:evenodd;fill:url(#SVGID_00000079463046076387638520000008652001050684850048_);}
	.st19{fill:#FF8888;}
	.st20{opacity:0.7;fill:#2E2923;}
	.st21{opacity:0.7;}
	.st22{opacity:0.7;fill-rule:evenodd;clip-rule:evenodd;fill:url(#SVGID_00000020372814662013378150000005018719207253572267_);}
	.st23{fill:#FFEFAB;}
	.st24{opacity:0.7;fill:#303030;}
	.st25{fill:#FFFFFF;}
	.st26{opacity:0.7;fill-rule:evenodd;clip-rule:evenodd;fill:url(#SVGID_00000152246378616478668150000003591194486845742743_);}
	.st27{opacity:0.5;fill-rule:evenodd;clip-rule:evenodd;fill:#FFFFFF;}
	.st28{opacity:0.7;fill-rule:evenodd;clip-rule:evenodd;fill:url(#SVGID_00000124849451402726040170000009904316271641603973_);}
	.st29{fill:url(#SVGID_00000147221017552480257530000015190183660529287562_);}
	.st30{fill:url(#SVGID_00000011016755023680292510000016948947168417460121_);}
	.st31{fill:url(#SVGID_00000141424630830943705660000005555439451689042581_);}
	.st32{fill:url(#SVGID_00000096748242839185329520000008439627451072622013_);}
	.st33{fill:url(#SVGID_00000006684939949862163980000009878475965686281092_);}
	.st34{fill:url(#SVGID_00000120524925738172416340000014672573451949722040_);}
	.st35{fill:url(#SVGID_00000084517424458412422700000000303554449196295060_);}
	.st36{fill:url(#SVGID_00000101794634180863241940000005118505914900610220_);}
	.st37{fill:url(#SVGID_00000140015570985665814670000004578349805315269777_);}
	.st38{fill:url(#SVGID_00000067208676337309395640000016887570679689261962_);}
	.st39{opacity:0.3;}
	.st40{fill:#F7D418;}
	.st41{fill:#2E2923;}
	.st42{fill:#29333F;}
	.st43{fill:#B9BBBC;}
	.st44{fill:#FFC200;}
	.st45{fill:url(#SVGID_00000183949039119277677330000005938255920242150537_);}
	.st46{fill:url(#SVGID_00000093176495167330159890000000154342059940325045_);}
	.st47{fill:url(#SVGID_00000132784379011342939390000001734105248558596259_);}
	.st48{fill:url(#SVGID_00000087401666618808936450000006717568681896413861_);}
	.st49{fill:#FFFFFE;}
	.st50{opacity:0.7;fill-rule:evenodd;clip-rule:evenodd;fill:url(#SVGID_00000093874185790047811480000000569801726882922913_);}
	.st51{opacity:0.7;fill-rule:evenodd;clip-rule:evenodd;fill:url(#SVGID_00000091708642127179770120000006408305521957156252_);}
	.st52{opacity:0.7;fill-rule:evenodd;clip-rule:evenodd;fill:url(#SVGID_00000090275779199699167620000001596959618561218439_);}
	.st53{opacity:0.7;fill-rule:evenodd;clip-rule:evenodd;fill:url(#SVGID_00000145035059210540631370000002655581555348854207_);}
	.st54{opacity:0.7;fill-rule:evenodd;clip-rule:evenodd;fill:url(#SVGID_00000016770635392540305470000015843241014690952323_);}
	.st55{opacity:0.7;fill-rule:evenodd;clip-rule:evenodd;fill:url(#SVGID_00000039134035373305726910000002785350753879039887_);}
	.st56{fill-rule:evenodd;clip-rule:evenodd;fill:url(#SVGID_00000021089836382810628360000004221003658228726424_);}
	.st57{fill-rule:evenodd;clip-rule:evenodd;fill:url(#SVGID_00000040532607579300768500000014080053764971004037_);}
	.st58{fill:#FFCE00;}
	.st59{fill:#303030;}
	.st60{fill-rule:evenodd;clip-rule:evenodd;fill:url(#SVGID_00000111161394294770598980000009382975375630996609_);}
	.st61{fill-rule:evenodd;clip-rule:evenodd;fill:url(#SVGID_00000005266736433159247500000003048272583910391979_);}
	.st62{fill-rule:evenodd;clip-rule:evenodd;fill:url(#SVGID_00000106136633534643455810000008804652938074502282_);}
	.st63{fill:url(#SVGID_00000101092135129389825820000008723265680961057705_);}
	.st64{fill:url(#SVGID_00000019653114276382952730000017049100287936207766_);}
	.st65{fill:url(#SVGID_00000151515731226061672890000016132522708647455896_);}
	.st66{fill:url(#SVGID_00000031899508558123384390000008612121674593690763_);}
	.st67{fill-rule:evenodd;clip-rule:evenodd;fill:#FF0000;}
	.st68{fill-rule:evenodd;clip-rule:evenodd;fill:none;stroke:#FF0000;stroke-width:0.75;stroke-miterlimit:10;}
	.st69{fill:none;stroke:#FF0000;stroke-miterlimit:10;}
	.st70{fill:none;stroke:#FFCE00;stroke-width:0.75;stroke-miterlimit:10;}
	.st71{fill:none;stroke:#FFCE00;stroke-miterlimit:10;}
	.st72{fill:url(#SVGID_00000138552138091871649070000007922538837973430690_);}
	.st73{fill:url(#SVGID_00000054256375831690358150000014829230013264812977_);}
	.st74{fill:url(#SVGID_00000166660228216264569250000004585576519758953864_);}
	.st75{fill:url(#SVGID_00000062902342183235399420000009378810441608316070_);}
	.st76{fill:url(#SVGID_00000146486818785346231500000007722696433446867619_);}
	.st77{fill:url(#SVGID_00000123407922465008724410000013594135259228447400_);}
</style>
<g class="st0">
	<path class="st6" d="M5.72,6.9h7.57c0.15,0,0.28-0.12,0.28-0.28V5.8c0-0.15-0.12-0.28-0.28-0.28H5.72c-0.15,0-0.28,0.12-0.28,0.28
		v0.83C5.44,6.78,5.56,6.9,5.72,6.9z"/>
	<path class="st6" d="M5.72,4.77h7.57c0.15,0,0.28-0.12,0.28-0.28V3.67c0-0.15-0.12-0.28-0.28-0.28H5.72
		c-0.15,0-0.28,0.12-0.28,0.28v0.83C5.44,4.65,5.56,4.77,5.72,4.77z"/>
	<path class="st6" d="M6.09,2.69V1.85c0-1.38,1.56-1.35,1.56-1.35H9.5h1.85c0,0,1.56-0.04,1.56,1.35v0.85H6.09z"/>
	<path class="st6" d="M13.03,16.65l-2.14-0.69l-1.28,1.49c-0.03,0.04-0.08,0.09-0.11,0.12c-0.04-0.03-0.08-0.08-0.11-0.12
		l-0.02-0.03l-1.26-1.46l-2.14,0.69c0.01-0.1,0.05-0.24,0.08-0.33l2.02-4.98V7.8h2.85v3.54l2.02,4.98
		C12.99,16.43,13.02,16.56,13.03,16.65z"/>
	<path class="st6" d="M9.5,26.5c-4.97,0-9-4.03-9-9c0-3.27,1.74-6.12,4.34-7.7v0C5.49,9.32,5.81,8.47,5.96,7.8h1.38v3.39l-1.97,4.85
		c-0.07,0.17-0.27,0.74-0.02,1.11c0.12,0.18,0.31,0.27,0.55,0.27h0.06l1.91-0.62l0.93,1.08c0.09,0.12,0.35,0.44,0.71,0.44
		s0.62-0.32,0.71-0.44l0.93-1.08l1.91,0.62h0.06c0.23,0,0.43-0.1,0.55-0.27c0.25-0.37,0.05-0.94-0.02-1.11l-1.97-4.85V7.8h1.38
		c0.15,0.66,0.46,1.51,1.12,1.99v0c2.6,1.58,4.34,4.44,4.34,7.7C18.5,22.47,14.47,26.5,9.5,26.5z"/>
	<path class="st6" d="M5.72,6.9h7.57c0.15,0,0.28-0.12,0.28-0.28V5.8c0-0.15-0.12-0.28-0.28-0.28H5.72c-0.15,0-0.28,0.12-0.28,0.28
		v0.83C5.44,6.78,5.56,6.9,5.72,6.9z"/>
	<path class="st6" d="M5.72,4.77h7.57c0.15,0,0.28-0.12,0.28-0.28V3.67c0-0.15-0.12-0.28-0.28-0.28H5.72
		c-0.15,0-0.28,0.12-0.28,0.28v0.83C5.44,4.65,5.56,4.77,5.72,4.77z"/>
</g>
</svg>
