<?xml version="1.0" encoding="utf-8"?>
<!-- Generator: Adobe Illustrator 26.5.0, SVG Export Plug-In . SVG Version: 6.00 Build 0)  -->
<svg version="1.1" id="Layer_1" xmlns="http://www.w3.org/2000/svg" xmlns:xlink="http://www.w3.org/1999/xlink" x="0px" y="0px"
	 viewBox="0 0 19.16 27.03" style="enable-background:new 0 0 19.16 27.03;" xml:space="preserve">
<style type="text/css">
	.st0{opacity:0.5;}
	.st1{fill-rule:evenodd;clip-rule:evenodd;fill:none;stroke:#FFFFFF;stroke-width:0.75;stroke-miterlimit:10;}
	.st2{fill-rule:evenodd;clip-rule:evenodd;fill:none;}
	.st3{fill:none;stroke:#FFFFFF;stroke-width:0.75;stroke-miterlimit:10;}
	.st4{opacity:0.45;fill-rule:evenodd;clip-rule:evenodd;fill:#FFFFFF;}
	.st5{fill-rule:evenodd;clip-rule:evenodd;fill:#FFCE00;}
	.st6{fill:none;stroke:#FFFFFF;stroke-miterlimit:10;}
	.st7{opacity:0.5;fill:none;stroke:#FFFFFF;stroke-linecap:round;stroke-linejoin:round;stroke-miterlimit:10;}
	.st8{fill:none;}
	.st9{fill-rule:evenodd;clip-rule:evenodd;fill:#FFFFFF;}
	.st10{fill:url(#SVGID_1_);}
	.st11{fill:url(#SVGID_00000072971790158830813360000000538125184429629346_);}
	.st12{fill:#FF0000;}
	.st13{fill:url(#SVGID_00000136379819752317346160000001757030066960444065_);}
	.st14{fill:#1000FF;}
	.st15{fill-rule:evenodd;clip-rule:evenodd;fill:#1000FF;}
	.st16{fill:url(#SVGID_00000167391770670475861800000003768389707304738728_);}
	.st17{opacity:0.7;fill-rule:evenodd;clip-rule:evenodd;fill:url(#SVGID_00000041996163052795132350000005622877725397662357_);}
	.st18{fill:#FF8888;}
	.st19{opacity:0.7;fill:#2E2923;}
	.st20{opacity:0.7;}
	.st21{opacity:0.7;fill-rule:evenodd;clip-rule:evenodd;fill:url(#SVGID_00000065054414094905143650000000119574780056383653_);}
	.st22{fill:#FFEFAB;}
	.st23{opacity:0.7;fill:#303030;}
	.st24{fill:#FFFFFF;}
	.st25{opacity:0.7;fill-rule:evenodd;clip-rule:evenodd;fill:url(#SVGID_00000065068365178244865140000008970892763611831429_);}
	.st26{opacity:0.5;fill-rule:evenodd;clip-rule:evenodd;fill:#FFFFFF;}
	.st27{opacity:0.7;fill-rule:evenodd;clip-rule:evenodd;fill:url(#SVGID_00000088096028832412033360000008670532266198124438_);}
	.st28{fill:url(#SVGID_00000109021877807896764180000001450638101486014133_);}
	.st29{fill:url(#SVGID_00000068652858731691306640000016360160663917481104_);}
	.st30{fill:url(#SVGID_00000004520531335002525870000007495754021000484749_);}
	.st31{fill:url(#SVGID_00000024696692673725961210000004375404381166219142_);}
	.st32{fill:url(#SVGID_00000094589548750923132300000000020946321229516729_);}
	.st33{fill:url(#SVGID_00000126313794503477167320000017805233690070517377_);}
	.st34{fill:url(#SVGID_00000105413697529689203000000003600942865108479378_);}
	.st35{fill:url(#SVGID_00000103228991718948206620000007378963569647262368_);}
	.st36{fill:url(#SVGID_00000133522855330229614820000002537537779339518872_);}
	.st37{fill:url(#SVGID_00000076602567848123546080000012834906281720093316_);}
	.st38{opacity:0.3;}
	.st39{fill:#F7D418;}
	.st40{fill:#2E2923;}
	.st41{fill:#29333F;}
	.st42{fill:#B9BBBC;}
	.st43{fill:#FFC200;}
	.st44{fill:url(#SVGID_00000031915576442484539860000011224919871788519329_);}
	.st45{fill:url(#SVGID_00000181049711542568043040000007758320929080206990_);}
	.st46{fill:url(#SVGID_00000097478807420132030550000000752860377979319206_);}
	.st47{fill:url(#SVGID_00000136407694434521403310000002964842409417646734_);}
	.st48{fill:#FFFFFE;}
	.st49{opacity:0.7;fill-rule:evenodd;clip-rule:evenodd;fill:url(#SVGID_00000047026124766233308450000018316887111590642070_);}
	.st50{opacity:0.7;fill-rule:evenodd;clip-rule:evenodd;fill:url(#SVGID_00000081635030931630444430000007070033102877988001_);}
	.st51{opacity:0.7;fill-rule:evenodd;clip-rule:evenodd;fill:url(#SVGID_00000062187348065625527670000003001077677230238362_);}
	.st52{opacity:0.7;fill-rule:evenodd;clip-rule:evenodd;fill:url(#SVGID_00000167358077515904813660000012955909648523406467_);}
	.st53{opacity:0.7;fill-rule:evenodd;clip-rule:evenodd;fill:url(#SVGID_00000116195240375344704550000002429336446492627895_);}
	.st54{opacity:0.7;fill-rule:evenodd;clip-rule:evenodd;fill:url(#SVGID_00000169524575422933489960000015981991107254908310_);}
	.st55{fill-rule:evenodd;clip-rule:evenodd;fill:url(#SVGID_00000000910038480347083440000012417564068701390759_);}
	.st56{fill-rule:evenodd;clip-rule:evenodd;fill:url(#SVGID_00000062194288487685492840000002399335346341161638_);}
	.st57{fill:#FFCE00;}
	.st58{fill:#303030;}
	.st59{fill-rule:evenodd;clip-rule:evenodd;fill:url(#SVGID_00000095296945371190688550000017422674114598541480_);}
	.st60{fill-rule:evenodd;clip-rule:evenodd;fill:url(#SVGID_00000136408965743295654650000018263846365690952631_);}
	.st61{fill-rule:evenodd;clip-rule:evenodd;fill:url(#SVGID_00000003072780740216716310000003498271516551162551_);}
	.st62{fill:url(#SVGID_00000050655771596330600830000016105673528407967401_);}
	.st63{fill:url(#SVGID_00000029035308999186401850000011440533089379302573_);}
	.st64{fill:url(#SVGID_00000108270340118947914390000015673738111925662364_);}
	.st65{fill:url(#SVGID_00000058569130927503040120000013747965425167333032_);}
	.st66{fill-rule:evenodd;clip-rule:evenodd;fill:#FF0000;}
	.st67{fill-rule:evenodd;clip-rule:evenodd;fill:none;stroke:#FF0000;stroke-width:0.75;stroke-miterlimit:10;}
	.st68{fill:none;stroke:#FF0000;stroke-miterlimit:10;}
	.st69{fill:none;stroke:#FFCE00;stroke-width:0.75;stroke-miterlimit:10;}
	.st70{fill:none;stroke:#FFCE00;stroke-miterlimit:10;}
	.st71{fill:url(#SVGID_00000056418873914422345590000012156882675897844652_);}
	.st72{fill:url(#SVGID_00000057830326716128581070000001886333785156025475_);}
	.st73{fill:url(#SVGID_00000105406499962580978670000010319642846057933497_);}
	.st74{fill:url(#SVGID_00000052104789241403748590000001637146347177091713_);}
	.st75{fill:url(#SVGID_00000096758959885426268870000012042466594471728063_);}
	.st76{fill:url(#SVGID_00000016067133550031280840000006066401214758918022_);}
</style>
<g class="st0">
	<path class="st3" d="M5.82,20.08h7.57c0.15,0,0.28,0.12,0.28,0.28v0.83c0,0.15-0.12,0.28-0.28,0.28H5.82
		c-0.15,0-0.28-0.12-0.28-0.28v-0.83C5.55,20.21,5.67,20.08,5.82,20.08z"/>
	<path class="st3" d="M5.82,22.21h7.57c0.15,0,0.28,0.12,0.28,0.28v0.83c0,0.15-0.12,0.28-0.28,0.28H5.82
		c-0.15,0-0.28-0.12-0.28-0.28v-0.83C5.55,22.34,5.67,22.21,5.82,22.21z"/>
	<path class="st3" d="M6.2,24.29v0.85c0,1.38,1.56,1.35,1.56,1.35h1.85h1.85c0,0,1.56,0.04,1.56-1.35v-0.85H6.2z"/>
	<path class="st3" d="M13.14,10.33L11,11.02L9.72,9.53C9.69,9.49,9.65,9.44,9.61,9.41C9.57,9.44,9.53,9.49,9.5,9.53L9.47,9.56
		l-1.26,1.46l-2.14-0.69c0.01,0.1,0.05,0.24,0.08,0.33l2.02,4.98v3.54h2.86v-3.54l2.02-4.98C13.1,10.55,13.13,10.42,13.14,10.33z"/>
	<path class="st3" d="M9.61,0.48c-4.97,0-9,4.03-9,9c0,3.27,1.74,6.12,4.34,7.7v0c0.66,0.47,0.97,1.33,1.12,1.99h1.38v-3.39
		l-1.97-4.85c-0.07-0.17-0.27-0.74-0.02-1.11c0.12-0.18,0.31-0.27,0.55-0.27h0.06l1.91,0.62L8.9,9.09c0.09-0.12,0.35-0.44,0.71-0.44
		s0.62,0.32,0.71,0.44l0.93,1.08l1.91-0.62h0.06c0.23,0,0.43,0.1,0.55,0.27c0.25,0.37,0.05,0.94-0.02,1.11l-1.97,4.85v3.39h1.38
		c0.15-0.66,0.46-1.51,1.12-1.99v0c2.6-1.58,4.34-4.44,4.34-7.7C18.61,4.51,14.58,0.48,9.61,0.48z"/>
	<path class="st3" d="M5.82,20.08h7.57c0.15,0,0.28,0.12,0.28,0.28v0.83c0,0.15-0.12,0.28-0.28,0.28H5.82
		c-0.15,0-0.28-0.12-0.28-0.28v-0.83C5.55,20.21,5.67,20.08,5.82,20.08z"/>
	<path class="st3" d="M5.82,22.21h7.57c0.15,0,0.28,0.12,0.28,0.28v0.83c0,0.15-0.12,0.28-0.28,0.28H5.82
		c-0.15,0-0.28-0.12-0.28-0.28v-0.83C5.55,22.34,5.67,22.21,5.82,22.21z"/>
</g>
</svg>
