<?xml version="1.0" encoding="utf-8"?>
<!-- Generator: Adobe Illustrator 26.5.0, SVG Export Plug-In . SVG Version: 6.00 Build 0)  -->
<svg version="1.1" id="Layer_1" xmlns="http://www.w3.org/2000/svg" xmlns:xlink="http://www.w3.org/1999/xlink" x="0px" y="0px"
	 viewBox="0 0 19.2 27" style="enable-background:new 0 0 19.2 27;" xml:space="preserve">
<style type="text/css">
	.st0{fill:none;stroke:#F7EA08;stroke-width:0.75;stroke-miterlimit:10;}
</style>
<g>
	<path class="st0" d="M5.8,20.1h7.6c0.1,0,0.3,0.1,0.3,0.3v0.8c0,0.1-0.1,0.3-0.3,0.3H5.8c-0.2,0-0.3-0.1-0.3-0.3v-0.8
		C5.6,20.2,5.7,20.1,5.8,20.1z"/>
	<path class="st0" d="M5.8,22.2h7.6c0.1,0,0.3,0.1,0.3,0.3v0.8c0,0.1-0.1,0.3-0.3,0.3H5.8c-0.2,0-0.3-0.1-0.3-0.3v-0.8
		C5.6,22.3,5.7,22.2,5.8,22.2z"/>
	<path class="st0" d="M6.2,24.3v0.9c0,1.4,1.6,1.4,1.6,1.4h1.8h1.9c0,0,1.6,0,1.6-1.4v-0.9H6.2z"/>
	<path class="st0" d="M13.1,10.3L11,11L9.7,9.5c0,0-0.1-0.1-0.1-0.1c0,0-0.1,0.1-0.1,0.1l0,0L8.2,11l-2.1-0.7c0,0.1,0.1,0.2,0.1,0.3
		l2,5v3.5H11v-3.5l2-5C13.1,10.6,13.1,10.4,13.1,10.3z"/>
	<path class="st0" d="M9.6,0.5c-5,0-9,4-9,9c0,3.3,1.7,6.1,4.3,7.7l0,0c0.7,0.5,1,1.3,1.1,2h1.4v-3.4l-2-4.8c-0.1-0.2-0.3-0.7,0-1.1
		C5.6,9.6,5.8,9.6,6,9.6h0.1L8,10.2l0.9-1.1C9,9,9.2,8.7,9.6,8.7s0.6,0.3,0.7,0.4l0.9,1.1l1.9-0.6h0.1c0.2,0,0.4,0.1,0.6,0.3
		c0.2,0.4,0.1,0.9,0,1.1l-2,4.9v3.4h1.4c0.1-0.7,0.5-1.5,1.1-2l0,0c2.6-1.6,4.3-4.4,4.3-7.7C18.6,4.5,14.6,0.5,9.6,0.5z"/>
	<path class="st0" d="M5.8,20.1h7.6c0.1,0,0.3,0.1,0.3,0.3v0.8c0,0.1-0.1,0.3-0.3,0.3H5.8c-0.2,0-0.3-0.1-0.3-0.3v-0.8
		C5.6,20.2,5.7,20.1,5.8,20.1z"/>
	<path class="st0" d="M5.8,22.2h7.6c0.1,0,0.3,0.1,0.3,0.3v0.8c0,0.1-0.1,0.3-0.3,0.3H5.8c-0.2,0-0.3-0.1-0.3-0.3v-0.8
		C5.6,22.3,5.7,22.2,5.8,22.2z"/>
</g>
</svg>
