<?xml version="1.0" encoding="utf-8"?>
<!-- Generator: Adobe Illustrator 27.0.0, SVG Export Plug-In . SVG Version: 6.00 Build 0)  -->
<svg version="1.1" id="Layer_1" xmlns="http://www.w3.org/2000/svg" xmlns:xlink="http://www.w3.org/1999/xlink" x="0px" y="0px"
	 viewBox="0 0 95 95" style="enable-background:new 0 0 95 95;" xml:space="preserve">
<style type="text/css">
	.st0{fill-rule:evenodd;clip-rule:evenodd;fill:url(#SVGID_1_);}
	.st1{fill:#FFFFFF;}
	.st2{font-family:'Prompt-Regular';}
	.st3{font-size:10px;}
	.st4{fill:#FF0000;}
	.st5{fill:#2E2923;}
	.st6{fill:#303030;}
	.st7{font-size:22.5305px;}
	.st8{fill-rule:evenodd;clip-rule:evenodd;fill:#FFFFFF;}
</style>
<g>
	<linearGradient id="SVGID_1_" gradientUnits="userSpaceOnUse" x1="11" y1="53.25" x2="91" y2="53.25">
		<stop  offset="0" style="stop-color:#13375C"/>
		<stop  offset="1" style="stop-color:#151E37"/>
	</linearGradient>
	<path class="st0" d="M22,85.75h58c6.08,0,11-4.92,11-11v-43c0-6.08-4.92-11-11-11H22c-6.08,0-11,4.92-11,11v43
		C11,80.83,15.92,85.75,22,85.75z"/>
	<g>
		<text transform="matrix(0.9821 0 0 1 17.91 65.7686)"><tspan x="0" y="0" class="st1 st2 st3">Smoke Detector</tspan><tspan x="12.49" y="12" class="st1 st2 st3">Activated!</tspan></text>
	</g>
	<g>
		<g>
			<path class="st4" d="M29.73,34.1H6.27c-1.75,0-2.84-1.89-1.96-3.4l5.46-9.46l6.27-10.86c0.87-1.51,3.05-1.51,3.93,0l6.55,11.35
				l5.18,8.96C32.57,32.21,31.47,34.1,29.73,34.1z"/>
			<path class="st5" d="M30.82,31.2L19.09,10.89c-0.33-0.57-0.87-0.63-1.09-0.63c-0.22,0-0.76,0.06-1.09,0.63L5.18,31.2
				c-0.33,0.57-0.11,1.07,0,1.26c0.11,0.19,0.44,0.63,1.09,0.63h23.46c0.66,0,0.98-0.44,1.09-0.63
				C30.93,32.27,31.15,31.77,30.82,31.2z M30.31,32.17c-0.09,0.15-0.26,0.34-0.58,0.34H6.27c-0.32,0-0.5-0.18-0.58-0.34
				c-0.09-0.15-0.16-0.4,0-0.68l11.73-20.32c0.16-0.28,0.41-0.34,0.58-0.34c0.18,0,0.42,0.06,0.58,0.34L30.31,31.5
				C30.48,31.77,30.4,32.02,30.31,32.17z"/>
		</g>
		<g>
			<text transform="matrix(0.9821 0 0 1 15.4551 31.0223)" class="st6 st2 st7">!</text>
		</g>
	</g>
	<g>
		<path class="st8" d="M60.76,32.76H41.24c-0.96,0-1.74-0.78-1.74-1.74v-2.59c0-0.96,0.78-1.74,1.74-1.74h19.52
			c0.96,0,1.74,0.78,1.74,1.74v2.59C62.5,31.98,61.72,32.76,60.76,32.76L60.76,32.76z M51,32.06c-1.29,0-2.33-1.05-2.33-2.33
			s1.05-2.33,2.33-2.33c1.29,0,2.33,1.05,2.33,2.33S52.29,32.06,51,32.06z M60.08,31.36h-3.37c-0.13,0-0.24-0.11-0.24-0.24
			c0-0.13,0.11-0.24,0.24-0.24h3.37c0.13,0,0.24,0.11,0.24,0.24C60.32,31.25,60.21,31.36,60.08,31.36z M60.08,29.96h-3.37
			c-0.13,0-0.24-0.11-0.24-0.24c0-0.13,0.11-0.24,0.24-0.24h3.37c0.13,0,0.24,0.11,0.24,0.24C60.32,29.86,60.21,29.96,60.08,29.96z
			 M60.08,28.57h-3.37c-0.13,0-0.24-0.11-0.24-0.24c0-0.13,0.11-0.24,0.24-0.24h3.37c0.13,0,0.24,0.11,0.24,0.24
			S60.21,28.57,60.08,28.57z M45.29,31.36h-3.37c-0.13,0-0.24-0.11-0.24-0.24c0-0.13,0.11-0.24,0.24-0.24h3.37
			c0.13,0,0.24,0.11,0.24,0.24C45.53,31.25,45.42,31.36,45.29,31.36L45.29,31.36z M45.29,29.96h-3.37c-0.13,0-0.24-0.11-0.24-0.24
			c0-0.13,0.11-0.24,0.24-0.24h3.37c0.13,0,0.24,0.11,0.24,0.24C45.53,29.86,45.42,29.96,45.29,29.96L45.29,29.96z M45.29,28.57
			h-3.37c-0.13,0-0.24-0.11-0.24-0.24c0-0.13,0.11-0.24,0.24-0.24h3.37c0.13,0,0.24,0.11,0.24,0.24S45.42,28.57,45.29,28.57
			L45.29,28.57z"/>
		<path class="st8" d="M58.85,39H43.15c-0.42,0-0.77-0.35-0.77-0.77v-0.91c0-0.42,0.35-0.77,0.77-0.77h15.71
			c0.42,0,0.77,0.35,0.77,0.77v0.91C59.62,38.66,59.28,39,58.85,39z"/>
		<path class="st8" d="M58.31,37.03c-0.03,0-0.06-0.01-0.09-0.02c-0.12-0.05-0.18-0.19-0.13-0.31l1.73-4.27
			c0.05-0.12,0.19-0.18,0.31-0.13c0.12,0.05,0.18,0.19,0.13,0.31l-1.73,4.27C58.49,36.97,58.4,37.03,58.31,37.03L58.31,37.03z
			 M43.69,37.03c-0.09,0-0.18-0.06-0.22-0.15l-1.73-4.27c-0.05-0.12,0.01-0.26,0.13-0.31c0.12-0.05,0.26,0.01,0.31,0.13l1.73,4.27
			c0.05,0.12-0.01,0.26-0.13,0.31C43.75,37.03,43.72,37.03,43.69,37.03L43.69,37.03z"/>
		<path class="st8" d="M43.69,37.27c-0.2,0-0.37-0.12-0.44-0.3l-1.73-4.27c-0.1-0.24,0.02-0.52,0.26-0.62
			c0.24-0.1,0.52,0.02,0.62,0.26l1.73,4.27c0.1,0.24-0.02,0.52-0.26,0.62C43.81,37.26,43.75,37.27,43.69,37.27L43.69,37.27z
			 M46.13,37.27c-0.22,0-0.41-0.15-0.46-0.35l-1.15-4.27c-0.07-0.25,0.08-0.52,0.34-0.59c0.25-0.07,0.52,0.08,0.59,0.34l1.15,4.27
			c0.07,0.25-0.08,0.52-0.34,0.59C46.21,37.27,46.17,37.27,46.13,37.27L46.13,37.27z M48.56,37.27c-0.24,0-0.44-0.18-0.47-0.42
			l-0.58-4.27c-0.04-0.26,0.15-0.5,0.41-0.54c0.26-0.04,0.5,0.15,0.54,0.41l0.58,4.27c0.04,0.26-0.15,0.5-0.41,0.54
			C48.58,37.27,48.6,37.27,48.56,37.27L48.56,37.27z M51,37.27c-0.26,0-0.48-0.21-0.48-0.48v-4.27c0-0.26,0.21-0.48,0.48-0.48
			s0.48,0.21,0.48,0.48v4.27C51.48,37.06,51.26,37.27,51,37.27z M53.44,37.27c-0.04,0-0.02,0-0.06,0c-0.26-0.04-0.45-0.28-0.41-0.54
			l0.58-4.27c0.04-0.26,0.28-0.45,0.54-0.41c0.26,0.04,0.45,0.28,0.41,0.54l-0.58,4.27C53.88,37.09,53.68,37.27,53.44,37.27z
			 M55.87,37.27c-0.04,0-0.08-0.01-0.13-0.02c-0.25-0.07-0.41-0.33-0.34-0.59l1.15-4.27c0.07-0.25,0.33-0.41,0.59-0.34
			c0.25,0.07,0.41,0.33,0.34,0.59l-1.15,4.27C56.28,37.13,56.09,37.27,55.87,37.27L55.87,37.27z M58.31,37.27
			c-0.06,0-0.12-0.01-0.18-0.04c-0.24-0.1-0.36-0.38-0.26-0.62l1.73-4.27c0.1-0.24,0.38-0.36,0.62-0.26
			c0.24,0.1,0.36,0.38,0.26,0.62l-1.73,4.27C58.68,37.15,58.5,37.27,58.31,37.27L58.31,37.27z"/>
		<path class="st8" d="M51,43.78c-1.77,0-3.45-0.51-4.75-1.43c-1.09-0.77-1.82-1.77-2.13-2.87h13.76c-0.3,1.1-1.04,2.1-2.13,2.87
			C54.45,43.27,52.77,43.78,51,43.78L51,43.78z"/>
		<path class="st8" d="M51,31.58c1.02,0,1.86-0.83,1.86-1.86s-0.83-1.86-1.86-1.86s-1.86,0.83-1.86,1.86S49.98,31.58,51,31.58z"/>
	</g>
</g>
</svg>
